<svg xmlns="http://www.w3.org/2000/svg" viewBox="0 0 360 367.01"><defs><style>.cls-1{isolation:isolate;}.cls-2{fill:#05aff2;}.cls-3{fill:#3b74aa;stroke:#1d1d1b;}.cls-10,.cls-12,.cls-14,.cls-3,.cls-4,.cls-5,.cls-6,.cls-7,.cls-8,.cls-9{stroke-miterlimit:10;}.cls-14,.cls-3,.cls-6,.cls-9{stroke-width:0.25px;}.cls-4,.cls-6,.cls-7{fill:none;}.cls-10,.cls-12,.cls-4,.cls-5,.cls-6,.cls-7,.cls-8,.cls-9{stroke:#fff;}.cls-4,.cls-5{stroke-width:0.5px;}.cls-10,.cls-11,.cls-5,.cls-8,.cls-9{fill:#fff;}.cls-12,.cls-5,.cls-8,.cls-9{stroke-linecap:round;}.cls-10,.cls-7,.cls-8{stroke-width:0.1px;}.cls-12{fill:#048abf;}.cls-13{fill:#0d0d0d;mix-blend-mode:saturation;}.cls-14{fill:#025373;stroke:#f6f6f6;}.cls-15{font-size:58.6px;fill:#2fabe3;font-family:MSReferenceSansSerif, MS Reference Sans Serif;}.cls-16{letter-spacing:-0.02em;}</style></defs><title>imagotipo</title><g class="cls-1"><g id="Capa_1" data-name="Capa 1"><path class="cls-2" d="M283.3,502.24c-3.72-15.77-13.89-19.89-22.48-34.82-3.16-5.5-10.28-17.88-8-32.3,2.59-16.27,15.93-27.44,22.95-32.49,1.13-6.46,1.72-18-7-28.48-3.65-4.38-7.72-7.11-14.84-11.8a198.11,198.11,0,0,0-31.18-16.67,126.78,126.78,0,0,1-20.58,2.61c-5.28.21-10.44,0-15.83,2.07-1,.36-1.94.56-2.24.24s-.22-.67.39-1.13a23.27,23.27,0,0,1,4.08-2.46c4.84-2.14,18.44-3.64,18.43-3.73s-14.25,2.7-26.34-.15c-22.55-5.3-31-29.42-33-35.18-6.17-17.87-2.32-36.76,5.75-44.68a86.22,86.22,0,0,0,7-7.41,87.07,87.07,0,0,0,8.48-12.5c11.41-17.79,53.64-23.86,59.64-23.15a12.1,12.1,0,0,0,5.45-.46,8.46,8.46,0,0,0,3-1.86c2.39-2.14,12.31-4.14,31.48-.69,9.77,1.76,8.53,2.52,23.32,5.55,11.65,2.4,12.15,1.87,16,3.48,5.88,2.42,7.18,4.63,18.17,12,7.17,4.83,7.07,4.2,9.38,6,16.42,12.9,8.8,34.81,19.08,37a9.54,9.54,0,0,0,3.33,0c16.65-1.4,37.38,9.86,56.61,20.84h0a26.85,26.85,0,0,1,7,1.75c3.67,1.52,10,6.09,10.4,7,9.4,21.57-110,208.33-148.51,191.33" transform="translate(-143.62 -215.33)"/><path class="cls-3" d="M425.31,316.16" transform="translate(-143.62 -215.33)"/><line class="cls-4" x1="139.48" y1="212.2" x2="132.53" y2="212.21"/><polyline class="cls-4" points="148.3 160.99 159.11 172.44 164.15 178.05 164.15 192.86"/><ellipse class="cls-5" cx="149.22" cy="161.45" rx="2.17" ry="2.04"/><polyline class="cls-6" points="171.43 165.45 175.9 169.95 170.03 175.86 164.15 181.77"/><polyline class="cls-7" points="161.69 160.53 169.22 168.92 164.37 173.8 164.36 173.81 168.44 177.67"/><polyline class="cls-4" points="174.87 160.91 182.56 168.65 183.79 169.84 172.4 181.31 172.03 181.74 172.03 192.86"/><path class="cls-8" d="M303.53,375.86a2,2,0,1,1,2,1.61,1.82,1.82,0,0,1-2-1.61" transform="translate(-143.62 -215.33)"/><ellipse class="cls-5" cx="177.34" cy="176.21" rx="2.17" ry="2.04"/><ellipse class="cls-5" cx="175.74" cy="161.35" rx="2.17" ry="2.04"/><path class="cls-9" d="M313.08,380.79a2,2,0,1,1,2,1.6,1.82,1.82,0,0,1-2-1.6" transform="translate(-143.62 -215.33)"/><line class="cls-6" x1="161.88" y1="166.76" x2="157.85" y2="170.82"/><path class="cls-9" d="M303.33,382.09a2,2,0,1,1,2,1.61,1.82,1.82,0,0,1-2-1.61" transform="translate(-143.62 -215.33)"/><polyline class="cls-6" points="146.71 176.61 143.91 180.12 144.87 181.05 156.07 192.33"/><path class="cls-9" d="M288.28,392.48a2,2,0,1,1,2,1.61,1.81,1.81,0,0,1-2-1.61" transform="translate(-143.62 -215.33)"/><polyline class="cls-4" points="129.78 160.85 140.99 172.13 141.39 172.5 144.25 169.62 144.66 170.03 155.86 181.31 156.23 181.74 156.23 192.86"/><ellipse class="cls-5" cx="129.78" cy="161.43" rx="2.17" ry="2.04"/><ellipse class="cls-5" cx="152.78" cy="178.05" rx="2.17" ry="2.04"/><polyline class="cls-7" points="149.2 185.62 145.17 189.68 145.12 189.63 133.92 178.35"/><path class="cls-8" d="M276.15,393.69a1.56,1.56,0,1,1,1.54,1.33,1.45,1.45,0,0,1-1.54-1.33" transform="translate(-143.62 -215.33)"/><path class="cls-6" d="M262.28,408.33" transform="translate(-143.62 -215.33)"/><polyline class="cls-6" points="140.52 160.27 144.63 164.41 143.99 165.03 139.09 169.97"/><path class="cls-9" d="M282.7,376a2,2,0,1,1,2,1.6,1.82,1.82,0,0,1-2-1.6" transform="translate(-143.62 -215.33)"/><line class="cls-7" x1="160.1" y1="182.51" x2="156.07" y2="186.57"/><path class="cls-8" d="M302.17,397.84a1.56,1.56,0,1,1,1.54,1.34,1.45,1.45,0,0,1-1.54-1.34" transform="translate(-143.62 -215.33)"/><line class="cls-7" x1="167.79" y1="187.26" x2="171.82" y2="191.32"/><path class="cls-8" d="M309.86,402.93a1.56,1.56,0,1,1,1.54,1.33,1.45,1.45,0,0,1-1.54-1.33" transform="translate(-143.62 -215.33)"/><path class="cls-6" d="M341.18,385.57" transform="translate(-143.62 -215.33)"/><polyline class="cls-4" points="178.01 186.2 175.47 188.67 172.22 191.94"/><path class="cls-4" d="M318.77,398.65" transform="translate(-143.62 -215.33)"/><ellipse class="cls-5" cx="177.91" cy="185.89" rx="2.17" ry="2.04"/><line class="cls-4" x1="187.52" y1="161.75" x2="181.83" y2="167.29"/><path class="cls-5" d="M328.87,376.77a2.17,2.17,0,1,0,2.17-2,2.1,2.1,0,0,0-2.17,2" transform="translate(-143.62 -215.33)"/><polyline class="cls-7" points="183.59 179.04 181.8 177.06 172.21 186.71"/><path class="cls-8" d="M325.66,394.34a1.56,1.56,0,1,1,1.54,1.33,1.45,1.45,0,0,1-1.54-1.33" transform="translate(-143.62 -215.33)"/><polyline class="cls-6" points="122.48 210.16 128.29 216.01 128.8 215.52 132.24 212.06"/><ellipse class="cls-5" cx="132.53" cy="212.21" rx="2.17" ry="2.04"/><path class="cls-9" d="M264.13,425.5a2,2,0,1,1,2,1.6,1.82,1.82,0,0,1-2-1.6" transform="translate(-143.62 -215.33)"/><polyline class="cls-4" points="112.68 213.99 124.04 202.55 124.04 202.55 127.57 206.19 127.61 206.18 139.41 206.17"/><line class="cls-7" x1="125.38" y1="213.09" x2="117.26" y2="221.26"/><path class="cls-8" d="M259.59,436.49a1.56,1.56,0,1,1,1.55,1.34,1.46,1.46,0,0,1-1.55-1.34" transform="translate(-143.62 -215.33)"/><path class="cls-6" d="M254.45,428.43" transform="translate(-143.62 -215.33)"/><path class="cls-6" d="M246.34,420.26" transform="translate(-143.62 -215.33)"/><line class="cls-4" x1="102.08" y1="195.12" x2="117.52" y2="208.73"/><ellipse class="cls-5" cx="102.08" cy="194.9" rx="2.17" ry="2.04"/><polyline class="cls-4" points="120.08 183.48 114.4 189.21 114.4 189.21 127.43 200.72 127.43 200.72 139.23 200.72"/><ellipse class="cls-5" cx="123.51" cy="197.47" rx="2.17" ry="2.04"/><ellipse class="cls-5" cx="119.68" cy="184.25" rx="2.17" ry="2.04"/><line class="cls-6" x1="114.72" y1="197.17" x2="118.15" y2="193.71"/><path class="cls-9" d="M255.8,413a2,2,0,1,1,2,1.61,1.82,1.82,0,0,1-2-1.61" transform="translate(-143.62 -215.33)"/><line class="cls-7" x1="117.69" y1="203.44" x2="120.53" y2="206.31"/><path class="cls-8" d="M259.76,418.59a1.56,1.56,0,0,1,3.09,0,1.56,1.56,0,0,1-3.09,0" transform="translate(-143.62 -215.33)"/><line class="cls-7" x1="137.3" y1="218.41" x2="129.19" y2="226.58"/><path class="cls-8" d="M271.26,441.91a1.56,1.56,0,1,1,1.55,1.34,1.45,1.45,0,0,1-1.55-1.34" transform="translate(-143.62 -215.33)"/><polyline class="cls-7" points="192.93 175.54 176.83 192.09 176.83 192.09 174.85 190.08"/><path class="cls-8" d="M335.22,390.88a1.56,1.56,0,1,1,1.54,1.33,1.45,1.45,0,0,1-1.54-1.33" transform="translate(-143.62 -215.33)"/><polyline class="cls-6" points="135.81 188.51 144.29 196.42 144.29 196.42 152.02 188.5"/><path class="cls-9" d="M278,404.36a2,2,0,1,1,2,1.61,1.82,1.82,0,0,1-2-1.61" transform="translate(-143.62 -215.33)"/><polyline class="cls-6" points="124.6 178.47 132.68 186.59 132.68 186.59 127.08 192.23 125.22 194.22 130.96 200"/><path class="cls-9" d="M266.24,393.69a2,2,0,1,1,2,1.6,1.82,1.82,0,0,1-2-1.6" transform="translate(-143.62 -215.33)"/><path class="cls-6" d="M256,429.37" transform="translate(-143.62 -215.33)"/><path class="cls-6" d="M247.87,421.25" transform="translate(-143.62 -215.33)"/><line class="cls-6" x1="102.39" y1="205.36" x2="112.46" y2="214.23"/><ellipse class="cls-5" cx="112.68" cy="213.99" rx="2.17" ry="2.04"/><path class="cls-9" d="M244,420.69a2,2,0,1,1,2,1.61,1.82,1.82,0,0,1-2-1.61" transform="translate(-143.62 -215.33)"/><line class="cls-7" x1="107.43" y1="209.91" x2="99.31" y2="218.08"/><path class="cls-8" d="M241.56,433.41a1.56,1.56,0,1,1,1.55,1.34,1.45,1.45,0,0,1-1.55-1.34" transform="translate(-143.62 -215.33)"/><polyline class="cls-7" points="123.04 172.06 125.26 169.82 131.56 176.17 126.94 180.82"/><path class="cls-8" d="M264.91,387.28a1.55,1.55,0,1,1,1.54,1.34,1.44,1.44,0,0,1-1.54-1.34" transform="translate(-143.62 -215.33)"/><polyline class="cls-6" points="102.64 187 111.11 194.9 111.11 194.9 115.22 190.69"/><path class="cls-9" d="M244.28,402.33a2,2,0,1,1,2,1.61,1.82,1.82,0,0,1-2-1.61" transform="translate(-143.62 -215.33)"/><polyline class="cls-7" points="112.14 181.2 107.57 185.8 107.57 185.8 113.87 192.14"/><path class="cls-8" d="M254.25,396.51a1.56,1.56,0,1,1,1.55,1.33,1.45,1.45,0,0,1-1.55-1.33" transform="translate(-143.62 -215.33)"/><polyline class="cls-4" points="118.44 231.54 115.18 228.8 127.15 218.25 127.61 217.9 139.41 217.9"/><ellipse class="cls-5" cx="123.69" cy="221.16" rx="2.17" ry="2.04"/><ellipse class="cls-5" cx="118.35" cy="231.38" rx="2.17" ry="2.04"/><polyline class="cls-6" points="108.79 225.84 112.2 222.38 112.2 222.38 117.37 226.93"/><path class="cls-9" d="M250.44,441.17a2,2,0,1,1,2,1.61,1.82,1.82,0,0,1-2-1.61" transform="translate(-143.62 -215.33)"/><line class="cls-6" x1="119.63" y1="224.58" x2="129.19" y2="233.58"/><path class="cls-9" d="M271.84,449.23a1.56,1.56,0,1,1,1.54,1.33,1.45,1.45,0,0,1-1.54-1.33" transform="translate(-143.62 -215.33)"/><line class="cls-7" x1="133.76" y1="221.76" x2="136.61" y2="224.63"/><path class="cls-8" d="M278.68,440a1.56,1.56,0,1,1,1.55,1.33,1.45,1.45,0,0,1-1.55-1.33" transform="translate(-143.62 -215.33)"/><line class="cls-7" x1="106.6" y1="218.9" x2="111.22" y2="223.55"/><path class="cls-8" d="M248.68,434.24a1.56,1.56,0,1,1,1.54,1.33,1.45,1.45,0,0,1-1.54-1.33" transform="translate(-143.62 -215.33)"/><polyline class="cls-7" points="136.01 234.18 130.51 228.57 130.51 228.57 127.39 231.72"/><path class="cls-8" d="M278.68,449.64a1.56,1.56,0,1,1,1.55,1.34,1.45,1.45,0,0,1-1.55-1.34" transform="translate(-143.62 -215.33)"/><line class="cls-6" x1="117.52" y1="239.05" x2="125.86" y2="230.65"/><path class="cls-9" d="M259.59,454.38a1.56,1.56,0,1,1,1.55,1.34,1.46,1.46,0,0,1-1.55-1.34" transform="translate(-143.62 -215.33)"/><line class="cls-7" x1="114.77" y1="224.8" x2="106.66" y2="232.97"/><line class="cls-7" x1="181.1" y1="187.88" x2="185.13" y2="191.94"/><path class="cls-8" d="M327.2,407.27a1.56,1.56,0,1,1,1.55,1.34,1.45,1.45,0,0,1-1.55-1.34" transform="translate(-143.62 -215.33)"/><line class="cls-7" x1="182.04" y1="172.18" x2="184.06" y2="174.21"/><path class="cls-8" d="M326.13,389.54a1.56,1.56,0,1,1,1.54,1.34,1.45,1.45,0,0,1-1.54-1.34" transform="translate(-143.62 -215.33)"/><line class="cls-7" x1="146.65" y1="172.19" x2="141.21" y2="177.67"/><path class="cls-8" d="M283.28,393a1.56,1.56,0,1,1,1.55,1.34,1.45,1.45,0,0,1-1.55-1.34" transform="translate(-143.62 -215.33)"/><polyline class="cls-7" points="193.57 163.81 188.68 168.74 188.64 168.74 184.66 164.73"/><path class="cls-8" d="M335.65,379.14a1.55,1.55,0,1,1,1.54,1.34,1.44,1.44,0,0,1-1.54-1.34" transform="translate(-143.62 -215.33)"/><line class="cls-7" x1="183.79" y1="184.87" x2="185.8" y2="186.9"/><path class="cls-8" d="M327.88,402.23a1.55,1.55,0,1,1,1.54,1.34,1.45,1.45,0,0,1-1.54-1.34" transform="translate(-143.62 -215.33)"/><polyline class="cls-4" points="148.5 258.5 159.31 247.06 164.35 241.44 164.35 226.64"/><ellipse class="cls-5" cx="149.41" cy="258.04" rx="2.17" ry="2.04"/><polyline class="cls-6" points="171.62 254.04 176.09 249.54 170.22 243.63 164.35 237.72"/><polyline class="cls-7" points="161.88 258.97 169.42 250.57 164.57 245.7 164.56 245.69 168.63 241.83"/><polyline class="cls-4" points="175.07 258.58 182.75 250.84 183.99 249.65 172.59 238.18 172.23 237.75 172.23 226.64"/><path class="cls-8" d="M303.73,474.3a2,2,0,1,0,2-1.6,1.82,1.82,0,0,0-2,1.6" transform="translate(-143.62 -215.33)"/><ellipse class="cls-5" cx="177.53" cy="243.29" rx="2.17" ry="2.04"/><ellipse class="cls-5" cx="175.94" cy="258.14" rx="2.17" ry="2.04"/><path class="cls-9" d="M313.27,469.38a2,2,0,1,0,2-1.61,1.82,1.82,0,0,0-2,1.61" transform="translate(-143.62 -215.33)"/><line class="cls-6" x1="162.08" y1="252.74" x2="158.05" y2="248.68"/><path class="cls-9" d="M303.53,468.07a2,2,0,1,0,2-1.61,1.82,1.82,0,0,0-2,1.61" transform="translate(-143.62 -215.33)"/><polyline class="cls-6" points="146.91 242.88 144.11 239.38 145.06 238.45 156.26 227.17"/><path class="cls-9" d="M288.47,457.68a2,2,0,1,0,2-1.61,1.82,1.82,0,0,0-2,1.61" transform="translate(-143.62 -215.33)"/><polyline class="cls-4" points="129.98 258.65 141.18 247.37 141.58 247 144.44 249.87 144.85 249.47 156.06 238.18 156.42 237.75 156.42 226.64"/><ellipse class="cls-5" cx="152.97" cy="241.44" rx="2.17" ry="2.04"/><polyline class="cls-7" points="149.39 233.88 145.36 229.82 145.32 229.86 134.11 241.14"/><path class="cls-8" d="M276.34,456.48a1.56,1.56,0,1,0,1.55-1.34,1.45,1.45,0,0,0-1.55,1.34" transform="translate(-143.62 -215.33)"/><polyline class="cls-6" points="140.71 259.23 144.83 255.08 144.19 254.46 139.28 249.53"/><path class="cls-9" d="M282.9,474.18a2,2,0,1,0,2-1.61,1.82,1.82,0,0,0-2,1.61" transform="translate(-143.62 -215.33)"/><line class="cls-7" x1="160.29" y1="236.99" x2="156.26" y2="232.93"/><path class="cls-8" d="M302.36,452.32a1.56,1.56,0,1,0,1.55-1.34,1.46,1.46,0,0,0-1.55,1.34" transform="translate(-143.62 -215.33)"/><line class="cls-7" x1="167.98" y1="232.24" x2="172.01" y2="228.18"/><path class="cls-8" d="M310.06,447.24a1.55,1.55,0,1,0,1.54-1.34,1.44,1.44,0,0,0-1.54,1.34" transform="translate(-143.62 -215.33)"/><path class="cls-6" d="M341.37,464.6" transform="translate(-143.62 -215.33)"/><polyline class="cls-4" points="178.21 233.3 175.66 230.82 172.42 227.56"/><path class="cls-4" d="M319,451.51" transform="translate(-143.62 -215.33)"/><ellipse class="cls-5" cx="178.11" cy="233.61" rx="2.17" ry="2.04"/><line class="cls-4" x1="187.72" y1="257.75" x2="182.03" y2="252.2"/><path class="cls-5" d="M329.07,473.39a2.17,2.17,0,1,1,2.17,2,2.1,2.1,0,0,1-2.17-2" transform="translate(-143.62 -215.33)"/><polyline class="cls-7" points="183.78 240.45 182 242.44 172.41 232.78"/><path class="cls-8" d="M325.85,455.83a1.56,1.56,0,1,0,1.55-1.34,1.46,1.46,0,0,0-1.55,1.34" transform="translate(-143.62 -215.33)"/><line class="cls-7" x1="177.03" y1="227.41" x2="175.05" y2="229.41"/><line class="cls-7" x1="193.12" y1="243.95" x2="177.03" y2="227.41"/><path class="cls-8" d="M335.41,459.29A1.56,1.56,0,1,0,337,458a1.45,1.45,0,0,0-1.55,1.34" transform="translate(-143.62 -215.33)"/><polyline class="cls-6" points="136.01 230.98 144.48 223.08 152.21 231"/><path class="cls-9" d="M278.17,445.8a2,2,0,1,0,2-1.61,1.82,1.82,0,0,0-2,1.61" transform="translate(-143.62 -215.33)"/><line class="cls-7" x1="181.3" y1="231.61" x2="185.33" y2="227.56"/><line class="cls-7" x1="182.24" y1="247.32" x2="184.25" y2="245.29"/><path class="cls-8" d="M326.32,460.62a1.56,1.56,0,1,0,1.55-1.33,1.46,1.46,0,0,0-1.55,1.33" transform="translate(-143.62 -215.33)"/><line class="cls-7" x1="146.84" y1="247.3" x2="141.4" y2="241.83"/><path class="cls-8" d="M283.48,457.16a1.56,1.56,0,1,0,1.54-1.33,1.45,1.45,0,0,0-1.54,1.33" transform="translate(-143.62 -215.33)"/><polyline class="cls-7" points="193.77 255.69 188.87 250.76 188.83 250.76 184.85 254.76"/><path class="cls-8" d="M335.84,471a1.56,1.56,0,1,0,1.55-1.34,1.45,1.45,0,0,0-1.55,1.34" transform="translate(-143.62 -215.33)"/><line class="cls-7" x1="183.98" y1="234.62" x2="186" y2="232.6"/><path class="cls-8" d="M328.07,447.93a1.56,1.56,0,1,0,1.55-1.34,1.45,1.45,0,0,0-1.55,1.34" transform="translate(-143.62 -215.33)"/><path class="cls-8" d="M248.9,448.3a1.55,1.55,0,1,1,1.54,1.34,1.44,1.44,0,0,1-1.54-1.34" transform="translate(-143.62 -215.33)"/><ellipse class="cls-5" cx="129.98" cy="258.65" rx="2.17" ry="2.04"/><path class="cls-6" d="M353.34,408.59" transform="translate(-143.62 -215.33)"/><polyline class="cls-6" points="205.91 210.42 200.1 216.27 199.59 215.77 196.15 212.31"/><path class="cls-5" d="M339.47,429.84" transform="translate(-143.62 -215.33)"/><path class="cls-9" d="M351.49,425.75a2,2,0,1,0-2,1.61,1.81,1.81,0,0,0,2-1.61" transform="translate(-143.62 -215.33)"/><polyline class="cls-4" points="215.71 214.25 202.2 205.01 202.2 205.01 200.81 206.44 200.78 206.44 188.98 206.42"/><line class="cls-7" x1="203.01" y1="213.34" x2="211.13" y2="221.51"/><path class="cls-8" d="M356,436.74a1.56,1.56,0,1,0-1.55,1.34,1.45,1.45,0,0,0,1.55-1.34" transform="translate(-143.62 -215.33)"/><path class="cls-6" d="M361.17,428.68" transform="translate(-143.62 -215.33)"/><path class="cls-6" d="M369.28,420.51" transform="translate(-143.62 -215.33)"/><line class="cls-4" x1="226.31" y1="195.37" x2="210.87" y2="208.98"/><ellipse class="cls-5" cx="226.31" cy="195.15" rx="2.17" ry="2.04"/><polyline class="cls-4" points="208.3 183.74 213.99 189.46 213.99 189.46 200.96 200.98 200.96 200.98 189.16 200.98"/><ellipse class="cls-5" cx="204.87" cy="197.73" rx="2.17" ry="2.04"/><ellipse class="cls-5" cx="208.71" cy="184.5" rx="2.17" ry="2.04"/><line class="cls-6" x1="213.67" y1="197.42" x2="210.24" y2="193.96"/><path class="cls-9" d="M359.83,413.27a2,2,0,1,0-2,1.61,1.82,1.82,0,0,0,2-1.61" transform="translate(-143.62 -215.33)"/><line class="cls-7" x1="210.7" y1="203.69" x2="207.85" y2="206.56"/><path class="cls-8" d="M355.86,418.85a1.56,1.56,0,1,0-1.54,1.33,1.45,1.45,0,0,0,1.54-1.33" transform="translate(-143.62 -215.33)"/><line class="cls-7" x1="191.09" y1="218.66" x2="199.2" y2="226.83"/><path class="cls-8" d="M344.36,442.17a1.56,1.56,0,1,0-1.54,1.33,1.45,1.45,0,0,0,1.54-1.33" transform="translate(-143.62 -215.33)"/><polyline class="cls-6" points="203.79 178.72 195.71 186.85 201.31 192.49 201.31 192.49 193.2 200.66"/><path class="cls-9" d="M349.38,393.94a2,2,0,1,0-2,1.61,1.82,1.82,0,0,0,2-1.61" transform="translate(-143.62 -215.33)"/><path class="cls-6" d="M359.67,429.63" transform="translate(-143.62 -215.33)"/><path class="cls-6" d="M367.75,421.5" transform="translate(-143.62 -215.33)"/><line class="cls-6" x1="226" y1="205.61" x2="215.93" y2="214.49"/><ellipse class="cls-5" cx="215.71" cy="214.25" rx="2.17" ry="2.04"/><path class="cls-9" d="M371.58,421a2,2,0,1,0-2,1.6,1.82,1.82,0,0,0,2-1.6" transform="translate(-143.62 -215.33)"/><line class="cls-7" x1="220.96" y1="210.16" x2="229.08" y2="218.33"/><path class="cls-8" d="M374.06,433.67a1.56,1.56,0,1,0-1.54,1.33,1.45,1.45,0,0,0,1.54-1.33" transform="translate(-143.62 -215.33)"/><line class="cls-7" x1="196.83" y1="176.42" x2="201.45" y2="181.08"/><polyline class="cls-7" points="205.35 172.32 203.13 170.08 196.83 176.42"/><path class="cls-8" d="M350.72,387.54a1.56,1.56,0,1,0-1.55,1.33,1.46,1.46,0,0,0,1.55-1.33" transform="translate(-143.62 -215.33)"/><polyline class="cls-6" points="225.75 187.25 217.28 195.16 217.28 195.16 213.17 190.95"/><path class="cls-9" d="M371.34,402.59a2,2,0,1,0-2,1.6,1.82,1.82,0,0,0,2-1.6" transform="translate(-143.62 -215.33)"/><polyline class="cls-7" points="216.25 181.45 220.82 186.05 220.82 186.05 214.51 192.4"/><path class="cls-8" d="M361.37,396.76a1.56,1.56,0,1,0-1.54,1.34,1.44,1.44,0,0,0,1.54-1.34" transform="translate(-143.62 -215.33)"/><polyline class="cls-4" points="209.95 231.8 213.21 229.06 201.24 218.5 200.78 218.16 188.98 218.16"/><ellipse class="cls-5" cx="204.7" cy="221.41" rx="2.17" ry="2.04"/><ellipse class="cls-5" cx="210.08" cy="231.8" rx="2.17" ry="2.04"/><polyline class="cls-6" points="219.6 226.09 216.18 222.63 216.18 222.63 211.02 227.19"/><path class="cls-9" d="M365.18,441.43a2,2,0,1,0-2,1.6,1.82,1.82,0,0,0,2-1.6" transform="translate(-143.62 -215.33)"/><line class="cls-6" x1="208.76" y1="224.83" x2="199.2" y2="233.84"/><path class="cls-9" d="M340.7,449.48a1.55,1.55,0,0,0,3.08,0" transform="translate(-143.62 -215.33)"/><path class="cls-9" d="M343.78,449.48a1.56,1.56,0,0,0-3.08,0" transform="translate(-143.62 -215.33)"/><line class="cls-7" x1="221.79" y1="219.16" x2="217.17" y2="223.81"/><path class="cls-8" d="M367,434.49a1.56,1.56,0,1,0-1.55,1.34,1.45,1.45,0,0,0,1.55-1.34" transform="translate(-143.62 -215.33)"/><polyline class="cls-7" points="193.32 233.47 197.88 228.83 197.88 228.83 201 231.97"/><line class="cls-6" x1="210.87" y1="239.31" x2="202.53" y2="230.91"/><path class="cls-9" d="M356,454.64a1.56,1.56,0,1,0-1.55,1.34,1.45,1.45,0,0,0,1.55-1.34" transform="translate(-143.62 -215.33)"/><line class="cls-10" x1="213.61" y1="225.05" x2="221.63" y2="233.12"/><path class="cls-8" d="M366.73,448.46a1.56,1.56,0,1,0-1.55,1.33,1.45,1.45,0,0,0,1.55-1.33" transform="translate(-143.62 -215.33)"/><line class="cls-4" x1="195.35" y1="212.03" x2="188.98" y2="212.02"/><ellipse class="cls-5" cx="195.14" cy="212.21" rx="2.17" ry="2.04"/><path class="cls-8" d="M327.15,442.89a1.56,1.56,0,1,0,1.54-1.34,1.45,1.45,0,0,0-1.54,1.34" transform="translate(-143.62 -215.33)"/><path class="cls-8" d="M335.2,448.63a1.56,1.56,0,1,0,1.54-1.33,1.45,1.45,0,0,0-1.54,1.33" transform="translate(-143.62 -215.33)"/><line class="cls-6" x1="191.89" y1="190.89" x2="197.49" y2="196.53"/><path class="cls-9" d="M337.47,406.22a2,2,0,1,0-2,1.61,1.81,1.81,0,0,0,2-1.61" transform="translate(-143.62 -215.33)"/><line class="cls-6" x1="127.28" y1="244.82" x2="135.01" y2="252.74"/><path class="cls-9" d="M269,460.15a2,2,0,1,0,2-1.6,1.82,1.82,0,0,0-2,1.6" transform="translate(-143.62 -215.33)"/><line class="cls-7" x1="137.11" y1="243.8" x2="131.56" y2="248.96"/><path class="cls-8" d="M279.18,459.29a1.56,1.56,0,1,0,1.54-1.34,1.44,1.44,0,0,0-1.54,1.34" transform="translate(-143.62 -215.33)"/><line class="cls-7" x1="190.72" y1="252.43" x2="194.75" y2="248.37"/><path class="cls-8" d="M336.82,463.71a1.56,1.56,0,1,0,1.55-1.34,1.46,1.46,0,0,0-1.55,1.34" transform="translate(-143.62 -215.33)"/><polyline class="cls-6" points="205.88 234.55 198.15 241.83 198.13 241.81 193.56 237.21"/><path class="cls-8" d="M335.63,452.53a1.56,1.56,0,1,0,1.54-1.34,1.45,1.45,0,0,0-1.54,1.34" transform="translate(-143.62 -215.33)"/><line class="cls-7" x1="201.13" y1="238.93" x2="209.25" y2="247.09"/><path class="cls-8" d="M354.41,462.43a1.56,1.56,0,1,0-1.55,1.33,1.45,1.45,0,0,0,1.55-1.33" transform="translate(-143.62 -215.33)"/><line class="cls-7" x1="202.49" y1="248.44" x2="206.52" y2="244.38"/><path class="cls-8" d="M344.56,463.77a1.56,1.56,0,1,0,1.54-1.33,1.45,1.45,0,0,0-1.54,1.33" transform="translate(-143.62 -215.33)"/><line class="cls-7" x1="129.36" y1="247.28" x2="123.81" y2="252.44"/><path class="cls-8" d="M265.66,467.77a1.56,1.56,0,1,0,1.54-1.34,1.45,1.45,0,0,0-1.54,1.34" transform="translate(-143.62 -215.33)"/><polyline class="cls-7" points="192.68 250.38 199.11 256.89 199.11 256.89 203.17 252.83"/><path class="cls-8" d="M345.24,468.06a1.56,1.56,0,1,0,1.54-1.34,1.44,1.44,0,0,0-1.54,1.34" transform="translate(-143.62 -215.33)"/><line class="cls-7" x1="134.79" y1="232.68" x2="119.63" y2="247.95"/><path class="cls-8" d="M261.71,463.28a1.55,1.55,0,1,0,1.54-1.34,1.45,1.45,0,0,0-1.54,1.34" transform="translate(-143.62 -215.33)"/><line class="cls-7" x1="204.7" y1="246.18" x2="212.81" y2="254.35"/><path class="cls-8" d="M358,469.68a1.56,1.56,0,1,0-1.54,1.34,1.45,1.45,0,0,0,1.54-1.34" transform="translate(-143.62 -215.33)"/><line class="cls-6" x1="212.62" y1="175.24" x2="198.31" y2="189.63"/><path class="cls-9" d="M358.2,390.57a2,2,0,1,0-2,1.61,1.82,1.82,0,0,0,2-1.61" transform="translate(-143.62 -215.33)"/><path class="cls-11" d="M300.46,315.38a12.61,12.61,0,0,1-5.8,6.55,21.92,21.92,0,0,1-13.19,3,14.12,14.12,0,0,1-12.29-9.63,9.8,9.8,0,0,1,.59-6.43,12.4,12.4,0,0,1,5-5.63,19.14,19.14,0,0,1,13.17-2.4C296.5,302.5,302.73,310.3,300.46,315.38Z" transform="translate(-143.62 -215.33)"/><ellipse class="cls-12" cx="141.29" cy="97.43" rx="8.25" ry="6.3"/><polyline class="cls-13" points="188.17 207.12 188.17 205.78 173.21 205.78 173.21 201.41 188.17 201.41 188.17 200.06 173.21 200.06 173.21 193.75 171.25 193.75 171.25 200.06 165.28 200.06 165.28 193.75 163.32 193.75 163.32 200.06 148.34 200.06 148.34 201.41 163.32 201.41 163.32 205.78 148.34 205.78 148.34 207.12 163.32 207.12 163.32 211.49 148.34 211.49 148.34 212.83 163.32 212.83 163.32 217.2 148.34 217.2 148.34 218.55 163.32 218.55 163.32 225.76 165.28 225.76 165.28 218.55 171.25 218.55 171.25 225.76 173.21 225.76 173.21 218.55 188.17 218.55 188.17 217.2 173.21 217.2 173.21 212.83 188.17 212.83 188.17 211.49 173.21 211.49 173.21 207.12"/><polyline class="cls-13" points="155.19 207.12 155.19 211.49 140.21 211.49 140.21 212.83 155.19 212.83 155.19 217.2 140.21 217.2 140.21 218.55 155.19 218.55 155.19 225.76 157.15 225.76 157.15 218.55 163.12 218.55 163.12 225.76 165.08 225.76 165.08 218.55 180.03 218.55 180.03 217.2 165.08 217.2 165.08 212.83 180.03 212.83 180.03 211.49 165.08 211.49 165.08 207.12 180.03 207.12 180.03 205.78 165.08 205.78 165.08 201.41 180.03 201.41 180.03 200.06 165.08 200.06 165.08 193.75 163.12 193.75 163.12 200.06 157.15 200.06 157.15 193.75 155.19 193.75 155.19 200.06 140.21 200.06 140.21 201.41 155.19 201.41 155.19 205.78 140.21 205.78 140.21 207.12"/><path class="cls-14" d="M293,414.56v21.88c0,1.41,1.5,2.56,3.36,2.56h25.51c1.85,0,3.35-1.15,3.35-2.56V414.56c0-1.42-1.5-2.57-3.35-2.57H296.32C294.46,412,293,413.14,293,414.56Z" transform="translate(-143.62 -215.33)"/><text class="cls-15" transform="translate(0 354.7)">Sunqu<tspan class="cls-16" x="187.82" y="0">P</tspan><tspan x="221.73" y="0">acha</tspan></text></g></g></svg>