<svg width="663" height="712" viewBox="0 0 663 712" fill="none" xmlns="http://www.w3.org/2000/svg">
<path d="M253.966 41.1939C253.966 41.1939 110.707 129.403 59.7165 152.062C8.72587 174.722 4.679 155.299 1.4415 149.635C-1.796 143.97 5.48837 117.264 22.4852 117.264C22.4852 117.264 10.3446 94.605 24.104 75.1828C37.8634 55.7605 106.66 28.2457 173.838 50.0957C173.838 50.0957 168.173 25.0087 203.785 14.4883C239.398 3.96794 231.304 28.2457 231.304 28.2457C231.304 28.2457 264.488 17.7253 258.013 23.3902C258.013 23.3902 311.432 -6.55243 308.195 1.54017C304.957 9.63276 253.966 41.1939 253.966 41.1939Z" fill="#CCE5CF"/>
<path d="M169.792 286.399C169.792 286.399 87.2354 339.811 60.526 347.094C33.8166 354.377 31.3885 344.666 37.8635 331.718C44.3385 318.77 65.3823 322.007 65.3823 322.007C65.3823 322.007 59.7166 303.394 72.6666 299.348C85.6166 295.301 99.376 302.585 99.376 302.585C99.376 302.585 78.3323 271.023 117.992 257.266C157.651 243.509 156.842 285.59 156.842 285.59C156.842 285.59 190.026 273.451 169.792 286.399Z" fill="#CCE5CF"/>
<path d="M580.145 260.503C580.145 260.503 557.482 273.451 542.104 276.688C526.726 279.925 525.107 249.173 543.723 234.607C562.339 220.04 598.761 240.272 598.761 240.272C598.761 240.272 601.998 220.04 614.139 221.659C626.279 223.277 624.661 228.942 624.661 228.942C624.661 228.942 639.229 213.566 644.895 217.612C650.561 221.659 643.276 227.323 643.276 227.323C643.276 227.323 675.651 212.757 656.226 224.896C636.801 237.035 580.145 260.503 580.145 260.503Z" fill="#CCE5CF"/>
<path d="M375.227 215.889C363.774 200.513 401.58 180.581 422.835 174.673C436.003 171.015 452.676 174.244 457.856 178.922C459.629 180.54 468.313 190.251 470.758 196.046C473.412 202.406 475.662 232.414 463.247 233.798C446.234 235.699 386.704 231.24 375.227 215.889Z" fill="#992C29"/>
<path d="M391.884 217.256C385.312 206.736 398.06 187.645 415.356 180.904C435.437 173.046 451.843 179.051 454.052 185.558C456.262 192.064 443.611 204.915 430.783 212.312C417.954 219.708 394.798 221.958 391.884 217.256Z" fill="#F3E7D9"/>
<path d="M425.327 205.376C436.618 194.338 440.228 194.807 439.087 187.176C437.274 174.851 408.039 189.733 401.945 192.274C395.85 194.816 386.461 214.375 394.417 223.949C402.373 233.522 414.037 216.415 425.327 205.376Z" fill="#273252"/>
<path d="M362.01 209.52C362.01 209.52 345.822 206.283 338.109 221.052C334.621 227.728 325.491 250.185 317.397 267.366C307.685 288.091 299.421 303.782 304.382 309.447C318.142 325.025 323.273 330.795 331.278 316.73C339.283 302.665 398.845 207.634 362.01 209.52Z" fill="#273252"/>
<path d="M362.01 209.52C362.01 209.52 345.822 206.283 338.109 221.052C330.396 235.821 321.881 262.243 321.881 262.243L330.857 255.227L339.825 301.97C339.825 301.97 398.844 207.634 362.01 209.52Z" fill="#1D2538"/>
<path d="M264.035 263.125C264.035 263.125 255.132 271.282 261.259 280.411C269.013 291.902 284.124 315.881 289.862 325.665C295.698 335.61 317.381 342.522 326.365 322.428C332.071 309.698 302.675 278.307 302.675 278.307C302.675 278.307 305.758 262.429 290.931 258.027C276.103 253.624 264.035 263.125 264.035 263.125Z" fill="#C94039"/>
<path d="M264.035 263.125C264.035 263.125 255.132 271.282 261.259 280.411C269.013 291.902 284.124 315.881 289.862 325.665C295.698 335.611 317.381 342.522 326.365 322.428C302.351 337.156 298.846 318.584 298.846 318.584C298.846 318.584 281.849 302.9 275.148 287.832C268.729 281.803 264.035 263.125 264.035 263.125Z" fill="#992C29"/>
<path d="M270.227 261.636C270.227 261.636 261.049 265.262 262.942 269.421C264.836 273.581 265.824 276.146 273.829 275.183C281.833 274.22 287.92 272.626 290.162 268.466C292.404 264.307 291.781 260.778 288.875 259.5C285.969 258.221 264.545 263.02 264.545 263.02" fill="#F3E7D9"/>
<path d="M268.729 281.163C270.008 281.163 280.255 287.241 288.583 287.888C292.412 288.18 284.723 290.446 275.82 290.446C266.916 290.446 268.729 281.163 268.729 281.163Z" fill="#992C29"/>
<path d="M284.31 265.901C281.113 268.782 266.382 271.023 264.14 267.519C261.898 264.015 255.496 246.705 257.414 238.386C259.333 230.067 267.022 219.174 275.666 218.535C284.31 217.896 302.885 234.866 293.917 249.586C293.917 249.57 287.515 263.02 284.31 265.901Z" fill="#F5894E"/>
<path d="M264.116 265.245L248.876 262.575C244.829 261.871 243.955 258.091 246.876 254.134L271.271 221.052C274.193 217.094 279.818 214.456 283.841 215.16L299.081 217.839C303.128 218.543 303.994 222.322 301.08 226.28L276.678 259.362C273.764 263.319 268.139 265.949 264.116 265.245Z" fill="#F3E7D9"/>
<path d="M264.189 263.999L250.43 261.571C246.812 260.932 246.002 257.525 248.633 253.964L272.849 221.545C273.945 219.976 275.48 218.766 277.261 218.066C279.042 217.367 280.991 217.209 282.861 217.612L297.212 219.328C300.838 219.959 301.647 223.374 299.016 226.927L275.545 258.658C272.882 262.259 267.807 264.63 264.189 263.999Z" fill="#1D2538"/>
<path d="M274.711 213.08C274.711 213.08 267.022 211.462 265.743 215.638C264.464 219.814 267.362 225.559 266.706 227.485C266.051 229.411 275.027 226.207 275.666 222.039C276.305 217.871 278.248 214.035 274.711 213.08Z" fill="#F5894E"/>
<path d="M267.661 222.039C267.661 222.039 261.898 218.802 259.341 222.363C256.783 225.923 259.341 229.403 260.296 231.645C261.251 233.887 262.861 235.805 265.419 232.924C267.977 230.043 270.542 225.559 267.661 222.039Z" fill="#F5894E"/>
<path d="M261.85 230.366C259.511 229.727 257.698 229.727 255.885 231.006C254.072 232.284 255.076 237.407 255.626 241.251C256.176 245.095 260.288 244.132 261.332 239.972C262.376 235.813 264.181 231.006 261.85 230.366Z" fill="#F5894E"/>
<path d="M256.46 237.091C256.46 237.091 250.373 238.37 250.373 242.529C250.373 246.689 253.254 248.291 255.173 244.771C257.091 241.251 258.378 240.272 256.46 237.091Z" fill="#F5894E"/>
<path d="M290.72 248.825C294.427 250.582 299.259 241.995 303.095 229.622C304.423 225.341 295.884 228.003 293.763 231.475C289.433 238.58 287.013 247.069 290.72 248.825Z" fill="#F5894E"/>
<path d="M496.067 638.719L475.574 640.855C455.08 643.024 440.576 635.546 433.308 655.422C425.409 676.98 444.639 675.572 457.007 675.653C472.158 675.718 471.729 673.484 489.025 673.484C506.322 673.484 499.912 669.859 500.551 655.389C501.19 640.92 497.135 639.868 497.135 639.868L496.067 638.719Z" fill="#EE5D4F"/>
<path d="M500.68 653.439C500.065 668.426 505.537 670.563 489.025 670.563C472.514 670.563 469.382 671.421 456.367 672.06C444.534 672.643 425.417 672.173 434.595 652.694C443.773 633.216 457.257 640.701 476.82 638.46L496.399 636.21C496.399 636.21 501.295 638.427 500.68 653.439Z" fill="#121721"/>
<path d="M483.263 354.474L495.104 514.869C495.104 514.869 495.428 560.01 496.723 581.14C498.018 602.27 505.69 635.562 503.772 642.603C501.854 649.643 486.46 649.652 474.926 652.185C463.392 654.718 453.793 640.661 451.875 640.046C449.957 639.431 423.693 400.578 420.496 385.21C417.299 369.842 418.569 360.236 454.433 349.352C490.296 338.467 483.263 354.474 483.263 354.474Z" fill="#1D2538"/>
<path d="M483.263 354.474L482.624 404.422L469.172 437.075L470.135 452.451L449.026 445.718C449.026 445.718 423.725 400.578 420.528 385.21C417.331 369.842 418.602 360.236 454.465 349.352C490.329 338.467 483.263 354.474 483.263 354.474Z" fill="#273252"/>
<path d="M417.938 405.7C451.535 405.7 478.771 392.226 478.771 375.604C478.771 358.982 451.535 345.508 417.938 345.508C384.341 345.508 357.105 358.982 357.105 375.604C357.105 392.226 384.341 405.7 417.938 405.7Z" fill="#273252"/>
<path d="M421.394 198.263C421.394 198.263 397.307 195.625 373.64 202.544C361.961 205.951 345.992 228.942 345.992 257.266C345.992 285.59 354.215 364.461 354.215 364.461L449.956 361.183C449.956 361.183 451 202.236 421.394 198.263Z" fill="#F7BC4B"/>
<path d="M406.606 323.625L376.797 274.26L373.624 202.576C361.961 205.951 345.992 228.942 345.992 257.266C345.992 285.59 354.215 364.46 354.215 364.46C354.215 364.46 384.64 374.609 401.928 374.609C419.216 374.609 449.956 361.167 449.956 361.167C449.956 361.167 416.772 341.745 401.523 334.065C390.645 328.602 391.358 317.96 391.358 317.96L406.606 323.625Z" fill="#CE9436"/>
<path d="M412.499 199.202C412.499 208.872 404.834 228.06 395.72 228.375C386.607 228.691 377.534 216.512 377.534 206.841C377.534 197.17 386.728 195.034 395.842 194.702C404.955 194.37 412.499 191.627 412.499 199.202Z" fill="#F5894E"/>
<path d="M380.423 198.603C367.91 212.101 386.704 260.179 394.798 258.302C402.891 256.424 423.935 198.036 409.658 194.225" stroke="#992C29" stroke-miterlimit="10"/>
<path d="M397.838 268.715C399.417 268.308 400.117 265.733 399.403 262.962C398.689 260.192 396.831 258.276 395.252 258.683C393.674 259.089 392.973 261.665 393.688 264.435C394.402 267.205 396.26 269.121 397.838 268.715Z" fill="#29ABE2"/>
<path d="M368.63 365.707C368.63 365.707 369.594 370.19 367.012 372.424C364.43 374.657 349.084 373.71 343.961 373.387C338.837 373.063 341.249 368.531 341.249 368.531C341.249 368.531 369.27 365.359 368.63 365.707Z" fill="#F3E7D9"/>
<path d="M373.543 204.009C350.784 209.827 356.328 208.864 351.771 209.981C348.68 210.75 342.439 226.927 341.946 233.887C338.53 272.302 342.374 282.118 341.525 291.085C340.715 299.655 346.033 320.073 342.747 330.188C339.461 340.304 337.98 363.643 341.266 368.523C344.552 373.403 370.873 366.637 370.873 366.637L374.766 328.521C374.766 328.521 363.434 299.598 363.378 277.449C363.378 268.547 363.127 253.827 366.073 240.506C370.452 220.631 375.017 203.628 373.543 204.009Z" fill="#992C29"/>
<path d="M373.212 200.488C366.178 200.844 363.896 203.119 360.213 206.323C356.53 209.528 354.976 215.225 352.516 229.452C350.055 243.679 363.297 273.799 363.297 273.799C363.297 273.799 363.847 249.699 367.133 237.091C370.419 224.483 380.229 200.132 373.212 200.488Z" fill="#F3E7D9"/>
<path d="M426.25 267.665C426.25 267.665 427.942 294.031 445.902 295.803C445.902 295.803 435.509 285.186 426.25 267.665Z" fill="#C94039"/>
<path d="M371.925 167.746L380.375 206.089C380.375 206.089 384.721 213.259 397.93 211.146C411.139 209.034 412.669 199.623 412.669 199.623L403.701 156.659L371.925 167.746Z" fill="#F5894E"/>
<path d="M370.517 159.621C370.517 159.621 376.992 170.53 385.547 184.279L400.844 197.81L404.713 221.505C413.041 210.62 412.402 197.599 412.402 197.599L401.742 148.583L370.517 159.621Z" fill="#CC6D3D"/>
<path d="M436.319 369.753C433.583 370.732 440.365 378.946 440.365 378.946C440.365 378.946 481.547 377.627 486.727 370.959L485.197 362.47C485.197 362.47 438.504 368.984 436.319 369.753Z" fill="#F3E7D9"/>
<path d="M420.301 202.309C414.635 208.994 410.435 249.748 411.171 274.406C411.908 299.064 424.405 332.301 424.931 347.822C425.457 363.344 430.961 368.183 434.06 371.015C437.16 373.848 481.757 368.288 481.757 368.288C481.757 368.288 501.797 369.429 483.732 334.21C472.562 312.449 483.538 227.388 461.879 204.284C453.817 195.665 425.991 195.633 420.301 202.309Z" fill="#992C29"/>
<path d="M419.079 201.371C413.413 208.047 410.435 249.748 411.171 274.406C411.908 299.064 424.404 332.301 424.93 347.822C425.457 363.344 430.96 368.183 434.06 371.015C436.116 372.909 458.503 347.547 458.503 347.547L468.71 326.053L448.928 201.427C448.928 201.427 445.691 196.709 436.084 196.992C431.446 197.138 424.744 194.694 419.079 201.371Z" fill="#C94039"/>
<path d="M411.536 265.472C411.536 265.472 408.161 265.415 407.27 252.669C405.563 228.335 410.047 203.79 416.87 197.389C421.062 193.464 440.932 192.97 438.002 197.179C427.335 212.554 419.225 228.335 418.367 243.306C417.509 258.278 411.536 265.472 411.536 265.472Z" fill="#F3E7D9"/>
<path d="M444.089 345.046L440.803 347.563C440.803 347.563 448.152 361.644 460.503 360.398L460.738 357.161C460.738 357.161 451.397 357.404 444.089 345.046Z" fill="#F3E7D9"/>
<path d="M448.33 318.771C436.683 327.13 423.96 320.972 424.292 297.665C424.623 274.359 430.127 277.871 429.722 246.212C429.488 227.745 432.838 207.514 443.547 204.875C454.255 202.237 459.305 207.514 467.601 224.662C470.523 230.715 466.921 242.255 466.687 258.521C466.347 282.831 455.865 313.373 448.33 318.771Z" fill="#273252"/>
<path d="M448.297 320.76C436.651 329.112 427.804 320.979 428.136 297.672C428.217 291.635 450.167 257.104 450.167 257.104L459.758 258.075L457.33 223.439L443.506 204.826C454.214 202.18 459.265 207.464 467.561 224.612C470.482 230.666 466.881 242.206 466.646 258.472C466.347 282.831 455.833 315.355 448.297 320.76Z" fill="#1D2538"/>
<path d="M350.751 254.838C345.563 246.09 332.945 243.015 336.992 244.488C341.039 245.961 328.461 240.304 323.686 240.854C320.173 241.251 323.176 247.676 326.187 248.623C329.198 249.57 330.501 249.74 334.281 254.782C338.06 259.823 353.366 259.233 350.751 254.838Z" fill="#CC6D3D"/>
<path d="M323.419 280.314L337.178 279.505C340.804 279.294 341.784 275.871 339.372 271.857L317.834 236.306C315.406 232.26 311.829 231.192 308.211 231.402L294.451 232.211C290.833 232.422 289.854 235.845 292.266 239.859L312.484 273.451C314.896 277.441 319.793 280.524 323.419 280.314Z" fill="#F3E7D9"/>
<path d="M304.334 243.201L300.643 241.639L301.493 238.831L305.402 240.79L304.334 243.201Z" fill="#1D2538"/>
<path d="M297.689 241.291L296.062 240.603L296.434 239.357L298.166 240.223L297.689 241.291Z" fill="#1D2538"/>
<path d="M336.215 271.582L334.58 270.902L334.952 269.656L336.685 270.522L336.215 271.582Z" fill="#1D2538"/>
<path d="M315.908 241.898L312.225 240.344L313.067 237.528L316.984 239.495L315.908 241.898Z" fill="#1D2538"/>
<path d="M320.521 273.168L316.831 271.614L317.68 268.798L321.59 270.756L320.521 273.168Z" fill="#1D2538"/>
<path d="M332.103 271.873L328.413 270.311L329.262 267.503L333.172 269.462L332.103 271.873Z" fill="#1D2538"/>
<path d="M346.518 277.959C346.518 277.959 338.983 278.72 334.442 275.693C331.059 273.427 325.353 275.118 325.353 275.118C325.353 275.118 319.93 276.486 314.346 278.412C311.917 279.262 311.399 276.535 310.825 275.806C309.149 273.67 317.421 267.714 317.421 267.714C317.421 267.714 308.696 274.074 306.689 271.517C303.799 267.835 311.545 263.425 311.545 263.425C311.545 263.425 302.998 267.463 301.719 265.682C299.672 262.81 301.93 258.132 311.667 254.984L305.612 256.53C305.612 256.53 300.327 258.051 302.375 252.483C303.322 249.918 322.609 245.2 322.609 245.2C322.609 245.2 338.862 247.118 344.713 249.659C350.266 252.087 357.623 259.791 358.473 263.23C358.886 264.849 354.337 278.258 352.281 278.711C350.856 279.116 346.518 277.959 346.518 277.959Z" fill="#F5894E"/>
<path d="M348.299 278.307C347.943 278.088 346.389 272.925 346.219 272.545C345.41 270.716 342.447 269.187 340.715 268.555C338.7 267.819 331.691 265.715 331.691 265.715L328.235 258.075C327.531 257.509 327.684 250.404 327.684 250.404L326.187 245.742C326.187 245.742 338.838 247.207 344.689 249.789C350.242 252.216 357.599 259.92 358.449 263.36C358.861 264.978 351.464 278.679 351.464 278.679C351.464 278.679 349.036 278.728 348.299 278.307Z" fill="#CC6D3D"/>
<path d="M451.721 317.281C452.49 311.737 458.253 299.097 441.75 288.471C438.933 286.658 430.54 284.303 426.695 282.742C401.062 272.278 392.394 268.385 380.091 263.53C367.951 258.747 361.265 256.246 358.238 265.205C355.211 274.163 352.573 288.528 355.996 291.101C363.669 296.855 367.328 295.584 367.328 295.584C374.364 299.725 381.705 303.326 389.286 306.356C402.673 311.778 412.167 328.028 427.715 326.927C443.7 325.786 450.823 323.739 451.721 317.281Z" fill="#C94039"/>
<path d="M451.721 317.281C452.49 311.737 458.253 299.097 441.749 288.471C438.933 286.658 430.54 284.303 426.695 282.742C401.062 272.278 392.394 268.385 380.091 263.53C367.951 258.747 397.242 276.874 397.242 276.874C397.242 276.874 406.631 282.539 414.741 288.665C422.851 294.791 430.75 315.84 430.75 315.84L423.466 326.514C423.466 326.514 428.451 326.118 427.715 326.911C443.7 325.786 450.823 323.739 451.721 317.281Z" fill="#992C29"/>
<path d="M357.316 260.349C357.316 260.349 359.606 259.33 361.022 262.105C362.439 264.881 360.877 276.502 355.179 282.442C354.256 283.413 349.416 280.524 349.416 280.524C350.581 277.629 351.933 274.812 353.463 272.092C356.247 267.179 357.316 260.349 357.316 260.349Z" fill="#F3E7D9"/>
<path d="M413.883 162.453C405.919 187.646 397.461 193.739 397.461 193.739C359.857 201.298 342.423 172.213 341.978 148.073C340.57 123.148 339.761 118.074 366.85 114.723C404.567 110.07 420.973 140.013 413.883 162.453Z" fill="#1D2538"/>
<path d="M413.883 162.453C405.919 187.646 397.461 193.739 397.461 193.739C359.857 201.298 343.281 174.6 342.82 150.46C341.404 125.527 337.891 122.136 369.149 116.512C412.548 108.702 420.973 140.013 413.883 162.453Z" fill="#1D2538"/>
<path d="M419.889 170.546C413.098 192.032 378.7 185.614 378.7 185.614C372.548 182.628 369.1 148.121 366.478 134.501C364.212 122.751 355.681 108.322 388.687 108.476C418.051 108.613 425.967 151.423 419.889 170.546Z" fill="#3E4C6F"/>
<path d="M367.28 117.612C367.28 117.612 347.944 130.253 344.884 134.388C341.825 138.523 343.095 179.65 350.849 191.935C358.49 204.073 400.027 198.182 408.501 187.969C415.445 179.61 412.823 172.205 413.228 159.467C413.649 146.058 404.818 141.032 398.869 132.762C393.649 125.438 367.28 117.612 367.28 117.612Z" fill="#CC6D3D"/>
<path d="M419.217 153.001C418.27 160.641 413.826 167.519 410.727 167.438C407.627 167.357 405.822 161.11 406.744 153.414C407.667 145.718 410.986 139.503 414.11 139.616C417.234 139.729 420.156 145.337 419.217 153.001Z" fill="#CC6D3D"/>
<path d="M348.494 140.15C342.294 145.095 344.771 189.199 356.855 194.184C368.939 199.169 379.023 196.297 386.308 188.439C392.686 181.568 385.385 151.544 375.074 145.677C362.423 138.499 354.685 135.197 348.494 140.15Z" fill="#F5894E"/>
<path d="M398.691 130.633C398.691 130.633 401.12 145.677 404.001 151.221L411.625 158.172L407.578 131.904L398.691 130.633Z" fill="#3E4C6F"/>
<path d="M393.22 122.015C393.22 122.015 402.722 125.964 365.143 134.874C353.763 137.577 342.407 139.535 336.636 138.92C322.472 137.488 343.273 108.977 367.085 105.603C391.156 102.228 393.22 122.015 393.22 122.015Z" fill="#1D2538"/>
<path d="M367.19 105.328C348.17 108.824 329.959 128.505 341.331 129.646C344.568 129.97 349.716 130.318 355.9 130.399C366.535 127.671 377.21 121.019 377.21 121.019C377.008 126.296 371.205 128.974 364.762 130.318C370.63 130.144 376.484 129.664 382.301 128.877C392.184 127.493 393.285 127.906 393.633 124.548C394.385 117.709 387.732 101.548 367.19 105.328Z" fill="#3E4C6F"/>
<path d="M380.23 157.638C380.731 160.527 379.582 162.032 378.141 162.283C376.701 162.534 375.495 161.434 374.993 158.545C374.491 155.655 375.26 153.106 376.701 152.88C378.141 152.653 379.752 154.749 380.23 157.638Z" fill="#34283A"/>
<path d="M355.948 160.964C356.45 163.861 355.309 165.358 353.86 165.609C352.411 165.86 351.213 164.8 350.712 161.871C350.21 158.941 350.979 156.44 352.428 156.206C353.876 155.971 355.479 158.051 355.948 160.964Z" fill="#34283A"/>
<path d="M384.341 147.328C384.185 147.34 384.028 147.311 383.886 147.245C383.744 147.178 383.622 147.076 383.532 146.948C383.402 146.778 380.464 142.764 376.717 144.358C376.493 144.45 376.243 144.451 376.019 144.36C375.795 144.269 375.615 144.094 375.519 143.873C375.472 143.763 375.448 143.645 375.447 143.525C375.447 143.406 375.469 143.288 375.514 143.177C375.56 143.066 375.626 142.966 375.71 142.881C375.794 142.796 375.894 142.729 376.005 142.683C380.051 140.943 383.677 144.018 385.013 145.92C385.152 146.117 385.209 146.361 385.169 146.599C385.13 146.837 384.998 147.049 384.802 147.191C384.664 147.278 384.505 147.326 384.341 147.328Z" fill="#34283A"/>
<path d="M345.701 153.341C345.626 153.353 345.55 153.353 345.475 153.341C345.271 153.3 345.091 153.182 344.972 153.012C344.853 152.841 344.804 152.632 344.835 152.427C345.467 148.842 349.206 147.741 351.092 147.668C351.298 147.668 351.497 147.746 351.648 147.888C351.798 148.029 351.889 148.223 351.901 148.429C351.902 148.634 351.824 148.832 351.685 148.982C351.545 149.132 351.353 149.224 351.148 149.238C350.97 149.238 346.956 149.457 346.389 152.685C346.358 152.853 346.275 153.007 346.152 153.125C346.028 153.243 345.871 153.318 345.701 153.341Z" fill="#34283A"/>
<path d="M177.157 682.936C177.157 682.936 177.157 707.91 232.866 704.066C288.575 700.222 328.931 700.222 328.931 700.222C328.931 700.222 412.709 692.3 499.911 690.624C599.812 688.698 538.332 679.093 423.021 675.249C307.709 671.405 177.157 682.936 177.157 682.936Z" fill="#288453"/>
<path d="M140.176 397.478C140.176 397.478 154.672 492.76 153.054 528.368C151.435 563.975 134.988 653.803 134.988 653.803L138.226 687.792L207.023 688.601L218.354 696.694C218.354 696.694 266.916 695.075 269.345 695.075C271.773 695.075 279.057 684.555 289.579 685.364C296.192 685.874 325.135 692.13 372.135 691.838C399.905 691.66 433.737 688.925 433.737 688.925L426.906 575.378C426.906 575.378 454.691 520.275 453.073 500.044C451.454 479.812 449.835 384.32 449.835 384.32C449.835 384.32 195.279 383.939 140.176 397.478Z" fill="#856792"/>
<path d="M449.835 384.32L375.373 394.84L415.032 399.696L432.838 681.318L485.82 677.272L461.49 622.76L449.835 384.32Z" fill="#BB83C3"/>
<path d="M217.544 381.083C217.544 381.083 351.043 375.75 374.563 376.227C414.222 377.036 452.263 381.083 449.835 384.32C447.407 387.557 416.116 390.794 394.797 391.603C392.685 391.684 415.032 399.696 415.032 399.696L350.282 410.216L271.772 402.123L266.916 404.551C266.916 404.551 244.254 406.17 236.16 407.788C211.879 408.598 177.076 410.216 199.738 400.505H162.766C144.15 400.505 131.33 399.323 145.769 394.84C169.241 387.557 179.504 382.701 217.544 381.083Z" fill="#665070"/>
<path d="M240.296 382.305C240.296 382.305 328.429 378.784 343.961 379.068C370.136 379.602 392.645 384.32 391.042 386.456C389.439 388.593 374.377 390.422 360.286 390.94C358.894 390.996 360.933 394.177 337.874 396.701C324.495 398.19 276.078 394.783 271.279 395.423C266.479 396.062 261.89 396.232 256.548 397.341C240.514 397.875 162.175 396.386 177.14 389.977C177.157 389.985 215.189 383.373 240.296 382.305Z" fill="#4B3355"/>
<path d="M266.649 404.26L267.143 469.082L268.867 694.274L306.576 687.792L301.258 635.708L296.264 586.902L282.181 613.793L285.532 457.962L281.218 403.135L272.25 402.18L266.649 404.26Z" fill="#665070"/>
<path d="M315.471 400.723L329.238 440.968L330.849 401.533L315.471 400.723Z" fill="#665070"/>
<path d="M195.692 421.546L207.023 516.229L214.307 585.825L207.897 681.027L169.468 665.659L198.29 600.352L194.445 406.34L195.692 421.546Z" fill="#665070"/>
<path d="M401.71 690.349L398.238 651.4L394.547 604.964L406.841 652.8L414.53 687.501L401.71 690.349Z" fill="#665070"/>
<path d="M207.023 695.885C206.213 694.266 205.404 648.138 205.404 648.138L207.832 603.629L218.354 696.694L207.023 695.885Z" fill="#665070"/>
<path d="M134.988 687.792L210.454 686.789L183.559 656.053L147.695 622.76L154.106 553.609L134.988 687.792Z" fill="#665070"/>
<path d="M193.263 409.407L196.501 457.153L198.929 409.407H193.263Z" fill="#665070"/>
<path d="M353.52 576.923L354.029 612.887L358.376 651.375L361.613 597.155L353.52 576.923Z" fill="#665070"/>
<path d="M425.554 436.112L427.731 510.758L436.326 512.863L438.504 547.79L440.122 564.785L443.603 585.186L446.759 568.475L439.2 511.932L432.862 503.896L425.554 436.112Z" fill="#856792"/>
<path d="M372.944 393.594C362.293 391.886 327.344 399.558 358.028 399.987C388.711 400.416 383.612 395.301 372.944 393.594Z" fill="#4B3355"/>
<path d="M410.217 679.934L408.598 646.18C408.598 646.18 411.714 604.163 411.155 601.671C410.597 599.178 398.731 566.403 398.731 566.403C398.731 566.403 405.061 603.694 404.996 606.332C404.931 608.97 402.714 652.096 402.714 652.096L410.217 679.934Z" fill="#665070"/>
<path d="M233.513 410.184L215.578 401.217L225.824 489.58L224.545 531.84L234.792 487.015L229.669 466.524L233.513 410.184Z" fill="#665070"/>
<path d="M334.58 404.098C335.203 410.572 335.745 481.447 335.745 481.447C335.745 481.447 323.961 521.441 323.322 527.81C322.682 534.178 323.386 476.333 325.054 472.634L322.949 429.946L334.58 404.098Z" fill="#665070"/>
<path d="M266.811 629.161L283.46 649.652L261.688 662.454L266.811 629.161Z" fill="#856792"/>
<path d="M420.503 385.21L425.627 412.741L430.75 387.128L420.503 385.21Z" fill="#665070"/>
<path d="M205.331 484.458C205.331 484.458 188.682 494.703 202.773 494.703C216.865 494.703 216.857 487.015 205.331 484.458Z" fill="#33A86D"/>
<path d="M201.487 513.906C201.487 513.906 200.208 534.397 210.454 521.594C220.701 508.792 213.02 506.227 201.487 513.906Z" fill="#33A86D"/>
<path d="M197.65 513.906C200.208 511.349 186.124 504.94 183.559 510.062C180.993 515.185 195.084 516.472 197.65 513.906Z" fill="#33A86D"/>
<path d="M205.655 577.296C205.655 577.296 182.596 592.672 195.408 592.672C208.221 592.672 205.655 577.296 205.655 577.296Z" fill="#33A86D"/>
<path d="M197.966 556.805C209.483 562.559 208.212 570.894 200.531 570.894C192.85 570.894 192.842 554.264 197.966 556.805Z" fill="#33A86D"/>
<path d="M357.251 595.803C354.086 589.483 340.796 590.746 347.757 597.705C354.717 604.665 360.415 602.132 357.251 595.803Z" fill="#33A86D"/>
<path d="M366.389 612.83C366.389 612.83 345.256 624.362 362.544 624.362C379.832 624.362 375.033 612.83 366.389 612.83Z" fill="#33A86D"/>
<path d="M230.309 442.837C218.783 444.116 208.536 459.484 225.185 462.041C241.834 464.598 241.826 441.559 230.309 442.837Z" fill="#33A86D"/>
<path d="M237.989 469.729C230.948 470.368 219.422 481.253 237.35 482.531C255.278 483.81 245.063 469.09 237.989 469.729Z" fill="#33A86D"/>
<path d="M232.866 493.416C232.866 493.416 225.007 499.931 234.379 499.558C243.752 499.186 244.4 492.137 232.866 493.416Z" fill="#33A86D"/>
<path d="M244.821 338.427H229.346C225.299 338.427 224.166 334.906 226.917 330.577L249.289 294.29C252.016 289.952 255.108 286.464 259.187 286.464H277.52C281.566 286.464 282.7 289.984 279.948 294.314L257.148 330.577C254.42 334.906 248.9 338.427 244.821 338.427Z" fill="#F3E7D9"/>
<path d="M245.322 336.897H230.754C226.909 336.897 225.897 333.587 228.439 329.509L249.92 295.382C252.485 291.336 255.86 287.913 259.705 287.913L276.087 287.994C279.931 287.994 280.943 291.304 278.401 295.382L256.937 329.509C254.363 333.587 249.167 336.897 245.322 336.897Z" fill="#1D2538"/>
<path d="M280.814 337.302H300.449C304.496 337.302 303.921 333.96 302.019 329.84L286.083 295.358C284.181 291.239 282.4 287.897 278.377 287.897H258.742C254.695 287.897 254.404 291.239 256.314 295.358L273.044 331.297C274.954 335.416 276.791 337.302 280.814 337.302Z" fill="#F3E7D9"/>
<path d="M274.184 299.446C274.645 298.712 274.073 297.523 272.907 296.791C271.741 296.06 270.422 296.062 269.961 296.796C269.5 297.531 270.071 298.719 271.237 299.451C272.404 300.183 273.723 300.181 274.184 299.446Z" fill="#1D2538"/>
<path d="M273.902 302.309C274.363 301.575 273.792 300.386 272.626 299.655C271.459 298.923 270.14 298.925 269.679 299.66C269.218 300.394 269.79 301.583 270.956 302.314C272.122 303.046 273.441 303.044 273.902 302.309Z" fill="#1D2538"/>
<path d="M277.446 302.301C277.907 301.567 277.335 300.378 276.169 299.647C275.003 298.915 273.684 298.917 273.223 299.651C272.762 300.386 273.334 301.574 274.5 302.306C275.666 303.038 276.985 303.036 277.446 302.301Z" fill="#1D2538"/>
<path d="M274.104 304.559H276.678C276.678 304.559 275.326 304.333 273.667 301.322C275.011 304.414 274.104 304.559 274.104 304.559Z" fill="#1D2538"/>
<path d="M281.427 310.109C281.887 309.371 281.311 308.183 280.141 307.453C278.97 306.723 277.649 306.729 277.19 307.466C276.73 308.203 277.306 309.392 278.476 310.122C279.647 310.852 280.968 310.846 281.427 310.109Z" fill="#1D2538"/>
<path d="M280.478 314.691C280.939 313.957 280.367 312.768 279.201 312.036C278.035 311.305 276.716 311.307 276.255 312.041C275.794 312.776 276.366 313.964 277.532 314.696C278.698 315.428 280.017 315.426 280.478 314.691Z" fill="#1D2538"/>
<path d="M284.017 314.698C284.478 313.963 283.906 312.775 282.74 312.043C281.574 311.311 280.255 311.314 279.794 312.048C279.333 312.783 279.905 313.971 281.071 314.703C282.237 315.435 283.556 315.432 284.017 314.698Z" fill="#1D2538"/>
<path d="M280.676 316.949H283.242C283.242 316.949 281.898 316.722 280.239 313.712C281.582 316.795 280.676 316.949 280.676 316.949Z" fill="#1D2538"/>
<path d="M286.667 322.467C287.128 321.732 286.556 320.544 285.39 319.812C284.223 319.08 282.904 319.083 282.444 319.817C281.983 320.551 282.554 321.74 283.72 322.472C284.887 323.203 286.206 323.201 286.667 322.467Z" fill="#1D2538"/>
<path d="M286.374 325.333C286.835 324.598 286.263 323.41 285.097 322.678C283.931 321.946 282.612 321.948 282.151 322.683C281.69 323.417 282.262 324.606 283.428 325.337C284.594 326.069 285.913 326.067 286.374 325.333Z" fill="#1D2538"/>
<path d="M289.918 325.333C290.379 324.598 289.807 323.41 288.641 322.678C287.475 321.946 286.156 321.948 285.695 322.683C285.234 323.417 285.806 324.606 286.972 325.337C288.138 326.069 289.457 326.067 289.918 325.333Z" fill="#1D2538"/>
<path d="M286.585 327.583H289.15C289.15 327.583 287.807 327.356 286.147 324.346C287.491 327.437 286.585 327.583 286.585 327.583Z" fill="#1D2538"/>
<path d="M298.66 338.653H283.185C279.138 338.653 277.568 335.084 279.761 330.682L298.069 293.885C300.263 289.483 305.354 285.914 309.401 285.914H324.868C328.955 285.914 330.485 289.483 328.3 293.885L309.983 330.682C307.83 335.084 302.739 338.653 298.66 338.653Z" fill="#F3E7D9"/>
<path d="M298.482 337.383H284.577C280.894 337.383 279.51 334.146 281.485 330.205L299.737 294.087C300.551 292.364 301.853 290.916 303.482 289.924C305.11 288.931 306.993 288.438 308.899 288.503H322.836C326.519 288.503 327.903 291.741 325.928 295.682L308.745 330.205C306.778 334.194 302.197 337.383 298.482 337.383Z" fill="#1D2538"/>
<path d="M336.224 337.132H350.792C354.645 337.132 356.094 333.765 354.03 329.606L335.633 292.809C333.561 288.657 329.91 287.346 326.05 287.346H311.432C307.572 287.346 306.123 290.713 308.195 294.864L325.483 329.606C327.563 333.765 332.363 337.132 336.224 337.132Z" fill="#F3E7D9"/>
<path d="M329.052 304.664C329.052 304.664 329.506 306.947 326.543 305.854C324.042 304.931 325.305 302.398 326.616 300.133L329.052 304.664Z" fill="#1D2538"/>
<path d="M329.052 304.664C329.052 304.664 330.865 306.655 332.678 305.595C334.2 304.705 329.117 301.055 326.616 300.133L329.052 304.664Z" fill="#1D2538"/>
<path d="M328.777 303.79C328.777 303.79 330.008 307.076 329.87 308.128L331.335 307.707C330.252 306.568 329.385 305.24 328.777 303.79Z" fill="#1D2538"/>
<path d="M334.815 316.342C334.815 316.342 334.354 314.06 337.324 315.152C339.817 316.075 338.554 318.6 337.243 320.874L334.815 316.342Z" fill="#1D2538"/>
<path d="M334.815 316.342C334.815 316.342 332.994 314.351 331.189 315.411C329.659 316.302 334.742 319.951 337.243 320.874L334.815 316.342Z" fill="#1D2538"/>
<path d="M335.082 317.151C335.082 317.151 333.852 313.866 333.989 312.814L332.524 313.234C333.608 314.374 334.474 315.701 335.082 317.151Z" fill="#1D2538"/>
<path d="M314.152 293.974C314.152 293.974 314.306 294.783 313.342 294.379C312.533 294.063 312.922 293.197 313.342 292.42L314.152 293.974Z" fill="#1D2538"/>
<path d="M314.152 293.974C314.152 293.974 314.767 294.662 315.374 294.298C315.981 293.934 314.176 292.736 313.334 292.42L314.152 293.974Z" fill="#1D2538"/>
<path d="M314.062 293.683C314.25 294.161 314.373 294.661 314.427 295.172L314.92 295.026C314.558 294.632 314.268 294.177 314.062 293.683Z" fill="#1D2538"/>
<path d="M213.401 391.279L195.141 391.223C191.094 391.223 189.743 387.662 192.203 383.268L214.404 344.318C216.832 339.924 218.985 338.605 223.073 338.605H240.07C244.157 338.605 245.476 342.165 243.016 346.56L222.458 383.292C219.973 387.662 217.488 391.279 213.401 391.279Z" fill="#F3E7D9"/>
<path d="M213.336 390.041L196.606 389.985C192.932 389.985 191.75 386.748 193.96 382.815L215.57 345.119C217.78 341.162 220.37 340.118 224.052 340.118H238.524C242.198 340.118 242.716 344.399 240.499 348.356L221.219 382.815C219.002 386.748 217.011 390.041 213.336 390.041Z" fill="#1D2538"/>
<path d="M249.693 389.013H264.262C268.114 389.013 269.563 385.671 267.499 381.552L249.11 345.071C247.046 340.952 243.388 339.657 239.535 339.657H224.918C221.065 339.657 219.617 342.999 221.68 347.118L238.969 381.56C241.016 385.671 245.873 389.013 249.693 389.013Z" fill="#F3E7D9"/>
<path d="M245.315 363.279C245.315 363.279 245.825 365.82 242.555 364.598C239.811 363.578 241.203 360.77 242.644 358.245L245.315 363.279Z" fill="#1D2538"/>
<path d="M245.314 363.279C245.314 363.279 247.314 365.496 249.305 364.315C250.98 363.328 245.387 359.265 242.644 358.245L245.314 363.279Z" fill="#1D2538"/>
<path d="M245.015 362.267C245.015 362.267 246.375 365.925 246.221 367.123L247.84 366.654C246.639 365.375 245.682 363.889 245.015 362.267Z" fill="#1D2538"/>
<path d="M227.63 346.228C227.63 346.228 227.784 347.037 226.82 346.633C226.011 346.317 226.408 345.451 226.82 344.682L227.63 346.228Z" fill="#1D2538"/>
<path d="M227.629 346.228C227.629 346.228 228.237 346.9 228.852 346.544C229.467 346.187 227.646 344.998 226.812 344.682L227.629 346.228Z" fill="#1D2538"/>
<path d="M227.532 345.928C227.723 346.4 227.848 346.896 227.905 347.401L228.398 347.264C228.032 346.874 227.739 346.422 227.532 345.928Z" fill="#1D2538"/>
<path d="M265.476 389.175H250.001C245.954 389.175 244.384 385.728 246.221 381.479L264.529 345.937C267.078 341.688 271.052 338.321 275.14 338.321L291.716 338.241C295.803 338.241 297.333 341.688 295.148 345.937L275.674 383.324C273.489 387.557 269.555 389.175 265.476 389.175Z" fill="#F3E7D9"/>
<path d="M265.646 388.366H250.672C246.723 388.366 245.233 385.032 247.354 380.921L265.079 346.519C267.2 342.408 272.121 339.074 276.07 339.074H291.052C295.002 339.074 296.483 342.408 294.362 346.519L275.48 382.766C273.391 386.885 269.604 388.366 265.646 388.366Z" fill="#1D2538"/>
<path d="M311.311 388.366H326.325C330.29 388.366 331.78 384.927 329.651 380.694L310.097 343.468C307.968 339.228 307.766 337.577 303.8 337.577H285.831C281.874 337.577 280.384 341.008 282.505 345.249L301.768 382.944C303.897 387.193 307.385 388.366 311.311 388.366Z" fill="#F3E7D9"/>
<path d="M295.674 350.59L291.991 348.437L293.383 345.192L297.228 347.838L295.674 350.59Z" fill="#1D2538"/>
<path d="M288.325 349.198L286.698 348.251L287.313 346.811L289.013 347.984L288.325 349.198Z" fill="#1D2538"/>
<path d="M310.405 383.009L306.73 380.856L308.122 377.611L311.959 380.257L310.405 383.009Z" fill="#1D2538"/>
<path d="M308.26 350.056L304.585 347.903L305.977 344.658L309.822 347.304L308.26 350.056Z" fill="#1D2538"/>
<path d="M309.603 365.327L305.929 363.174L307.313 359.929L311.157 362.575L309.603 365.327Z" fill="#1D2538"/>
<path d="M329.028 389.175H313.561C309.474 389.175 307.936 385.728 310.129 381.479L328.008 345.872C330.202 341.615 332.865 338.208 336.911 338.208H355.244C359.291 338.208 360.861 341.656 358.667 345.904L340.351 381.447C338.198 385.744 333.115 389.175 329.028 389.175Z" fill="#F3E7D9"/>
<path d="M329.344 387.694H314.775C310.93 387.694 309.49 384.457 311.537 380.451L328.777 346.997C330.841 342.999 333.795 339.713 337.64 339.713L354.03 339.794C357.874 339.794 359.315 343.031 357.267 347.078L340.027 380.532C337.972 384.449 333.188 387.694 329.344 387.694Z" fill="#1D2538"/>
<path d="M361.937 388.366H381.581C385.627 388.366 384.818 384.975 382.689 380.791L364.673 345.823C362.52 341.639 360.537 338.257 356.514 338.257H336.879C332.832 338.257 332.751 341.648 334.904 345.831L353.811 382.248C355.948 386.456 357.914 388.366 361.937 388.366Z" fill="#F3E7D9"/>
<path d="M369.149 378.088C369.149 378.088 371.39 380.621 373.333 379.383C374.952 378.347 369.108 374.034 366.364 373.055L369.149 378.088Z" fill="#1D2538"/>
<path d="M369.149 378.088C369.149 378.088 369.707 380.646 366.47 379.464C363.726 378.485 364.746 374.075 366.373 373.039L369.149 378.088Z" fill="#1D2538"/>
<path d="M377.971 383.956C377.971 383.956 378.707 384.805 379.339 384.393C379.97 383.98 377.963 382.604 377.064 382.28L377.971 383.956Z" fill="#1D2538"/>
<path d="M377.971 383.956C377.971 383.956 378.165 384.813 377.097 384.425C376.198 384.101 376.53 382.628 377.097 382.28L377.971 383.956Z" fill="#1D2538"/>
<path d="M352.387 347.498C352.387 347.498 351.885 344.957 355.147 346.179C357.89 347.199 356.765 351.537 355.058 352.532L352.387 347.498Z" fill="#1D2538"/>
<path d="M352.386 347.499C352.386 347.499 350.193 344.949 348.202 346.131C346.527 347.118 352.314 351.512 355.057 352.532L352.386 347.499Z" fill="#1D2538"/>
<path d="M339.696 345.111C339.696 345.111 339.509 344.132 340.699 344.601C341.695 344.998 341.274 346.681 340.699 347.029L339.696 345.111Z" fill="#1D2538"/>
<path d="M339.696 345.111C339.696 345.111 338.886 344.124 338.174 344.585C337.462 345.046 339.671 346.665 340.667 347.062L339.696 345.111Z" fill="#1D2538"/>
<path d="M367.125 337.585H208.65C208.086 337.585 207.63 338.04 207.63 338.601C207.63 339.162 208.086 339.616 208.65 339.616H367.125C367.689 339.616 368.145 339.162 368.145 338.601C368.145 338.04 367.689 337.585 367.125 337.585Z" fill="#1D2538"/>
<path d="M331.586 285.25H253.878C253.315 285.25 252.858 285.705 252.858 286.266C252.858 286.827 253.315 287.281 253.878 287.281H331.586C332.149 287.281 332.606 286.827 332.606 286.266C332.606 285.705 332.149 285.25 331.586 285.25Z" fill="#1D2538"/>
<path d="M134.179 661.086C134.179 661.086 93.7103 662.705 85.6165 665.942C77.5228 669.179 88.854 672.416 88.854 672.416C88.854 672.416 38.6728 672.416 34.6259 678.081C30.579 683.746 71.8572 682.127 71.8572 682.127C71.8572 682.127 107.47 686.983 142.273 681.318C177.076 675.653 174.648 659.468 134.179 661.086Z" fill="#288453"/>
<path d="M155.223 650.566C155.223 650.566 148.748 625.479 130.132 634.381C111.517 643.283 132.56 665.133 132.56 665.133C132.56 665.133 124.467 655.422 114.754 665.942C105.042 676.462 109.089 686.983 109.089 686.983C109.089 686.983 105.851 679.699 89.6636 687.792C73.4761 695.885 69.4292 703.168 69.4292 703.168C69.4292 703.168 83.1886 706.405 101.804 703.168C120.42 699.931 164.935 693.457 173.029 693.457C181.123 693.457 154.414 700.74 181.123 700.74C207.832 700.74 219.164 704.787 216.735 698.312C214.307 691.838 211.07 676.462 202.976 680.509C202.976 680.509 199.739 666.751 185.17 669.179C170.601 671.607 170.601 684.555 170.601 684.555C170.601 684.555 164.126 657.849 155.223 665.942C155.223 665.942 170.601 648.948 155.223 650.566Z" fill="#33A86D"/>
<path d="M206.213 634.381C196.501 636.809 189.217 645.711 200.548 649.757C211.879 653.803 215.926 631.953 206.213 634.381Z" fill="#33A86D"/>
<path d="M243.445 665.133C243.445 665.133 236.16 648.138 229.685 658.659C223.21 669.179 234.542 676.462 234.542 676.462C234.542 676.462 217.545 668.37 218.354 676.462C219.164 684.555 233.732 686.983 233.732 686.983C233.732 686.983 224.02 699.122 243.445 702.359C262.87 705.596 300.101 699.931 300.101 696.694C300.101 693.457 270.964 693.457 270.964 693.457C270.964 693.457 288.77 682.127 273.392 675.653C258.014 669.179 258.823 684.555 258.823 684.555C258.823 684.555 252.348 658.659 243.445 665.133Z" fill="#33A86D"/>
<path d="M298.482 703.977C298.482 703.977 250.729 706.405 275.01 710.451C299.292 714.498 314.67 702.359 298.482 703.977Z" fill="#33A86D"/>
<path d="M346.236 696.694C346.236 696.694 335.714 680.509 347.045 671.607C358.376 662.705 360.804 683.746 360.804 683.746C360.804 683.746 365.661 669.988 372.136 676.462C378.611 682.936 372.136 688.601 372.136 688.601C372.136 688.601 383.467 678.081 395.607 681.318C407.748 684.555 409.367 686.173 401.273 688.601C393.179 691.029 435.267 691.838 392.37 698.312C349.473 704.786 346.236 696.694 346.236 696.694Z" fill="#33A86D"/>
<path d="M298.482 657.04C290.388 662.705 296.054 669.988 303.338 668.37C310.623 666.751 306.576 651.375 298.482 657.04Z" fill="#33A86D"/>
<path d="M220.782 622.242C217.545 627.907 231.304 639.236 231.304 627.907C231.304 616.577 224.02 616.577 220.782 622.242Z" fill="#33A86D"/>
<path d="M211.07 605.248C211.07 605.248 214.307 618.196 219.164 611.722C224.02 605.248 216.735 597.964 211.07 605.248Z" fill="#33A86D"/>
<path d="M451.891 682.127C442.179 682.046 430.783 660.172 441.483 651.254C452.183 642.336 457.84 663.838 457.84 663.838C457.84 663.838 463.838 646.35 470.96 654.742C478.083 663.134 472.7 678.146 472.7 678.146C472.7 678.146 488.953 656.652 490.304 663.854C490.304 663.854 497.831 655.988 505.941 666.751C514.051 677.514 503.311 675.054 503.311 675.054C503.311 675.054 550.368 674.803 523.043 678.461C495.719 682.119 461.644 682.216 451.891 682.127Z" fill="#288453"/>
<path d="M438.504 627.907C438.504 627.907 436.885 645.71 445.788 638.427C454.691 631.144 447.407 620.623 438.504 627.907Z" fill="#288453"/>
</svg>
