<svg width="262" height="202" viewBox="0 0 262 202" fill="none" xmlns="http://www.w3.org/2000/svg">
<path d="M256.662 185.458C250.016 175.924 204.731 141.425 133.529 144.271C73.14 146.686 30.9033 174.635 24.4579 177.778C18.0125 180.921 20.699 183.017 38.9606 180.397C57.2223 177.776 66.3521 178.3 66.3521 178.3L65.2775 180.919C65.2775 180.919 50.7319 193.189 49.6595 197.38C48.5849 201.571 54.493 202.095 60.9384 199.477C67.3838 196.858 114.692 187.73 120.6 187.206C126.508 186.682 136.922 190.033 141.218 190.555C145.515 191.079 173.874 199.949 179.835 200.467C185.797 200.987 182.809 191.326 175.263 177.669C171.919 171.615 202.832 187 209.815 188.573C216.797 190.145 206.522 180.923 205.448 179.353C204.373 177.782 245.208 188.252 253.802 192.968C262.395 197.687 263.309 194.991 256.662 185.458Z" fill="#CCE5CF"/>
<path d="M96.7612 139.771C96.7612 139.771 44.5685 149.384 23.4555 118.388C2.34251 87.3924 21.7387 42.6379 61.6186 34.0066C61.6186 34.0066 19.7415 51.4947 34.5996 94.6509C49.4577 137.807 96.7612 139.771 96.7612 139.771Z" fill="#CCE5CF"/>
<path d="M219.27 124.242C230.62 113.228 232.172 103.845 238.57 92.8724C244.968 81.8996 251.758 75.8891 251.758 75.8891C251.758 75.8891 247.618 75.8827 237.412 85.109C228.327 93.3213 219.27 112.345 219.27 112.345C221.317 102.872 220.717 90.9219 220.717 90.9219C208.818 117.03 167.309 135.505 155.578 129.485C155.58 129.485 186.519 156.024 219.27 124.242Z" fill="#CCE5CF"/>
<path d="M193.721 80.9204C195.675 80.9204 230.477 64.762 232.036 49.1407C233.209 37.371 230.863 19.7154 202.322 10.691C169.943 0.452918 156.579 5.59129 144.069 9.1207C144.069 9.1207 178.865 4.02099 200.367 19.3223C236.315 44.9045 193.721 80.9204 193.721 80.9204Z" fill="#CCE5CF"/>
<path d="M177.69 39.7253C177.69 39.7253 154.622 18.1471 131.947 21.6787C116.102 24.1469 74.8648 34.3012 68.6099 59.3422C64.3265 76.4973 83.4658 83.2747 83.4658 83.2747C83.4658 83.2747 71.3456 76.6047 77.2109 60.1263C83.0762 43.6478 119.435 25.9922 142.502 27.5625C165.569 29.1328 177.69 39.7253 177.69 39.7253Z" fill="#CCE5CF"/>
<path d="M61.1823 61.3034C61.1823 61.3034 42.0258 78.5659 53.7543 88.7675C65.4828 98.969 89.7232 90.3378 89.7232 90.3378C89.7232 90.3378 72.5212 91.9081 64.7015 82.0996C56.8817 72.289 61.1823 61.3034 61.1823 61.3034Z" fill="#CCE5CF"/>
<path d="M23.4555 118.388C23.4555 118.388 -4.69403 106.03 1.75781 81.9019C8.20964 57.7739 19.3516 68.955 19.3516 68.955C19.3516 68.955 17.0055 46.5928 29.3205 39.5297C41.6355 32.4666 46.3277 36.9798 46.3277 36.9798C46.3277 36.9798 52.193 30.7029 55.1235 31.8801C56.4272 32.4043 56.6091 33.3903 56.4122 34.3269C56.1467 35.5814 48.494 39.6521 47.3038 40.1183C43.8617 41.4695 40.9098 42.6488 33.8158 49.9267C23.4209 60.5901 19.8867 75.8763 20.5225 88.965C21.6956 113.091 23.4555 118.388 23.4555 118.388Z" fill="#CCE5CF"/>
<path d="M58.8377 66.4032C58.8377 66.4032 64.3113 56.9879 57.2729 55.4176C50.2346 53.8473 49.845 68.7576 49.845 68.7576C49.845 68.7576 47.4988 65.226 43.9796 71.5029C40.4604 77.7798 48.2802 87.1973 53.7537 88.7654C59.2295 90.3357 56.4916 71.5051 58.8377 66.4032Z" fill="#CCE5CF"/>
<path d="M223.137 58.949C223.137 58.949 234.72 57.5999 240.438 44.5306C245.717 32.4666 240.438 24.5206 234.279 22.757C228.121 20.9912 223.137 23.6398 223.137 23.6398C223.137 23.6398 228.416 8.33859 215.221 6.57281C202.027 4.80703 202.32 10.693 202.32 10.693C202.32 10.693 197.921 4.21844 191.764 1.57192C185.606 -1.07674 185.899 7.45785 185.899 7.45785C185.899 7.45785 180.034 0.98333 171.824 2.74911C163.615 4.51489 163.829 6.52126 167.642 6.81555C171.454 7.10985 194.352 7.15066 209.307 22.4519C224.261 37.7532 223.137 58.949 223.137 58.949Z" fill="#CCE5CF"/>
<path d="M98.7141 33.0552C98.7141 33.0552 111.714 16.5768 129.599 14.2224C143.907 12.3385 136.723 22.394 138.787 21.2855C144.26 18.3426 151.119 15.7497 153.84 17.363C158.14 19.9129 154.426 23.0513 154.426 23.0513C154.426 23.0513 166.741 29.9168 168.501 33.6438C168.696 34.6255 158.309 25.8418 144.847 24.8171C129.404 23.6399 98.7141 33.0552 98.7141 33.0552Z" fill="#CCE5CF"/>
<path d="M63.829 108.11C63.829 108.11 63.1418 105.603 62.3562 103.807C61.6049 102.088 61.0291 103.281 60.663 104.975C60.2799 106.752 60.4597 109.452 60.4532 110.097C60.4468 110.743 63.7177 110.376 63.829 108.11Z" fill="#1D2538"/>
<path d="M70.7736 129.363C72.653 128.631 76.6795 123.707 75.8768 120.3C75.0741 116.893 74.2735 111.843 73.2224 109.955C73.2224 109.955 73.0576 106.376 72.7172 104.453C72.379 102.533 71.8738 102.447 71.2017 103.375C70.5295 104.303 69.639 107.465 69.639 107.465C69.639 107.465 65.1587 105.665 61.5496 107.231C57.9405 108.797 56.8381 111.252 56.5405 113.347L56.4314 113.499C56.4314 113.499 52.4776 114.479 50.6174 115.248C48.7572 116.017 48.1942 116.975 49.0376 118.981C49.881 120.988 50.0223 121.991 51.1654 122.728C52.3085 123.464 57.3561 125.071 59.9463 125.454C59.9463 125.454 61.0466 130.139 61.9285 131.389C62.8104 132.641 68.8962 130.098 70.7736 129.363Z" fill="#273150"/>
<path d="M71.3468 123.578C71.3468 123.578 76.6791 123.707 75.8785 120.3C75.0779 116.893 74.2751 111.843 73.2241 109.955C73.2241 109.955 73.0593 106.376 72.7189 104.453C72.3807 102.533 71.8755 102.447 71.2033 103.375C70.5312 104.303 69.6407 107.465 69.6407 107.465C69.6407 107.465 65.1604 105.665 61.5513 107.231C61.5513 107.231 65.7362 107.338 67.3631 108.904C68.9899 110.47 71.0128 116.882 71.0128 116.882C71.0128 116.882 66.4276 122.485 66.7037 122.878C67.5835 124.13 71.3468 123.578 71.3468 123.578Z" fill="#1D2538"/>
<path d="M62.9317 108.165C62.9317 108.165 62.4094 105.716 62.0327 104.09C61.6088 102.262 60.7248 103.313 60.3587 105.008C59.9755 106.784 59.77 108.608 59.7636 109.254C59.7593 109.901 63.058 109.746 62.9317 108.165Z" fill="#273150"/>
<path d="M62.2084 112.301C62.4884 111.499 62.283 110.697 61.7497 110.51C61.2164 110.322 60.5572 110.82 60.2773 111.621C59.9973 112.423 60.2027 113.225 60.736 113.413C61.2693 113.6 61.9285 113.102 62.2084 112.301Z" fill="#121721"/>
<path d="M48.6515 117.183C48.5166 118.292 49.0774 118.801 49.3579 119.426C49.741 120.279 52.0765 118.682 52.2135 117.574C52.3483 116.466 52.3612 114.906 51.0425 115.151C50.1242 115.323 48.7863 116.075 48.6515 117.183Z" fill="#121721"/>
<path d="M65.4822 123.98C65.4822 123.98 60.4025 126.599 60.0835 125.4C57.5405 125.054 53.4412 123.722 53.4412 123.722L60.3147 123.718L65.4822 123.98Z" fill="#1D2538"/>
<path d="M89.5809 127.26C89.3861 126.624 88.7974 123.157 88.0439 121.924C87.2926 120.691 85.3959 117.858 83.1269 117.939C83.1269 117.939 84.4305 116.296 88.5106 118.296C92.5907 120.294 93.1622 126.283 93.2072 126.79C93.4041 129.054 90.1353 129.073 89.5809 127.26Z" fill="#1D2538"/>
<path d="M61.2897 157.91C61.6536 156.842 63.0835 155.708 63.0835 155.708C63.2205 155.467 63.6957 154.984 63.7321 154.754C64.0168 152.997 64.7939 148.202 64.8388 147.435C64.9352 145.841 64.2309 141.094 64.3615 137.444C64.4921 133.795 70.0213 136.664 70.276 140.19C70.458 142.703 68.7155 152.988 68.5336 153.994L67.1828 157.28C66.6841 157.981 65.2991 158.479 63.8756 158.548C62.4542 158.612 60.9343 158.954 61.2897 157.91Z" fill="#1D2538"/>
<path d="M85.6302 137.715C84.2517 137.257 82.1089 138.45 82.0854 140.411C82.0661 142.08 89.6289 148.677 89.6289 148.677L90.0528 150.022C90.0528 150.022 88.9867 151.257 89.4427 151.921C89.5497 152.078 91.0075 151.82 92.1827 151.583C93.0432 151.409 93.6554 150.997 93.6533 150.582L93.649 150.06L94.0943 148.08L88.8883 142.643C88.8904 142.645 87.514 138.342 85.6302 137.715Z" fill="#1D2538"/>
<path d="M66.3179 124.038C66.3179 124.038 72.0248 119.943 77.0359 122.195C81.5163 124.207 83.5584 124.547 88.5546 124.622C91.6928 124.669 93.8484 135.749 93.1976 137.906C92.0203 141.936 78.1598 142.293 76.383 142.353C71.1471 142.531 66.7695 139.842 64.6096 138.815C62.6724 137.893 59.8189 132.553 62.2421 128.487C63.1669 126.936 64.2329 125.256 66.3179 124.038Z" fill="#273150"/>
<path d="M67.7407 124.452C71.0009 121.842 72.0226 119.945 77.0359 122.195C81.5163 124.207 84.9064 124.614 89.9005 124.766C95.5539 124.94 94.7939 134.474 93.1328 138.559C91.872 141.661 78.1591 142.293 76.3846 142.353C76.3846 142.353 81.1796 139.238 80.9441 137.023C80.7108 134.809 75.2094 131.554 75.2094 131.554C72.5593 128.854 66.5848 125.378 67.7407 124.452Z" fill="#1D2538"/>
<path d="M70.7484 157.555C70.742 156.591 73.1095 154.26 73.0945 154.024C72.8526 150.037 71.8551 146.263 71.6967 145.354C71.3735 143.489 69.2714 140.329 68.5478 136.299C67.85 132.416 74.7471 134.321 75.6504 138.798C76.1706 141.38 77.455 150.254 77.7846 152.677C77.8317 153.018 77.8103 153.364 77.7226 153.699L76.3461 156.642C76.1856 157.487 74.8541 158.213 73.2251 158.309C71.5961 158.406 70.7591 158.868 70.7484 157.555Z" fill="#273150"/>
<path d="M93.2671 133.717C91.546 132.143 87.7186 134.211 87.0207 134.852C86.2886 135.524 89.4867 139.749 89.6473 140.34C89.8143 140.957 96.8997 144.877 98.3382 146.024C99.8944 147.266 98.5929 148.971 99.522 149.504C99.9929 149.775 103.921 148.948 103.67 147.401C103.435 145.94 101.889 143.64 101.851 143.524C101.776 143.298 95.6924 138.561 95.5468 138.267C95.4077 137.979 93.7765 134.186 93.2671 133.717Z" fill="#1D2538"/>
<path d="M76.0709 120.465C76.0709 120.465 77.1048 121.567 77.3659 122.538C77.3659 122.538 74.2171 124.822 68.5401 127.537C65.4983 128.991 60.7997 130.327 60.7997 130.327L60.1168 127.769C60.1189 127.767 69.7175 125.239 76.0709 120.465Z" fill="#992C29"/>
<path d="M60.1541 127.795C60.1541 127.795 58.5037 131.191 58.7691 132.899L63.0268 134.267C63.0268 134.267 61.3742 129.296 60.1541 127.795Z" fill="#C93F37"/>
<path d="M60.1541 127.795C61.4128 129.051 63.0268 134.267 63.0268 134.267C63.0268 134.267 60.8062 132.493 60.5793 131.81C60.3524 131.126 60.1541 127.795 60.1541 127.795Z" fill="#992C29"/>
<path d="M60.8201 129.486C60.8201 129.486 63.8662 132.169 65.2277 132.504L65.5809 130.235C65.583 130.235 63.376 129.116 60.8201 129.486Z" fill="#992C29"/>
<path d="M131.949 88.9584L112.009 87.7812C106.353 87.0229 106.411 79.2595 106.537 73.481L106.796 53.3808C106.912 47.7698 110.093 43.9375 115.744 43.9375H132.141C138.482 43.9375 142.307 47.744 142.307 53.9371L143.872 79.4099C143.872 85.865 138.471 89.8477 131.949 88.9584Z" fill="#634874"/>
<path d="M111.186 49.9825C113.029 45.7142 107.937 41.826 103.084 40.1483C96.1954 37.7682 95.3798 36.4986 92.5563 35.025C89.0885 33.2141 86.1473 32.5482 84.0452 34.1357C81.9453 35.7232 81.4893 38.4728 82.733 39.6715C85.6678 42.5049 87.0678 43.1364 90.8032 45.8152C97.6446 50.7194 101.299 51.7848 103.51 53.2692C107.215 55.7589 108.981 55.0887 111.186 49.9825Z" fill="#A86243"/>
<path d="M112.627 50.6377C114.47 46.3694 87.0659 43.1364 90.8013 45.813C97.6427 50.7172 101.297 51.7827 103.508 53.2671C107.216 55.7589 110.424 55.7439 112.627 50.6377Z" fill="#D77E5B"/>
<path d="M88.1573 28.8361C86.6674 30.995 84.2935 34.707 86.3035 36.7262C87.7527 38.1805 87.1298 39.6391 89.2726 38.5951C91.6807 37.4201 93.1706 31.9273 93.2348 31.7962C94.3672 29.4956 89.6643 26.6557 88.1573 28.8361Z" fill="#7A4630"/>
<path d="M96.8291 16.6453C96.8291 16.6453 87.0892 23.9791 84.5312 26.8512C82.001 29.6932 79.7983 33.1603 81.2646 37.0656C82.1551 39.4372 83.1783 41.0419 86.3465 40.0107C89.9834 38.8271 92.7833 33.6651 94.2496 30.3784C96.2169 25.9769 98.7428 23.7557 100.235 22.2198C102.149 20.2499 102.001 14.0289 96.8291 16.6453Z" fill="#A86243"/>
<path d="M110.562 15.1268L110.736 18.0869L108.829 18.6089L107.324 16.0698L110.562 15.1268Z" fill="#273150"/>
<path d="M95.0582 20.3723L97.2887 16.7977C97.2887 16.7977 101.985 15.0341 104.693 14.8343C107.401 14.6346 108.938 15.9127 108.938 15.9127L109.167 21.152C109.193 21.7428 108.803 22.2798 108.27 22.3915L107.437 22.5655L106.155 22.5032L106.106 23.2057C106.082 23.558 105.858 23.8651 105.547 23.9725L103.867 24.5504L101.367 25.0982C101.367 25.0982 99.4807 24.6191 99.6798 23.356C99.8789 22.0929 96.1992 24.5074 95.0582 20.3723Z" fill="#A86243"/>
<path d="M92.232 20.1771L94.0708 23.3112L98.6946 21.814C99.0949 21.6851 99.3132 21.133 99.1569 20.6432C98.9793 20.0847 98.4934 19.799 98.0438 19.9859L94.8885 20.8709L94.2763 19.4768L92.232 20.1771Z" fill="#273150"/>
<path d="M88.8428 8.98519C84.1506 10.751 64.0159 16.8324 64.0159 16.8324C63.8853 17.8141 64.1464 21.9321 64.8636 22.3896C64.8636 22.3896 67.7962 26.3122 85.5184 22.5207C106.21 18.0933 127.428 9.35253 127.428 9.35253L127.089 3.68785C127.091 3.69 93.5329 7.21941 88.8428 8.98519Z" fill="#B44C29"/>
<path d="M87.4744 5.78217C82.7394 7.42766 66.6226 12.551 64.2765 16.147C62.4441 18.9568 68.7076 21.541 91.3832 16.2458C114.059 10.9506 123.052 6.20751 126.374 4.63936C129.696 3.06906 121.975 1.04336 107.673 0.291508C104.398 0.117508 97.6402 2.25062 87.4744 5.78217Z" fill="#F08650"/>
<path d="M64.9291 18.4669L72.4877 15.8505L65.9716 19.382L64.9291 18.4669Z" fill="#B44C29"/>
<path d="M107.852 0.501917L95.1943 4.67147C95.1965 4.66932 107.826 1.05399 107.852 0.501917Z" fill="#B44C29"/>
<path d="M81.9036 14.5768C83.9565 13.5951 75.3126 16.2652 70.9565 18.1083C70.9565 18.1083 79.8508 15.5563 81.9036 14.5768Z" fill="#B44C29"/>
<path d="M118.165 8.39631L117.187 7.21913L120.509 7.71105L118.165 8.39631Z" fill="#B44C29"/>
<path d="M83.3708 18.4991L84.8372 16.931L86.5946 18.2048L83.3708 18.4991Z" fill="#B44C29"/>
<path d="M100.073 7.14847C100.631 7.96907 99.3254 9.27299 96.4313 10.2869C92.2763 11.7412 86.7193 12.042 86.0492 10.3578C85.4178 8.76818 89.8852 6.90573 94.1537 6.35795C97.2019 5.96484 99.5288 6.35151 100.073 7.14847Z" fill="#B44C29"/>
<path d="M99.8066 6.46084C100.275 7.05802 98.9333 8.17506 96.1012 9.18684C92.0362 10.639 86.7252 11.3028 86.2179 10.0418C85.7384 8.85173 90.131 7.05588 94.2346 6.29973C97.1651 5.76054 99.3507 5.88084 99.8066 6.46084Z" fill="#F08650"/>
<path d="M132.652 44.4104C133.485 41.4825 137.982 43.2397 140.228 44.6553C143.801 46.9044 143.426 48.5757 145.847 49.8431C150.22 52.133 162.321 60.5194 159.018 64.3366C155.717 68.1539 150.175 64.7598 145.851 62.0553C142.756 60.1198 137.263 55.9739 134.172 52.9385C132.886 51.6754 131.82 47.3383 132.652 44.4104Z" fill="#A86243"/>
<path d="M158.261 69.9369C159.854 67.3183 161.489 64.9596 159.327 62.3367C155.941 58.2316 153.284 60.4786 151.009 63.2905C148.772 66.0573 148.783 66.981 146.74 69.765C144.683 72.5683 140.725 76.5961 140.725 76.5961C140.725 76.5961 137.375 79.6035 138.972 81.8612C140.657 84.2457 141.847 84.2715 143.711 83.2511C146.432 81.7646 157.063 71.9089 158.261 69.9369Z" fill="#A86243"/>
<path d="M105.417 141.872C105.367 141.889 105.318 141.913 105.271 141.938C104.563 142.329 98.7765 145.47 98.1043 146.312C97.5542 147.001 97.9052 149.543 98.0979 150.686C98.1578 151.04 98.404 151.33 98.7422 151.448C100.112 151.923 103.721 153.186 107.221 152.832C111.61 152.387 111.475 150.729 114.741 149.16C116.878 148.136 118.179 147.474 118.826 147.141C119.136 146.98 119.271 146.669 119.288 146.318L119.468 142.477C119.489 141.996 119.224 141.569 118.753 141.474C116.576 141.027 110.443 140.052 105.417 141.872Z" fill="#29ACE4"/>
<path d="M105.342 141.9C105.342 141.9 98.6928 145.544 97.9779 146.439C97.2629 147.335 97.9415 150.424 97.9415 150.424C97.9415 150.424 102.7 152.323 107.088 151.879C111.477 151.434 111.474 149.967 114.741 148.399C117.271 147.185 118.631 146.482 119.114 146.227C119.245 146.158 119.328 146.027 119.335 145.881L119.534 142.229C119.553 141.894 119.326 141.595 119.001 141.527C117.077 141.112 110.59 139.967 105.342 141.9Z" fill="#13161F"/>
<path d="M140.831 142.016C144.515 143.309 149.858 144.565 150.108 146.219C150.359 147.861 150.532 149.592 150.389 150.206C150.279 150.67 150.083 150.948 149.727 151.1C148.822 151.489 147.015 152.421 143.361 152.786C141.783 152.945 138.32 152.095 136.207 150.524C134.529 149.276 132.514 147.824 131.759 147.281C131.562 147.139 131.431 146.924 131.397 146.683L131.121 144.823C131.065 144.443 131.256 144.067 131.598 143.893C133.201 143.077 137.825 140.961 140.831 142.016Z" fill="#29ACE4"/>
<path d="M142.318 141.253C145.535 142.471 149.938 144.312 150.189 146.138C150.413 147.783 150.514 148.688 150.469 149.317C150.448 149.624 149.707 149.77 149.345 149.923C148.425 150.312 146.586 151.246 142.872 151.616C141.267 151.775 138.116 151.3 135.971 149.732C134.183 148.426 132.023 146.896 131.351 146.421C131.216 146.327 131.126 146.181 131.099 146.018L130.829 144.413C130.713 143.721 131.105 143.047 131.762 142.81C134.151 141.945 139.456 140.17 142.318 141.253Z" fill="#13161F"/>
<path d="M139.764 87.1971C139.764 87.1971 140.729 100.028 142.5 110.346C143.454 115.909 144.349 125.87 144.914 133.124C145.295 138.014 145.608 141.702 145.381 141.87C144.822 142.286 142.123 141.476 137.191 142.716C132.323 143.94 130.32 144.647 130.32 144.647L129.555 142.288C129.555 142.288 129.097 141.191 129.697 136.665C129.874 135.326 128.348 133.249 128.13 131.543C126.738 120.614 124.726 103.916 123.731 92.6899C122.213 75.5391 136.579 72.8303 139.764 87.1971Z" fill="#F6BE4A"/>
<path d="M139.762 87.1971C139.762 87.1971 140.728 100.028 142.498 110.346C143.588 116.695 144.444 127.537 145.178 135.084C145.332 136.667 145.908 136.8 146.015 138.024C146.144 139.5 145.927 141.62 145.292 141.955C144.602 142.319 142.123 141.476 137.191 142.716C132.323 143.94 130.32 144.647 130.32 144.647L129.555 142.288C129.316 141.169 129.279 140.613 129.697 136.665C129.838 135.341 128.335 133.155 128.13 131.543C126.738 120.573 124.698 103.609 123.731 92.6899C122.211 75.5391 136.577 72.8303 139.762 87.1971Z" fill="#F6BE4A"/>
<path d="M107.233 86.4665C107.233 86.4665 106.535 101.1 106.165 109.819C105.897 116.089 105.06 141.848 105.06 141.848C105.06 141.848 106.161 141.422 110.829 141.569L117.529 144.557C117.529 144.557 119.032 144.965 119.428 144.737C119.824 144.512 120.899 143.452 121.004 140.879C121.338 132.697 121.4 114.865 121.278 113.544C121.166 112.352 121.28 98.5756 122.175 88.3633C122.566 83.8887 120.511 80.1423 114.616 78.615C108.956 77.15 107.381 81.9618 107.233 86.4665Z" fill="#F6BE4A"/>
<path d="M142.5 110.346C143.579 116.635 144.431 127.327 145.158 134.864C145.212 135.408 145.908 136.781 145.959 137.287C146.25 140.168 145.734 141.985 145.169 142.104C144.602 142.22 142.125 141.476 137.193 142.716C132.325 143.94 130.322 144.647 130.322 144.647L129.558 142.288C129.558 142.288 134.438 135.292 137.026 130.746C137.807 129.374 140.819 125.297 141.62 119.86C142.369 114.773 142.065 107.819 142.5 110.346Z" fill="#F6BE4A"/>
<path d="M123.279 94.26C131.951 94.26 138.982 89.1002 138.982 82.7352C138.982 76.3703 131.951 71.2104 123.279 71.2104C114.606 71.2104 107.575 76.3703 107.575 82.7352C107.575 89.1002 114.606 94.26 123.279 94.26Z" fill="#F6BE4A"/>
<path d="M123.279 94.26C131.951 94.26 138.982 89.1002 138.982 82.7352C138.982 76.3703 131.951 71.2104 123.279 71.2104C114.606 71.2104 107.575 76.3703 107.575 82.7352C107.575 89.1002 114.606 94.26 123.279 94.26Z" fill="#F6BE4A"/>
<path d="M138.036 128.278C140.25 125.982 142.266 120.504 142.108 117.8C142.108 117.8 133.789 129.84 133.507 130.353C132.719 131.791 137.951 128.369 138.036 128.278Z" fill="#F6BE4A"/>
<path d="M111.79 42.795C111.79 42.795 110.345 43.1322 109.909 47.6992C109.714 49.7335 108.044 59.136 108.164 65.6341C108.305 73.2514 107.657 83.5497 107.657 83.5497C107.657 83.5497 112.948 81.9837 120.755 81.3822C128.564 80.7807 138.032 84.0373 138.032 84.0373C141.055 84.5378 137.861 75.3566 137.167 71.8594C136.356 67.7672 137.501 60.3647 136.829 54.8461C135.817 46.5478 134.402 44.8808 134.232 44.1999C133.862 42.7048 129.074 42.6597 125.845 42.1957C121.123 41.5211 115.262 42.2923 111.79 42.795Z" fill="#29ACE4"/>
<path d="M107.902 53.8727C107.902 53.8727 122.563 49.8106 133.999 53.1617L134.585 56.2078C134.585 56.2078 121.196 51.3336 107.511 56.8179L107.902 53.8727Z" fill="#3D4C6D"/>
<path d="M107.412 57.529C107.412 57.529 122.561 53.3659 133.997 56.717L134.583 59.7631C134.583 59.7631 121.29 55.194 107.607 60.6761L107.412 57.529Z" fill="#3D4C6D"/>
<path d="M111.788 42.7947C111.788 42.7947 110.343 43.132 109.906 47.699C109.712 49.7333 108.042 59.1357 108.162 65.6339C115.451 54.4119 132.976 81.1327 138.983 81.6569C140.644 81.8008 137.077 75.4058 136.898 69.2019C136.688 61.9519 137.777 55.5977 137.777 55.5977C136.765 47.2994 134.402 44.8849 134.232 44.2018C133.862 42.7067 129.074 42.6616 125.846 42.1976C121.121 41.5209 115.26 42.2921 111.788 42.7947Z" fill="#1FABE2"/>
<path d="M129.012 42.5521C129.233 42.5392 129.012 43.0612 129.012 43.0612C127.465 44.4704 123.839 46.6637 120.613 46.6637C117.429 46.6637 114.749 46.4618 114.058 44.4124C113.76 43.5295 115.167 42.3674 115.167 42.3674C115.167 42.3674 117.695 41.9334 120.608 41.8432C123.451 41.753 128.792 42.565 129.012 42.5521Z" fill="#7A4630"/>
<path d="M120.501 43.7937C117.942 43.7121 118.022 41.7294 118.041 40.4856L118.294 36.4256C118.309 35.4374 119.338 34.619 120.931 34.6663L123.681 34.7092C125.227 34.7565 125.985 35.6093 126.126 36.5674C126.126 36.5674 126.58 40.8465 126.421 42.1805C126.259 43.5338 123.061 43.8732 120.501 43.7937Z" fill="#7A4630"/>
<path d="M138.615 52.1116C138.615 52.1116 139.328 61.1145 138.097 59.9674C133.611 55.7828 134.302 47.9635 134.647 45.8733C134.991 43.7832 135.974 42.9819 137.32 43.8906C139.392 45.2826 138.615 52.1116 138.615 52.1116Z" fill="#A86243"/>
<path d="M110.206 41.5856C111.392 41.6221 112.961 41.9808 112.681 42.6016C111.833 44.4813 110.5 49.1513 109.802 53.0502C108.984 57.6172 108.25 61.7738 107.897 64.9209C107.734 66.373 106.469 67.5223 105.343 66.7103C105.024 66.4804 104.784 66.1582 104.709 65.7093C104.416 63.9113 103.397 56.0791 107.599 43.2418C108.119 41.6565 108.958 41.5469 110.206 41.5856Z" fill="#634874"/>
<path d="M136.349 42.6037C135.568 41.9936 132.308 41.3256 131.098 41.6993C129.889 42.0731 130.242 47.422 131.749 53.4669C133.207 59.3099 135.461 66.8842 136.664 68.2204C136.901 68.4824 137.235 68.6178 137.58 68.5941C138.303 68.5426 139.455 68.2891 139.395 67.1914C139.31 65.5996 138.04 58.5709 137.058 50.9299C136.223 44.4168 137.107 43.1945 136.349 42.6037Z" fill="#634874"/>
<path d="M140.405 85.2421C141.069 85.4526 141.803 85.2829 142.291 84.7846C143.449 83.6052 143.926 81.8373 143.768 79.9426C143.573 77.5883 140.739 76.7054 138.913 76.3144C137.468 76.003 136.269 75.6936 135.833 75.5776C135.721 75.5476 135.601 75.5733 135.511 75.6464L130.325 79.861C130.235 79.9341 130.186 80.0458 130.192 80.1618L130.295 82.1187C130.305 82.3121 130.464 82.4624 130.656 82.4624C130.973 82.4624 131.136 82.8405 130.922 83.0725L130.804 83.1992C130.704 83.3066 130.68 83.4656 130.74 83.5988L131.256 84.718C131.346 84.9113 131.579 84.9865 131.763 84.8812L132.093 84.6922C132.234 84.6106 132.412 84.6342 132.527 84.7502L133.456 85.6825C133.563 85.7899 133.726 85.82 133.863 85.7555L134.976 85.24C135.158 85.1562 135.37 85.2357 135.456 85.4183C135.574 85.6675 135.779 85.9897 136.111 86.1551C136.62 86.4107 138.778 85.3087 139.335 85.0166C139.42 84.9715 139.519 84.9629 139.611 84.9929L140.405 85.2421Z" fill="#A86243"/>
<path d="M135.356 75.7754L130.328 79.859C130.238 79.932 130.188 80.0438 130.195 80.1598L130.298 82.1167C130.308 82.31 130.467 82.4604 130.659 82.4604C130.976 82.4604 131.139 82.8385 130.925 83.0705L130.807 83.1972C130.706 83.3046 130.683 83.4636 130.743 83.5968L131.259 84.716C131.349 84.9093 131.582 84.9845 131.766 84.8792L132.096 84.6902C132.237 84.6086 132.415 84.6322 132.53 84.7482L133.459 85.6805C133.566 85.7879 133.729 85.818 133.866 85.7535L134.979 85.238C135.161 85.1542 135.373 85.2337 135.459 85.4163C135.576 85.6655 135.782 85.9877 136.114 86.1531C136.6 86.398 138.588 85.4034 139.252 85.0575C139.382 84.9888 139.459 84.847 139.444 84.6988L139.271 82.9459C139.217 82.4024 138.971 81.8933 138.577 81.5152L137.914 80.8772C137.481 80.4626 137.229 79.8955 137.21 79.2962L137.177 78.3596C137.162 77.9171 137.021 77.4875 136.769 77.1244L135.878 75.8441C135.758 75.6766 135.518 75.6422 135.356 75.7754Z" fill="#D77E5B"/>
<path d="M130.805 28.7805C130.523 36.3806 128.943 38.7651 123.904 38.851C120.094 38.9154 117.003 34.342 117.003 28.7805C117.003 23.2189 120.094 18.71 123.904 18.71C127.714 18.71 131.058 21.9386 130.805 28.7805Z" fill="#273150"/>
<path d="M128.68 27.0577C128.643 22.0718 128.102 19.2191 122.607 18.8131C119.738 18.6025 116.915 18.8646 115.251 19.7282C113.749 20.5101 112.841 21.7259 112.317 24.9976C111.921 27.4615 111.364 31.7234 112.186 35.85C112.713 38.4944 116.093 39.4954 119.072 39.7017C126.766 40.2344 127.948 38.1829 128.427 34.544C129.073 29.6182 128.692 29.1048 128.68 27.0577Z" fill="#7A4630"/>
<path d="M127.684 30.0758C127.637 25.7537 125.866 23.8762 120.919 23.5089C118.338 23.3177 113.252 24.6517 113.014 27.5131C112.759 30.6107 112.389 33.3088 112.937 35.9897C113.408 38.2946 115.872 39.1023 118.556 39.2914C125.483 39.7769 127.061 37.4225 127.47 34.269C127.819 31.5838 127.703 31.8502 127.684 30.0758Z" fill="#A96344"/>
<path d="M114.07 19.655C113.61 19.9343 113.432 20.2114 113.107 21.9943C113.039 22.3702 113.728 20.9181 114.349 20.351C114.969 19.7839 114.826 20.5443 118.075 20.4648C121.325 20.3854 125.931 19.8247 125.931 19.8247L126.383 24.3315L128.061 28.2454L129.074 26.0844C129.226 22.2478 128.537 20.0137 126.026 19.1674C121.43 17.6164 115.759 18.6282 114.07 19.655Z" fill="#273150"/>
<path d="M122.219 23.5969C122.161 24.3574 121.804 24.9438 121.418 24.9138C121.033 24.8837 120.763 24.25 120.812 23.4895C120.862 22.7205 121.221 22.1125 121.615 22.1426C122.007 22.1727 122.277 22.8279 122.219 23.5969Z" fill="#102342"/>
<path d="M116.784 23.7879C116.759 24.5054 116.446 25.0575 116.087 25.0296C115.725 25.0016 115.447 24.4044 115.464 23.687C115.481 22.963 115.793 22.3916 116.162 22.4196C116.532 22.4475 116.81 23.064 116.784 23.7879Z" fill="#102342"/>
<path d="M131.139 30.3205C130.634 32.3763 129.182 33.8198 127.883 33.6093C127.883 33.6093 127.924 28.9478 127.904 28.0585C127.892 27.5 128.213 25.7771 129.598 26.0049C130.978 26.2304 131.661 28.1938 131.139 30.3205Z" fill="#7A4630"/>
<path d="M130.407 31.7878C130.334 32.284 129.865 32.647 129.36 32.6062C128.855 32.5654 128.495 32.1336 128.562 31.6374C128.626 31.1369 129.097 30.7631 129.61 30.8039C130.122 30.8469 130.48 31.2894 130.407 31.7878Z" fill="#E2D6C9"/>
<path d="M150.923 72.0398C150.923 72.0398 145.371 72.1322 142.783 71.1247C140.195 70.1194 140.925 59.4173 146.071 58.0081C151.951 56.397 159.017 59.8383 162.926 62.6051C166.835 65.372 165.246 69.5093 159.591 71.4598C153.852 73.4382 150.923 72.0398 150.923 72.0398Z" fill="#1689CB"/>
<path d="M163.023 67.0111C163.023 69.7607 152.63 69.9004 149.46 69.9004C146.292 69.9004 143.723 67.6706 143.723 64.921C143.723 62.1713 146.292 59.9416 149.46 59.9416C152.628 59.9394 163.023 64.2615 163.023 67.0111Z" fill="#992C29"/>
<path d="M160.91 68.7447C160.91 68.7447 175.017 73.563 183.229 85.5948C190.258 95.8973 200.169 89.2574 206.035 92.0027C211.9 94.748 176.924 101.446 170.881 103.087C163.648 105.048 142.244 80.8087 146.251 74.1408C151.094 66.0789 160.91 68.7447 160.91 68.7447Z" fill="#1689CB"/>
<path d="M164.331 71.896C164.401 72.229 171.996 75.5049 176.808 83.0127C187.038 98.967 199.745 88.6365 205.608 91.3819C211.472 94.1272 209.778 101.21 209.778 101.21C209.778 101.21 200.004 98.4643 197.658 106.309C195.312 114.154 174.97 115.265 168.927 116.904C161.693 118.865 145.061 115.929 145.061 115.929C145.061 115.929 138.782 89.2595 146.707 71.5029C148.107 68.3644 157.979 69.1485 157.979 69.1485L164.331 71.896Z" fill="#992C29"/>
<path d="M152.7 48.612C152.7 48.612 150.102 47.742 147.503 51.2199C145.461 53.9523 144.422 56.4356 146.443 59.8146C147.015 60.7706 144.711 60.9746 146.154 65.0304C147.665 69.2773 156.26 69.4727 159.148 67.4449C159.148 67.4449 164.731 72.1773 170.985 68.7961C175.194 66.5212 169.446 60.4892 169.446 60.4892C169.446 60.4892 172.45 53.9266 165.52 47.4563C160.586 42.8507 155.299 46.0042 152.7 48.612Z" fill="#273150"/>
<path d="M150.709 55.9435C152.543 55.9435 154.029 53.4141 154.029 50.2939C154.029 47.1737 152.543 44.6443 150.709 44.6443C148.875 44.6443 147.389 47.1737 147.389 50.2939C147.389 53.4141 148.875 55.9435 150.709 55.9435Z" fill="#273150"/>
<path d="M157.855 47.5488C158.826 45.267 158.483 42.9337 157.09 42.3372C155.697 41.7407 153.781 43.1069 152.811 45.3886C151.841 47.6704 152.183 50.0037 153.576 50.6003C154.969 51.1968 156.885 49.8306 157.855 47.5488Z" fill="#273150"/>
<path d="M151.996 50.0404C151.996 50.0404 149.834 48.6355 147.417 51.4904C145 54.3452 144.613 56.8715 146.355 59.7843C146.848 60.6092 144.801 61.3869 146.045 64.884C146.739 66.8303 149.917 67.6272 149.714 67.2642C149.511 66.9012 149.686 65.8765 149.686 65.8765C151.872 67.1868 155.445 67.958 159.214 67.6616C161.331 68.9354 165.236 68.8066 167.76 67.4425C171.388 65.4834 166.432 60.2827 166.432 60.2827C166.432 60.2827 169.023 54.6266 163.048 49.0479C158.795 45.0717 154.237 47.7913 151.996 50.0404Z" fill="#3D4C6D"/>
<path d="M151.638 50.4078C151.638 53.0973 151.865 56.3603 150.283 56.3603C148.704 56.3603 147.421 54.1799 147.421 51.4905C147.421 48.801 148.704 46.6206 150.283 46.6206C151.863 46.6206 151.638 47.7183 151.638 50.4078Z" fill="#3D4C6D"/>
<path d="M155.786 47.5186C154.949 49.4841 153.952 52.2767 152.751 51.7612C151.55 51.2477 151.254 49.2349 152.089 47.2694C152.926 45.3038 154.577 44.1266 155.778 44.64C156.978 45.1556 156.623 45.553 155.786 47.5186Z" fill="#3D4C6D"/>
<path d="M163.689 68.7915C163.689 68.7915 166.117 68.1127 166.513 66.3555C166.513 66.3555 167.361 68.9054 163.689 68.7915Z" fill="#273150"/>
<path d="M166.366 74.7568C166.366 74.7568 170.39 82.6813 171.536 84.6748C172.681 86.6662 169.609 88.9862 167.605 88.447C165.602 87.9078 161.781 78.5719 160.822 76.5956C159.861 74.6171 163.832 71.5131 166.366 74.7568Z" fill="#F6874E"/>
<path d="M166.922 75.73C166.922 75.73 163.236 68.3425 160.755 68.7335C158.268 69.1245 158.317 70.2501 158.846 72.424C159.629 75.6463 161.774 79.9597 161.774 79.9597C161.774 79.9597 163.908 76.5592 166.922 75.73Z" fill="#C93F37"/>
<path d="M176.55 84.2218C176.55 84.2218 171.565 83.8953 170.392 83.5022C169.219 83.1091 165.064 85.0231 166.776 87.8178C168.176 90.1056 175.833 89.2227 177.137 88.7007C178.44 88.1787 178.993 84.6794 176.55 84.2218Z" fill="#F6874E"/>
<path d="M189.421 31.5492C189.421 31.5492 181.547 72.7164 181.453 73.3565C181.359 73.9966 181.276 74.5723 181.276 74.5723C181.145 74.8709 180.826 74.9204 179.659 74.6518L174.661 73.7797L181.637 30.0262C181.672 29.8028 185.852 26.0564 185.852 26.0564C185.991 26.0435 186.167 25.8416 186.518 26.2562L189.333 30.7694C189.5 31.1131 189.455 31.3688 189.421 31.5492Z" fill="#1FABE2"/>
<path d="M189.421 31.5492C189.421 31.5492 181.547 72.7164 181.453 73.3565C181.359 73.9966 181.276 74.5723 181.276 74.5723C181.145 74.8709 181.697 74.9375 180.533 74.6668L188.547 31.0938C188.547 31.0938 186.167 25.8394 186.52 26.254L189.335 30.7672C189.5 31.1131 189.455 31.3688 189.421 31.5492Z" fill="#197CCD"/>
<path d="M185.202 51.9328L185.611 50.2615C185.663 50.1412 185.438 50.0703 185.205 50.1348L183.621 50.573C183.479 50.6117 183.413 50.6998 183.473 50.7664L184.871 52.0553C184.971 52.167 185.147 52.0553 185.202 51.9328Z" fill="#197CCD"/>
<path d="M179.974 40.3632L181.102 39.5877L180.261 38.6554L179.974 40.3632Z" fill="#197CCD"/>
<path d="M187.632 38.2642L186.301 36.9796L187.964 36.8722L187.632 38.2642Z" fill="#197CCD"/>
<path d="M175.813 90.3417C175.792 90.4083 175.295 90.6425 174.405 90.4062C173.36 90.1291 173.452 89.4094 173.452 89.4094L175.218 74.0974L180.09 74.8815L175.813 90.3417Z" fill="#1D2538"/>
<path d="M173.619 94.9709C175.044 95.3382 176.38 94.2856 176.573 92.696C176.757 91.1858 175.83 89.7723 174.526 89.4694C173.238 89.1708 171.97 90.0537 171.669 91.5016C171.352 93.0246 172.21 94.6078 173.619 94.9709ZM174.381 90.9474C174.869 91.1192 175.229 91.7959 175.181 92.4725C175.134 93.1643 174.681 93.5853 174.173 93.3984C173.67 93.2115 173.319 92.5026 173.388 91.826C173.454 91.1643 173.897 90.7755 174.381 90.9474Z" fill="#1D2538"/>
<path d="M173.484 93.9849C174.291 94.2084 175.053 93.6004 175.175 92.6574C175.198 92.4727 175.194 92.2879 175.168 92.1118C175.186 92.2299 175.19 92.3524 175.181 92.4748C175.134 93.1665 174.68 93.5875 174.173 93.4007C173.67 93.2138 173.319 92.5049 173.387 91.8282C173.454 91.1666 173.897 90.7799 174.381 90.9496C174.683 91.057 174.935 91.3556 175.072 91.7294C174.886 91.2052 174.49 90.7885 173.993 90.6618C173.233 90.4663 172.497 91.0098 172.336 91.9012C172.174 92.8185 172.681 93.7637 173.484 93.9849Z" fill="#F6BE4A"/>
<path d="M175.154 92.0251C175.151 92.0103 175.149 91.9934 175.145 91.9786C175.149 91.9955 175.151 92.0103 175.154 92.0251Z" fill="#F6BE4A"/>
<path d="M175.11 91.8439C175.103 91.82 175.095 91.7962 175.086 91.7702C175.095 91.794 175.103 91.8179 175.11 91.8439Z" fill="#F6BE4A"/>
<path d="M175.091 90.3827C175.119 90.3827 175.147 90.3934 175.17 90.4106C175.346 90.5481 175.487 90.6984 175.588 90.8617C175.626 90.9218 175.601 91.0035 175.534 91.0421C175.468 91.0808 175.382 91.0636 175.346 91.0035C175.26 90.866 175.138 90.7349 174.986 90.6168C174.929 90.5717 174.924 90.4901 174.976 90.4342C175.003 90.3977 175.048 90.3805 175.091 90.3827Z" fill="#F4E8D8"/>
<path d="M175.567 84.1058C174.67 84.1058 174.041 84.3893 174.041 84.3893L174.923 76.9073C174.983 76.0996 175.18 73.7538 175.18 73.7538C175.18 73.7538 179.78 74.4241 180.36 74.5981C180.36 74.5981 179.733 77.1458 179.521 77.8654L177.588 84.3657C177.588 84.3678 176.464 84.1058 175.567 84.1058Z" fill="#C73F37"/>
<path d="M178.2 82.3055L177.928 83.2056C177.928 83.2056 176.376 83.0745 174.51 83.0745C174.512 83.0745 175.075 82.5375 178.2 82.3055Z" fill="#1D2538"/>
<path d="M174.036 84.4472C174.036 84.4472 176.6 84.4257 177.442 84.8618L177.114 85.9316C177.114 85.9316 174.498 85.2012 173.948 85.2012L174.036 84.4472Z" fill="#C73F37"/>
<path d="M174.352 81.7643L174.389 81.47C174.389 81.47 176.347 81.3583 177.649 81.7729L174.352 81.7643Z" fill="#1D2538"/>
<path d="M178.612 80.7869L178.852 80.0243C178.852 80.0243 176.246 79.4572 174.532 80.1339C174.532 80.1339 177.679 80.0243 178.612 80.7869Z" fill="#1D2538"/>
<path d="M179.521 77.8675L179.129 79.1671C179.129 79.1671 176.571 78.1252 174.717 78.4732L174.987 76.1296C174.987 76.1296 176.926 76.9158 179.521 77.8675Z" fill="#1D2538"/>
<path d="M179.922 76.3059L180.113 75.6271C180.113 75.6271 177.679 74.4585 175.603 74.9676C175.603 74.9676 179.668 75.7323 179.922 76.3059Z" fill="#1D2538"/>
<path d="M170.953 70.0077C171.098 69.9454 171.263 69.9261 171.422 69.954L185.646 72.1473C185.828 72.1859 186.008 72.491 186.517 73.2579C186.86 73.7734 187.02 74.4372 186.44 74.71C185.68 75.0687 184.837 75.6767 184.524 75.5843L170.876 73.1462C170.666 73.1053 170.011 72.5769 169.743 72.3578C169.439 72.1086 169.016 71.6296 168.757 71.2236C168.564 70.9228 168.684 70.5275 169.009 70.3879L170.953 70.0077Z" fill="#C73F37"/>
<path d="M170.597 69.3996C170.751 69.333 170.92 69.3137 171.087 69.3437L185.53 71.9194C185.568 71.928 186.568 73.0278 186.439 73.4381C186.311 73.8484 184.575 74.5745 184.575 74.5745C184.575 74.5745 169.852 72.1858 169.721 72.0075C169.479 71.6766 169.079 71.3415 168.807 70.9183C168.606 70.6047 168.732 70.1923 169.07 70.0462L170.597 69.3996Z" fill="#197CCD"/>
<path d="M170.597 69.3996C170.751 69.333 170.92 69.3137 171.087 69.3437L172.893 71.3974L184.575 74.5745C184.575 74.5745 169.852 72.1858 169.721 72.0075C169.364 71.653 169.079 71.3415 168.807 70.9183C168.606 70.6047 168.732 70.1923 169.07 70.0462L170.597 69.3996Z" fill="#1FABE2"/>
<path d="M178.795 50.004L178.161 53.7697L182.714 60.4655L183.406 56.7922L178.795 50.004Z" fill="#1FABE2"/>
<path d="M178.026 54.8803L177.847 56.3303L182.398 63.0261L182.637 61.6663L178.026 54.8803Z" fill="#1FABE2"/>
<path d="M173.043 69.7562L173.465 70.3534C173.606 70.5639 173.649 70.5854 173.865 70.4458L174.552 70.0226L173.043 69.7562Z" fill="#C73F37"/>
<path d="M174.868 83.4934C174.733 83.8178 175.08 83.9209 175.57 83.9746C175.923 84.0132 176.576 83.6567 176.576 83.6567C176.576 83.6567 177.165 83.85 177.411 83.9982C177.537 84.0734 176.426 83.9746 176.032 83.9982C175.639 84.0218 174.746 84.3999 174.746 84.3999C174.72 84.4021 174.695 84.4064 174.671 84.4149C174.371 84.5224 174.183 84.8403 174.239 85.3365C174.247 85.4031 174.279 85.4525 174.329 85.4976C174.391 85.5556 174.504 85.5792 174.461 85.7575C174.403 85.9917 174.134 86.1614 174.136 86.3311C174.136 86.4278 174.324 87.244 174.388 87.3171L175.253 87.3515C175.253 87.3515 174.26 87.4653 174.189 87.9207C174.067 88.7112 174.737 89.1258 175.202 89.0506C175.778 88.9583 175.773 89.2418 176.27 89.3278C176.27 89.3278 177.495 89.4609 177.657 89.0335C177.828 88.5845 178.374 88.2343 178.543 87.6006C178.642 87.229 178.642 86.4901 178.912 86.0454C179.44 85.1775 178.79 84.9241 178.935 84.3655C179.064 83.8822 179.402 83.8478 179.231 83.2786C179.096 82.8361 178.633 82.7115 178.295 82.5869C177.957 82.4644 177.064 82.3892 176.18 82.4881C176.182 82.4924 175.005 83.169 174.868 83.4934Z" fill="#CE6D3E"/>
<path d="M174.867 83.4929C174.732 83.8173 175.074 83.9698 175.564 84.0235C175.918 84.0621 176.573 83.6562 176.573 83.6562C176.573 83.6562 177.161 83.8495 177.408 83.9977C177.534 84.0729 176.423 83.9741 176.029 83.9977C175.635 84.0213 174.742 84.3994 174.742 84.3994C174.717 84.4016 174.691 84.4059 174.668 84.4144C174.368 84.5219 174.154 84.8677 174.212 85.3618C174.22 85.4284 174.355 85.5916 174.404 85.6367C174.466 85.6947 174.417 85.7699 174.404 85.7957C174.297 86.0127 174.167 86.0599 174.13 86.2253C174.045 86.6077 174.145 86.9621 174.385 87.3166L175.293 87.351C175.293 87.351 174.246 87.4627 174.186 87.9202C174.128 88.3606 174.505 88.9599 175.008 88.831C175.727 88.6463 176.596 88.9427 176.688 88.9019C177.337 88.6055 176.77 87.9739 176.984 87.4863C177.142 87.1254 177.155 86.713 177.322 86.3242C177.467 85.9869 177.408 85.0202 177.408 85.0202L178.255 84.2555C178.255 84.2555 178.227 83.5187 178.17 83.2351C178.065 82.7067 176.701 82.3887 176.179 82.4875C176.085 82.509 175.004 83.1685 174.867 83.4929Z" fill="#F6874E"/>
<path d="M173.767 85.4483C174.278 86.2217 174.929 85.4183 174.777 84.2432C174.704 83.6783 174.527 82.9479 173.675 83.1993C172.823 83.4506 172.853 84.0671 173.767 85.4483Z" fill="#F6874E"/>
<path d="M181.503 109.69C181.546 110.863 177.127 111.396 175.997 112.981C174.366 115.271 175.772 115.361 160.754 116.494C148.604 117.411 144.795 111.518 144.947 109.035C145.097 106.586 153.808 103.349 162.972 103.338C172.153 103.33 181.413 107.205 181.503 109.69Z" fill="#EC5E4D"/>
<path d="M146.644 117.321C146.644 117.321 144.298 107.762 144.103 104.853C143.908 101.944 153.682 97.7878 155.442 102.567C157.201 107.347 157.593 115.035 157.593 118.569C157.593 122.103 157.007 125.22 152.706 125.011C146.421 124.706 148.17 123.583 146.644 117.321Z" fill="#273150"/>
<path d="M146.644 117.321C146.644 117.321 144.298 107.762 144.103 104.853C143.908 101.944 153.682 97.7878 155.442 102.567C157.201 107.347 157.593 115.035 157.593 118.569C157.593 122.103 157.007 125.22 152.706 125.011C146.421 124.706 148.17 123.583 146.644 117.321Z" fill="#102441"/>
<path d="M153.515 118.127C150.934 117.508 147.297 119.656 147.553 122.517C147.748 124.7 145.567 125.323 144.101 129.583C142.634 133.842 153.483 136.648 154.461 131.245C155.437 125.843 160.455 119.789 153.515 118.127Z" fill="#273150"/>
<path d="M153.682 117.426C151.1 116.808 147.301 119.656 147.558 122.517C147.752 124.7 149.056 125.965 147.59 130.225C146.123 134.485 153.487 136.65 154.466 131.245C155.44 125.843 160.62 119.089 153.682 117.426Z" fill="#102441"/>
<path d="M154.463 131.245C153.485 136.648 147.622 151.717 147.035 154.417C146.449 157.119 144.495 158.123 144.495 158.123C144.495 158.123 141.819 159.356 141.902 153.266C141.964 148.613 142.639 133.844 144.105 129.584C144.105 129.584 147.819 128.025 150.165 128.65C152.509 129.271 154.463 131.245 154.463 131.245Z" fill="#F6874E"/>
<path d="M154.461 131.245C153.483 136.648 147.619 151.717 147.033 154.417C146.746 155.743 146.414 157.732 145.697 157.786C144.954 157.842 144.654 158.342 144.46 153.689C144.265 149.324 146.121 133.842 147.587 129.583C147.587 129.583 147.816 128.023 150.162 128.648C152.506 129.271 154.461 131.245 154.461 131.245Z" fill="#CE6D3E"/>
<path d="M144.655 151.981C143.583 154.018 141.626 155.218 141.626 155.218C141.626 155.218 140.239 157.682 140.438 158.61C140.567 159.173 141.13 160.608 141.13 160.608C141.13 160.608 141.549 165.603 141.697 166.191C141.915 167.072 150.715 168.481 151.304 168.704C151.893 168.928 151.764 163.959 151.764 163.959C151.764 163.959 147.992 159.285 147.286 157.285C146.59 155.322 145.813 149.786 144.655 151.981Z" fill="#CE6D3E"/>
<path d="M159.546 101.111C157.592 102.773 156.451 106.513 157.917 110.047C159.383 113.581 160.719 119.952 162.087 121.408C163.455 122.865 165.801 124.803 168.539 124.803C171.275 124.803 172.448 120.854 171.96 117.737C171.472 114.62 169.712 105.787 168.344 101.839C166.976 97.8906 161.501 99.448 159.546 101.111Z" fill="#102441"/>
<path d="M162.456 119.2C161.487 120.24 161.245 123.679 160.699 125.531C159.965 128.022 159.824 129.909 159.965 133.32C160.108 136.787 160.802 141.274 161.14 143.691C161.834 148.655 160.391 150.501 162.737 150.776C165.083 151.053 164.691 150.221 165.603 147.727C166.515 145.233 169.839 132.211 170.49 129.578C171.141 126.946 171.533 124.036 171.663 121.681C171.794 119.327 165.047 116.423 162.456 119.2Z" fill="#273150"/>
<path d="M162.786 118.893C161.303 119.896 161.11 123.662 161.547 127.698C161.894 130.901 169.842 132.214 170.492 129.582C171.143 126.951 171.535 124.04 171.666 121.686C171.796 119.331 165.601 116.612 162.786 118.893Z" fill="#102441"/>
<path d="M160.164 127.911C159.374 130.489 159.768 134.88 160.881 143.041C161.557 148.007 160.555 151.515 162.902 151.792C165.248 152.069 165.652 152.147 166.125 149.534C166.605 146.886 169.839 132.216 170.49 129.585C170.49 129.585 167.557 127.784 164.822 127.645C162.086 127.505 160.164 127.911 160.164 127.911Z" fill="#F6874E"/>
<path d="M161.547 127.698C161.562 130.643 162.733 139.807 162.868 144.707C163.007 149.77 161.662 151.068 164.009 151.345C166.355 151.622 165.665 152.148 166.128 149.534C166.629 146.694 169.842 132.216 170.492 129.584C170.492 129.584 167.682 127.874 164.824 127.645C163.67 127.55 161.547 127.698 161.547 127.698Z" fill="#CE6D3E"/>
<path d="M161.289 149.001C161.289 149.001 161.019 150.651 160.278 152.385C159.642 153.871 162.952 154.552 164.157 155.659C164.157 155.659 172.906 160.251 175.836 158.797C179.092 157.182 170.063 152.589 172.645 153.998C172.645 153.998 167.171 151.296 166.39 149.218C165.606 147.143 161.289 149.001 161.289 149.001Z" fill="#F6874E"/>
<path d="M162.689 148.731C162.576 151.195 161.499 151.751 161.108 153.208C160.352 156.015 165.902 157.74 165.539 157.523C165.539 157.523 172.804 160.056 175.736 158.602C179.052 156.956 170 152.621 172.641 154C172.641 154 167.168 151.298 166.386 149.221C165.605 147.143 162.792 146.508 162.689 148.731Z" fill="#CE6D3E"/>
<path d="M160.489 151.169C160.628 150.892 160.883 150.651 160.925 150.928C160.97 151.205 161.392 152.267 161.97 152.593C162.546 152.92 169.122 156.516 171.427 155.86C172.834 155.461 171.817 154.187 170.811 153.253C170.169 152.655 169.529 152.198 169.529 152.198C169.529 152.198 172.478 153.865 173.833 154.649C175.188 155.433 178.038 158.114 178.307 159.16C178.579 160.206 168.291 160.337 166.816 159.65C165.342 158.962 163.156 157.001 162.343 156.217C161.593 155.495 160.722 155.817 160.444 155.497C159.814 154.778 160.067 152 160.489 151.169Z" fill="#992C29"/>
<path d="M157.494 68.5619C157.494 68.5619 160.097 67.9733 161.013 69.1505C162.066 70.5059 164.881 73.9881 165.02 76.7592C165.131 78.9675 164.752 80.7333 163.644 83.8051C162.734 86.3292 161.507 90.2044 159.962 90.909C155.252 93.055 151.23 92.7049 148.599 91.1217C147.621 90.5331 146.583 89.0401 146.662 85.1327C146.696 83.4485 146.645 82.8835 146.253 76.901C145.729 68.8583 148.893 68.5253 152.112 68.3449C155.329 68.1623 157.494 68.5619 157.494 68.5619Z" fill="#F6BE4A"/>
<path d="M157.149 71.6961L156.635 71.6682C155.715 71.6188 155.008 70.8283 155.06 69.9046L155.423 63.1293C155.473 62.2056 156.26 61.4967 157.181 61.5483L157.695 61.5762C158.615 61.6256 159.321 62.4161 159.27 63.3398L158.906 70.1151C158.855 71.0388 158.069 71.7455 157.149 71.6961Z" fill="#F6874E"/>
<path d="M157.281 68.9509L156.767 68.9229C155.847 68.8735 155.14 68.083 155.191 67.1593L155.555 60.384C155.605 59.4603 156.392 58.7514 157.313 58.8029L157.827 58.8309C158.747 58.8803 159.453 59.6708 159.402 60.5945L159.038 67.3698C158.987 68.2914 158.201 69.0003 157.281 68.9509Z" fill="#CE6D3E"/>
<path d="M141.97 154.95C141.692 155.04 141.101 155.51 140.996 155.785C140.536 156.991 140.149 158.129 140.262 158.844C140.307 159.124 140.575 159.837 140.851 161.19C141.157 162.681 140.951 165.366 141.778 166.496C142.602 167.626 149.64 170.079 151.203 169.785C152.768 169.491 151.882 164.87 151.762 163.961C151.635 163.003 148.208 158.711 146.783 155.519C146.783 155.519 146.795 155.833 147.022 156.632C147.557 158.501 148.6 162.419 147.142 162.563C145.055 162.767 142.06 159.921 141.936 158.496C141.814 157.089 141.585 155.966 141.626 155.676C141.666 155.382 141.97 154.95 141.97 154.95Z" fill="#992C29"/>
<path d="M163.973 106.863L167.957 110.384C168.374 110.715 168.957 110.455 168.873 109.97C168.586 108.305 167.739 105.493 163.973 106.863Z" fill="#EC5E4D"/>
<path d="M146.773 86.4777C146.122 87.7193 141.105 103.414 145.925 113.875C145.925 113.875 150.172 109.248 156.239 107.996C168.321 105.504 167.278 108.926 167.589 109.83C167.794 110.432 168.445 110.743 169.044 110.537C169.198 110.483 169.372 110.419 169.564 110.341C172.279 109.255 176.999 107.605 181.391 109.164C181.391 109.164 172.87 94.9392 161.473 87.8439C150.564 81.06 147.424 85.236 146.773 86.4777Z" fill="#F6BE4A"/>
<path d="M168.434 108.905C168.434 108.905 167.306 100.746 164.482 98.254C164.482 98.254 165.61 100.181 165.61 101.652L164.255 100.746C164.255 100.746 165.66 102.825 166.627 104.939C167.475 106.791 167.854 108.692 168.434 108.905Z" fill="#F6BE4A"/>
<path d="M165.206 55.8575C166.861 63.8464 163.616 66.5703 157.999 66.3941C153.777 66.2609 150.32 63.58 150.044 58.2784C149.766 52.9768 151.99 48.6268 156.158 47.9265C161.659 47.0028 164.129 50.6675 165.206 55.8575Z" fill="#CE6D3E"/>
<path d="M163.27 57.675C163.354 58.0681 163.42 58.4441 163.474 58.8028C164.253 64.1495 161.723 66.0012 157.538 65.8745C154.181 65.7714 151.431 63.6855 151.21 59.5589C150.99 55.4323 154.453 52.6634 157.769 52.1199C162.147 51.4003 162.414 53.6343 163.27 57.675Z" fill="#F6874E"/>
<path d="M150.662 62.1232C151.953 61.9237 152.792 60.4182 152.535 58.7607C152.278 57.1031 151.023 55.9211 149.732 56.1206C148.441 56.3201 147.603 57.8255 147.86 59.4831C148.116 61.1407 149.371 62.3227 150.662 62.1232Z" fill="#F6874E"/>
<path d="M150.04 56.0832L151.395 57.5761C151.395 57.5761 151.402 51.3315 156.278 49.6108C160.619 48.0771 162.605 49.7956 162.605 49.7956C162.605 49.7956 160.262 45.9096 154.36 48.4551C149.424 50.5839 150.04 56.0832 150.04 56.0832Z" fill="#F6BE4A"/>
<path d="M154.075 56.9487C154.455 56.9487 154.762 56.3717 154.762 55.6598C154.762 54.948 154.455 54.371 154.075 54.371C153.696 54.371 153.388 54.948 153.388 55.6598C153.388 56.3717 153.696 56.9487 154.075 56.9487Z" fill="#273150"/>
<path d="M161.137 56.3967C161.516 56.3967 161.824 55.8197 161.824 55.1078C161.824 54.396 161.516 53.8189 161.137 53.8189C160.757 53.8189 160.45 54.396 160.45 55.1078C160.45 55.8197 160.757 56.3967 161.137 56.3967Z" fill="#273150"/>
<path d="M161.96 48.6998C161.96 48.6998 163.197 50.2099 164.467 50.8565C165.426 51.3463 166.196 51.4365 166.196 51.4365L166.004 51.0499L166.481 50.6804C166.481 50.6804 164.687 50.4913 162.332 48.4742L161.96 48.6998Z" fill="#EE5D4F"/>
<path d="M161.836 48.5239C161.836 48.5239 162.485 50.367 163.457 51.411C164.191 52.1993 164.885 52.5495 164.885 52.5495L164.835 52.122L165.411 51.9394C165.411 51.9394 163.791 51.1468 162.267 48.4401L161.836 48.5239Z" fill="#EE5D4F"/>
<path d="M162.621 49.4969C163.079 49.4153 163.513 46.9642 162.424 46.9127C161.398 46.8633 160.236 46.9965 160.428 47.7719C160.623 48.5474 162.165 49.5785 162.621 49.4969Z" fill="#EE5D4F"/>
<path d="M163.016 48.1028C163.016 48.1028 162.847 47.0524 162.522 47.076C162.196 47.0996 162.487 47.5486 162.571 48.2403C162.657 48.932 163.074 48.5475 163.016 48.1028Z" fill="#F7BC4B"/>
<path d="M162.241 48.9901C162.241 48.9901 162.172 48.5067 162.874 48.0384C163.576 47.5701 164.111 47.3145 164.557 47.5938C165.002 47.873 165.158 49.0953 164.903 49.7118C164.649 50.3284 163.086 49.8601 162.692 49.6281C162.298 49.3939 162.241 48.9901 162.241 48.9901Z" fill="#EE5D4F"/>
<path d="M164.795 48.5798C164.795 48.5798 164.943 49.5615 164.507 49.7205C163.858 49.9589 164.267 48.1008 164.305 47.8086C164.342 47.5143 164.913 47.8774 164.795 48.5798Z" fill="#F7BC4B"/>
<path d="M147.816 81.4832C147.816 81.4832 150.368 87.1929 151.532 88.4453C152.705 89.7084 154.257 91.1112 155.783 90.5183C157.305 89.9275 157.978 86.1232 156.905 84.1297C155.846 82.162 153.902 76.4866 153.247 75.5908C152.596 74.6993 150.171 75.3309 148.989 76.0505C147.799 76.7723 146.96 79.35 147.816 81.4832Z" fill="#F6874E"/>
<path d="M154.046 77.1478C154.046 77.1478 151.854 68.2996 148.922 68.6905C146.122 69.0643 145.606 71.4616 145.959 74.7461C146.319 78.1015 147.858 81.6503 147.858 81.6503C147.858 81.6503 148.442 78.4324 154.046 77.1478Z" fill="#EC5E4D"/>
<path d="M153.159 74.2739C153.159 74.2739 151.857 68.2999 148.925 68.6909C146.125 69.0647 145.609 71.462 145.962 74.7465C146.322 78.1019 146.874 78.7528 146.874 78.7528C146.874 78.7528 147.165 76.6347 147.555 75.3609C147.891 74.2675 150.031 73.7584 150.031 73.7584L153.159 74.2739Z" fill="#C93F37"/>
<path d="M170.684 79.4812C170.684 79.4812 166.253 80.3963 163.78 81.2148C161.601 81.9365 157.868 83.1567 155.736 84.669C153.585 86.1963 153.336 88.3789 153.908 89.8052C154.486 91.2445 157.262 90.3874 159.555 89.6012C161.837 88.8171 170.515 84.6518 172.638 83.2748C174.745 81.9065 174.201 78.1429 170.684 79.4812Z" fill="#CE6D3E"/>
<path d="M161.398 82.031C159.052 82.684 157.868 83.1567 155.736 84.669C153.585 86.1963 153.336 88.3789 153.908 89.8052C154.486 91.2445 157.262 90.3874 159.555 89.6012C161.839 88.8171 163.464 81.4553 161.398 82.031Z" fill="#F6874E"/>
<path d="M172.192 82.2607C172.836 83.1457 174.472 83.0104 175.022 82.5421C175.69 81.9771 176.088 81.4959 176.512 81.4981C176.777 81.4981 177.755 81.6828 178.291 81.9256C178.321 81.9836 178.192 82.2113 178.216 82.2757C178.248 82.3659 178.276 82.4196 178.372 82.4261C178.98 82.469 179.481 82.0673 179.449 81.4293L179.387 80.5808L180.009 79.8247L180.129 77.4553L178.064 75.2255C177.961 75.1159 177.815 75.0579 177.666 75.0687L174.857 75.277C174.688 75.2899 174.534 75.3823 174.444 75.5241L171.894 79.5282C171.892 79.5304 171.548 81.3756 172.192 82.2607Z" fill="#CE6D3E"/>
<path d="M178.188 80.7463C178.382 80.959 178.688 81.2833 178.952 81.4896C179.236 81.713 179.47 81.7924 179.451 81.4294L179.388 80.5809L180.166 79.9601C180.166 79.9601 180.345 78.1213 180.285 77.5907C180.125 76.1815 178.044 75.1353 178.044 75.1353C177.86 75.043 177.815 75.0602 177.665 75.0709C177.665 75.0709 177.004 76.1686 176.963 76.4994C176.922 76.8302 177.532 78.2845 177.532 78.2845C177.532 78.2845 176.867 79.133 176.83 79.3865C176.743 79.9816 177.511 80.0095 178.188 80.7463Z" fill="#F6874E"/>
<path d="M146.95 76.9956C146.95 76.9956 147.144 75.6724 148.123 75.2792C148.123 75.2792 147.037 78.4521 146.87 78.7528C146.704 79.0535 146.706 77.7324 146.95 76.9956Z" fill="#C93F37"/>
<path d="M146.315 70.4565C145.793 71.9602 143.838 77.0599 141.884 88.3076C139.929 99.5553 143.057 114.07 144.881 115.641C146.705 117.211 153.09 105.57 166.775 112.829C166.775 112.829 157.388 99.3212 152.114 95.6306C145.662 91.1195 146.184 80.1983 146.966 74.379C147.749 68.5618 146.315 70.4565 146.315 70.4565Z" fill="#1FABE2"/>
<path d="M141.884 88.3097C139.929 99.5573 143.057 114.072 144.881 115.643C146.705 117.213 153.09 105.572 166.775 112.831C166.775 112.831 161.811 105.888 158.733 102.296C158.733 102.296 154.768 108.154 153.751 107.942C153.148 107.815 148.216 108.242 145.283 104.713C142.35 101.183 141.884 88.3097 141.884 88.3097Z" fill="#1689CB"/>
<path d="M145.115 101.566C145.115 101.566 145.278 102.833 146.725 104.964C148.474 107.54 153.755 108.618 153.755 108.618L155.872 107.215C155.872 107.215 152.965 106.975 150.479 105.729C147.994 104.483 145.209 102.356 145.115 101.566Z" fill="#1689CB"/>
<path d="M154.656 68.0226C153.673 67.7949 148.107 67.3352 146.543 70.0827C144.978 72.828 146.249 77.9127 146.249 77.9127C146.249 77.9127 146.54 73.7217 148.645 72.3877C149.863 71.6143 157.043 74.1406 158.077 74.2995C159.982 74.5938 157.588 71.8485 157.588 71.8485C157.588 71.8485 155.927 68.3169 154.656 68.0226Z" fill="#1FABE2"/>
<path d="M159.199 68.3986C158.523 68.5726 156.633 75.0063 158.497 73.8592C158.987 73.5563 161.687 72.7314 164.769 73.0257C166.822 73.2212 168.438 74.3833 168.582 74.1535C169.072 73.3672 162.078 67.6532 159.199 68.3986Z" fill="#1689CB"/>
<path d="M158.418 73.3027C158.607 73.3027 158.76 73.1488 158.76 72.959C158.76 72.7692 158.607 72.6153 158.418 72.6153C158.228 72.6153 158.075 72.7692 158.075 72.959C158.075 73.1488 158.228 73.3027 158.418 73.3027Z" fill="#273150"/>
<path d="M104.253 99.3408C104.253 99.3408 104.484 95.038 102.232 94.7888C99.9801 94.5396 95.1808 99.5277 94.0955 100.058C93.0102 100.591 92.154 102.305 91.5995 102.836C91.0451 103.366 89.5553 103.772 88.729 104.438C87.9006 105.106 85 107.115 87.0807 109.358C89.1657 111.605 89.9534 112.264 92.8261 111.04C95.6903 109.817 105.002 101.562 104.253 99.3408Z" fill="#1D2436"/>
<path d="M99.7917 122.91C99.7917 122.91 92.1903 120.413 83.4737 119.307C79.5435 118.809 79.3445 124.74 81.9432 129.313C83.371 131.829 90.9852 133.64 98.0278 137.128C103.85 140.011 109.161 144.907 111.578 144.806C116.91 144.58 113.522 125.859 99.7917 122.91Z" fill="#48598B"/>
<path d="M92.8159 125.548C91.6557 125.447 93.7492 127.715 94.2951 128.71C95.8834 131.603 97.1828 134.907 98.5806 137.004C99.8157 138.855 98.9488 136.374 97.9448 133.223C97.4889 131.792 97.1464 130.422 96.8146 129.485C96.6284 128.957 92.8159 125.548 92.8159 125.548Z" fill="#273150"/>
<path d="M93.0584 160.232C93.0584 160.232 88.5995 163.997 87.039 166.03C85.472 168.068 89.657 170.281 93.3709 169.77C97.0764 169.26 100.589 167.903 101.844 165.879C103.094 163.862 103.102 163.841 105.061 161.675C107.013 159.519 104.327 154.941 103.22 153.979C102.111 153.018 93.6706 156.969 93.0584 160.232Z" fill="#EC6141"/>
<path d="M93.175 159.25C93.175 159.25 88.7161 163.016 87.1556 165.048C85.5886 167.086 90.0433 168.448 93.7573 167.937C97.4627 167.428 99.9929 166.788 101.247 164.764C102.497 162.747 103.409 162.451 105.368 160.285C107.32 158.129 104.443 153.961 103.337 152.999C102.228 152.037 93.7872 155.987 93.175 159.25Z" fill="#13161F"/>
<path d="M90.5864 153.229C90.5864 153.229 91.9436 155.317 91.6803 156.167C91.417 157.02 90.6142 159.385 93.7952 160.457C96.5052 161.37 103.071 157.452 105.14 156.079C105.509 155.834 105.753 155.439 105.793 155.02C105.905 153.854 105.967 151.452 104.847 150.03C103.327 148.103 103.526 148.657 101.123 142.305C98.7379 135.998 91.1237 122.878 90.6463 121.531C90.169 120.186 83.9762 118.906 82.7282 119.054C81.478 119.202 76.6338 125.625 76.7623 127.395C76.8907 129.169 79.635 135.309 81.9939 140.525C84.3658 145.77 87.277 148.202 87.9727 149.706C89.0623 152.062 90.5864 153.229 90.5864 153.229Z" fill="#48598B"/>
<path d="M103.278 148.14C102.158 146.048 102.697 149.186 102.109 151.409C101.771 152.685 104.399 150.232 103.278 148.14Z" fill="#273150"/>
<path d="M90.4989 152.587C90.4989 152.587 91.8432 156.086 92.5945 156.346C93.3459 156.608 95.5957 156.313 97.122 155.529C98.6482 154.743 93.2239 155.987 90.4989 152.587Z" fill="#273150"/>
<path d="M79.1318 130.108C79.1318 130.108 79.9495 128.703 80.5982 127.417C81.2468 126.13 81.555 130.488 80.1529 131.61C78.7507 132.733 79.1318 130.108 79.1318 130.108Z" fill="#273150"/>
<path d="M96.0534 130.059L91.6672 127.898L86.2536 123.552C86.2536 123.552 87.5208 123.578 88.5141 124.276C88.9636 124.592 91.329 126.557 92.6177 127.586C94.1696 128.83 95.5739 129.56 96.0534 130.059Z" fill="#273150"/>
<path d="M122 100.732C122 100.732 99.5384 95.7681 103.82 92.4943C108.073 89.2398 119.941 83.3818 124.28 89.6824C128.649 96.028 124.633 102.988 122 100.732Z" fill="#1D2436"/>
<path d="M130.637 146.333C130.637 146.333 130.988 145.502 132.03 144.778C133.07 144.056 136.296 144.357 136.872 145.64C137.448 146.926 137.442 155.747 137.442 156.344C137.442 156.943 136.284 159.429 135.233 160.889C134.179 162.354 132.195 162.636 130.446 161.948C128.697 161.261 129.881 158.234 130.354 156.788C130.827 155.349 129.819 147.882 130.637 146.333Z" fill="#EC6141"/>
<path d="M129.953 145.648C129.953 145.648 130.015 145.137 131.058 144.413C132.098 143.691 135.324 143.992 135.9 145.274C136.476 146.561 136.758 155.061 136.758 155.658C136.758 156.258 135.6 158.743 134.549 160.204C133.496 161.669 131.512 161.95 129.763 161.263C128.014 160.576 129.197 157.549 129.671 156.103C130.144 154.662 129.135 147.197 129.953 145.648Z" fill="#13161F"/>
<path d="M124.568 148.967C124.568 148.967 128.472 145.618 130.304 145.537C134.217 145.36 133.312 149.309 133.303 152.03C133.297 154.761 131.186 156.771 130.403 157.293C129.619 157.815 130.985 157.549 128.71 160.662C126.421 163.789 122.358 167.538 119.653 167.92C117.591 168.212 110.677 164.567 114.374 157.13C115.53 154.808 122.491 150.933 124.568 148.967Z" fill="#273150"/>
<path d="M111.932 132.413C111.932 132.413 111.208 150.247 111.506 156.986C111.806 163.785 111.497 166.988 113.137 168.67C114.779 170.356 117.759 170.67 119.848 169.978C121.933 169.286 121.184 168.414 122.845 167.95C124.504 167.488 125.694 162.434 126.118 160.726C126.542 159.022 127.674 142.467 128.115 136.482C128.554 130.547 127.364 127.513 122.524 127.573C117.675 127.638 112.803 128.929 111.932 132.413Z" fill="#273150"/>
<path d="M111.491 135.296C111.491 135.296 111.247 151.876 111.481 158.069C111.718 164.318 111.474 167.259 112.765 168.807C114.058 170.356 116.408 170.646 118.055 170.008C119.698 169.372 123.783 163.147 124.117 161.579C124.451 160.013 125.641 149.341 124.571 139.23C123.995 133.795 123.978 130.987 120.163 131.043C116.342 131.097 112.178 132.093 111.491 135.296Z" fill="#47588A"/>
<path d="M98.4754 126.693C99.6613 128.246 100.95 129.376 102.515 130.615C102.881 130.905 115.286 136.108 115.286 136.108C115.286 136.108 108.324 133.453 109.292 134.147C113.426 137.109 114.504 139.116 119.327 140.293C120.453 140.568 122.795 138.349 123.465 139.083C125.616 141.438 124.852 145.895 125.03 143.693C125.664 135.833 128.393 132.248 122.489 129.176C116.27 125.941 95.1659 122.354 98.4754 126.693Z" fill="#273150"/>
<path d="M101.146 122.76C101.328 121.131 100.937 114.833 100.999 106.857C101.061 98.9667 101.005 95.8347 105.56 93.9916C110.094 92.1571 115.776 91.6136 120.082 94.4362C122.08 95.7444 122.955 124.394 123.336 126.955C123.717 129.524 119.218 133.737 115.15 133.999C111.077 134.263 100.626 127.442 101.146 122.76Z" fill="#F6BE4A"/>
<path d="M111.25 124.601C111.25 124.601 110.603 125.812 110.871 126.976C108.497 125.941 106.162 124.77 105.515 123.947C105.515 123.947 107.6 127.479 110.728 128.656C113.855 129.833 116.721 129.309 116.721 129.309C116.721 129.309 112.256 126.227 111.25 124.601Z" fill="#F6BE4A"/>
<path d="M98.4393 125.226C98.4393 125.309 98.4693 125.389 98.5271 125.449C98.9938 125.939 100.407 128.057 102.579 128.796C103.162 128.994 104.163 128.566 104.168 128.317L104.178 127.808C104.181 127.685 102.965 127.803 102.858 127.748C102.215 127.408 99.5032 125.275 98.373 123.935C98.1782 123.703 98.4415 124.916 98.4393 125.226Z" fill="#F4E8D8"/>
<path d="M107.435 93.1409C107.985 92.8337 100.728 96.3588 103.986 110.94C104.853 114.818 103.992 121.587 104.275 122.899C104.56 124.212 105.435 127.142 104.147 127.806C101.76 129.034 99.4993 125.258 98.6666 124.412C97.3737 123.101 100.032 122.487 99.9231 117.656C99.8076 112.549 98.1015 105.424 98.4354 102.524C99.1996 95.9056 101.374 95.3943 102.229 94.7885C103.16 94.1291 106.769 93.5147 107.435 93.1409Z" fill="#972B28"/>
<path d="M107.435 93.1409C107.642 92.3676 103.221 94.6769 102.615 95.2268C102.024 95.7639 101.399 96.505 100.832 97.5318C99.0145 100.814 103.623 109.22 103.623 109.22C103.623 109.22 103.608 101.179 103.784 99.3448C103.957 97.5146 107.034 94.636 107.435 93.1409Z" fill="#F4E8D8"/>
<path d="M109.101 105.293C109.377 105.293 109.602 104.777 109.602 104.141C109.602 103.505 109.377 102.99 109.101 102.99C108.824 102.99 108.6 103.505 108.6 104.141C108.6 104.777 108.824 105.293 109.101 105.293Z" fill="#29ACE4"/>
<path d="M107.411 90.1657L107.557 94.0753C107.617 95.7014 109.105 96.9023 110.811 96.7003L111.042 96.6724C112.679 96.4791 113.878 95.0613 113.722 93.5103L113.33 89.6351C113.146 87.8071 111.183 86.6879 109.361 87.3667C108.154 87.8178 107.366 88.9477 107.411 90.1657Z" fill="#CE6D3E"/>
<path d="M115.674 129.745L115.689 130.072C115.698 130.259 115.768 130.433 115.888 130.562C116.747 131.49 120.405 135.341 122.822 136.252C124.682 136.952 127.178 137.083 128.601 137.094C129.278 137.098 129.899 136.658 130.185 135.969C130.374 135.517 130.136 134.995 129.704 134.907C127.537 134.463 121.668 132.965 116.768 129.067C116.303 128.695 115.644 129.103 115.674 129.745Z" fill="#F4E8D8"/>
<path d="M114.193 91.8821C113.525 92.4019 110.659 97.6069 113.059 104.788C115.478 112.034 113.264 125.052 114.833 128.282C115.281 129.202 121.692 135.053 124.126 135.156C125.729 135.223 128.039 135.483 129.642 135.693C130.396 135.792 131.556 134.325 131.582 133.556C131.661 131.124 131.582 125.982 129.951 120.824C127.724 113.78 127.553 93.6006 121.906 90.9262C117.595 88.8833 114.861 91.3622 114.193 91.8821Z" fill="#972B28"/>
<path d="M121.773 122.122C121.773 122.122 126.309 124.895 127.512 125.286L126.832 126.914C126.832 126.914 121.752 124.141 120.958 123.073L121.773 122.122Z" fill="#F4E8D8"/>
<path d="M114.066 91.4946C115.402 90.3282 119.747 89.731 121.049 90.5623C121.785 91.0306 118.304 89.5548 116.538 93.5504C114.351 98.4954 113.563 106.364 113.563 106.364C113.563 106.364 112.375 105.715 111.951 99.4234C111.668 95.2238 112.728 92.6632 114.066 91.4946Z" fill="#F4E8D8"/>
<path d="M125.225 119.271C125.225 119.271 125.763 117.701 125.519 116.966C125.275 116.231 124.639 118.732 123.907 119.761C123.554 120.255 124.999 119.439 125.225 119.271Z" fill="#972B28"/>
<path d="M99.847 119.63L99.6672 120.498L100.823 119.827L101.035 118.796L99.847 119.63Z" fill="#F4E8D8"/>
<path d="M113.172 136.991C113.172 136.991 115.126 138.136 116.43 139.182C117.734 140.228 120.21 141.047 120.21 141.047C120.21 141.047 117.081 141.569 113.172 136.991Z" fill="#273150"/>
<path d="M98.1562 109.561C99.1623 112.556 95.8893 116.156 92.8089 116.186C90.9637 116.206 89.5766 115.353 88.3415 113.647C87.8748 113.003 88.1595 112.255 87.8213 111.551C87.5601 111.005 86.6461 110.504 86.4727 109.98C85.488 106.988 87.1919 104.827 90.2423 104.528C92.4408 104.314 92.8946 105.776 94.1019 106.324C94.5364 106.522 95.8465 106.56 96.2532 106.814C97.7217 107.74 97.6639 108.099 98.1562 109.561Z" fill="#C93F37"/>
<path d="M97.5558 111.48C97.7078 113.033 96.7317 114.58 95.3702 114.934C94.0067 115.286 92.7822 114.307 92.6345 112.749C92.4868 111.194 93.1525 108.93 94.5097 108.582C95.8647 108.232 97.4038 109.929 97.5558 111.48Z" fill="#F4E8D8"/>
<path d="M96.8542 111.637C96.9655 112.805 96.2548 113.972 95.2658 114.236C94.2768 114.502 93.3863 113.763 93.2793 112.59C93.1723 111.42 93.8551 109.102 95.3536 109.495C96.3404 109.753 96.7429 110.47 96.8542 111.637Z" fill="#CE6D3E"/>
<path d="M94.9806 109.757C94.4262 110.195 93.9809 111.106 93.8247 112.502C93.6684 113.898 96.6867 115.408 96.6867 115.408C96.6867 115.408 98.5683 116.107 99.8227 113.08C100.322 111.875 97.7484 109.643 97.7677 108.874C97.8384 106.083 95.8904 109.037 94.9806 109.757Z" fill="#F6874E"/>
<path d="M97.374 109.364C97.374 109.364 96.3957 109.478 96.5927 110.215C96.7874 110.949 98.3266 112.258 99.9406 111.867C101.555 111.476 97.374 109.364 97.374 109.364Z" fill="#CE6D3E"/>
<path d="M87.8949 110.541C87.7643 109.69 87.8521 108.876 87.8307 108.711C87.7665 108.221 87.0494 110.608 87.0494 110.608C87.927 111.882 87.9613 110.981 87.8949 110.541Z" fill="#972B28"/>
<path d="M93.6614 106.421C93.6614 106.421 91.8034 104.754 91.219 107.403C91.2168 107.403 92.2936 106.715 93.6614 106.421Z" fill="#972B28"/>
<path d="M121.925 109.141C120.591 106.975 119.234 104.223 117.836 102.069C116.44 99.9207 117.243 93.096 120.281 91.921C123.31 90.7502 123.875 92.196 126.67 96.256C129.477 100.333 133.805 111.029 132.467 114.715C131.754 116.676 125.48 117.675 121.925 109.141Z" fill="#1D2436"/>
<path d="M131.604 111.147C130.112 108.992 128.209 107.501 124.317 108.286C122.377 108.677 122.131 110.526 122.131 110.526C122.131 110.526 119.92 110.324 118.912 111.226C117.901 112.131 114.479 111.226 114.588 115.737C114.697 120.249 115.799 122.322 118.805 122.897C121.808 123.473 126.5 119.533 126.5 119.533C126.5 119.533 128.155 119.855 130.353 117.759C132.571 115.645 133.973 114.569 131.604 111.147Z" fill="#C93F37"/>
<path d="M122.632 109.918C122.632 109.918 124.403 108.354 126.143 109.897C126.333 110.066 123.996 109.596 122.632 109.918Z" fill="#972B28"/>
<path d="M114.689 117.645C114.46 121.724 119.33 121.318 119.33 121.318C119.33 121.318 118.396 121.75 118.976 121.909C119.661 122.096 120.86 122.3 121.592 121.787C124.208 119.95 125.666 115.441 122.466 113.594C121.879 113.257 121.706 115.804 121.62 115.07C121.528 114.29 120.702 113.083 119.24 112.316C118.424 111.886 114.971 112.588 114.689 117.645Z" fill="#972B28"/>
<path d="M127.104 112.502C127.104 112.502 126.265 111.619 125.184 111.226C124.102 110.833 122.21 110.393 122.21 110.393C122.508 110.303 127.221 110.011 127.104 112.502Z" fill="#972B28"/>
<path d="M116.876 112.657C116.138 112.702 113.792 112.939 113.612 117.112C113.469 120.481 116.459 121.265 116.459 121.265C116.459 121.265 118.636 121.454 119.627 120.608C120.963 119.467 121.072 116.754 120.244 114.432C119.818 113.242 117.615 112.612 116.876 112.657Z" fill="#F4E8D8"/>
<path d="M115.393 113.432C114.656 113.465 112.516 113.063 112.404 117.024C112.314 120.218 115.307 121.005 115.307 121.005C115.307 121.005 117.478 121.213 118.452 120.422C119.764 119.357 119.828 116.784 118.965 114.569C118.522 113.43 116.129 113.4 115.393 113.432Z" fill="#CE6D3E"/>
<path d="M100.778 99.2333C100.778 99.2333 101.628 98.0754 104.053 98.1506C107.442 98.2559 111.081 99.2762 112.164 100.812C112.967 101.949 113.012 103.102 113.012 103.102C113.012 103.102 114.089 103.207 114.622 103.998C114.958 104.496 114.808 110.762 114.808 110.762C114.75 111.869 114.2 112.629 113.078 112.614L112.128 112.601L100.547 111.083C100.551 111.083 99.6716 100.591 100.778 99.2333Z" fill="#634874"/>
<path d="M96.7856 107.991C96.9162 110.999 99.4871 111.525 100.228 111.649C102.229 111.985 113.007 112.93 113.007 112.93C113.007 112.93 114.887 112.208 113.814 112.133C113.557 112.116 108.238 110.923 106.496 110.605C103.526 110.064 102.52 108.12 102.52 108.12C102.52 108.12 96.7257 106.619 96.7856 107.991Z" fill="#7E6391"/>
<path d="M112.618 121.943L113.504 113.108C113.453 112.653 113.095 112.461 111.687 112.214C111.687 112.214 111.006 112.152 110.473 112.098C110.214 112.073 109.589 112.199 109.563 112.981L109.12 122.987C109.082 123.353 110.39 123.097 110.39 123.097C112.323 122.856 112.577 122.768 112.618 121.943Z" fill="#634874"/>
<path d="M102.463 109.413C100.598 110.247 99.3846 110.496 97.6742 109.667C96.4027 109.123 96.0516 106.342 96.0837 105.469L96.1073 102.471C96.1758 100.516 97.8369 98.9327 99.817 98.9327C102.666 98.9305 104.154 101.158 104.077 103.977L103.976 105.665C103.953 106.535 103.319 109.031 102.463 109.413Z" fill="#634874"/>
<path d="M109.998 122.923L110.242 112.672C110.285 111.832 110.338 111.693 109 111.581L107.793 111.572C106.798 111.626 106.305 112.133 106.275 112.958L106.69 121.151C106.671 122.609 106.483 123.015 107.508 123.097C109.216 123.232 109.978 123.424 109.998 122.923Z" fill="#7E6391"/>
<path d="M105.615 112.908C105.739 114.18 106.004 115.557 107.766 115.995C107.841 116.015 109.224 115.927 109.224 115.927L108.644 112.556C108.654 111.892 108.301 111.54 107.882 111.493L106.394 111.39C105.848 111.327 105.533 112.064 105.615 112.908Z" fill="#7E6391"/>
<path d="M107.096 112.934C107.2 114.144 107.504 115.503 109.026 115.922C109.091 115.94 109.159 115.94 109.226 115.927C110.131 116.002 111.578 115.43 111.589 114.797L111.734 112.217C111.692 112.109 107.883 111.609 107.883 111.609C107.412 111.551 107.025 112.133 107.096 112.934Z" fill="#634874"/>
<path d="M101.78 103.633C101.68 104.685 100.727 105.484 99.6525 105.418C98.5779 105.351 97.7902 104.443 97.8929 103.388C97.9957 102.335 98.9504 101.54 100.023 101.607C101.093 101.676 101.881 102.582 101.78 103.633Z" fill="#1D2436"/>
<path d="M101.193 103.076C101.054 104.539 99.7309 105.652 98.2367 105.56C96.7404 105.467 95.6465 104.202 95.79 102.737C95.9334 101.276 97.2585 100.17 98.7483 100.264C100.238 100.359 101.332 101.618 101.193 103.076Z" fill="#F6BE4A"/>
<path d="M100.056 102.859C99.9685 103.781 99.1336 104.479 98.1939 104.421C97.2541 104.363 96.5627 103.566 96.6548 102.645C96.7447 101.725 97.5795 101.027 98.5171 101.087C99.4547 101.147 100.144 101.94 100.056 102.859Z" fill="#1D2436"/>
<path d="M104.432 99.2418C105.798 100.189 106.138 101.59 105.783 104.056C105.753 104.258 105.915 104.438 106.155 104.475L111.151 105.302C111.453 105.349 112.226 105.566 112.258 105.308C112.391 104.266 112.562 101.291 110.391 100.181C109.366 99.6564 106.889 98.9389 104.869 98.5608C104.372 98.4684 104.049 98.9754 104.432 99.2418Z" fill="#BB83C3"/>
<path d="M118.021 114.84C118.021 114.84 117.494 112.756 117.195 112.185C117.047 111.903 117.081 111.343 116.741 110.518C116.373 109.624 116.553 108.902 116.159 108.193C115.825 107.592 114.281 108.687 114.343 109.819C114.378 110.46 114.455 111.71 114.626 112.335C114.819 113.044 112.179 112.483 112.179 112.483C111.899 112.384 110.086 112.513 109.79 112.545L107.919 112.571C107.142 112.823 107.012 113.39 107.038 114.208C107.05 114.646 109.148 114.399 110.037 114.543C110.683 114.646 112.124 114.404 112.145 114.498C112.145 114.498 107.2 115.74 106.928 116.378C106.393 117.643 106.547 119.299 106.744 119.546C107.329 120.279 107.374 120.335 107.374 120.335C107.374 120.335 107.339 121.278 108.024 121.74C109.058 122.438 112.351 123.018 112.351 123.018C112.351 123.018 116.234 121.703 116.882 121.087C117.531 120.472 118.34 119.969 118.423 118.008C118.503 116.053 118.021 114.84 118.021 114.84Z" fill="#F6874E"/>
<path d="M106.924 116.376C106.4 117.645 106.543 119.297 106.74 119.544C107.325 120.277 107.37 120.333 107.37 120.333C107.37 120.333 107.335 121.276 108.02 121.737C109.054 122.436 112.347 123.016 112.347 123.016L111.165 120.762C111.165 120.762 110.116 115.613 109.808 115.437C109.5 115.261 107.117 115.912 106.924 116.376Z" fill="#CE6D3E"/>
<path d="M98.0882 96.78L97.9512 89.9081L94.7874 92.7759L91.174 87.4785L90.8016 93.7404L85.5742 93.8027L89.6285 96.5545L87.6934 98.9217L92.8951 99.1602C93.3575 99.1795 90.412 97.9142 90.412 97.9142L90.7502 96.6683L89.6221 94.7414L91.9939 94.6276L92.4456 92.1357L94.6204 94.2581L96.8488 92.8167C96.8467 92.8145 98.0904 96.8294 98.0882 96.78Z" fill="#1FABE2"/>
<path d="M94.7264 113.566L97.1175 115.78C97.1582 115.817 97.2074 115.841 97.2631 115.847C97.7854 115.905 101.026 115.86 102.09 115.69C102.555 115.617 103.683 114.459 104.888 113.276C105.265 112.904 105.534 112.687 105.918 112.221C106.13 111.963 106.183 111.626 105.894 111.461C105.894 111.461 105.421 111.196 105.16 111.392C105.046 111.478 105.038 111.446 105.066 111.381C105.123 111.246 105.066 111.089 104.929 111.033C104.663 110.926 104.256 110.831 103.856 111.033C103.27 111.327 103.334 111.246 103.334 111.246C103.334 110.969 103.023 110.64 102.617 110.625C102.073 110.603 101.641 110.921 101.557 110.988C101.546 110.997 100.81 111.162 100.157 111.473C99.3823 111.843 98.2349 111.36 97.6312 111.13C96.5203 110.709 94.7992 110.664 94.6387 113.362C94.6387 113.437 94.6708 113.514 94.7264 113.566Z" fill="#F6874E"/>
<path d="M117.808 80.9177C116.738 87.0141 114.713 88.144 114.713 88.144C105.885 91.4006 98.5295 87.7273 97.7825 82.402C96.817 77.0574 96.1706 74.2541 105.146 72.5119C114.064 70.7827 118.75 75.5645 117.808 80.9177Z" fill="#1D2436"/>
<path d="M116.811 79.7366C115.899 84.9029 108.242 83.4121 108.242 83.4121C106.694 83.0061 101.364 81.9277 100.36 79.06C99.5039 76.6154 98.3822 73.8636 105.996 72.3856C112.93 71.0409 117.613 75.1954 116.811 79.7366Z" fill="#3D4C6D"/>
<path d="M115.796 82.5529C115.796 82.5529 116.43 80.8838 115.841 79.0751C115.841 79.0751 118.168 79.6142 115.796 82.5529Z" fill="#1D2436"/>
<path d="M102.517 74.6585C102.517 74.6585 97.2484 76.0634 96.6598 77.0903C96.0711 78.1192 98.7019 89.5452 100.864 92.0134C103.03 94.4881 112.631 90.4066 114.356 87.6978C115.769 85.4831 115.08 84.7269 114.731 81.8205C114.369 78.7916 111.71 77.5263 111.186 76.4845C110.298 74.708 102.517 74.6585 102.517 74.6585Z" fill="#CE6D3E"/>
<path d="M113.653 83.3628C114.04 85.3455 112.101 89.8738 108.111 91.0961C104.105 92.3248 100.867 92.0112 99.2119 87.7514C97.5144 83.38 101.83 77.4146 105.801 76.2245C109.757 75.0409 112.3 78.9032 113.653 83.3628Z" fill="#F6874E"/>
<path d="M102.095 82.8966C102.254 83.5926 101.98 83.9814 101.618 84.0674C101.254 84.1533 100.939 83.9062 100.783 83.2081C100.625 82.5121 100.792 81.8763 101.156 81.7903C101.515 81.7066 101.937 82.2006 102.095 82.8966Z" fill="#34273A"/>
<path d="M106.603 80.426C106.772 79.8847 107.684 78.8342 108.836 79.1565C108.836 79.1565 107.293 80.6366 106.764 81.1328C106.682 81.208 106.571 80.5291 106.603 80.426Z" fill="#34273A"/>
<path d="M115.555 80.1447C115.591 81.9083 114.769 83.455 113.718 83.5925C112.667 83.73 111.787 82.4067 111.755 80.6409C111.723 78.8773 112.547 77.3435 113.594 77.2081C114.641 77.0706 115.518 78.3853 115.555 80.1447Z" fill="#F6874E"/>
<path d="M107.865 72.433C107.865 72.433 99.4178 81.6163 96.5323 82.742C93.6382 83.8719 95.0895 75.9903 99.3322 73.1956C103.551 70.4202 107.865 72.433 107.865 72.433Z" fill="#1D2436"/>
<path d="M108.413 72.2676C108.413 72.2676 108.516 72.9099 106.782 74.0678C103.781 76.072 98.0076 79.1611 96.5456 79.7303C94.2295 80.6326 96.0169 75.4985 99.3263 73.1355C102.852 70.62 108.413 72.2676 108.413 72.2676Z" fill="#3D4C6D"/>
<path d="M102.631 74.8496C102.631 74.8496 100.287 78.3769 97.8403 79.5025C97.8382 79.5046 103.637 76.9505 102.631 74.8496Z" fill="#1D2436"/>
<path d="M110.013 74.7702C110.013 74.7702 110.617 79.1052 111.484 80.2115L113.192 81.7517L112.036 75.608L110.013 74.7702Z" fill="#3D4C6D"/>
</svg>
