<svg viewBox="0 0 262 202" fill="none" xmlns="http://www.w3.org/2000/svg">
<path d="M256.663 185.458C250.016 175.924 204.731 141.425 133.53 144.271C73.1406 146.686 30.9039 174.635 24.4585 177.778C18.0131 180.921 20.6996 183.017 38.9612 180.397C57.2229 177.776 66.3527 178.3 66.3527 178.3L65.2781 180.919C65.2781 180.919 50.7325 193.189 49.6601 197.38C48.5855 201.571 54.4936 202.095 60.939 199.476C67.3845 196.858 114.692 187.73 120.6 187.206C126.509 186.682 136.923 190.033 141.219 190.555C145.515 191.079 173.874 199.949 179.836 200.467C185.797 200.987 182.809 191.326 175.263 177.668C171.92 171.615 202.833 187 209.815 188.572C216.798 190.145 206.523 180.923 205.448 179.353C204.374 177.782 245.208 188.252 253.803 192.968C262.395 197.687 263.309 194.991 256.663 185.458Z" fill="#CCE5CF"/>
<path d="M96.7611 139.771C96.7611 139.771 44.5683 149.384 23.4553 118.388C2.34235 87.3923 21.7386 42.6378 61.6184 34.0066C61.6184 34.0066 19.7414 51.4947 34.5994 94.6509C49.4575 137.807 96.7611 139.771 96.7611 139.771Z" fill="#CCE5CF"/>
<path d="M219.27 124.242C230.62 113.228 232.172 103.845 238.57 92.8724C244.968 81.8997 251.758 75.8892 251.758 75.8892C251.758 75.8892 247.619 75.8827 237.412 85.109C228.327 93.3214 219.27 112.345 219.27 112.345C221.317 102.872 220.717 90.9219 220.717 90.9219C208.818 117.03 167.309 135.505 155.578 129.485C155.58 129.485 186.519 156.024 219.27 124.242Z" fill="#CCE5CF"/>
<path d="M193.72 80.9204C195.675 80.9204 230.477 64.7621 232.035 49.1407C233.208 37.371 230.862 19.7154 202.321 10.691C169.942 0.452955 156.578 5.59132 144.068 9.12073C144.068 9.12073 178.864 4.02103 200.367 19.3223C236.314 44.9046 193.72 80.9204 193.72 80.9204Z" fill="#CCE5CF"/>
<path d="M177.689 39.7253C177.689 39.7253 154.622 18.1471 131.946 21.6787C116.101 24.1469 74.8642 34.3012 68.6093 59.3422C64.3259 76.4973 83.4652 83.2747 83.4652 83.2747C83.4652 83.2747 71.345 76.6047 77.2103 60.1262C83.0756 43.6478 119.434 25.9922 142.502 27.5625C165.569 29.1328 177.689 39.7253 177.689 39.7253Z" fill="#CCE5CF"/>
<path d="M61.1823 61.3035C61.1823 61.3035 42.0258 78.566 53.7543 88.7675C65.4828 98.9691 89.7232 90.3378 89.7232 90.3378C89.7232 90.3378 72.5212 91.9081 64.7015 82.0997C56.8818 72.2891 61.1823 61.3035 61.1823 61.3035Z" fill="#CCE5CF"/>
<path d="M23.4552 118.388C23.4552 118.388 -4.69402 106.03 1.75782 81.9018C8.20965 57.7739 19.3516 68.955 19.3516 68.955C19.3516 68.955 17.0055 46.5927 29.3205 39.5296C41.6355 32.4665 46.3277 36.9798 46.3277 36.9798C46.3277 36.9798 52.193 30.7029 55.1235 31.8801C56.4272 32.4042 56.6091 33.3902 56.4122 34.3268C56.1467 35.5813 48.494 39.6521 47.3038 40.1182C43.8617 41.4694 40.9098 42.6487 33.8158 49.9267C23.4209 60.5901 19.8867 75.8763 20.5225 88.965C21.6956 113.091 23.4552 118.388 23.4552 118.388Z" fill="#CCE5CF"/>
<path d="M58.837 66.4033C58.837 66.4033 64.3106 56.9879 57.2722 55.4176C50.2338 53.8473 49.8442 68.7576 49.8442 68.7576C49.8442 68.7576 47.498 65.2261 43.9788 71.503C40.4596 77.7798 48.2794 87.1973 53.753 88.7655C59.2287 90.3358 56.4908 71.5051 58.837 66.4033Z" fill="#CCE5CF"/>
<path d="M223.138 58.949C223.138 58.949 234.721 57.5999 240.438 44.5306C245.717 32.4666 240.438 24.5206 234.28 22.757C228.121 20.9912 223.138 23.6398 223.138 23.6398C223.138 23.6398 228.417 8.33859 215.222 6.57281C202.027 4.80703 202.32 10.693 202.32 10.693C202.32 10.693 197.921 4.21844 191.765 1.57192C185.606 -1.07674 185.899 7.45785 185.899 7.45785C185.899 7.45785 180.034 0.98333 171.825 2.74911C163.616 4.51489 163.83 6.52126 167.642 6.81555C171.455 7.10985 194.353 7.15066 209.307 22.4519C224.262 37.7532 223.138 58.949 223.138 58.949Z" fill="#CCE5CF"/>
<path d="M98.7148 33.0552C98.7148 33.0552 111.715 16.5768 129.6 14.2224C143.908 12.3385 136.724 22.394 138.787 21.2855C144.261 18.3426 151.12 15.7497 153.84 17.363C158.141 19.9129 154.427 23.0513 154.427 23.0513C154.427 23.0513 166.742 29.9168 168.501 33.6438C168.696 34.6255 158.31 25.8417 144.848 24.8171C129.405 23.6399 98.7148 33.0552 98.7148 33.0552Z" fill="#CCE5CF"/>
<path d="M63.8284 108.11C63.8284 108.11 63.1412 105.603 62.3556 103.807C61.6043 102.088 61.0285 103.281 60.6624 104.975C60.2793 106.752 60.4591 109.452 60.4526 110.097C60.4462 110.743 63.7171 110.376 63.8284 108.11Z" fill="#1D2538"/>
<path d="M70.7745 129.363C72.654 128.631 76.6805 123.707 75.8777 120.3C75.075 116.893 74.2744 111.843 73.2234 109.955C73.2234 109.955 73.0585 106.376 72.7182 104.453C72.38 102.533 71.8748 102.447 71.2026 103.375C70.5305 104.303 69.64 107.465 69.64 107.465C69.64 107.465 65.1596 105.665 61.5505 107.231C57.9414 108.797 56.839 111.252 56.5415 113.347L56.4323 113.499C56.4323 113.499 52.4786 114.479 50.6184 115.248C48.7582 116.017 48.1952 116.975 49.0386 118.981C49.882 120.988 50.0233 121.991 51.1664 122.728C52.3095 123.464 57.3571 125.071 59.9472 125.454C59.9472 125.454 61.0475 130.139 61.9294 131.389C62.8114 132.641 68.8972 130.098 70.7745 129.363Z" fill="#273150"/>
<path d="M71.3463 123.578C71.3463 123.578 76.6786 123.707 75.878 120.3C75.0774 116.893 74.2747 111.843 73.2236 109.955C73.2236 109.955 73.0588 106.376 72.7184 104.453C72.3802 102.533 71.875 102.447 71.2029 103.375C70.5307 104.303 69.6402 107.465 69.6402 107.465C69.6402 107.465 65.1599 105.665 61.5508 107.231C61.5508 107.231 65.7357 107.338 67.3626 108.904C68.9895 110.47 71.0123 116.882 71.0123 116.882C71.0123 116.882 66.4271 122.485 66.7033 122.878C67.5831 124.13 71.3463 123.578 71.3463 123.578Z" fill="#1D2538"/>
<path d="M62.9318 108.165C62.9318 108.165 62.4095 105.716 62.0327 104.09C61.6089 102.262 60.7248 103.313 60.3588 105.008C59.9756 106.784 59.7701 108.608 59.7637 109.254C59.7594 109.901 63.0581 109.746 62.9318 108.165Z" fill="#273150"/>
<path d="M62.2075 112.301C62.4875 111.499 62.2821 110.697 61.7488 110.51C61.2155 110.322 60.5563 110.82 60.2764 111.622C59.9965 112.423 60.2018 113.225 60.7351 113.413C61.2684 113.6 61.9276 113.102 62.2075 112.301Z" fill="#121721"/>
<path d="M48.6515 117.183C48.5166 118.292 49.0775 118.801 49.3579 119.426C49.741 120.279 52.0765 118.683 52.2135 117.574C52.3483 116.466 52.3612 114.906 51.0426 115.151C50.1242 115.323 48.7863 116.075 48.6515 117.183Z" fill="#121721"/>
<path d="M65.4824 123.98C65.4824 123.98 60.4027 126.598 60.0838 125.4C57.5407 125.054 53.4414 123.722 53.4414 123.722L60.315 123.718L65.4824 123.98Z" fill="#1D2538"/>
<path d="M89.581 127.26C89.3862 126.624 88.7975 123.157 88.044 121.924C87.2927 120.691 85.396 117.858 83.127 117.939C83.127 117.939 84.4306 116.296 88.5107 118.296C92.5908 120.294 93.1623 126.283 93.2073 126.79C93.4042 129.054 90.1354 129.073 89.581 127.26Z" fill="#1D2538"/>
<path d="M61.2906 157.91C61.6545 156.842 63.0844 155.708 63.0844 155.708C63.2214 155.467 63.6967 154.984 63.733 154.754C64.0178 152.997 64.7948 148.202 64.8397 147.435C64.9361 145.841 64.2318 141.094 64.3624 137.444C64.493 133.795 70.0222 136.664 70.2769 140.19C70.4589 142.703 68.7164 152.988 68.5345 153.994L67.1837 157.28C66.685 157.981 65.3 158.479 63.8765 158.548C62.4551 158.612 60.9353 158.954 61.2906 157.91Z" fill="#1D2538"/>
<path d="M85.6308 137.715C84.2523 137.257 82.1095 138.45 82.086 140.411C82.0667 142.08 89.6295 148.677 89.6295 148.677L90.0534 150.022C90.0534 150.022 88.9873 151.257 89.4433 151.921C89.5503 152.078 91.0081 151.82 92.1833 151.583C93.0438 151.409 93.656 150.997 93.6539 150.582L93.6496 150.06L94.0949 148.08L88.8889 142.643C88.891 142.645 87.5146 138.342 85.6308 137.715Z" fill="#1D2538"/>
<path d="M66.3171 124.038C66.3171 124.038 72.024 119.943 77.0352 122.195C81.5155 124.207 83.5577 124.547 88.5539 124.622C91.692 124.669 93.8476 135.75 93.1969 137.906C92.0195 141.936 78.159 142.293 76.3823 142.353C71.1463 142.531 66.7688 139.842 64.6089 138.815C62.6716 137.893 59.8182 132.553 62.2414 128.487C63.1661 126.936 64.2321 125.256 66.3171 124.038Z" fill="#273150"/>
<path d="M67.7404 124.452C71.0006 121.842 72.0217 119.946 77.035 122.195C81.5154 124.208 84.9061 124.614 89.9002 124.766C95.5536 124.94 94.7937 134.474 93.1325 138.559C91.8717 141.661 78.1589 142.293 76.3843 142.353C76.3843 142.353 81.1793 139.238 80.9438 137.023C80.7105 134.809 75.2091 131.554 75.2091 131.554C72.559 128.854 66.5845 125.378 67.7404 124.452Z" fill="#1D2538"/>
<path d="M70.7481 157.555C70.7417 156.591 73.1092 154.26 73.0942 154.024C72.8523 150.037 71.8548 146.263 71.6964 145.354C71.3732 143.489 69.2711 140.329 68.5475 136.299C67.8497 132.416 74.7468 134.321 75.6501 138.798C76.1703 141.38 77.4547 150.254 77.7844 152.677C77.8315 153.018 77.81 153.364 77.7223 153.699L76.3459 156.642C76.1853 157.487 74.8538 158.213 73.2248 158.309C71.5958 158.406 70.7588 158.868 70.7481 157.555Z" fill="#273150"/>
<path d="M93.2672 133.717C91.5461 132.143 87.7187 134.211 87.0209 134.852C86.2888 135.524 89.4869 139.749 89.6474 140.34C89.8144 140.957 96.8998 144.877 98.3383 146.024C99.8945 147.266 98.593 148.971 99.5221 149.504C99.993 149.775 103.921 148.948 103.671 147.401C103.435 145.94 101.89 143.64 101.851 143.524C101.776 143.298 95.6925 138.561 95.5469 138.267C95.4078 137.979 93.7766 134.186 93.2672 133.717Z" fill="#1D2538"/>
<path d="M76.0713 120.465C76.0713 120.465 77.1052 121.567 77.3663 122.538C77.3663 122.538 74.2175 124.822 68.5405 127.537C65.4987 128.991 60.8 130.327 60.8 130.327L60.1172 127.769C60.1193 127.767 69.7179 125.239 76.0713 120.465Z" fill="#992C29"/>
<path d="M60.1541 127.795C60.1541 127.795 58.5037 131.191 58.7691 132.899L63.0268 134.267C63.0268 134.267 61.3742 129.296 60.1541 127.795Z" fill="#C93F37"/>
<path d="M60.1543 127.795C61.413 129.051 63.027 134.267 63.027 134.267C63.027 134.267 60.8072 132.493 60.5803 131.81C60.3534 131.126 60.1543 127.795 60.1543 127.795Z" fill="#992C29"/>
<path d="M60.8203 129.486C60.8203 129.486 63.8664 132.169 65.2279 132.504L65.5811 130.235C65.5832 130.235 63.3762 129.116 60.8203 129.486Z" fill="#992C29"/>
<path d="M131.949 88.9584L112.009 87.7812C106.353 87.0229 106.411 79.2595 106.537 73.481L106.796 53.3808C106.912 47.7698 110.093 43.9375 115.744 43.9375H132.141C138.482 43.9375 142.307 47.744 142.307 53.9371L143.872 79.4099C143.872 85.865 138.471 89.8477 131.949 88.9584Z" fill="#634874"/>
<path d="M111.185 49.9826C113.028 45.7142 107.936 41.8261 103.083 40.1484C96.1946 37.7682 95.379 36.4987 92.5555 35.0251C89.0877 33.2142 86.1465 32.5482 84.0444 34.1357C81.9444 35.7232 81.4885 38.4728 82.7322 39.6715C85.667 42.5049 87.0669 43.1364 90.8023 45.8152C97.6438 50.7194 101.298 51.7849 103.509 53.2692C107.215 55.7589 108.981 55.0887 111.185 49.9826Z" fill="#A86243"/>
<path d="M112.627 50.6377C114.47 46.3693 87.0662 43.1364 90.8016 45.813C97.643 50.7172 101.297 51.7826 103.508 53.267C107.216 55.7589 110.425 55.7438 112.627 50.6377Z" fill="#D77E5B"/>
<path d="M88.1582 28.8361C86.6684 30.995 84.2944 34.707 86.3045 36.7262C87.7537 38.1805 87.1308 39.6391 89.2735 38.5951C91.6817 37.4201 93.1716 31.9273 93.2358 31.7962C94.3682 29.4956 89.6652 26.6557 88.1582 28.8361Z" fill="#7A4630"/>
<path d="M96.8301 16.6453C96.8301 16.6453 87.0902 23.9791 84.5322 26.8512C82.0019 29.6932 79.7993 33.1603 81.2656 37.0656C82.1561 39.4372 83.1793 41.0418 86.3474 40.0107C89.9843 38.8271 92.7843 33.6651 94.2506 30.3784C96.2178 25.9769 98.7438 23.7557 100.236 22.2198C102.15 20.2499 102.002 14.0289 96.8301 16.6453Z" fill="#A86243"/>
<path d="M110.563 15.1267L110.736 18.0869L108.829 18.6089L107.324 16.0697L110.563 15.1267Z" fill="#273150"/>
<path d="M95.0586 20.3722L97.2891 16.7977C97.2891 16.7977 101.986 15.0341 104.694 14.8343C107.401 14.6345 108.938 15.9127 108.938 15.9127L109.167 21.152C109.193 21.7427 108.804 22.2798 108.271 22.3915L107.438 22.5655L106.156 22.5032L106.106 23.2056C106.083 23.5579 105.858 23.8651 105.548 23.9725L103.867 24.5504L101.367 25.0982C101.367 25.0982 99.4811 24.6191 99.6802 23.356C99.8793 22.0929 96.1995 24.5074 95.0586 20.3722Z" fill="#A86243"/>
<path d="M92.2324 20.1771L94.0712 23.3112L98.695 21.814C99.0953 21.6851 99.3137 21.133 99.1574 20.6432C98.9797 20.0847 98.4938 19.799 98.0443 19.9859L94.889 20.871L94.2767 19.4768L92.2324 20.1771Z" fill="#273150"/>
<path d="M88.8437 8.9852C84.1514 10.751 64.0167 16.8324 64.0167 16.8324C63.8862 17.8141 64.1473 21.9321 64.8644 22.3897C64.8644 22.3897 67.7971 26.3122 85.5193 22.5207C106.211 18.0934 127.428 9.35254 127.428 9.35254L127.09 3.68787C127.092 3.69001 93.5338 7.21942 88.8437 8.9852Z" fill="#B44C29"/>
<path d="M87.4744 5.78217C82.7394 7.42766 66.6226 12.551 64.2765 16.147C62.4441 18.9568 68.7076 21.541 91.3832 16.2458C114.059 10.9506 123.052 6.20751 126.374 4.63936C129.696 3.06906 121.975 1.04336 107.673 0.291508C104.398 0.117508 97.6403 2.25062 87.4744 5.78217Z" fill="#F08650"/>
<path d="M64.9297 18.4669L72.4882 15.8505L65.9722 19.382L64.9297 18.4669Z" fill="#B44C29"/>
<path d="M107.853 0.501953L95.1953 4.67151C95.1975 4.66936 107.827 1.05403 107.853 0.501953Z" fill="#B44C29"/>
<path d="M81.9041 14.5768C83.957 13.5951 75.3132 16.2652 70.957 18.1083C70.957 18.1083 79.8513 15.5563 81.9041 14.5768Z" fill="#B44C29"/>
<path d="M118.166 8.39629L117.188 7.21912L120.51 7.71104L118.166 8.39629Z" fill="#B44C29"/>
<path d="M83.3711 18.4991L84.8374 16.9309L86.5949 18.2048L83.3711 18.4991Z" fill="#B44C29"/>
<path d="M100.073 7.14844C100.632 7.96903 99.3264 9.27296 96.4323 10.2869C92.2773 11.7412 86.7202 12.0419 86.0502 10.3578C85.4187 8.76814 89.8862 6.90569 94.1546 6.35792C97.2029 5.9648 99.5298 6.35147 100.073 7.14844Z" fill="#B44C29"/>
<path d="M99.8064 6.46081C100.275 7.058 98.933 8.17504 96.101 9.18682C92.0359 10.639 86.725 11.3027 86.2177 10.0418C85.7382 8.8517 90.1308 7.05585 94.2343 6.2997C97.1649 5.76052 99.3505 5.88081 99.8064 6.46081Z" fill="#F08650"/>
<path d="M132.652 44.4104C133.485 41.4825 137.982 43.2397 140.228 44.6553C143.801 46.9044 143.426 48.5757 145.847 49.8431C150.22 52.133 162.321 60.5194 159.018 64.3366C155.717 68.1539 150.175 64.7598 145.851 62.0553C142.756 60.1198 137.263 55.9739 134.172 52.9385C132.886 51.6754 131.82 47.3383 132.652 44.4104Z" fill="#A86243"/>
<path d="M158.262 69.9369C159.854 67.3183 161.49 64.9596 159.328 62.3367C155.941 58.2316 153.285 60.4786 151.009 63.2905C148.772 66.0573 148.783 66.981 146.741 69.765C144.684 72.5684 140.726 76.5962 140.726 76.5962C140.726 76.5962 137.376 79.6036 138.972 81.8613C140.657 84.2457 141.847 84.2715 143.712 83.2511C146.433 81.7646 157.063 71.9089 158.262 69.9369Z" fill="#A86243"/>
<path d="M105.416 141.872C105.367 141.889 105.318 141.912 105.271 141.938C104.562 142.329 98.7762 145.47 98.104 146.312C97.5539 147.001 97.9049 149.543 98.0976 150.686C98.1575 151.04 98.4037 151.33 98.7419 151.448C100.112 151.923 103.721 153.186 107.221 152.832C111.609 152.387 111.474 150.729 114.741 149.16C116.877 148.136 118.179 147.474 118.825 147.141C119.136 146.98 119.271 146.669 119.288 146.318L119.467 142.477C119.489 141.996 119.223 141.569 118.752 141.474C116.575 141.027 110.443 140.052 105.416 141.872Z" fill="#29ACE4"/>
<path d="M105.342 141.9C105.342 141.9 98.6928 145.544 97.9779 146.439C97.2629 147.335 97.9415 150.424 97.9415 150.424C97.9415 150.424 102.7 152.323 107.088 151.879C111.477 151.434 111.475 149.967 114.741 148.399C117.271 147.185 118.631 146.482 119.114 146.227C119.245 146.158 119.328 146.027 119.335 145.881L119.534 142.229C119.553 141.894 119.326 141.595 119.001 141.527C117.077 141.112 110.59 139.967 105.342 141.9Z" fill="#13161F"/>
<path d="M102.102 143.629C102.102 143.629 105.424 142.452 108.682 143.955" stroke="#29ACE4" stroke-width="2" stroke-miterlimit="10" stroke-linecap="round" stroke-linejoin="round"/>
<path d="M104.51 142.19C104.51 142.19 107.832 141.013 111.09 142.516" stroke="#29ACE4" stroke-width="2" stroke-miterlimit="10" stroke-linecap="round" stroke-linejoin="round"/>
<path d="M140.831 142.016C144.515 143.309 149.858 144.565 150.108 146.219C150.359 147.861 150.532 149.592 150.389 150.206C150.28 150.67 150.083 150.948 149.727 151.1C148.822 151.489 147.015 152.421 143.361 152.786C141.783 152.945 138.32 152.095 136.207 150.524C134.529 149.276 132.514 147.824 131.759 147.281C131.562 147.139 131.431 146.924 131.397 146.683L131.121 144.823C131.065 144.443 131.256 144.067 131.598 143.893C133.202 143.077 137.825 140.961 140.831 142.016Z" fill="#29ACE4"/>
<path d="M142.317 141.253C145.535 142.471 149.938 144.312 150.189 146.138C150.413 147.783 150.514 148.688 150.469 149.317C150.448 149.624 149.707 149.77 149.345 149.923C148.425 150.312 146.586 151.246 142.872 151.616C141.266 151.775 138.115 151.3 135.971 149.732C134.183 148.426 132.023 146.896 131.351 146.421C131.216 146.327 131.126 146.181 131.098 146.018L130.829 144.413C130.713 143.721 131.105 143.047 131.762 142.81C134.151 141.945 139.455 140.17 142.317 141.253Z" fill="#13161F"/>
<path d="M140.285 144.74C140.285 144.74 143.282 141.994 146.671 143.04" stroke="#29ACE4" stroke-width="2" stroke-miterlimit="10" stroke-linecap="round" stroke-linejoin="round"/>
<path d="M138.199 143.431C138.199 143.431 141.327 140.946 144.715 141.992" stroke="#29ACE4" stroke-width="2" stroke-miterlimit="10" stroke-linecap="round" stroke-linejoin="round"/>
<path d="M139.764 87.1971C139.764 87.1971 140.73 100.028 142.5 110.346C143.455 115.909 144.349 125.87 144.915 133.124C145.296 138.014 145.608 141.702 145.381 141.87C144.823 142.286 142.123 141.476 137.191 142.716C132.323 143.94 130.32 144.647 130.32 144.647L129.556 142.288C129.556 142.288 129.098 141.191 129.697 136.665C129.875 135.326 128.348 133.249 128.13 131.543C126.739 120.614 124.726 103.916 123.731 92.6899C122.213 75.5391 136.579 72.8303 139.764 87.1971Z" fill="#F6BE4A"/>
<path opacity="0.5" d="M139.763 87.1971C139.763 87.1971 140.728 100.028 142.498 110.346C143.588 116.695 144.444 127.537 145.178 135.084C145.332 136.667 145.908 136.8 146.015 138.024C146.144 139.5 145.928 141.62 145.292 141.956C144.603 142.319 142.124 141.476 137.192 142.716C132.324 143.94 130.32 144.647 130.32 144.647L129.556 142.288C129.316 141.169 129.28 140.613 129.697 136.665C129.839 135.341 128.336 133.155 128.13 131.543C126.739 120.573 124.699 103.609 123.731 92.6899C122.212 75.5391 136.577 72.8303 139.763 87.1971Z" fill="#F6BE4A"/>
<path d="M107.233 86.4664C107.233 86.4664 106.535 101.1 106.165 109.819C105.898 116.089 105.061 141.848 105.061 141.848C105.061 141.848 106.161 141.422 110.83 141.569L117.53 144.557C117.53 144.557 119.032 144.965 119.428 144.737C119.824 144.511 120.899 143.452 121.004 140.879C121.338 132.697 121.4 114.865 121.278 113.544C121.167 112.352 121.28 98.5755 122.175 88.3632C122.567 83.8886 120.512 80.1423 114.616 78.6149C108.956 77.1499 107.381 81.9618 107.233 86.4664Z" fill="#F6BE4A"/>
<path d="M142.499 110.345C143.578 116.635 144.43 127.327 145.157 134.864C145.211 135.408 145.907 136.781 145.958 137.288C146.249 140.168 145.733 141.986 145.168 142.104C144.601 142.22 142.124 141.476 137.192 142.716C132.324 143.94 130.321 144.647 130.321 144.647L129.557 142.288C129.557 142.288 134.437 135.292 137.025 130.746C137.807 129.374 140.818 125.297 141.619 119.86C142.368 114.773 142.064 107.819 142.499 110.345Z" fill="#F6BE4A"/>
<path d="M123.278 94.26C131.951 94.26 138.981 89.1002 138.981 82.7352C138.981 76.3703 131.951 71.2104 123.278 71.2104C114.605 71.2104 107.574 76.3703 107.574 82.7352C107.574 89.1002 114.605 94.26 123.278 94.26Z" fill="#F6BE4A"/>
<path opacity="0.5" d="M123.278 94.26C131.951 94.26 138.981 89.1002 138.981 82.7352C138.981 76.3703 131.951 71.2104 123.278 71.2104C114.605 71.2104 107.574 76.3703 107.574 82.7352C107.574 89.1002 114.605 94.26 123.278 94.26Z" fill="#F6BE4A"/>
<path d="M120.931 82.587C121.34 80.166 119.578 81.6848 118.21 82.4882C117.2 83.0832 116.399 83.53 117.341 84.2131C118.857 85.313 120.666 84.1616 120.931 82.587Z" stroke="#FEED7F" stroke-width="3" stroke-miterlimit="10"/>
<path d="M121.191 82.2927C121.191 82.2927 123.146 84.5482 124.905 84.8425C126.665 85.1368 126.372 82.4881 125.199 81.9984C124.026 81.5086 121.876 81.5086 121.191 82.2927Z" stroke="#FEED7F" stroke-width="3" stroke-miterlimit="10"/>
<path d="M121.291 82.097C121.291 82.097 123.733 84.5008 123.832 87.8347" stroke="#FEED7F" stroke-width="3" stroke-miterlimit="10"/>
<path d="M120.898 86.9519C120.898 86.9519 121.142 83.2742 121.29 82.097" stroke="#FEED7F" stroke-width="3" stroke-miterlimit="10"/>
<path d="M138.036 128.278C140.25 125.982 142.266 120.504 142.108 117.8C142.108 117.8 133.789 129.84 133.507 130.353C132.719 131.79 137.951 128.368 138.036 128.278Z" fill="#F6BE4A"/>
<path d="M111.79 42.7951C111.79 42.7951 110.345 43.1323 109.908 47.6993C109.713 49.7336 108.044 59.136 108.164 65.6342C108.305 73.2515 107.656 83.5497 107.656 83.5497C107.656 83.5497 112.948 81.9837 120.755 81.3822C128.564 80.7808 138.032 84.0373 138.032 84.0373C141.054 84.5379 137.86 75.3567 137.167 71.8595C136.356 67.7673 137.501 60.3647 136.829 54.8462C135.816 46.5479 134.401 44.8809 134.232 44.1999C133.862 42.7048 129.073 42.6597 125.845 42.1957C121.123 41.5212 115.262 42.2924 111.79 42.7951Z" fill="#29ACE4"/>
<path d="M107.902 53.8727C107.902 53.8727 122.563 49.8106 133.998 53.1617L134.584 56.2078C134.584 56.2078 121.195 51.3336 107.51 56.8179L107.902 53.8727Z" fill="#3D4C6D"/>
<path d="M107.412 57.529C107.412 57.529 122.561 53.3659 133.997 56.717L134.583 59.7631C134.583 59.7631 121.29 55.194 107.607 60.6761L107.412 57.529Z" fill="#3D4C6D"/>
<path opacity="0.5" d="M111.789 42.7947C111.789 42.7947 110.344 43.132 109.907 47.699C109.712 49.7332 108.043 59.1357 108.162 65.6338C115.451 54.4119 132.977 81.1327 138.983 81.6569C140.644 81.8008 137.078 75.4058 136.898 69.2019C136.688 61.9519 137.778 55.5977 137.778 55.5977C136.765 47.2994 134.402 44.8849 134.233 44.2018C133.863 42.7067 129.074 42.6615 125.846 42.1975C121.122 41.5209 115.261 42.2921 111.789 42.7947Z" fill="#1FABE2"/>
<path d="M129.013 42.5521C129.234 42.5392 129.013 43.0612 129.013 43.0612C127.466 44.4704 123.839 46.6637 120.614 46.6637C117.43 46.6637 114.75 46.4617 114.059 44.4124C113.761 43.5295 115.168 42.3673 115.168 42.3673C115.168 42.3673 117.696 41.9334 120.609 41.8432C123.452 41.753 128.793 42.565 129.013 42.5521Z" fill="#7A4630"/>
<path d="M120.5 43.7937C117.942 43.7121 118.021 41.7294 118.04 40.4856L118.293 36.4256C118.308 35.4374 119.337 34.619 120.93 34.6663L123.681 34.7092C125.226 34.7565 125.984 35.6093 126.125 36.5674C126.125 36.5674 126.579 40.8465 126.421 42.1805C126.258 43.5338 123.06 43.8732 120.5 43.7937Z" fill="#7A4630"/>
<path d="M138.616 52.1116C138.616 52.1116 139.328 61.1145 138.098 59.9674C133.611 55.7828 134.302 47.9635 134.647 45.8734C134.992 43.7832 135.974 42.9819 137.321 43.8906C139.393 45.2826 138.616 52.1116 138.616 52.1116Z" fill="#A86243"/>
<path d="M110.206 41.5856C111.392 41.6221 112.961 41.9808 112.681 42.6017C111.833 44.4813 110.5 49.1514 109.802 53.0502C108.984 57.6172 108.25 61.7739 107.897 64.9209C107.734 66.3731 106.469 67.5223 105.343 66.7103C105.024 66.4805 104.784 66.1582 104.709 65.7093C104.416 63.9113 103.397 56.0791 107.599 43.2418C108.119 41.6565 108.958 41.5469 110.206 41.5856Z" fill="#634874"/>
<path d="M136.35 42.6037C135.569 41.9936 132.308 41.3256 131.099 41.6994C129.889 42.0731 130.243 47.422 131.75 53.4669C133.207 59.3099 135.461 66.8842 136.665 68.2204C136.902 68.4825 137.236 68.6178 137.581 68.5942C138.304 68.5426 139.456 68.2891 139.396 67.1914C139.31 65.5996 138.041 58.5709 137.058 50.9299C136.224 44.4168 137.108 43.1945 136.35 42.6037Z" fill="#634874"/>
<path d="M140.405 85.2421C141.069 85.4526 141.803 85.2829 142.291 84.7846C143.449 83.6052 143.926 81.8373 143.768 79.9427C143.573 77.5883 140.739 76.7054 138.913 76.3144C137.468 76.003 136.269 75.6936 135.833 75.5776C135.721 75.5476 135.601 75.5733 135.511 75.6464L130.325 79.861C130.235 79.9341 130.186 80.0458 130.192 80.1618L130.295 82.1187C130.305 82.3121 130.464 82.4624 130.656 82.4624C130.973 82.4624 131.136 82.8405 130.922 83.0725L130.804 83.1992C130.704 83.3066 130.68 83.4656 130.74 83.5988L131.256 84.718C131.346 84.9113 131.579 84.9865 131.763 84.8812L132.093 84.6922C132.234 84.6106 132.412 84.6342 132.527 84.7502L133.456 85.6825C133.563 85.7899 133.726 85.82 133.863 85.7555L134.976 85.24C135.158 85.1562 135.37 85.2357 135.456 85.4183C135.574 85.6675 135.779 85.9897 136.111 86.1551C136.62 86.4107 138.778 85.3087 139.335 85.0166C139.42 84.9715 139.519 84.9629 139.611 84.9929L140.405 85.2421Z" fill="#A86243"/>
<path d="M135.355 75.7754L130.327 79.8591C130.237 79.9321 130.187 80.0438 130.194 80.1598L130.297 82.1168C130.307 82.3101 130.466 82.4605 130.658 82.4605C130.975 82.4605 131.138 82.8385 130.924 83.0705L130.806 83.1973C130.706 83.3047 130.682 83.4637 130.742 83.5968L131.258 84.716C131.348 84.9094 131.581 84.9846 131.765 84.8793L132.095 84.6903C132.236 84.6086 132.414 84.6323 132.529 84.7483L133.458 85.6806C133.565 85.788 133.728 85.818 133.865 85.7536L134.978 85.238C135.16 85.1543 135.372 85.2337 135.458 85.4163C135.575 85.6655 135.781 85.9877 136.113 86.1531C136.599 86.398 138.587 85.4034 139.251 85.0576C139.381 84.9888 139.458 84.8471 139.443 84.6988L139.27 82.946C139.217 82.4025 138.97 81.8934 138.577 81.5153L137.913 80.8773C137.481 80.4627 137.228 79.8956 137.209 79.2962L137.177 78.3597C137.162 77.9171 137.02 77.4875 136.768 77.1245L135.877 75.8442C135.757 75.6766 135.518 75.6422 135.355 75.7754Z" fill="#D77E5B"/>
<path d="M130.805 28.7805C130.522 36.3806 128.942 38.7651 123.903 38.851C120.093 38.9155 117.002 34.342 117.002 28.7805C117.002 23.2189 120.093 18.71 123.903 18.71C127.714 18.71 131.057 21.9386 130.805 28.7805Z" fill="#273150"/>
<path d="M128.68 27.0577C128.643 22.0719 128.102 19.2191 122.607 18.8131C119.738 18.6026 116.915 18.8647 115.251 19.7282C113.749 20.5101 112.841 21.726 112.317 24.9976C111.921 27.4616 111.364 31.7235 112.186 35.8501C112.713 38.4944 116.093 39.4955 119.072 39.7017C126.766 40.2344 127.948 38.183 128.427 34.544C129.073 29.6183 128.692 29.1049 128.68 27.0577Z" fill="#7A4630"/>
<path d="M127.685 30.0758C127.638 25.7538 125.867 23.8763 120.92 23.5089C118.339 23.3178 113.253 24.6518 113.015 27.5131C112.76 30.6107 112.39 33.3088 112.938 35.9897C113.409 38.2947 115.873 39.1024 118.557 39.2914C125.484 39.7769 127.062 37.4225 127.471 34.269C127.82 31.5838 127.704 31.8502 127.685 30.0758Z" fill="#A96344"/>
<path d="M114.07 19.655C113.609 19.9343 113.432 20.2114 113.106 21.9943C113.038 22.3702 113.727 20.9181 114.348 20.351C114.969 19.7839 114.825 20.5443 118.075 20.4648C121.324 20.3854 125.931 19.8247 125.931 19.8247L126.382 24.3315L128.061 28.2454L129.073 26.0844C129.225 22.2478 128.536 20.0137 126.025 19.1674C121.429 17.6164 115.759 18.6282 114.07 19.655Z" fill="#273150"/>
<path d="M122.219 23.597C122.161 24.3574 121.804 24.9439 121.418 24.9138C121.033 24.8837 120.763 24.25 120.812 23.4896C120.862 22.7205 121.221 22.1126 121.615 22.1427C122.007 22.1727 122.277 22.8279 122.219 23.597Z" fill="#102342"/>
<path d="M120.652 22.0825L122.59 21.4659" stroke="#273150" stroke-miterlimit="10" stroke-linecap="round" stroke-linejoin="round"/>
<path d="M116.784 23.7879C116.759 24.5054 116.446 25.0575 116.087 25.0296C115.725 25.0016 115.447 24.4044 115.464 23.687C115.481 22.963 115.793 22.3916 116.162 22.4196C116.532 22.4475 116.81 23.064 116.784 23.7879Z" fill="#102342"/>
<path d="M116.594 22.0824L114.854 21.584" stroke="#273150" stroke-miterlimit="10" stroke-linecap="round" stroke-linejoin="round"/>
<path d="M131.139 30.3205C130.634 32.3763 129.182 33.8198 127.883 33.6093C127.883 33.6093 127.923 28.9478 127.904 28.0585C127.891 27.5 128.212 25.7772 129.597 26.0049C130.978 26.2304 131.661 28.1938 131.139 30.3205Z" fill="#7A4630"/>
<path d="M130.406 31.7878C130.333 32.284 129.864 32.6471 129.359 32.6062C128.854 32.5654 128.494 32.1337 128.561 31.6374C128.625 31.1369 129.096 30.7631 129.61 30.804C130.121 30.8469 130.479 31.2894 130.406 31.7878Z" fill="#E2D6C9"/>
<path d="M150.923 72.0398C150.923 72.0398 145.371 72.1322 142.783 71.1247C140.195 70.1194 140.925 59.4173 146.071 58.0081C151.951 56.397 159.017 59.8383 162.926 62.6051C166.835 65.3719 165.246 69.5093 159.591 71.4598C153.852 73.4382 150.923 72.0398 150.923 72.0398Z" fill="#1689CB"/>
<path d="M163.022 67.0111C163.022 69.7607 152.63 69.9004 149.46 69.9004C146.291 69.9004 143.723 67.6706 143.723 64.9209C143.723 62.1713 146.291 59.9415 149.46 59.9415C152.628 59.9394 163.022 64.2615 163.022 67.0111Z" fill="#992C29"/>
<path d="M160.91 68.7447C160.91 68.7447 175.017 73.563 183.228 85.5948C190.258 95.8973 200.169 89.2574 206.035 92.0027C211.9 94.748 176.924 101.446 170.881 103.087C163.648 105.048 142.244 80.8087 146.251 74.1408C151.093 66.0789 160.91 68.7447 160.91 68.7447Z" fill="#1689CB"/>
<path d="M164.331 71.896C164.402 72.229 171.997 75.5049 176.809 83.0127C187.039 98.967 199.746 88.6366 205.609 91.3819C211.472 94.1272 209.779 101.21 209.779 101.21C209.779 101.21 200.005 98.4643 197.658 106.309C195.312 114.154 174.97 115.265 168.927 116.904C161.694 118.865 145.061 115.929 145.061 115.929C145.061 115.929 138.783 89.2595 146.707 71.5029C148.107 68.3645 157.98 69.1486 157.98 69.1486L164.331 71.896Z" fill="#992C29"/>
<path d="M152.7 48.6121C152.7 48.6121 150.101 47.7421 147.502 51.2199C145.46 53.9524 144.422 56.4356 146.443 59.8147C147.014 60.7706 144.711 60.9747 146.154 65.0304C147.665 69.2773 156.26 69.4728 159.147 67.4449C159.147 67.4449 164.73 72.1773 170.985 68.7961C175.194 66.5212 169.446 60.4892 169.446 60.4892C169.446 60.4892 172.449 53.9266 165.52 47.4564C160.586 42.8507 155.299 46.0042 152.7 48.6121Z" fill="#273150"/>
<path d="M150.709 55.9435C152.542 55.9435 154.029 53.4141 154.029 50.2939C154.029 47.1737 152.542 44.6443 150.709 44.6443C148.875 44.6443 147.389 47.1737 147.389 50.2939C147.389 53.4141 148.875 55.9435 150.709 55.9435Z" fill="#273150"/>
<path d="M157.856 47.5488C158.826 45.267 158.484 42.9337 157.091 42.3371C155.698 41.7406 153.782 43.1068 152.812 45.3886C151.841 47.6704 152.184 50.0037 153.577 50.6002C154.97 51.1967 156.886 49.8305 157.856 47.5488Z" fill="#273150"/>
<path d="M151.996 50.0403C151.996 50.0403 149.834 48.6354 147.417 51.4903C145 54.3452 144.613 56.8714 146.355 59.7843C146.848 60.6092 144.801 61.3868 146.045 64.884C146.739 66.8302 149.917 67.6272 149.714 67.2642C149.511 66.9011 149.686 65.8764 149.686 65.8764C151.872 67.1868 155.445 67.958 159.214 67.6616C161.331 68.9354 165.236 68.8065 167.76 67.4424C171.388 65.4833 166.432 60.2827 166.432 60.2827C166.432 60.2827 169.023 54.6266 163.048 49.0479C158.795 45.0717 154.237 47.7912 151.996 50.0403Z" fill="#3D4C6D"/>
<path d="M151.639 50.4078C151.639 53.0973 151.866 56.3603 150.284 56.3603C148.704 56.3603 147.422 54.1799 147.422 51.4904C147.422 48.801 148.704 46.6206 150.284 46.6206C151.864 46.6206 151.639 47.7183 151.639 50.4078Z" fill="#3D4C6D"/>
<path d="M155.787 47.5186C154.95 49.4841 153.952 52.2767 152.751 51.7612C151.55 51.2478 151.255 49.235 152.09 47.2694C152.927 45.3039 154.577 44.1267 155.778 44.6401C156.979 45.1556 156.624 45.553 155.787 47.5186Z" fill="#3D4C6D"/>
<path d="M163.689 68.7915C163.689 68.7915 166.117 68.1127 166.513 66.3555C166.513 66.3555 167.361 68.9054 163.689 68.7915Z" fill="#273150"/>
<path d="M166.365 74.7568C166.365 74.7568 170.39 82.6813 171.535 84.6748C172.68 86.6661 169.608 88.9861 167.605 88.447C165.601 87.9078 161.78 78.5719 160.821 76.5956C159.86 74.6171 163.831 71.5131 166.365 74.7568Z" fill="#F6874E"/>
<path d="M166.922 75.73C166.922 75.73 163.236 68.3425 160.755 68.7335C158.268 69.1245 158.317 70.2501 158.846 72.424C159.629 75.6462 161.774 79.9597 161.774 79.9597C161.774 79.9597 163.908 76.5592 166.922 75.73Z" fill="#C93F37"/>
<path d="M176.55 84.2218C176.55 84.2218 171.564 83.8953 170.391 83.5022C169.218 83.1091 165.063 85.0231 166.775 87.8179C168.175 90.1056 175.832 89.2227 177.136 88.7007C178.44 88.1787 178.992 84.6794 176.55 84.2218Z" fill="#F6874E"/>
<path d="M189.42 31.5492C189.42 31.5492 181.546 72.7163 181.452 73.3565C181.358 73.9966 181.275 74.5723 181.275 74.5723C181.144 74.8709 180.825 74.9203 179.658 74.6518L174.66 73.7797L181.636 30.0262C181.671 29.8028 185.851 26.0564 185.851 26.0564C185.99 26.0435 186.166 25.8416 186.517 26.2562L189.332 30.7694C189.499 31.1131 189.454 31.3688 189.42 31.5492Z" fill="#1FABE2"/>
<path d="M189.419 31.5492C189.419 31.5492 181.546 72.7163 181.452 73.3565C181.358 73.9966 181.274 74.5723 181.274 74.5723C181.143 74.8709 181.696 74.9375 180.531 74.6668L188.546 31.0938C188.546 31.0938 186.165 25.8394 186.519 26.254L189.334 30.7673C189.498 31.1131 189.453 31.3688 189.419 31.5492Z" fill="#197CCD"/>
<path d="M185.201 51.9328L185.61 50.2615C185.661 50.1412 185.436 50.0704 185.203 50.1348L183.619 50.573C183.478 50.6117 183.411 50.6998 183.471 50.7664L184.869 52.0553C184.97 52.167 185.145 52.0553 185.201 51.9328Z" fill="#197CCD"/>
<path d="M179.973 40.3632L181.101 39.5877L180.259 38.6554L179.973 40.3632Z" fill="#197CCD"/>
<path d="M187.63 38.2642L186.299 36.9796L187.962 36.8722L187.63 38.2642Z" fill="#197CCD"/>
<path d="M186.159 26.0627L177.584 74.1405" stroke="#F4E8D8" stroke-miterlimit="10"/>
<path d="M178.74 48.1971L179.772 48.3775L180.667 47.1015L180.033 45.8255L182.24 43.7955L183.084 43.0007" stroke="#F4E8D8" stroke-miterlimit="10"/>
<path d="M175.814 90.3417C175.793 90.4083 175.296 90.6425 174.406 90.4062C173.361 90.1291 173.453 89.4094 173.453 89.4094L175.219 74.0974L180.091 74.8815L175.814 90.3417Z" fill="#1D2538"/>
<path d="M173.619 94.9708C175.045 95.3382 176.381 94.2856 176.573 92.6959C176.758 91.1858 175.831 89.7723 174.527 89.4694C173.238 89.1708 171.971 90.0537 171.669 91.5016C171.352 93.0246 172.211 94.6078 173.619 94.9708ZM174.381 90.9473C174.869 91.1192 175.229 91.7959 175.182 92.4725C175.135 93.1642 174.681 93.5853 174.174 93.3984C173.671 93.2115 173.32 92.5026 173.388 91.8259C173.455 91.1643 173.898 90.7755 174.381 90.9473Z" fill="#1D2538"/>
<path d="M173.484 93.985C174.291 94.2084 175.054 93.6005 175.176 92.6574C175.199 92.4727 175.195 92.288 175.169 92.1118C175.186 92.23 175.191 92.3524 175.182 92.4749C175.135 93.1666 174.681 93.5876 174.174 93.4007C173.671 93.2138 173.32 92.5049 173.388 91.8283C173.454 91.1666 173.898 90.78 174.381 90.9497C174.683 91.0571 174.936 91.3557 175.073 91.7294C174.887 91.2053 174.491 90.7886 173.994 90.6618C173.234 90.4663 172.498 91.0098 172.337 91.9013C172.174 92.8186 172.682 93.7637 173.484 93.985Z" fill="#F6BE4A"/>
<path d="M175.155 92.0252C175.153 92.0104 175.151 91.9935 175.146 91.9786C175.151 91.9956 175.153 92.0104 175.155 92.0252Z" fill="#F6BE4A"/>
<path d="M175.11 91.8439C175.103 91.8201 175.095 91.7963 175.086 91.7703C175.095 91.7941 175.103 91.8179 175.11 91.8439Z" fill="#F6BE4A"/>
<path d="M175.091 90.3826C175.119 90.3826 175.146 90.3934 175.17 90.4106C175.346 90.548 175.487 90.6984 175.587 90.8616C175.626 90.9218 175.6 91.0034 175.534 91.0421C175.468 91.0808 175.382 91.0636 175.346 91.0034C175.26 90.8659 175.138 90.7349 174.986 90.6168C174.928 90.5717 174.924 90.49 174.975 90.4342C175.003 90.3977 175.048 90.3805 175.091 90.3826Z" fill="#F4E8D8"/>
<path d="M175.567 84.1057C174.67 84.1057 174.041 84.3893 174.041 84.3893L174.923 76.9073C174.983 76.0996 175.18 73.7538 175.18 73.7538C175.18 73.7538 179.78 74.424 180.36 74.598C180.36 74.598 179.733 77.1457 179.521 77.8653L177.588 84.3656C177.588 84.3678 176.464 84.1057 175.567 84.1057Z" fill="#C73F37"/>
<path d="M178.2 82.3054L177.928 83.2055C177.928 83.2055 176.376 83.0745 174.51 83.0745C174.512 83.0745 175.075 82.5374 178.2 82.3054Z" fill="#1D2538"/>
<path d="M174.037 84.4472C174.037 84.4472 176.601 84.4257 177.443 84.8618L177.115 85.9316C177.115 85.9316 174.499 85.2012 173.949 85.2012L174.037 84.4472Z" fill="#C73F37"/>
<path d="M174.354 81.7643L174.39 81.47C174.39 81.47 176.349 81.3583 177.65 81.7729L174.354 81.7643Z" fill="#1D2538"/>
<path d="M178.613 80.7868L178.853 80.0242C178.853 80.0242 176.248 79.4571 174.533 80.1338C174.533 80.1338 177.68 80.0242 178.613 80.7868Z" fill="#1D2538"/>
<path d="M179.52 77.8674L179.129 79.167C179.129 79.167 176.571 78.1252 174.717 78.4732L174.987 76.1295C174.987 76.1295 176.926 76.9157 179.52 77.8674Z" fill="#1D2538"/>
<path d="M179.923 76.3059L180.114 75.627C180.114 75.627 177.68 74.4585 175.604 74.9676C175.604 74.9676 179.669 75.7323 179.923 76.3059Z" fill="#1D2538"/>
<path d="M170.953 70.0077C171.098 69.9454 171.263 69.9261 171.422 69.954L185.646 72.1473C185.828 72.186 186.008 72.491 186.517 73.2579C186.86 73.7734 187.02 74.4372 186.44 74.71C185.68 75.0688 184.837 75.6767 184.524 75.5843L170.876 73.1462C170.666 73.1054 170.011 72.5769 169.743 72.3578C169.439 72.1086 169.016 71.6296 168.757 71.2236C168.564 70.9228 168.684 70.5276 169.009 70.3879L170.953 70.0077Z" fill="#C73F37"/>
<path d="M170.597 69.3996C170.751 69.333 170.92 69.3137 171.087 69.3437L185.53 71.9194C185.568 71.928 186.568 73.0278 186.44 73.4381C186.311 73.8484 184.575 74.5745 184.575 74.5745C184.575 74.5745 169.852 72.1858 169.721 72.0075C169.479 71.6767 169.079 71.3415 168.807 70.9183C168.606 70.6047 168.732 70.1923 169.071 70.0462L170.597 69.3996Z" fill="#197CCD"/>
<path d="M170.597 69.3996C170.751 69.333 170.92 69.3137 171.087 69.3437L172.894 71.3974L184.575 74.5745C184.575 74.5745 169.852 72.1858 169.721 72.0075C169.364 71.653 169.079 71.3415 168.807 70.9183C168.606 70.6047 168.732 70.1923 169.071 70.0462L170.597 69.3996Z" fill="#1FABE2"/>
<path d="M178.796 50.004L178.162 53.7697L182.715 60.4655L183.407 56.7922L178.796 50.004Z" fill="#1FABE2"/>
<path d="M178.026 54.8804L177.846 56.3304L182.397 63.0262L182.636 61.6664L178.026 54.8804Z" fill="#1FABE2"/>
<path d="M173.043 69.7562L173.465 70.3534C173.606 70.5639 173.649 70.5854 173.865 70.4458L174.552 70.0226L173.043 69.7562Z" fill="#C73F37"/>
<path d="M174.867 83.4934C174.732 83.8178 175.079 83.9209 175.569 83.9746C175.922 84.0132 176.575 83.6567 176.575 83.6567C176.575 83.6567 177.164 83.85 177.41 83.9982C177.536 84.0734 176.425 83.9746 176.031 83.9982C175.638 84.0218 174.745 84.3999 174.745 84.3999C174.719 84.4021 174.693 84.4064 174.67 84.415C174.37 84.5224 174.182 84.8403 174.238 85.3365C174.246 85.4031 174.278 85.4525 174.327 85.4976C174.39 85.5556 174.503 85.5792 174.46 85.7575C174.402 85.9917 174.133 86.1614 174.135 86.3311C174.135 86.4278 174.323 87.2441 174.387 87.3171L175.252 87.3515C175.252 87.3515 174.259 87.4653 174.188 87.9207C174.066 88.7112 174.736 89.1258 175.201 89.0506C175.777 88.9583 175.772 89.2418 176.269 89.3278C176.269 89.3278 177.493 89.4609 177.656 89.0335C177.827 88.5845 178.373 88.2344 178.542 87.6006C178.641 87.229 178.641 86.4901 178.911 86.0454C179.439 85.1775 178.789 84.9241 178.934 84.3655C179.063 83.8822 179.401 83.8478 179.23 83.2786C179.095 82.8361 178.632 82.7115 178.294 82.5869C177.956 82.4644 177.063 82.3893 176.179 82.4881C176.181 82.4924 175.004 83.169 174.867 83.4934Z" fill="#CE6D3E"/>
<path d="M174.866 83.4929C174.731 83.8172 175.074 83.9698 175.564 84.0235C175.917 84.0621 176.572 83.6561 176.572 83.6561C176.572 83.6561 177.161 83.8495 177.407 83.9977C177.533 84.0729 176.422 83.9741 176.028 83.9977C175.635 84.0213 174.742 84.3994 174.742 84.3994C174.716 84.4015 174.691 84.4058 174.667 84.4144C174.367 84.5218 174.153 84.8677 174.211 85.3618C174.22 85.4284 174.355 85.5916 174.404 85.6367C174.466 85.6947 174.417 85.7699 174.404 85.7957C174.297 86.0127 174.166 86.0599 174.13 86.2253C174.044 86.6077 174.145 86.9621 174.384 87.3166L175.292 87.3509C175.292 87.3509 174.245 87.4627 174.185 87.9202C174.128 88.3606 174.504 88.9599 175.007 88.831C175.727 88.6463 176.596 88.9427 176.688 88.9019C177.336 88.6055 176.769 87.9739 176.983 87.4863C177.142 87.1254 177.154 86.7129 177.321 86.3241C177.467 85.9869 177.407 85.0202 177.407 85.0202L178.255 84.2555C178.255 84.2555 178.227 83.5186 178.169 83.2351C178.064 82.7066 176.701 82.3887 176.178 82.4875C176.084 82.509 175.003 83.1685 174.866 83.4929Z" fill="#F6874E"/>
<path d="M173.768 85.4484C174.279 86.2217 174.93 85.4183 174.778 84.2433C174.705 83.6783 174.528 82.948 173.676 83.1993C172.824 83.4506 172.854 84.0671 173.768 85.4484Z" fill="#F6874E"/>
<path d="M181.503 109.69C181.546 110.863 177.128 111.396 175.997 112.981C174.366 115.271 175.773 115.361 160.754 116.494C148.604 117.411 144.796 111.518 144.948 109.035C145.098 106.586 153.808 103.349 162.972 103.338C172.153 103.33 181.413 107.205 181.503 109.69Z" fill="#EC5E4D"/>
<path d="M146.643 117.321C146.643 117.321 144.297 107.762 144.102 104.853C143.908 101.944 153.682 97.7878 155.441 102.567C157.201 107.347 157.593 115.035 157.593 118.569C157.593 122.103 157.006 125.22 152.706 125.011C146.421 124.706 148.17 123.583 146.643 117.321Z" fill="#273150"/>
<path d="M146.643 117.321C146.643 117.321 144.297 107.762 144.102 104.853C143.908 101.944 153.682 97.7878 155.441 102.567C157.201 107.347 157.593 115.035 157.593 118.569C157.593 122.103 157.006 125.22 152.706 125.011C146.421 124.706 148.17 123.583 146.643 117.321Z" fill="#102441"/>
<path d="M153.515 118.127C150.934 117.508 147.297 119.656 147.554 122.517C147.748 124.7 145.567 125.323 144.101 129.583C142.635 133.842 153.483 136.648 154.461 131.245C155.438 125.843 160.455 119.789 153.515 118.127Z" fill="#273150"/>
<path d="M153.681 117.426C151.1 116.808 147.3 119.656 147.557 122.517C147.752 124.7 149.055 125.965 147.589 130.225C146.123 134.485 153.486 136.65 154.465 131.245C155.439 125.843 160.619 119.089 153.681 117.426Z" fill="#102441"/>
<path d="M154.463 131.245C153.485 136.648 147.622 151.717 147.035 154.417C146.449 157.119 144.495 158.123 144.495 158.123C144.495 158.123 141.819 159.356 141.902 153.266C141.964 148.613 142.639 133.844 144.105 129.584C144.105 129.584 147.819 128.025 150.165 128.65C152.509 129.271 154.463 131.245 154.463 131.245Z" fill="#F6874E"/>
<path d="M154.46 131.245C153.482 136.648 147.619 151.717 147.032 154.417C146.746 155.743 146.414 157.732 145.697 157.786C144.954 157.842 144.654 158.342 144.459 153.689C144.265 149.324 146.121 133.842 147.587 129.583C147.587 129.583 147.816 128.023 150.162 128.648C152.506 129.271 154.46 131.245 154.46 131.245Z" fill="#CE6D3E"/>
<path d="M144.655 151.981C143.582 154.018 141.626 155.218 141.626 155.218C141.626 155.218 140.238 157.682 140.438 158.61C140.566 159.173 141.129 160.608 141.129 160.608C141.129 160.608 141.549 165.603 141.696 166.191C141.915 167.072 150.715 168.481 151.303 168.705C151.892 168.928 151.764 163.959 151.764 163.959C151.764 163.959 147.992 159.285 147.285 157.285C146.59 155.322 145.813 149.786 144.655 151.981Z" fill="#CE6D3E"/>
<path d="M159.547 101.111C157.592 102.773 156.451 106.513 157.918 110.047C159.384 113.581 160.72 119.952 162.088 121.409C163.455 122.865 165.801 124.803 168.539 124.803C171.275 124.803 172.448 120.854 171.96 117.737C171.472 114.62 169.712 105.787 168.345 101.839C166.977 97.8907 161.501 99.4481 159.547 101.111Z" fill="#102441"/>
<path d="M162.457 119.2C161.487 120.24 161.245 123.679 160.699 125.531C159.965 128.023 159.824 129.909 159.965 133.32C160.108 136.787 160.802 141.274 161.14 143.691C161.834 148.655 160.391 150.501 162.737 150.776C165.083 151.053 164.691 150.221 165.603 147.727C166.515 145.233 169.84 132.211 170.49 129.578C171.141 126.946 171.533 124.036 171.663 121.681C171.794 119.327 165.047 116.423 162.457 119.2Z" fill="#273150"/>
<path d="M162.786 118.893C161.303 119.896 161.11 123.662 161.547 127.698C161.894 130.901 169.842 132.214 170.493 129.582C171.144 126.951 171.535 124.04 171.666 121.686C171.796 119.331 165.601 116.612 162.786 118.893Z" fill="#102441"/>
<path d="M160.165 127.911C159.375 130.489 159.768 134.88 160.882 143.041C161.558 148.007 160.556 151.515 162.902 151.792C165.248 152.069 165.653 152.147 166.126 149.534C166.606 146.886 169.84 132.216 170.491 129.585C170.491 129.585 167.558 127.784 164.823 127.645C162.087 127.505 160.165 127.911 160.165 127.911Z" fill="#F6874E"/>
<path d="M161.547 127.698C161.562 130.643 162.733 139.807 162.868 144.707C163.007 149.77 161.662 151.068 164.009 151.345C166.355 151.622 165.665 152.148 166.128 149.534C166.629 146.694 169.842 132.216 170.493 129.584C170.493 129.584 167.682 127.874 164.824 127.645C163.67 127.55 161.547 127.698 161.547 127.698Z" fill="#CE6D3E"/>
<path d="M161.29 149.002C161.29 149.002 161.02 150.651 160.28 152.385C159.644 153.871 162.953 154.552 164.158 155.659C164.158 155.659 172.907 160.252 175.838 158.797C179.094 157.182 170.064 152.589 172.646 153.998C172.646 153.998 167.172 151.296 166.391 149.219C165.608 147.143 161.29 149.002 161.29 149.002Z" fill="#F6874E"/>
<path d="M162.69 148.731C162.576 151.195 161.5 151.751 161.108 153.208C160.352 156.015 165.903 157.74 165.539 157.523C165.539 157.523 172.804 160.056 175.737 158.602C179.053 156.956 170 152.621 172.642 154C172.642 154 167.168 151.298 166.387 149.221C165.605 147.143 162.793 146.508 162.69 148.731Z" fill="#CE6D3E"/>
<path d="M160.489 151.169C160.628 150.892 160.883 150.651 160.925 150.928C160.97 151.205 161.392 152.267 161.97 152.593C162.546 152.92 169.122 156.516 171.427 155.86C172.834 155.461 171.817 154.187 170.811 153.253C170.169 152.655 169.529 152.198 169.529 152.198C169.529 152.198 172.478 153.865 173.833 154.649C175.188 155.433 178.038 158.114 178.307 159.16C178.579 160.206 168.291 160.337 166.816 159.65C165.342 158.962 163.156 157.001 162.343 156.217C161.593 155.495 160.722 155.818 160.444 155.497C159.814 154.778 160.067 152 160.489 151.169Z" fill="#992C29"/>
<path d="M157.493 68.5619C157.493 68.5619 160.096 67.9733 161.012 69.1505C162.065 70.5059 164.88 73.9881 165.019 76.7592C165.131 78.9675 164.752 80.7333 163.643 83.8051C162.733 86.3292 161.507 90.2044 159.961 90.909C155.252 93.055 151.23 92.7049 148.599 91.1217C147.62 90.5331 146.582 89.0401 146.661 85.1327C146.696 83.4485 146.644 82.8836 146.253 76.901C145.728 68.8583 148.892 68.5253 152.112 68.3449C155.329 68.1623 157.493 68.5619 157.493 68.5619Z" fill="#F6BE4A"/>
<path d="M157.148 71.6961L156.635 71.6682C155.714 71.6188 155.008 70.8283 155.059 69.9046L155.423 63.1293C155.472 62.2056 156.26 61.4967 157.181 61.5483L157.694 61.5762C158.615 61.6256 159.321 62.4161 159.27 63.3398L158.906 70.1151C158.854 71.0388 158.069 71.7455 157.148 71.6961Z" fill="#F6874E"/>
<path d="M157.281 68.9509L156.768 68.9229C155.847 68.8735 155.141 68.083 155.192 67.1593L155.556 60.384C155.605 59.4603 156.393 58.7514 157.313 58.8029L157.827 58.8309C158.748 58.8803 159.454 59.6708 159.403 60.5945L159.039 67.3698C158.987 68.2914 158.202 69.0003 157.281 68.9509Z" fill="#CE6D3E"/>
<path d="M141.97 154.95C141.692 155.04 141.101 155.51 140.996 155.785C140.536 156.991 140.149 158.129 140.262 158.844C140.307 159.124 140.575 159.837 140.851 161.19C141.157 162.681 140.951 165.366 141.778 166.496C142.602 167.626 149.64 170.079 151.203 169.785C152.768 169.491 151.882 164.87 151.762 163.961C151.635 163.003 148.208 158.711 146.783 155.519C146.783 155.519 146.795 155.833 147.022 156.632C147.557 158.501 148.6 162.419 147.142 162.563C145.055 162.767 142.06 159.921 141.936 158.496C141.814 157.089 141.585 155.966 141.626 155.676C141.666 155.382 141.97 154.95 141.97 154.95Z" fill="#992C29"/>
<path d="M163.973 106.863L167.956 110.384C168.374 110.715 168.956 110.455 168.873 109.97C168.586 108.305 167.738 105.493 163.973 106.863Z" fill="#EC5E4D"/>
<path d="M146.772 86.4776C146.122 87.7193 141.104 103.414 145.925 113.875C145.925 113.875 150.172 109.248 156.238 107.996C168.32 105.504 167.277 108.926 167.588 109.83C167.793 110.432 168.444 110.743 169.043 110.537C169.198 110.483 169.371 110.419 169.564 110.341C172.278 109.254 176.998 107.605 181.391 109.164C181.391 109.164 172.869 94.9392 161.472 87.8439C150.563 81.06 147.423 85.236 146.772 86.4776Z" fill="#F6BE4A"/>
<path opacity="0.5" d="M168.432 108.904C168.432 108.904 167.304 100.746 164.481 98.2539C164.481 98.2539 165.609 100.181 165.609 101.652L164.254 100.746C164.254 100.746 165.658 102.825 166.626 104.939C167.473 106.791 167.852 108.692 168.432 108.904Z" fill="#F6BE4A"/>
<path d="M165.207 55.8574C166.861 63.8464 163.616 66.5702 157.999 66.3941C153.778 66.2609 150.321 63.58 150.045 58.2784C149.767 52.9767 151.991 48.6267 156.158 47.9264C161.66 47.0027 164.13 50.6675 165.207 55.8574Z" fill="#CE6D3E"/>
<path d="M163.27 57.675C163.353 58.0681 163.419 58.444 163.473 58.8027C164.252 64.1495 161.722 66.0012 157.537 65.8745C154.18 65.7713 151.43 63.6855 151.209 59.5589C150.989 55.4323 154.452 52.6633 157.768 52.1199C162.146 51.4002 162.413 53.6343 163.27 57.675Z" fill="#F6874E"/>
<path d="M150.662 62.1232C151.953 61.9237 152.792 60.4182 152.535 58.7607C152.278 57.1031 151.023 55.9211 149.732 56.1206C148.441 56.3201 147.603 57.8255 147.86 59.4831C148.116 61.1407 149.371 62.3227 150.662 62.1232Z" fill="#F6874E"/>
<path d="M150.04 56.0832L151.395 57.5762C151.395 57.5762 151.402 51.3315 156.278 49.6109C160.619 48.0771 162.606 49.7956 162.606 49.7956C162.606 49.7956 160.262 45.9096 154.36 48.4552C149.424 50.584 150.04 56.0832 150.04 56.0832Z" fill="#F6BE4A"/>
<path d="M154.076 56.9488C154.455 56.9488 154.763 56.3717 154.763 55.6599C154.763 54.948 154.455 54.371 154.076 54.371C153.696 54.371 153.389 54.948 153.389 55.6599C153.389 56.3717 153.696 56.9488 154.076 56.9488Z" fill="#273150"/>
<path d="M161.136 56.3968C161.516 56.3968 161.824 55.8197 161.824 55.1079C161.824 54.396 161.516 53.819 161.136 53.819C160.757 53.819 160.449 54.396 160.449 55.1079C160.449 55.8197 160.757 56.3968 161.136 56.3968Z" fill="#273150"/>
<path d="M160.328 53.5441L161.613 52.8374" stroke="#273150" stroke-miterlimit="10" stroke-linecap="round" stroke-linejoin="round"/>
<path d="M155.169 53.9114L153.465 53.4517" stroke="#273150" stroke-miterlimit="10" stroke-linecap="round" stroke-linejoin="round"/>
<path d="M161.961 48.6998C161.961 48.6998 163.198 50.21 164.468 50.8565C165.427 51.3463 166.197 51.4365 166.197 51.4365L166.005 51.0499L166.482 50.6804C166.482 50.6804 164.688 50.4914 162.333 48.4742L161.961 48.6998Z" fill="#EE5D4F"/>
<path d="M161.838 48.5238C161.838 48.5238 162.486 50.3669 163.458 51.4109C164.193 52.1993 164.886 52.5495 164.886 52.5495L164.837 52.122L165.413 51.9394C165.413 51.9394 163.792 51.1467 162.268 48.4401L161.838 48.5238Z" fill="#EE5D4F"/>
<path d="M162.621 49.4969C163.08 49.4153 163.514 46.9642 162.424 46.9127C161.399 46.8633 160.237 46.9965 160.429 47.7719C160.624 48.5474 162.165 49.5785 162.621 49.4969Z" fill="#EE5D4F"/>
<path d="M163.016 48.1028C163.016 48.1028 162.847 47.0523 162.522 47.076C162.196 47.0996 162.487 47.5485 162.571 48.2403C162.656 48.932 163.074 48.5474 163.016 48.1028Z" fill="#F7BC4B"/>
<path d="M162.242 48.9901C162.242 48.9901 162.174 48.5068 162.876 48.0385C163.578 47.5702 164.113 47.3145 164.558 47.5938C165.003 47.8731 165.16 49.0953 164.905 49.7119C164.65 50.3284 163.088 49.8601 162.694 49.6281C162.3 49.3939 162.242 48.9901 162.242 48.9901Z" fill="#EE5D4F"/>
<path d="M164.797 48.5798C164.797 48.5798 164.945 49.5616 164.508 49.7205C163.86 49.959 164.268 48.1008 164.307 47.8086C164.343 47.5143 164.915 47.8774 164.797 48.5798Z" fill="#F7BC4B"/>
<path d="M147.817 81.4832C147.817 81.4832 150.368 87.193 151.533 88.4453C152.706 89.7085 154.258 91.1112 155.784 90.5183C157.306 89.9276 157.978 86.1232 156.906 84.1297C155.846 82.162 153.903 76.4866 153.248 75.5908C152.597 74.6993 150.172 75.3309 148.99 76.0505C147.8 76.7723 146.961 79.3501 147.817 81.4832Z" fill="#F6874E"/>
<path d="M154.046 77.1478C154.046 77.1478 151.854 68.2996 148.922 68.6906C146.122 69.0643 145.606 71.4617 145.959 74.7462C146.319 78.1016 147.858 81.6503 147.858 81.6503C147.858 81.6503 148.442 78.4324 154.046 77.1478Z" fill="#EC5E4D"/>
<path d="M153.158 74.2739C153.158 74.2739 151.857 68.2999 148.924 68.6909C146.124 69.0646 145.608 71.462 145.961 74.7465C146.321 78.1019 146.873 78.7528 146.873 78.7528C146.873 78.7528 147.164 76.6347 147.554 75.3609C147.89 74.2675 150.031 73.7584 150.031 73.7584L153.158 74.2739Z" fill="#C93F37"/>
<path d="M170.684 79.4813C170.684 79.4813 166.253 80.3964 163.781 81.2148C161.602 81.9366 157.869 83.1567 155.737 84.669C153.585 86.1964 153.337 88.3789 153.909 89.8053C154.486 91.2445 157.263 90.3874 159.555 89.6012C161.837 88.8171 170.515 84.6519 172.639 83.2749C174.745 81.9065 174.201 78.143 170.684 79.4813Z" fill="#CE6D3E"/>
<path d="M161.399 82.0309C159.052 82.684 157.869 83.1566 155.737 84.6689C153.585 86.1962 153.337 88.3787 153.909 89.8051C154.486 91.2444 157.263 90.3872 159.555 89.601C161.839 88.8169 163.464 81.4552 161.399 82.0309Z" fill="#F6874E"/>
<path d="M172.192 82.2607C172.837 83.1457 174.472 83.0104 175.022 82.5421C175.69 81.9771 176.088 81.4959 176.512 81.4981C176.777 81.4981 177.756 81.6828 178.291 81.9255C178.321 81.9835 178.192 82.2112 178.216 82.2757C178.248 82.3659 178.276 82.4196 178.372 82.4261C178.98 82.469 179.481 82.0673 179.449 81.4293L179.387 80.5808L180.01 79.8247L180.13 77.4552L178.064 75.2255C177.961 75.1159 177.816 75.0579 177.666 75.0686L174.857 75.277C174.688 75.2899 174.534 75.3823 174.444 75.5241L171.895 79.5282C171.893 79.5304 171.548 81.3756 172.192 82.2607Z" fill="#CE6D3E"/>
<path d="M178.188 80.7464C178.383 80.959 178.689 81.2834 178.953 81.4896C179.237 81.713 179.471 81.7925 179.451 81.4295L179.389 80.5809L180.166 79.9601C180.166 79.9601 180.346 78.1213 180.286 77.5907C180.126 76.1815 178.045 75.1354 178.045 75.1354C177.861 75.043 177.816 75.0602 177.666 75.071C177.666 75.071 177.004 76.1687 176.964 76.4995C176.923 76.8303 177.533 78.2846 177.533 78.2846C177.533 78.2846 176.867 79.1331 176.831 79.3866C176.743 79.9816 177.512 80.0095 178.188 80.7464Z" fill="#F6874E"/>
<path d="M146.949 76.9957C146.949 76.9957 147.144 75.6724 148.122 75.2793C148.122 75.2793 147.037 78.4521 146.87 78.7529C146.703 79.0536 146.705 77.7325 146.949 76.9957Z" fill="#C93F37"/>
<path d="M146.315 70.4564C145.793 71.9601 143.838 77.0598 141.884 88.3075C139.929 99.5553 143.057 114.07 144.881 115.641C146.705 117.211 153.09 105.57 166.775 112.829C166.775 112.829 157.388 99.3211 152.114 95.6306C145.662 91.1195 146.184 80.1983 146.966 74.3789C147.749 68.5618 146.315 70.4564 146.315 70.4564Z" fill="#1FABE2"/>
<path d="M141.884 88.3096C139.929 99.5572 143.057 114.072 144.881 115.643C146.705 117.213 153.09 105.572 166.775 112.831C166.775 112.831 161.811 105.888 158.733 102.296C158.733 102.296 154.768 108.154 153.751 107.941C153.148 107.815 148.216 108.242 145.283 104.713C142.35 101.183 141.884 88.3096 141.884 88.3096Z" fill="#1689CB"/>
<path d="M145.115 101.566C145.115 101.566 145.278 102.833 146.725 104.964C148.474 107.54 153.755 108.618 153.755 108.618L155.872 107.215C155.872 107.215 152.965 106.975 150.48 105.729C147.994 104.483 145.209 102.356 145.115 101.566Z" fill="#1689CB"/>
<path d="M154.655 68.0226C153.673 67.7949 148.107 67.3352 146.542 70.0827C144.977 72.828 146.249 77.9127 146.249 77.9127C146.249 77.9127 146.54 73.7217 148.644 72.3877C149.863 71.6143 157.042 74.1406 158.076 74.2995C159.981 74.5938 157.588 71.8485 157.588 71.8485C157.588 71.8485 155.927 68.3169 154.655 68.0226Z" fill="#1FABE2"/>
<path d="M159.199 68.3986C158.523 68.5726 156.632 75.0062 158.497 73.8591C158.987 73.5562 161.686 72.7313 164.769 73.0256C166.822 73.2211 168.438 74.3833 168.581 74.1534C169.072 73.3672 162.078 67.6531 159.199 68.3986Z" fill="#1689CB"/>
<path d="M158.417 73.3026C158.606 73.3026 158.759 73.1488 158.759 72.9589C158.759 72.7691 158.606 72.6152 158.417 72.6152C158.228 72.6152 158.074 72.7691 158.074 72.9589C158.074 73.1488 158.228 73.3026 158.417 73.3026Z" fill="#273150"/>
<path d="M104.253 99.3408C104.253 99.3408 104.484 95.038 102.232 94.7888C99.9801 94.5396 95.1808 99.5277 94.0955 100.058C93.0102 100.591 92.154 102.305 91.5996 102.836C91.0451 103.366 89.5553 103.772 88.729 104.438C87.9006 105.106 85 107.115 87.0807 109.358C89.1657 111.605 89.9534 112.264 92.8261 111.04C95.6903 109.817 105.002 101.562 104.253 99.3408Z" fill="#1D2436"/>
<path d="M99.7916 122.91C99.7916 122.91 92.1903 120.413 83.4736 119.307C79.5434 118.809 79.3444 124.74 81.9431 129.313C83.3709 131.829 90.9851 133.64 98.0277 137.128C103.85 140.011 109.161 144.907 111.578 144.806C116.91 144.58 113.522 125.859 99.7916 122.91Z" fill="#48598B"/>
<path d="M92.8156 125.548C91.6554 125.447 93.749 127.715 94.2948 128.71C95.8832 131.603 97.1825 134.907 98.5803 137.004C99.8155 138.855 98.9485 136.374 97.9446 133.223C97.4886 131.792 97.1461 130.422 96.8143 129.485C96.6281 128.957 92.8156 125.548 92.8156 125.548Z" fill="#273150"/>
<path d="M93.0585 160.232C93.0585 160.232 88.5996 163.997 87.0391 166.03C85.4722 168.068 89.6571 170.281 93.3711 169.77C97.0765 169.26 100.589 167.903 101.844 165.879C103.094 163.862 103.102 163.841 105.061 161.675C107.013 159.519 104.327 154.941 103.22 153.979C102.111 153.018 93.6708 156.969 93.0585 160.232Z" fill="#EC6141"/>
<path d="M93.176 159.25C93.176 159.25 88.7171 163.016 87.1566 165.048C85.5897 167.086 90.0443 168.448 93.7583 167.937C97.4637 167.428 99.9939 166.788 101.248 164.764C102.498 162.747 103.41 162.451 105.369 160.285C107.321 158.129 104.444 153.961 103.338 152.999C102.229 152.036 93.7882 155.987 93.176 159.25Z" fill="#13161F"/>
<path d="M90.5864 153.229C90.5864 153.229 91.9436 155.317 91.6803 156.167C91.417 157.02 90.6142 159.385 93.7952 160.457C96.5052 161.37 103.071 157.452 105.141 156.079C105.509 155.834 105.753 155.439 105.793 155.02C105.905 153.854 105.967 151.452 104.847 150.03C103.327 148.103 103.526 148.657 101.123 142.305C98.7379 135.998 91.1237 122.878 90.6463 121.531C90.169 120.186 83.9762 118.906 82.7282 119.054C81.4781 119.202 76.6338 125.625 76.7623 127.395C76.8907 129.169 79.635 135.309 81.994 140.525C84.3658 145.77 87.277 148.202 87.9727 149.706C89.0623 152.062 90.5864 153.229 90.5864 153.229Z" fill="#48598B"/>
<path d="M103.277 148.14C102.158 146.047 102.697 149.186 102.108 151.409C101.77 152.685 104.399 150.232 103.277 148.14Z" fill="#273150"/>
<path d="M90.498 152.587C90.498 152.587 91.8424 156.086 92.5937 156.346C93.3451 156.608 95.5949 156.314 97.1211 155.529C98.6474 154.743 93.2231 155.987 90.498 152.587Z" fill="#273150"/>
<path d="M79.1312 130.108C79.1312 130.108 79.949 128.703 80.5976 127.416C81.2462 126.13 81.5545 130.488 80.1523 131.61C78.7502 132.733 79.1312 130.108 79.1312 130.108Z" fill="#273150"/>
<path d="M96.0537 130.059L91.6676 127.898L86.2539 123.552C86.2539 123.552 87.5212 123.578 88.5144 124.276C88.964 124.592 91.3293 126.557 92.618 127.586C94.17 128.83 95.5742 129.56 96.0537 130.059Z" fill="#273150"/>
<path d="M122 100.732C122 100.732 99.5387 95.7681 103.82 92.4943C108.073 89.2398 119.941 83.3818 124.28 89.6824C128.649 96.028 124.633 102.988 122 100.732Z" fill="#1D2436"/>
<path d="M130.636 146.334C130.636 146.334 130.987 145.502 132.03 144.778C133.07 144.057 136.296 144.357 136.872 145.64C137.448 146.926 137.441 155.747 137.441 156.344C137.441 156.943 136.283 159.429 135.232 160.889C134.179 162.354 132.195 162.636 130.446 161.948C128.697 161.261 129.881 158.234 130.354 156.789C130.827 155.349 129.819 147.882 130.636 146.334Z" fill="#EC6141"/>
<path d="M129.953 145.648C129.953 145.648 130.015 145.137 131.057 144.413C132.098 143.691 135.324 143.992 135.899 145.275C136.475 146.561 136.758 155.061 136.758 155.659C136.758 156.258 135.6 158.743 134.549 160.204C133.495 161.669 131.511 161.95 129.762 161.263C128.013 160.576 129.197 157.549 129.67 156.103C130.143 154.662 129.135 147.197 129.953 145.648Z" fill="#13161F"/>
<path d="M124.567 148.967C124.567 148.967 128.472 145.618 130.304 145.537C134.217 145.36 133.312 149.309 133.303 152.03C133.297 154.761 131.186 156.771 130.403 157.293C129.619 157.815 130.985 157.549 128.71 160.662C126.421 163.789 122.358 167.538 119.652 167.92C117.591 168.212 110.677 164.567 114.374 157.13C115.53 154.808 122.491 150.933 124.567 148.967Z" fill="#273150"/>
<path d="M111.931 132.413C111.931 132.413 111.208 150.247 111.505 156.986C111.805 163.785 111.497 166.988 113.137 168.67C114.778 170.356 117.758 170.67 119.847 169.978C121.932 169.286 121.183 168.414 122.844 167.95C124.503 167.488 125.693 162.434 126.117 160.726C126.541 159.022 127.673 142.467 128.114 136.482C128.553 130.547 127.363 127.513 122.523 127.574C117.675 127.638 112.803 128.929 111.931 132.413Z" fill="#273150"/>
<path d="M111.491 135.296C111.491 135.296 111.247 151.876 111.48 158.069C111.718 164.318 111.473 167.259 112.764 168.807C114.057 170.356 116.408 170.646 118.054 170.008C119.698 169.372 123.782 163.147 124.116 161.579C124.45 160.013 125.64 149.341 124.57 139.23C123.994 133.795 123.977 130.987 120.162 131.043C116.341 131.097 112.178 132.093 111.491 135.296Z" fill="#47588A"/>
<path d="M98.4748 126.693C99.6607 128.246 100.949 129.376 102.514 130.615C102.88 130.905 115.285 136.108 115.285 136.108C115.285 136.108 108.324 133.453 109.291 134.147C113.425 137.109 114.504 139.116 119.327 140.293C120.453 140.568 122.795 138.349 123.465 139.083C125.616 141.438 124.852 145.895 125.029 143.693C125.663 135.833 128.392 132.248 122.488 129.176C116.27 125.941 95.1654 122.354 98.4748 126.693Z" fill="#273150"/>
<path d="M101.147 122.76C101.329 121.131 100.937 114.833 100.999 106.857C101.061 98.9667 101.005 95.8347 105.561 93.9916C110.094 92.1571 115.776 91.6136 120.083 94.4362C122.08 95.7445 122.955 124.394 123.336 126.955C123.717 129.524 119.218 133.737 115.151 133.999C111.077 134.263 100.626 127.442 101.147 122.76Z" fill="#F6BE4A"/>
<path opacity="0.5" d="M111.25 124.601C111.25 124.601 110.604 125.812 110.871 126.976C108.498 125.941 106.162 124.77 105.516 123.948C105.516 123.948 107.601 127.479 110.728 128.656C113.856 129.833 116.722 129.309 116.722 129.309C116.722 129.309 112.256 126.227 111.25 124.601Z" fill="#F6BE4A"/>
<path d="M98.439 125.226C98.439 125.309 98.4689 125.389 98.5267 125.449C98.9934 125.939 100.406 128.057 102.579 128.796C103.161 128.994 104.163 128.566 104.167 128.317L104.178 127.808C104.18 127.685 102.964 127.803 102.857 127.748C102.215 127.408 99.5029 125.275 98.3726 123.935C98.1778 123.703 98.4411 124.916 98.439 125.226Z" fill="#F4E8D8"/>
<path d="M107.434 93.141C107.984 92.8338 100.727 96.3589 103.985 110.941C104.852 114.818 103.992 121.587 104.274 122.899C104.559 124.212 105.435 127.142 104.146 127.806C101.759 129.034 99.4987 125.258 98.666 124.412C97.373 123.101 100.032 122.487 99.9225 117.656C99.8069 112.549 98.1008 105.424 98.4348 102.524C99.199 95.9056 101.374 95.3944 102.228 94.7886C103.159 94.1291 106.768 93.5147 107.434 93.141Z" fill="#972B28"/>
<path d="M107.434 93.141C107.642 92.3676 103.221 94.6769 102.616 95.2268C102.025 95.7638 101.4 96.505 100.833 97.5318C99.0151 100.814 103.624 109.22 103.624 109.22C103.624 109.22 103.609 101.179 103.784 99.3448C103.958 97.5146 107.034 94.6361 107.434 93.141Z" fill="#F4E8D8"/>
<path d="M107.582 92.5071C107.582 92.5071 107.361 93.0162 107.385 93.6392C107.472 96.1439 107.995 103.067 108.926 103.153C109.872 103.239 110.309 103.012 111.495 99.1299C111.747 98.3028 114.26 92.0754 113.47 91.5383" stroke="#913636" stroke-miterlimit="10"/>
<path d="M109.101 105.293C109.377 105.293 109.601 104.777 109.601 104.141C109.601 103.506 109.377 102.99 109.101 102.99C108.824 102.99 108.6 103.506 108.6 104.141C108.6 104.777 108.824 105.293 109.101 105.293Z" fill="#29ACE4"/>
<path d="M107.412 90.1656L107.558 94.0753C107.617 95.7014 109.105 96.9022 110.811 96.7003L111.043 96.6724C112.68 96.479 113.879 95.0612 113.723 93.5103L113.331 89.6351C113.147 87.807 111.184 86.6878 109.362 87.3666C108.155 87.8177 107.367 88.9477 107.412 90.1656Z" fill="#CE6D3E"/>
<path d="M115.673 129.745L115.688 130.072C115.696 130.259 115.767 130.433 115.887 130.562C116.745 131.49 120.404 135.341 122.82 136.252C124.681 136.952 127.177 137.084 128.6 137.094C129.276 137.099 129.897 136.658 130.184 135.969C130.372 135.518 130.135 134.996 129.702 134.907C127.536 134.463 121.667 132.966 116.767 129.067C116.302 128.695 115.643 129.103 115.673 129.745Z" fill="#F4E8D8"/>
<path d="M114.193 91.8821C113.525 92.402 110.659 97.6069 113.059 104.788C115.477 112.034 113.264 125.052 114.833 128.282C115.28 129.202 121.692 135.053 124.126 135.156C125.729 135.223 128.039 135.483 129.642 135.694C130.395 135.792 131.556 134.325 131.581 133.556C131.661 131.124 131.581 125.982 129.95 120.824C127.724 113.78 127.553 93.6006 121.906 90.9262C117.594 88.8833 114.861 91.3623 114.193 91.8821Z" fill="#972B28"/>
<path d="M121.773 122.122C121.773 122.122 126.309 124.895 127.512 125.286L126.831 126.914C126.831 126.914 121.751 124.141 120.957 123.073L121.773 122.122Z" fill="#F4E8D8"/>
<path d="M114.065 91.4946C115.401 90.3282 119.746 89.731 121.048 90.5623C121.784 91.0306 118.304 89.5549 116.538 93.5504C114.35 98.4954 113.562 106.364 113.562 106.364C113.562 106.364 112.374 105.715 111.95 99.4235C111.668 95.2238 112.727 92.6632 114.065 91.4946Z" fill="#F4E8D8"/>
<path d="M125.225 119.271C125.225 119.271 125.763 117.701 125.519 116.966C125.275 116.231 124.639 118.732 123.907 119.761C123.554 120.255 124.999 119.439 125.225 119.271Z" fill="#972B28"/>
<path d="M99.8478 119.63L99.668 120.498L100.824 119.827L101.036 118.796L99.8478 119.63Z" fill="#F4E8D8"/>
<path d="M113.172 136.991C113.172 136.991 115.126 138.136 116.43 139.182C117.734 140.228 120.21 141.047 120.21 141.047C120.21 141.047 117.081 141.569 113.172 136.991Z" fill="#273150"/>
<path d="M98.1562 109.561C99.1623 112.556 95.8893 116.156 92.8089 116.186C90.9637 116.206 89.5766 115.353 88.3415 113.647C87.8748 113.003 88.1595 112.255 87.8213 111.551C87.5601 111.005 86.6461 110.504 86.4727 109.98C85.488 106.988 87.192 104.827 90.2423 104.528C92.4408 104.314 92.8946 105.776 94.1019 106.324C94.5364 106.522 95.8465 106.56 96.2532 106.814C97.7217 107.74 97.6639 108.099 98.1562 109.561Z" fill="#C93F37"/>
<path d="M97.5567 111.48C97.7087 113.033 96.7326 114.58 95.3712 114.934C94.0076 115.286 92.7831 114.307 92.6354 112.749C92.4877 111.194 93.1535 108.93 94.5106 108.582C95.8656 108.232 97.4048 109.929 97.5567 111.48Z" fill="#F4E8D8"/>
<path d="M96.8534 111.637C96.9647 112.805 96.254 113.972 95.265 114.236C94.276 114.502 93.3855 113.763 93.2784 112.59C93.1714 111.42 93.8543 109.102 95.3528 109.495C96.3396 109.753 96.742 110.47 96.8534 111.637Z" fill="#CE6D3E"/>
<path d="M94.9802 109.757C94.4257 110.195 93.9805 111.106 93.8242 112.502C93.668 113.898 96.6863 115.408 96.6863 115.408C96.6863 115.408 98.5679 116.107 99.8223 113.08C100.321 111.875 97.748 109.643 97.7673 108.874C97.8379 106.083 95.8899 109.037 94.9802 109.757Z" fill="#F6874E"/>
<path d="M97.3739 109.364C97.3739 109.364 96.3957 109.478 96.5926 110.215C96.7874 110.949 98.3265 112.258 99.9406 111.867C101.555 111.476 97.3739 109.364 97.3739 109.364Z" fill="#CE6D3E"/>
<path d="M87.8943 110.541C87.7638 109.69 87.8515 108.876 87.8301 108.711C87.7659 108.221 87.0488 110.608 87.0488 110.608C87.9264 111.881 87.9607 110.981 87.8943 110.541Z" fill="#972B28"/>
<path d="M93.6612 106.421C93.6612 106.421 91.8031 104.754 91.2188 107.403C91.2166 107.403 92.2934 106.715 93.6612 106.421Z" fill="#972B28"/>
<path d="M121.924 109.141C120.59 106.975 119.233 104.223 117.835 102.069C116.44 99.9207 117.242 93.096 120.28 91.921C123.309 90.7502 123.874 92.196 126.67 96.256C129.476 100.333 133.804 111.029 132.466 114.715C131.754 116.676 125.479 117.675 121.924 109.141Z" fill="#1D2436"/>
<path d="M131.604 111.147C130.112 108.992 128.209 107.501 124.318 108.286C122.378 108.676 122.132 110.526 122.132 110.526C122.132 110.526 119.921 110.324 118.913 111.226C117.902 112.131 114.479 111.226 114.588 115.737C114.698 120.249 115.8 122.322 118.806 122.897C121.809 123.473 126.501 119.533 126.501 119.533C126.501 119.533 128.156 119.855 130.354 117.759C132.572 115.645 133.974 114.569 131.604 111.147Z" fill="#C93F37"/>
<path d="M122.633 109.918C122.633 109.918 124.403 108.354 126.143 109.897C126.334 110.066 123.996 109.596 122.633 109.918Z" fill="#972B28"/>
<path d="M114.689 117.645C114.46 121.724 119.33 121.318 119.33 121.318C119.33 121.318 118.397 121.75 118.977 121.909C119.662 122.096 120.861 122.3 121.593 121.787C124.209 119.95 125.667 115.441 122.466 113.594C121.88 113.257 121.706 115.804 121.621 115.07C121.529 114.29 120.703 113.083 119.24 112.316C118.425 111.886 114.972 112.588 114.689 117.645Z" fill="#972B28"/>
<path d="M127.104 112.502C127.104 112.502 126.265 111.62 125.184 111.226C124.103 110.833 122.211 110.393 122.211 110.393C122.508 110.303 127.222 110.011 127.104 112.502Z" fill="#972B28"/>
<path d="M116.877 112.657C116.138 112.702 113.792 112.939 113.612 117.112C113.469 120.481 116.459 121.265 116.459 121.265C116.459 121.265 118.636 121.454 119.628 120.608C120.963 119.467 121.072 116.754 120.244 114.432C119.818 113.241 117.615 112.612 116.877 112.657Z" fill="#F4E8D8"/>
<path d="M115.393 113.432C114.656 113.465 112.516 113.063 112.404 117.024C112.314 120.218 115.307 121.005 115.307 121.005C115.307 121.005 117.478 121.213 118.452 120.422C119.764 119.357 119.828 116.784 118.965 114.569C118.522 113.43 116.129 113.4 115.393 113.432Z" fill="#CE6D3E"/>
<path d="M100.777 99.2333C100.777 99.2333 101.627 98.0754 104.053 98.1506C107.441 98.2559 111.08 99.2762 112.163 100.812C112.966 101.949 113.011 103.102 113.011 103.102C113.011 103.102 114.088 103.207 114.621 103.998C114.957 104.496 114.807 110.762 114.807 110.762C114.749 111.869 114.199 112.629 113.077 112.614L112.127 112.601L100.546 111.083C100.551 111.083 99.6708 100.591 100.777 99.2333Z" fill="#634874"/>
<path d="M96.7856 107.991C96.9162 110.999 99.4871 111.525 100.228 111.649C102.229 111.985 113.007 112.93 113.007 112.93C113.007 112.93 114.887 112.208 113.814 112.133C113.557 112.116 108.238 110.923 106.496 110.605C103.526 110.064 102.52 108.12 102.52 108.12C102.52 108.12 96.7257 106.619 96.7856 107.991Z" fill="#7E6391"/>
<path d="M112.618 121.943L113.504 113.108C113.453 112.653 113.095 112.462 111.687 112.214C111.687 112.214 111.006 112.152 110.473 112.098C110.214 112.073 109.589 112.199 109.563 112.981L109.12 122.987C109.081 123.353 110.389 123.097 110.389 123.097C112.322 122.856 112.577 122.768 112.618 121.943Z" fill="#634874"/>
<path d="M102.463 109.413C100.599 110.247 99.3849 110.496 97.6745 109.667C96.403 109.123 96.0519 106.342 96.084 105.47L96.1076 102.471C96.1761 100.516 97.8372 98.9327 99.8173 98.9327C102.666 98.9306 104.154 101.158 104.077 103.977L103.977 105.665C103.953 106.535 103.319 109.031 102.463 109.413Z" fill="#634874"/>
<path d="M109.998 122.923L110.242 112.672C110.285 111.832 110.338 111.693 109 111.581L107.793 111.572C106.798 111.626 106.305 112.133 106.275 112.958L106.691 121.151C106.671 122.609 106.483 123.015 107.508 123.097C109.217 123.232 109.979 123.424 109.998 122.923Z" fill="#7E6391"/>
<path d="M105.614 112.908C105.738 114.18 106.004 115.557 107.766 115.995C107.841 116.015 109.223 115.927 109.223 115.927L108.643 112.556C108.654 111.892 108.301 111.54 107.881 111.493L106.393 111.39C105.848 111.327 105.533 112.064 105.614 112.908Z" fill="#7E6391"/>
<path d="M107.094 112.934C107.199 114.144 107.503 115.503 109.025 115.922C109.089 115.939 109.158 115.939 109.224 115.927C110.13 116.002 111.577 115.43 111.587 114.797L111.733 112.217C111.69 112.109 107.882 111.609 107.882 111.609C107.411 111.551 107.024 112.133 107.094 112.934Z" fill="#634874"/>
<path d="M101.781 103.633C101.681 104.685 100.728 105.484 99.6534 105.418C98.5788 105.351 97.791 104.443 97.8938 103.388C97.9965 102.335 98.9512 101.54 100.024 101.607C101.094 101.676 101.882 102.582 101.781 103.633Z" fill="#1D2436"/>
<path d="M101.193 103.076C101.054 104.539 99.7309 105.652 98.2367 105.56C96.7404 105.467 95.6466 104.202 95.79 102.737C95.9334 101.276 97.2585 100.17 98.7484 100.264C100.238 100.359 101.332 101.618 101.193 103.076Z" fill="#F6BE4A"/>
<path d="M100.056 102.859C99.9684 103.781 99.1335 104.479 98.1938 104.421C97.2541 104.363 96.5627 103.566 96.6547 102.645C96.7446 101.725 97.5795 101.027 98.5171 101.087C99.4546 101.147 100.144 101.94 100.056 102.859Z" fill="#1D2436"/>
<path d="M104.432 99.2418C105.798 100.189 106.138 101.59 105.783 104.056C105.753 104.258 105.916 104.438 106.155 104.475L111.152 105.302C111.453 105.349 112.226 105.566 112.258 105.308C112.391 104.266 112.562 101.291 110.392 100.18C109.366 99.6563 106.89 98.9389 104.869 98.5608C104.372 98.4684 104.049 98.9754 104.432 99.2418Z" fill="#BB83C3"/>
<path d="M104.9 98.3676C104.9 98.3676 108.516 99.8455 107.015 104.857" stroke="#634874" stroke-width="2" stroke-miterlimit="10" stroke-linecap="round" stroke-linejoin="round"/>
<path d="M107.488 98.9391C107.488 98.9391 110.483 100.922 109.042 105.094" stroke="#634874" stroke-width="2" stroke-miterlimit="10" stroke-linecap="round" stroke-linejoin="round"/>
<path d="M109.451 99.5192C109.451 99.5192 112.129 101.487 110.988 105.311" stroke="#634874" stroke-width="2" stroke-miterlimit="10" stroke-linecap="round" stroke-linejoin="round"/>
<path d="M105.664 105.57L112.227 106.715" stroke="#BB83C3" stroke-width="2" stroke-miterlimit="10" stroke-linecap="round" stroke-linejoin="round"/>
<path d="M118.022 114.84C118.022 114.84 117.495 112.756 117.196 112.185C117.048 111.903 117.082 111.342 116.742 110.518C116.374 109.624 116.553 108.902 116.16 108.193C115.826 107.592 114.282 108.687 114.344 109.819C114.379 110.46 114.456 111.71 114.627 112.335C114.82 113.044 112.18 112.483 112.18 112.483C111.9 112.384 110.087 112.513 109.791 112.545L107.92 112.571C107.143 112.823 107.013 113.39 107.038 114.208C107.051 114.646 109.149 114.399 110.037 114.543C110.684 114.646 112.124 114.404 112.146 114.498C112.146 114.498 107.201 115.74 106.929 116.378C106.394 117.643 106.548 119.299 106.745 119.546C107.329 120.279 107.374 120.335 107.374 120.335C107.374 120.335 107.34 121.278 108.025 121.74C109.059 122.438 112.351 123.018 112.351 123.018C112.351 123.018 116.234 121.703 116.883 121.086C117.532 120.472 118.341 119.969 118.424 118.008C118.504 116.053 118.022 114.84 118.022 114.84Z" fill="#F6874E"/>
<path d="M106.925 116.376C106.401 117.645 106.544 119.297 106.741 119.544C107.326 120.277 107.371 120.333 107.371 120.333C107.371 120.333 107.336 121.276 108.021 121.737C109.055 122.436 112.348 123.016 112.348 123.016L111.166 120.762C111.166 120.762 110.117 115.613 109.809 115.437C109.5 115.261 107.118 115.912 106.925 116.376Z" fill="#CE6D3E"/>
<path d="M98.0882 96.78L97.9512 89.9081L94.7874 92.7759L91.1741 87.4785L90.8016 93.7404L85.5742 93.8027L89.6285 96.5545L87.6934 98.9217L92.8951 99.1602C93.3575 99.1795 90.412 97.9142 90.412 97.9142L90.7502 96.6683L89.6221 94.7414L91.9939 94.6276L92.4456 92.1357L94.6204 94.2581L96.8488 92.8167C96.8467 92.8145 98.0904 96.8294 98.0882 96.78Z" fill="#1FABE2"/>
<path d="M94.7264 113.566L97.1175 115.78C97.1582 115.817 97.2074 115.841 97.2631 115.847C97.7854 115.905 101.026 115.86 102.09 115.69C102.555 115.617 103.683 114.459 104.888 113.276C105.265 112.904 105.534 112.687 105.918 112.221C106.13 111.963 106.183 111.626 105.894 111.461C105.894 111.461 105.421 111.196 105.16 111.392C105.046 111.478 105.038 111.446 105.066 111.381C105.123 111.246 105.066 111.089 104.929 111.033C104.663 110.926 104.256 110.831 103.856 111.033C103.27 111.327 103.334 111.246 103.334 111.246C103.334 110.969 103.023 110.64 102.617 110.625C102.073 110.603 101.641 110.921 101.557 110.988C101.546 110.997 100.81 111.162 100.157 111.473C99.3823 111.843 98.2349 111.36 97.6313 111.13C96.5203 110.709 94.7992 110.664 94.6387 113.362C94.6387 113.437 94.6708 113.514 94.7264 113.566Z" fill="#F6874E"/>
<path d="M117.808 80.9176C116.738 87.0141 114.713 88.144 114.713 88.144C105.885 91.4006 98.5296 87.7273 97.7826 82.402C96.8171 77.0574 96.1707 74.2541 105.146 72.5119C114.064 70.7826 118.75 75.5644 117.808 80.9176Z" fill="#1D2436"/>
<path d="M116.81 79.7366C115.898 84.903 108.241 83.4121 108.241 83.4121C106.694 83.0061 101.364 81.9278 100.36 79.06C99.5034 76.6154 98.3818 73.8636 105.996 72.3857C112.929 71.0409 117.613 75.1954 116.81 79.7366Z" fill="#3D4C6D"/>
<path d="M115.797 82.5529C115.797 82.5529 116.431 80.8838 115.842 79.0751C115.842 79.0751 118.169 79.6143 115.797 82.5529Z" fill="#1D2436"/>
<path d="M102.517 74.6586C102.517 74.6586 97.2486 76.0635 96.66 77.0903C96.0713 78.1192 98.7021 89.5452 100.864 92.0135C103.03 94.4881 112.631 90.4067 114.356 87.6978C115.769 85.4831 115.08 84.7269 114.731 81.8205C114.369 78.7916 111.711 77.5263 111.186 76.4845C110.298 74.708 102.517 74.6586 102.517 74.6586Z" fill="#CE6D3E"/>
<path d="M113.652 83.3627C114.04 85.3455 112.1 89.8738 108.11 91.0961C104.105 92.3248 100.866 92.0112 99.2117 87.7514C97.5142 83.3799 101.83 77.4145 105.801 76.2245C109.756 75.0408 112.3 78.9032 113.652 83.3627Z" fill="#F6874E"/>
<path d="M102.097 82.8967C102.255 83.5927 101.981 83.9815 101.619 84.0674C101.255 84.1533 100.941 83.9063 100.784 83.2082C100.626 82.5122 100.793 81.8763 101.157 81.7904C101.517 81.7066 101.938 82.2007 102.097 82.8967Z" fill="#34273A"/>
<path d="M107.224 77.8097L106.209 78.8429" stroke="#34273A" stroke-miterlimit="10" stroke-linecap="round" stroke-linejoin="round"/>
<path d="M101.787 80.9523L100.361 81.0446" stroke="#34273A" stroke-miterlimit="10" stroke-linecap="round" stroke-linejoin="round"/>
<path d="M106.603 80.4261C106.772 79.8848 107.684 78.8343 108.836 79.1565C108.836 79.1565 107.293 80.6366 106.764 81.1328C106.683 81.208 106.571 80.5292 106.603 80.4261Z" fill="#34273A"/>
<path d="M115.554 80.1447C115.591 81.9083 114.769 83.455 113.718 83.5925C112.667 83.7299 111.787 82.4067 111.755 80.6409C111.723 78.8772 112.547 77.3434 113.594 77.2081C114.64 77.0706 115.518 78.3853 115.554 80.1447Z" fill="#F6874E"/>
<path d="M107.865 72.433C107.865 72.433 99.4178 81.6163 96.5323 82.742C93.6382 83.8719 95.0895 75.9903 99.3322 73.1956C103.551 70.4202 107.865 72.433 107.865 72.433Z" fill="#1D2436"/>
<path d="M108.414 72.2677C108.414 72.2677 108.516 72.91 106.782 74.0678C103.781 76.0721 98.008 79.1611 96.546 79.7304C94.2299 80.6326 96.0173 75.4985 99.3267 73.1355C102.852 70.62 108.414 72.2677 108.414 72.2677Z" fill="#3D4C6D"/>
<path d="M102.631 74.8496C102.631 74.8496 100.287 78.3769 97.8398 79.5025C97.8377 79.5046 103.637 76.9505 102.631 74.8496Z" fill="#1D2436"/>
<path d="M110.014 74.7703C110.014 74.7703 110.617 79.1052 111.484 80.2115L113.192 81.7517L112.037 75.608L110.014 74.7703Z" fill="#3D4C6D"/>
</svg>
