<svg width="199" height="219" viewBox="0 0 199 219" fill="none" xmlns="http://www.w3.org/2000/svg">
<path d="M74.723 114.333L67.4409 113.057C67.2019 110.827 66.717 108.661 65.9976 106.584L72.0461 102.352C72.4543 102.068 72.5535 101.501 72.2671 101.096L63.8687 89.1576C63.5845 88.7481 63.0185 88.6491 62.6125 88.9371L56.5641 93.1716C54.8524 91.7856 52.9738 90.5976 50.9554 89.6121L52.2341 82.3446C52.3198 81.8609 51.9883 81.3906 51.4989 81.3051L37.0949 78.7829C36.6055 78.6974 36.1364 79.0281 36.0507 79.5096L34.772 86.7771C32.5371 87.0179 30.3631 87.5016 28.2792 88.2194L24.0372 82.1826C23.7576 81.7731 23.1915 81.6741 22.7833 81.9621L10.8127 90.3366C10.4022 90.6201 10.303 91.1871 10.5916 91.5921L14.836 97.6266C13.4535 99.3366 12.256 101.209 11.2705 103.225L3.98614 101.949C3.49902 101.863 3.02768 102.19 2.94198 102.68L0.413891 117.051C0.328193 117.537 0.659708 118.012 1.14683 118.097L8.43115 119.373C8.66795 121.598 9.15508 123.765 9.87449 125.844L3.82377 130.074C3.41332 130.364 3.31409 130.922 3.60275 131.332L12.0012 143.272C12.2876 143.677 12.8536 143.776 13.255 143.493L19.3035 139.263C21.0197 140.638 22.8983 141.832 24.9167 142.818L23.6403 150.079C23.5546 150.565 23.8838 151.033 24.3732 151.118L38.7772 153.64C39.2666 153.726 39.738 153.397 39.8214 152.911L41.0978 145.651C43.3305 145.41 45.5045 144.924 47.5861 144.213L51.8304 150.243C52.1145 150.646 52.6806 150.745 53.0865 150.463L65.0572 142.089C65.4654 141.805 65.5646 141.243 65.2782 140.833L61.0362 134.797C62.4231 133.087 63.6161 131.215 64.6016 129.203L71.8837 130.479C72.3708 130.564 72.8422 130.229 72.9279 129.743L75.456 115.372C75.5394 114.882 75.2101 114.418 74.723 114.333ZM35.3223 131.066C27.0998 129.626 21.6016 121.81 23.0449 113.604C24.4882 105.4 32.3228 99.9149 40.5476 101.355C48.7701 102.795 54.2683 110.611 52.8249 118.817C51.3816 127.021 43.5448 132.506 35.3223 131.066Z" fill="#CCE5CF"/>
<path d="M173.854 40.9761L161.619 42.8188C160.05 39.4101 158.126 36.2263 155.875 33.3126L163.214 23.3833C163.71 22.7173 163.566 21.7656 162.894 21.2728L143.199 6.78734C142.529 6.28784 141.58 6.43184 141.09 7.10459L133.75 17.0338C130.295 15.7423 126.677 14.8536 122.952 14.3631L121.102 2.15009C120.981 1.34009 120.205 0.768595 119.384 0.892345L95.181 4.54184C94.3601 4.66559 93.7895 5.4396 93.9135 6.2496L95.7628 18.4626C92.3462 20.0308 89.1551 21.9546 86.23 24.1978L76.2778 16.8741C75.6148 16.3746 74.6653 16.5186 74.1714 17.1913L59.6434 36.8338C59.145 37.5021 59.2893 38.4538 59.9636 38.9443L69.9181 46.2658C68.6349 49.7128 67.7351 53.3218 67.2479 57.0411L55.0112 58.8861C54.1903 59.0098 53.6175 59.7748 53.7415 60.6006L57.3972 84.7453C57.5212 85.5598 58.297 86.1403 59.1179 86.0166L71.3547 84.1716C72.9175 87.5758 74.8458 90.7573 77.0942 93.6733L69.7512 103.598C69.2551 104.275 69.3972 105.214 70.0715 105.713L89.7662 120.199C90.436 120.687 91.3877 120.545 91.8726 119.881L99.2133 109.959C102.671 111.23 106.288 112.128 110.018 112.621L111.865 124.822C111.989 125.637 112.763 126.208 113.581 126.085L137.782 122.437C138.603 122.314 139.176 121.542 139.052 120.725L137.205 108.523C140.619 106.955 143.81 105.029 146.733 102.797L156.683 110.114C157.348 110.605 158.3 110.461 158.791 109.797L173.319 90.1521C173.816 89.4861 173.674 88.5388 172.999 88.0416L163.049 80.7156C164.337 77.2663 165.232 73.6596 165.724 69.9471L177.958 68.1043C178.777 67.9806 179.345 67.1998 179.221 66.3853L175.566 42.2406C175.444 41.4148 174.67 40.8523 173.854 40.9761ZM120.647 90.9958C105.42 93.2908 91.2118 82.8351 88.9115 67.6453C86.6112 52.4533 97.0911 38.2783 112.316 35.9833C127.543 33.6883 141.751 44.1441 144.051 59.3338C146.352 74.5258 135.874 88.7008 120.647 90.9958Z" fill="#CCE5CF"/>
<path d="M20.1428 102.617C20.5781 102.617 20.5781 101.942 20.1428 101.942C19.7076 101.942 19.7076 102.617 20.1428 102.617Z" fill="#F4E8D8"/>
<path d="M74.7852 99.7189L81.5553 99.7459L91.6902 93.5112L112.494 78.4834L91.309 78.3147L74.7852 99.7189Z" fill="#702022"/>
<path d="M89.3805 76.1255L72.5859 96.5442L74.7983 99.746L91.8138 79.01L89.3805 76.1255Z" fill="#972D29"/>
<path d="M89.3809 76.1255L110.282 75.8442L112.494 78.4835L91.8142 79.01L89.3809 76.1255Z" fill="#C83F37"/>
<path d="M104.098 92.1321L103.344 101.852L101.955 120.172L120.376 118.482L124.767 97.3588L104.098 92.1321Z" fill="#CE6D3E"/>
<path d="M91.5214 82.6415L80.1484 95.867L83.4455 119.224L102.698 119.548L105.242 98.1462L91.5214 82.6415Z" fill="#F2864F"/>
<path d="M91.5214 82.6415L80.1484 95.867L83.4455 119.224L94.6449 119.436L95.6034 88.9325L91.5214 82.6415Z" fill="#CE6D3E"/>
<path opacity="0.5" d="M100.084 94.4472L91.5212 82.6415L88.3301 86.3517L89.9741 119.316L98.5371 119.726L100.084 94.4472Z" fill="#C16840"/>
<path d="M102.479 117.199C102.497 116.891 102.336 116.631 102.118 116.619C101.9 116.606 101.709 116.845 101.691 117.153C101.673 117.46 101.835 117.72 102.052 117.733C102.27 117.746 102.461 117.507 102.479 117.199Z" fill="#3E424B"/>
<path d="M102.985 110.3C103.003 109.992 102.841 109.733 102.624 109.72C102.406 109.707 102.215 109.946 102.197 110.254C102.179 110.561 102.34 110.821 102.558 110.834C102.776 110.847 102.967 110.608 102.985 110.3Z" fill="#3E424B"/>
<path d="M103.745 101.871C103.763 101.564 103.601 101.304 103.384 101.291C103.166 101.278 102.975 101.517 102.957 101.825C102.939 102.133 103.1 102.392 103.318 102.405C103.535 102.418 103.727 102.179 103.745 101.871Z" fill="#3E424B"/>
<path d="M122.335 104.805C122.419 104.571 122.347 104.331 122.173 104.269C122 104.207 121.791 104.347 121.707 104.581C121.623 104.815 121.695 105.055 121.869 105.117C122.042 105.179 122.251 105.039 122.335 104.805Z" fill="#3E424B"/>
<path d="M120.919 111.082C121.003 110.848 120.931 110.609 120.757 110.547C120.584 110.484 120.375 110.624 120.291 110.858C120.207 111.092 120.279 111.332 120.453 111.394C120.626 111.456 120.835 111.316 120.919 111.082Z" fill="#3E424B"/>
<path d="M119.505 118.034C119.589 117.8 119.517 117.56 119.343 117.498C119.169 117.436 118.961 117.576 118.877 117.81C118.793 118.043 118.865 118.283 119.039 118.345C119.212 118.407 119.421 118.268 119.505 118.034Z" fill="#3E424B"/>
<path d="M83.5708 111.533C83.5869 111.26 83.4438 111.029 83.2511 111.018C83.0583 111.007 82.889 111.219 82.8729 111.492C82.8568 111.765 83 111.995 83.1927 112.006C83.3854 112.018 83.5547 111.806 83.5708 111.533Z" fill="#3E424B"/>
<path d="M82.7001 103.621C82.716 103.352 82.5747 103.125 82.3844 103.114C82.1942 103.102 82.0271 103.312 82.0112 103.581C81.9953 103.85 82.1366 104.077 82.3269 104.088C82.5171 104.1 82.6842 103.89 82.7001 103.621Z" fill="#3E424B"/>
<path d="M81.5941 96.8138C81.6097 96.5508 81.471 96.3287 81.2845 96.3177C81.098 96.3068 80.9343 96.5111 80.9187 96.7741C80.9032 97.0371 81.0418 97.2591 81.2283 97.2701C81.4148 97.281 81.5786 97.0767 81.5941 96.8138Z" fill="#3E424B"/>
<path d="M86.1783 90.7508C86.1965 90.4432 86.0348 90.1834 85.8172 90.1706C85.5996 90.1579 85.4085 90.3969 85.3903 90.7045C85.3721 91.0122 85.5338 91.272 85.7514 91.2847C85.969 91.2975 86.1601 91.0585 86.1783 90.7508Z" fill="#3E424B"/>
<path d="M90.9908 85.6097C91.0089 85.3021 90.8473 85.0423 90.6297 85.0295C90.4121 85.0167 90.221 85.2558 90.2028 85.5634C90.1846 85.8711 90.3463 86.1308 90.5639 86.1436C90.7815 86.1564 90.9726 85.9174 90.9908 85.6097Z" fill="#3E424B"/>
<path d="M84.3722 117.935C84.3863 117.697 84.2606 117.496 84.0915 117.486C83.9224 117.476 83.7739 117.661 83.7598 117.899C83.7458 118.137 83.8715 118.339 84.0406 118.349C84.2097 118.358 84.3582 118.173 84.3722 117.935Z" fill="#3E424B"/>
<path d="M92.2699 117.696C92.2849 117.442 92.151 117.227 91.9707 117.217C91.7904 117.206 91.632 117.404 91.617 117.658C91.602 117.912 91.736 118.127 91.9163 118.138C92.0966 118.148 92.2549 117.951 92.2699 117.696Z" fill="#3E424B"/>
<path d="M107.932 97.0595L105.555 100.977L125.231 100.428L127.401 96.6005L107.932 97.0595Z" fill="#972D29"/>
<path d="M91.8711 79.1157L112.154 78.7085L127.4 96.6005L107.93 97.0595L91.8711 79.1157Z" fill="#C83F37"/>
<path d="M89.4746 82.0565L105.554 100.977L107.934 97.0572L91.8719 79.1157L89.4746 82.0565Z" fill="#972D29"/>
<path d="M91.5404 105.286C94.1149 105.286 96.2019 102.582 96.2019 99.2465C96.2019 95.9113 94.1149 93.2075 91.5404 93.2075C88.9659 93.2075 86.8789 95.9113 86.8789 99.2465C86.8789 102.582 88.9659 105.286 91.5404 105.286Z" fill="#F6BE4A"/>
<path d="M92.374 104.869C94.4876 104.869 96.2011 102.352 96.2011 99.2465C96.2011 96.1412 94.4876 93.6238 92.374 93.6238C90.2603 93.6238 88.5469 96.1412 88.5469 99.2465C88.5469 102.352 90.2603 104.869 92.374 104.869Z" fill="#102441"/>
<path d="M94.9518 80.6389C95.0497 80.4475 94.8837 80.1672 94.5808 80.013C94.278 79.8587 93.9531 79.8889 93.8551 80.0803C93.7572 80.2718 93.9232 80.552 94.226 80.7063C94.5289 80.8606 94.8538 80.8304 94.9518 80.6389Z" fill="#4D525B"/>
<path d="M108.969 96.5613C109.067 96.3698 108.901 96.0896 108.598 95.9353C108.296 95.7811 107.971 95.8112 107.873 96.0027C107.775 96.1941 107.941 96.4744 108.244 96.6287C108.546 96.7829 108.871 96.7527 108.969 96.5613Z" fill="#4D525B"/>
<path d="M125.2 95.9658C125.298 95.7744 125.132 95.4941 124.829 95.3399C124.526 95.1856 124.201 95.2158 124.103 95.4072C124.005 95.5987 124.171 95.879 124.474 96.0332C124.777 96.1875 125.102 96.1573 125.2 95.9658Z" fill="#4D525B"/>
<path d="M113.387 77.8538C113.485 77.6623 113.319 77.3821 113.016 77.2278C112.714 77.0736 112.389 77.1037 112.291 77.2952C112.193 77.4866 112.359 77.7669 112.662 77.9211C112.964 78.0754 113.289 78.0452 113.387 77.8538Z" fill="#4D525B"/>
<path d="M111.714 80.3826L112.556 77.6578L113.063 77.8648L111.778 80.4073C111.759 80.4456 111.703 80.4231 111.714 80.3826Z" fill="#4D525B"/>
<path opacity="0.5" d="M126.02 94.9917C124.77 96.5847 121.805 96.7445 117.77 95.093C111.14 92.3795 104.133 85.8072 102.119 80.4117C101.402 78.4925 101.415 76.9805 102.027 75.9522L110.281 75.8442L112.468 78.5037L112.155 78.7085L126.02 94.9917Z" fill="#C83F37"/>
<path d="M85.6206 116.007L69.5684 116.722L69.6879 119.393L85.7401 118.678L85.6206 116.007Z" fill="#F6CF4C"/>
<path d="M69.7018 119.398C70.2045 119.375 70.5852 118.758 70.5521 118.02C70.5191 117.281 70.0848 116.7 69.5821 116.723C69.0794 116.745 68.6987 117.362 68.7317 118.101C68.7648 118.839 69.1991 119.42 69.7018 119.398Z" fill="#F5864E"/>
<path d="M85.6861 118.686C86.1888 118.664 86.5695 118.047 86.5365 117.308C86.5034 116.569 86.0691 115.989 85.5664 116.011C85.0638 116.034 84.683 116.651 84.7161 117.389C84.7491 118.128 85.1834 118.708 85.6861 118.686Z" fill="#F6CF4C"/>
<path d="M118.826 203.802L115.015 204.465L111.634 203.727L106.869 127.808H119.347L118.826 203.802Z" fill="#102441"/>
<path d="M118.817 203.784L114.902 204.465L114.189 158.883L119.203 145.718L118.817 203.784Z" fill="#634874"/>
<path d="M156.284 205.262C156.518 203.359 155.226 201.635 153.399 201.411C151.572 201.188 149.901 202.55 149.667 204.453C149.434 206.356 150.725 208.08 152.553 208.303C154.38 208.527 156.051 207.165 156.284 205.262Z" fill="#131620"/>
<path d="M185.313 207.279C187.14 207.056 188.432 205.332 188.198 203.429C187.965 201.526 186.294 200.164 184.467 200.387C182.639 200.611 181.348 202.334 181.581 204.238C181.815 206.141 183.486 207.503 185.313 207.279Z" fill="#131620"/>
<path d="M186.29 199.239C183.505 199.128 166.728 197.796 166.728 197.796C166.728 197.796 154.485 199.005 152.137 198.915C148.712 198.78 148.637 202.213 148.892 203.066C149.147 203.919 151.542 203.831 152.146 203.599L154.28 203.178L166.945 201.637L182.776 203.104L184.91 203.525C185.514 203.757 186.915 204.002 187.519 203.77L188.624 203.649C188.976 203.514 188.994 201.786 189.003 201.41C189.032 200.229 189.359 199.362 186.29 199.239Z" fill="#102441"/>
<path d="M153.34 121.2C153.34 121.2 160.545 116.554 164.483 126.211C168.438 135.91 166.154 135.523 157.756 139.119C153.038 141.139 145.149 144.494 138.032 146.445C132.572 147.941 119.812 153.895 116.35 146.004C114.282 141.29 116.424 137.137 120.303 135.253C124.194 133.366 153.34 121.2 153.34 121.2Z" fill="#D8A344"/>
<path d="M152.809 186.754C156.338 188.176 159.356 193.641 159.356 193.641C159.356 193.641 151.6 200.569 147.989 202.866C147.238 203.343 144.564 204.398 141.993 205.339C139.223 206.351 132.911 206.956 132.068 206.617C131.154 206.25 130.169 200.638 132.392 197.524C134.458 194.631 139.857 194.462 140.245 193.821C143.772 187.953 151.228 186.117 152.809 186.754Z" fill="#131620"/>
<path d="M140.408 193.513C140.408 193.513 141.457 193.47 142.309 195.436" stroke="#29ABE3" stroke-width="3" stroke-miterlimit="10" stroke-linecap="round" stroke-linejoin="round"/>
<path d="M135.967 195.009C135.967 195.009 136.93 194.701 137.967 196.647" stroke="#29ABE3" stroke-width="3" stroke-miterlimit="10" stroke-linecap="round" stroke-linejoin="round"/>
<path d="M138.648 194.278C138.648 194.278 139.814 194.629 140.229 195.889" stroke="#29ABE3" stroke-width="3" stroke-miterlimit="10" stroke-linecap="round" stroke-linejoin="round"/>
<path d="M131.869 206.434L132.07 207.451C132.135 207.78 132.372 208.054 132.652 208.12C134.618 208.574 140.728 207.411 143.073 206.52C145.382 205.642 146.769 205.087 148.788 203.566C151.778 201.309 160.131 195.542 160.131 195.542C160.131 195.542 160.278 194.163 159.342 193.652C159.008 193.47 149.651 200.479 145.57 203.433C144.584 204.146 142.782 204.828 141.652 205.087C137.164 206.115 131.869 206.434 131.869 206.434Z" fill="#29ABE3"/>
<path d="M140.975 193.22C141.164 193.434 141.446 193.578 141.758 193.616C143.027 193.774 146.744 193.753 149.644 192.448C153.275 190.813 157.03 188.126 157.03 188.126L152.488 180.217C152.488 180.217 138.009 154.259 134.015 146.353C131.108 140.597 126.945 136.072 120.856 138.003C115.144 139.814 114.526 143.34 117.313 149.476C119.262 153.762 131.059 174.997 131.059 174.997L138.422 189.784L140.975 193.22Z" fill="#D8A344"/>
<path d="M156.13 186.781L152.109 180.33C152.109 180.33 148.165 173.53 143.104 164.143C141.665 161.475 140.393 161.749 139.818 163.648C139.762 163.651 139.73 163.653 139.73 163.653C139.73 163.653 138.388 166.101 138.361 168.891C138.361 168.891 138.697 167.278 139.496 165.916C139.424 168.49 140.082 172.088 141.886 175.706C142.646 177.229 146.122 179.943 149.452 182.305C147.197 181.617 144.378 180.604 143.264 179.578C143.264 179.578 148.483 184.823 153.246 185.179C153.408 185.19 153.548 185.192 153.676 185.19C155.14 186.157 156.13 186.781 156.13 186.781Z" fill="#D8A344"/>
<path d="M175.113 150.614L185.819 157.823L187.961 156.489L176.185 149.01L175.113 150.614Z" fill="#102441"/>
<path d="M185.143 156.896L186.327 155.571C186.701 155.15 187.332 155.071 187.851 155.379L189.793 156.531C190.501 156.952 190.711 157.899 190.228 158.498L189.157 159.828C188.796 160.275 188.158 160.379 187.623 160.077L185.571 158.921C184.818 158.5 184.606 157.497 185.143 156.896Z" fill="#102441"/>
<path d="M176.988 143.758H169.494V197.283H176.988V143.758Z" fill="#102441"/>
<path d="M177.522 194.862C177.522 196.149 176.661 197.166 175.67 197.029C175.086 196.948 174.362 196.914 173.501 196.986C172.385 197.079 171.41 197.196 170.655 197.301C169.748 197.427 168.959 196.512 168.959 195.335V162.096H177.524V194.862H177.522Z" fill="#273150"/>
<path d="M175.561 157.823V160.671" stroke="#273150" stroke-width="3" stroke-miterlimit="10" stroke-linecap="round" stroke-linejoin="round"/>
<path d="M175.381 167.703V191.884" stroke="#273150" stroke-width="5" stroke-miterlimit="10"/>
<path d="M33.6353 208.288L29.6797 205.145L40.2002 172.439L44.5054 174.851L33.6353 208.288Z" fill="#C83F37"/>
<path d="M40.1992 172.439L62.8731 171.962L67.5031 174.127L44.5044 174.851L40.1992 172.439Z" fill="#EB5E4D"/>
<path d="M67.5035 174.127L58.0812 205.843L33.6348 208.288L44.5049 174.851L67.5035 174.127Z" fill="#972D29"/>
<path d="M151.711 147.842L164.291 149.134C167.345 149.446 170.028 147.394 170.028 144.746V142.091C170.028 139.432 167.739 135.062 164.674 135.393L151.678 139.071C149.111 139.35 147.188 141.229 147.188 143.455C147.19 145.691 149.132 147.577 151.711 147.842Z" fill="#273150"/>
<path d="M192.381 147.739L166.55 149.293C163.066 149.502 160.125 146.74 160.125 143.257V141.274C160.125 137.895 162.901 135.172 166.286 135.229L192.117 135.658C195.446 135.715 198.107 138.437 198.078 141.758C198.051 144.933 195.561 147.547 192.381 147.739Z" fill="#634874"/>
<path d="M193.692 145.336C193.692 145.336 181.834 144.026 179.378 140.822C176.922 137.618 189.797 138.507 189.797 138.507C193.15 138.563 195.394 136.03 196.802 139.351C198.146 142.53 196.788 145.144 193.692 145.336Z" fill="#634874"/>
<path d="M160.256 210.511C162.543 210.511 164.396 208.662 164.396 206.38C164.396 204.099 162.543 202.249 160.256 202.249C157.969 202.249 156.115 204.099 156.115 206.38C156.115 208.662 157.969 210.511 160.256 210.511Z" fill="#131620"/>
<path d="M189.767 209.879C192.383 209.879 194.503 207.764 194.503 205.154C194.503 202.545 192.383 200.429 189.767 200.429C187.152 200.429 185.031 202.545 185.031 205.154C185.031 207.764 187.152 209.879 189.767 209.879Z" fill="#131620"/>
<path d="M161.344 206.065C161.344 206.065 161.317 206.279 163.082 205.8C164.941 205.296 165.536 205.042 165.595 204.686C165.669 204.243 165.367 203.188 166.012 202.951L171.677 201.037C172.64 200.755 173.634 200.355 174.62 200.546C174.62 200.546 186.013 203.595 187.31 203.822C188.607 204.049 188.158 205.498 188.819 205.676C189.976 205.991 191.487 205.894 191.487 205.894L192.028 201.424L171.436 196.681L161.199 202.42L161.344 206.065Z" fill="#102441"/>
<path d="M177.614 197.104C177.614 197.104 165.361 201.77 163.169 202.353C162.116 202.632 162.033 203.541 161.965 204.211L161.913 204.724C161.832 205.532 161.798 206.241 160.993 206.133L156.061 205.426C155.348 205.33 154.818 204.722 154.818 204.007C154.818 202.324 155.941 200.845 157.565 200.393C161.934 199.176 169.755 195.562 169.755 195.562L177.614 197.104Z" fill="#273150"/>
<path d="M169.336 197.594C169.336 197.594 186.331 201.662 188.577 201.984C189.7 202.144 190.542 203.125 190.893 203.894C191.245 204.664 190.686 206.009 191.491 205.899L195.453 205.732C196.166 205.636 196.647 204.621 196.647 203.903C196.647 202.22 195.839 200.742 194.215 200.29C189.847 199.072 176.453 195.533 176.453 195.533L169.336 197.594Z" fill="#273150"/>
<path d="M43.3744 209.631L38.4648 205.797L51.0782 165.356L56.4118 168.283L43.3744 209.631Z" fill="#AA4928"/>
<path d="M51.0781 165.356L79.0292 164.523L84.7597 167.142L56.4117 168.283L51.0781 165.356Z" fill="#F6CF4C"/>
<path d="M84.7603 167.142L73.4888 206.346L43.375 209.631L56.4124 168.283L84.7603 167.142Z" fill="#EE844E"/>
<path d="M47.8923 215.432L60.8801 213.36L60.7944 210.687L47.8066 212.759L47.8923 215.432Z" fill="#F6CF4C"/>
<path d="M47.9042 215.44C48.4071 215.424 48.7957 214.812 48.7722 214.073C48.7486 213.334 48.3218 212.748 47.8188 212.764C47.3159 212.78 46.9273 213.392 46.9509 214.131C46.9744 214.87 47.4012 215.456 47.9042 215.44Z" fill="#F5864E"/>
<path d="M60.8222 213.37C61.3251 213.354 61.7137 212.742 61.6901 212.003C61.6666 211.264 61.2398 210.678 60.7368 210.694C60.2339 210.71 59.8453 211.322 59.8688 212.061C59.8924 212.8 60.3192 213.386 60.8222 213.37Z" fill="#F6CF4C"/>
<path d="M37.0801 212.428L44.414 214.314L44.8583 211.319L37.3056 210.234L37.0801 212.428Z" fill="#F6CF4C"/>
<path d="M37.9902 211.254C37.9338 211.868 37.5279 212.401 37.0903 212.433C36.6573 212.464 36.3619 211.992 36.4296 211.384C36.495 210.786 36.8896 210.275 37.3136 210.234C37.7444 210.194 38.0465 210.646 37.9902 211.254Z" fill="#F6CF4C"/>
<path d="M45.623 212.723C45.6501 213.567 45.2261 214.282 44.6803 214.307C44.1413 214.332 43.7061 213.668 43.6993 212.844C43.6925 212.037 44.103 211.359 44.6217 211.319C45.1472 211.276 45.5959 211.899 45.623 212.723Z" fill="#F5864E"/>
<path d="M167.698 71.0225L163.283 73.565C161.618 74.5235 159.433 73.8575 158.402 72.0777L153.942 64.367C152.911 62.5872 153.425 60.3665 155.089 59.4057L160.879 53.963C162.543 53.0045 163.355 56.5685 164.385 58.3505L168.846 66.0612C169.877 67.8432 169.363 70.064 167.698 71.0225Z" fill="#A76343"/>
<path d="M167.754 67.8095L165.131 69.3215C164.141 69.8907 162.555 68.9975 161.588 67.3257L157.398 60.0852C156.43 58.4135 155.21 55.9115 156.198 55.3422L161.193 52.4937C162.183 51.9245 162.903 55.331 163.87 57.0027L167.79 63.7505C168.76 65.4222 168.741 67.2402 167.754 67.8095Z" fill="#AA6345"/>
<path d="M158.405 72.0777L153.944 64.3669C152.913 62.5872 153.525 60.3102 155.311 59.2819L160.044 56.5549C161.828 55.5267 159.436 73.8574 158.405 72.0777Z" fill="#7C4631"/>
<path d="M156.54 96.1077C156.54 96.1077 150.088 90.5479 145.69 88.5004C142.49 87.0109 139.531 89.6704 140.118 92.5954C140.609 95.0457 152.727 106.93 154.779 108.98C156.831 111.027 157.711 115.417 163.87 111.027C170.029 106.64 162.697 99.9102 156.54 96.1077Z" fill="#7C4631"/>
<path d="M145.359 91.6077C145.359 91.6077 145.359 86.1987 144.545 84.3042C143.731 82.412 140.208 79.5027 138.853 78.6927C137.497 77.8805 135.894 80.8505 136.395 82.448C136.733 83.5302 137.689 85.193 138.909 88.0325C140.127 90.872 142.784 93.095 145.359 91.6077Z" fill="#7C4631"/>
<path d="M145.918 97.9212L140.981 100.718L132.605 85.4292L129.326 78.749L126.162 73.7157L130.598 71.459L133.167 76.4697L137.443 83.4402L145.918 97.9212Z" fill="#F5864E"/>
<path d="M143.854 100.015C145.237 99.2209 146.174 98.2586 145.948 97.8655C145.721 97.4724 144.416 97.7974 143.033 98.5914C141.65 99.3854 140.713 100.348 140.94 100.741C141.167 101.134 142.471 100.809 143.854 100.015Z" fill="#EB5E4D"/>
<path d="M130.077 82.4164C128.737 82.5311 128.451 83.9351 128.902 84.9274C129.353 85.9196 130.102 85.8679 131.604 86.0569C133.514 86.2976 136.626 86.4574 136.849 85.5304C137.072 84.6011 136.714 84.1016 134.445 83.1634C133.667 82.8416 131.416 82.3016 130.077 82.4164Z" fill="#7C4631"/>
<path d="M131.941 85.4967C131.138 85.2852 130.403 86.1627 130.737 86.9345C131.062 87.686 131.4 88.424 131.58 88.6895C131.882 89.1327 134.913 89.225 136.555 89.243C137.121 89.2497 137.606 88.7592 137.611 88.1765L137.615 87.7355C137.62 87.2945 137.345 86.9232 136.936 86.8152L131.941 85.4967Z" fill="#7C4631"/>
<path d="M133.043 90.6064L133.323 90.9979C133.546 91.3107 133.88 91.4727 134.203 91.4254L137.267 90.9799C137.84 90.8967 138.17 90.2014 137.958 89.5219C137.804 89.0337 137.409 88.7029 136.99 88.7074L133.646 88.7592C132.868 88.7749 132.513 89.8639 133.043 90.6064Z" fill="#7C4631"/>
<path d="M134.479 91.9001L134.765 92.6539C134.866 92.9576 135.135 93.1782 135.455 93.2142C135.455 93.2142 136.98 93.3559 137.74 93.2614C138.5 93.1669 138.831 92.7394 138.545 91.8394C138.258 90.9371 137.451 90.7954 136.452 90.8899C135.455 90.9844 134.553 91.1261 134.479 91.9001Z" fill="#7C4631"/>
<path d="M137.722 78.2045C135.846 77.7747 134.446 78.4273 131.608 79.5658C129.843 80.2745 132.193 82.637 133.839 82.4728C135.418 82.3153 136.931 82.07 137.573 82.106C139.118 82.1848 140.259 78.785 137.722 78.2045Z" fill="#7C4631"/>
<path d="M125.4 64.4435C127.545 63.5097 133.28 65.3502 135.817 66.2502C136.235 66.3987 136.462 66.8375 136.347 67.2672L136.135 68.0457C136.135 68.0457 132.565 67.391 130.75 67.175C129.514 67.0265 128.54 67.9175 128.044 68.5025L125.4 64.4435Z" fill="#102441"/>
<path d="M117.47 69.9357L120.462 68.0682C120.697 67.922 120.857 67.6835 120.902 67.4135L121.168 65.8092C121.213 65.5415 121.371 65.303 121.603 65.1567C122.499 64.5897 124.885 63.125 126.955 62.225C129.298 61.2057 135.563 63.215 138.333 64.1982C138.788 64.3602 139.038 64.8395 138.91 65.3075L138.68 66.158C138.68 66.158 134.781 65.4425 132.798 65.2062C131.447 65.0442 130.383 66.0185 129.842 66.6552C129.591 66.95 129.249 67.5912 129.425 67.9265L130.933 70.7727C131.177 71.234 131.287 71.5805 130.814 71.8235L125.976 74.2895C125.564 74.4987 125.631 74.4605 125.358 74.0982L123.744 71.936C123.473 71.5715 122.406 71.387 121.994 71.5985L119.226 73.0092C118.78 73.2365 118.236 73.0835 117.986 72.6605L117.138 71.216C116.888 70.775 117.032 70.2102 117.47 69.9357Z" fill="#634874"/>
<path d="M129.049 73.637C127.856 74.3052 126.69 74.5347 126.447 74.15C126.203 73.7652 127.085 73.1352 128.28 72.467C129.476 71.7987 130.529 71.3487 130.77 71.7312C131.014 72.116 130.242 72.9687 129.049 73.637Z" fill="#F5864E"/>
<path d="M113.222 72.3724C113.265 73.3084 113.601 74.7844 115.164 75.6101C115.579 75.8284 115.82 75.9904 116.224 75.7361L118.477 74.3119C118.991 73.9901 119.158 73.3151 118.851 72.8044L117.315 70.2506C117.009 69.7399 116.346 69.5869 115.832 69.9086L113.601 71.3194C113.184 71.5849 113.2 71.8774 113.222 72.3724Z" fill="#634874"/>
<path d="M138.68 200.881C139.629 205.084 139.618 209.067 139.573 210.541C139.562 210.887 139.307 211.168 138.96 211.213C136.454 211.546 126.653 212.822 123.191 212.923C120.289 213.009 112.86 212.631 110.585 211.958C109.538 211.65 109.033 208.716 108.758 206.891C108.395 204.488 109.403 202.315 113.53 200.944C117.646 199.579 123.435 200.411 123.435 200.411C123.435 200.411 138.349 199.412 138.68 200.881Z" fill="#131620"/>
<path d="M118.598 199.88C118.598 199.88 120.289 199.693 121.205 202.384" stroke="#29ABE3" stroke-width="3" stroke-miterlimit="10" stroke-linecap="round" stroke-linejoin="round"/>
<path d="M121.213 199.977C121.213 199.977 123.531 199.601 124.221 202.472" stroke="#29ABE3" stroke-width="3" stroke-miterlimit="10" stroke-linecap="round" stroke-linejoin="round"/>
<path d="M123.928 200.024C123.928 200.024 126.255 199.79 126.758 202.722" stroke="#29ABE3" stroke-width="3" stroke-miterlimit="10" stroke-linecap="round" stroke-linejoin="round"/>
<path d="M110.583 211.958C110.583 211.958 110.425 213.135 110.879 213.256C111.801 213.502 116.697 213.877 123.212 213.639C127.98 213.463 128.411 213.223 130.977 213.297C135.474 213.427 138.87 212.824 139.085 212.788C139.299 212.752 139.443 211.96 139.233 211.189C139.157 210.91 133.76 212.302 122.606 212.593C114.101 212.818 110.583 211.958 110.583 211.958Z" fill="#29ABE3"/>
<path d="M121.984 198.872C121.984 198.872 124.379 201.799 128.727 203.035C133.134 204.286 139.834 203.928 139.834 203.928L143.239 198.19L147.851 162.78C147.851 162.78 153.21 136.097 144.922 133.525C139.333 131.793 133.459 131.167 131.918 137.56C130.813 142.141 124.986 168.124 124.986 168.124L124.438 185.273C124.438 185.273 121.019 194.791 120.978 195.128C120.841 196.215 121.984 198.872 121.984 198.872Z" fill="#F6CF4C"/>
<path d="M183.996 119.384C183.996 119.384 193.148 114.972 195.773 125.497C198.398 136.023 188.816 136.475 188.816 136.475C188.816 136.475 172.937 139.697 163.329 140.66C155.923 141.403 137.038 147.388 134.418 138.649C132.848 133.413 136.668 129.401 142.2 128.038C147.732 126.674 183.996 119.384 183.996 119.384Z" fill="#FEED7F"/>
<path d="M188.174 129.732C189.994 127.331 191.902 124.843 191.902 124.843C192.181 116.79 181.201 120.082 181.201 120.082C181.201 120.082 152.275 125.068 140.476 128.479C132.606 130.753 128.99 144.395 141.162 144.332C147.382 144.301 174.539 139.213 174.539 139.213C174.539 139.213 188.018 133.865 190.882 129.086C191.232 128.501 189.554 129.678 188.174 129.732Z" fill="#F6CF4C"/>
<path d="M162.731 64.9856C164.565 63.8224 170.234 62.6569 172.402 63.4894C174.569 64.3219 186.082 80.0426 190.333 90.5209C192.599 96.1076 196.537 120.169 196.537 122.664C196.537 125.16 180.523 127.299 180.523 127.299C180.523 127.299 161.649 123.868 159.148 116.884C158.137 114.063 160.018 112.434 159.648 109.398C159.1 104.921 156.475 98.8684 155.481 93.5134C153.814 84.5314 150.966 77.3269 153.701 72.6109C155.535 69.4496 160.898 66.1489 162.731 64.9856Z" fill="#1FABE2"/>
<path opacity="0.5" d="M162.732 64.9857C163.392 64.5672 172.485 68.8939 172.485 68.8939L176.82 74.0509C176.82 74.0509 186.299 88.3249 187.764 95.2774C189.598 104.79 192.349 125.004 192.349 125.004C192.349 125.004 189.702 125.697 187.514 126.136C185.036 126.633 180.523 127.299 180.523 127.299C178.16 126.852 172.224 125.589 167.305 123.245C163.67 121.51 160.682 119.17 159.619 116.202C158.609 113.381 160.019 112.434 159.647 109.398C159.099 104.921 156.473 98.8684 155.479 93.5134C153.812 84.5314 150.964 77.3269 153.7 72.6109C155.535 69.4497 160.898 66.1489 162.732 64.9857Z" fill="#209BC7"/>
<path d="M187.229 97.0076L189.716 109.068C189.716 109.068 187.529 105.823 187.252 102.831C186.972 99.8403 187.229 97.0076 187.229 97.0076Z" fill="#29ABE3"/>
<path d="M159.813 68.7273C159.813 68.7273 164.481 67.3976 166.815 68.0613C169.149 68.7273 173.985 76.2108 175.818 81.8673C177.652 87.5238 176.653 90.1833 172.816 91.0158C168.983 91.8483 167.314 93.1781 161.646 87.6881C155.979 82.2003 152.145 72.3881 159.813 68.7273Z" fill="#A96443"/>
<path d="M169.775 83.24C171.275 84.0725 174.818 91.8486 168.149 91.6821C165.109 91.6056 159.322 85.8208 158.646 83.366C158.262 81.9778 156.889 80.567 157.48 80.3713C159.73 79.622 168.275 82.4098 169.775 83.24Z" fill="#7C4631"/>
<path d="M151.478 76.7127L153.895 73.9407C153.895 73.9407 155.061 83.1994 157.813 86.9434C160.564 90.6874 167.817 95.3427 167.817 95.3427L175.818 112.143L175.509 122.178C174.763 124.415 170.83 125.025 168.841 126.298L150.334 132.769C150.141 132.891 147.333 145.576 147.333 145.576L146.611 154.668C146.611 154.668 142.809 154.558 132.805 153.559C122.801 152.56 111.822 149.235 111.822 149.235L118.825 121.623L159.148 116.882C159.148 116.882 158.51 116.776 158.153 115.224C157.371 111.806 156.284 104.25 154.563 95.6734C152.062 83.1994 151.478 76.7127 151.478 76.7127Z" fill="#273150"/>
<path d="M153.141 74.6135C154.731 68.2708 162.797 64.3693 169.985 62.3533" stroke="#F6CF4C" stroke-width="3" stroke-miterlimit="10" stroke-linecap="round" stroke-linejoin="round"/>
<path d="M171.055 62.2969C171.055 62.2969 171.558 59.4147 172.89 59.5812C174.223 59.7499 174.043 62.1102 171.055 62.2969Z" stroke="#F6CF4C" stroke-width="3" stroke-miterlimit="10" stroke-linecap="round" stroke-linejoin="round"/>
<path d="M170.417 62.6478C170.417 62.6478 171.881 61.0481 170.627 60.1008C169.375 59.1536 168.888 60.5081 170.417 62.6478Z" stroke="#F6CF4C" stroke-width="3" stroke-miterlimit="10" stroke-linecap="round" stroke-linejoin="round"/>
<path d="M170.797 62.4521C170.797 62.4521 173.23 63.6514 173.44 65.6809" stroke="#F6CF4C" stroke-width="3" stroke-miterlimit="10" stroke-linecap="round" stroke-linejoin="round"/>
<path d="M170.531 62.5287C170.531 62.5287 171.584 66.0229 170.371 67.8184" stroke="#F6CF4C" stroke-width="3" stroke-miterlimit="10" stroke-linecap="round" stroke-linejoin="round"/>
<path d="M174.82 112.085C174.82 112.085 184.658 112.141 194.161 110.643" stroke="#F6CF4C" stroke-width="3" stroke-miterlimit="10" stroke-linecap="round" stroke-linejoin="round"/>
<path d="M193.656 110.645C193.656 110.645 192.821 112.641 194.49 113.473C196.159 114.306 195.659 112.308 193.656 110.645Z" stroke="#F6CF4C" stroke-width="3" stroke-miterlimit="10" stroke-linecap="round" stroke-linejoin="round"/>
<path d="M197.326 111.588C197.383 110.755 194.992 109.702 193.826 110.424C192.658 111.144 197.27 112.418 197.326 111.588Z" stroke="#F6CF4C" stroke-width="3" stroke-miterlimit="10" stroke-linecap="round" stroke-linejoin="round"/>
<path d="M193.436 110.922C193.436 110.922 197.103 112.807 196.992 116.578" stroke="#F6CF4C" stroke-width="3" stroke-miterlimit="10" stroke-linecap="round" stroke-linejoin="round"/>
<path d="M193.936 110.978C193.936 110.978 194.88 109.536 196.881 109.648" stroke="#F6CF4C" stroke-width="3" stroke-miterlimit="10" stroke-linecap="round" stroke-linejoin="round"/>
<path d="M161.316 69.3936C161.316 69.3936 154.647 69.3936 153.314 74.3841C151.981 79.3746 150.035 89.0271 149.814 91.3513C149.48 94.8433 144.645 100.833 143.813 106.654C142.978 112.474 145.184 114.904 148.815 116.551C157.067 120.293 159.484 106.156 160.486 102.496C161.487 98.837 165.821 91.3513 168.821 84.8646C171.82 78.3778 168.816 68.5611 161.316 69.3936Z" fill="#A96443"/>
<path d="M148.809 116.549C157.06 120.291 159.478 106.154 160.479 102.493C161.481 98.8349 165.815 91.3491 168.815 84.8624C170.535 81.1409 164.218 92.5304 158.377 102.77C157.047 105.103 147.735 116.063 148.809 116.549Z" fill="#D77D5B"/>
<path d="M151.311 109.873C150.136 106.615 145.048 104.953 140.563 104.651C136.212 104.356 128.013 107.029 116.391 107.241C112.77 107.306 110.638 114.954 116.247 115.8C122.794 116.788 141.869 118.871 143.81 118.954C145.75 119.038 153.431 115.757 151.311 109.873Z" fill="#A76241"/>
<path d="M155.411 109.644C155.208 109.158 154.683 108.53 154.331 108.233C154.065 108.584 151.246 113.111 148.372 114.371C144.205 116.2 138.226 116.81 138.226 116.81C138.226 116.81 116.669 116.493 122.336 116.689C128.953 116.918 147.071 119.67 149.008 119.528C150.943 119.386 158.196 115.244 155.411 109.644Z" fill="#D77D5B"/>
<path d="M118.547 111.322C119.789 109.927 117.803 105.574 118.017 103.697C118.231 101.821 116.129 99.9778 114.765 97.8088C113.4 95.6398 113.344 95.7883 111.35 95.0098C109.357 94.2313 107.638 93.8151 108.279 96.0763C108.919 98.3376 110.845 99.0036 110.845 99.0036C110.845 99.0036 111.824 101.809 112.703 102.797C113.77 103.994 109.738 109.563 111.386 111.86C113.037 114.16 116.589 113.518 118.547 111.322Z" fill="#A76241"/>
<path d="M113.288 102.608C113.288 102.608 108.823 102.313 107.966 102.014C107.111 101.715 105.747 100.815 104.896 100.383C104.47 100.167 102.995 97.2126 102.086 96.9269C101.178 96.6411 100.009 97.7908 99.9124 98.4568C99.7185 99.7911 100.981 102.163 102.1 103.141C103.221 104.12 103.392 104.665 105.945 105.963C108.498 107.263 109.743 108.782 112.93 108.496C116.116 108.211 115.568 103.495 113.288 102.608Z" fill="#A76241"/>
<path d="M100.99 100.597C99.5019 100.498 99.9372 104.845 100.699 105.317C101.121 105.578 103.158 107.205 103.158 107.205L102.499 108.076C102.334 108.463 102.573 109.246 102.891 109.54L104.371 110.915L105.165 114.252C105.165 114.252 106.597 115.622 109.928 115.631C113.971 115.642 115.985 115.849 116.808 113.064C117.631 110.278 102.479 100.696 100.99 100.597Z" fill="#A76241"/>
<path d="M147.83 36.9754C144.521 36.1902 137.233 37.0654 135.812 43.2214C134.847 47.4087 139.664 61.7816 141.923 65.1634C145.135 69.9694 148.436 68.6351 154.271 66.2726C160.342 63.8156 162.924 59.0906 161.981 54.1046C161.038 49.1186 158.159 39.4279 147.83 36.9754Z" fill="#7A462F"/>
<path d="M146.904 45.1948C145.555 51.1528 145.539 54.3523 146.773 57.4798C148.004 60.6073 152.921 66.5203 155.692 64.4323C157.052 63.4085 158.705 62.27 159.56 60.0313C160.033 58.7938 159.1 55.4323 158.013 53.3848C156.182 49.9265 148.248 39.2503 146.904 45.1948Z" fill="#A96443"/>
<path d="M135.709 43.6512C135.709 43.6512 137.592 45.404 147.188 41.2189C147.393 41.1289 148.616 49.0512 151.877 51.434C153.067 52.3047 152.445 47.7462 153.94 48.8757C156.423 50.7522 158.25 53.6795 158.25 53.6795L160.212 60.0875C160.212 60.0875 170.026 57.5945 166.914 47.546C163.827 37.5717 159.801 27.0552 144.784 34.8109C136.875 38.8947 135.65 40.5957 135.709 43.6512Z" fill="#273150"/>
<path d="M149.945 37.4726C150.419 39.2096 156.375 42.3259 156.375 42.3259L163.289 47.8451C163.289 47.8451 165.858 58.8702 166.699 50.7926C167.157 46.3871 163.215 35.1281 156.941 33.0784C153.61 31.9894 148.592 32.5091 149.945 37.4726Z" fill="#48598B"/>
<path d="M155.689 55.1282C157.456 54.9363 158.626 52.3814 158.303 49.4216C157.98 46.4618 156.286 44.2179 154.52 44.4098C152.753 44.6017 151.582 47.1566 151.905 50.1164C152.228 53.0762 153.922 55.3201 155.689 55.1282Z" fill="#A96443"/>
<path d="M141.002 53.631C141.513 53.4236 141.647 52.5667 141.3 51.7173C140.954 50.8678 140.259 50.3473 139.748 50.5547C139.237 50.7621 139.103 51.6189 139.449 52.4684C139.796 53.3179 140.491 53.8384 141.002 53.631Z" fill="#102441"/>
<path d="M138.268 48.2231C138.268 48.2231 139.941 47.5166 141.549 48.6214" stroke="#102441" stroke-width="2" stroke-miterlimit="10" stroke-linecap="round" stroke-linejoin="round"/>
<path d="M150.102 38.8497C150.102 38.8497 154.432 42.056 156.125 42.47C156.125 42.47 153.2 43.154 150.102 38.8497Z" fill="#48598B"/>
<path d="M155.657 55.5987C156.451 55.5987 157.094 54.957 157.094 54.1654C157.094 53.3739 156.451 52.7322 155.657 52.7322C154.864 52.7322 154.221 53.3739 154.221 54.1654C154.221 54.957 154.864 55.5987 155.657 55.5987Z" fill="#F3E7D7"/>
<path d="M60.8116 209.717L57.413 208.525L55.1172 126.364H60.8116V209.717Z" fill="#273150"/>
<path d="M60.8116 175.269L56.5244 174.291L55.1172 126.364H60.8116V175.269Z" fill="#102441"/>
<path d="M65.8464 209.152L60.8105 209.717V125.956H67.3281L65.8464 209.152Z" fill="#634874"/>
<path d="M65.8464 209.152L60.8105 209.717V175.269L66.5974 166.101L65.8464 209.152Z" fill="#634874"/>
<path d="M61.1816 127.916L63.0129 139.308L94.5475 141.09L122.431 139.866L123.694 126.492L61.1816 127.916Z" fill="#C83F37"/>
<path d="M61.1816 127.916L62.9881 139.308L94.0716 141.09L93.4559 127.173L61.1816 127.916Z" fill="#972D29"/>
<path d="M93.5078 128.094L93.7311 133.197L123.18 131.808L123.635 126.492L93.5078 128.094Z" fill="#972D29"/>
<path d="M85.9855 218.886L80.476 217.34L75.8145 126.418H84.6481L85.9855 218.886Z" fill="#273150"/>
<path d="M84.9142 174.023L78.3132 173.222L75.8145 126.418H84.6481L84.9142 174.023Z" fill="#102441"/>
<path d="M90.5053 218.4L85.9859 218.883L83.8457 126.795H90.9812L90.5053 218.4Z" fill="#634874"/>
<path d="M90.8024 161.74L84.9141 174.023L85.9853 218.883L90.5047 218.4L90.8024 161.74Z" fill="#634874"/>
<path d="M132.544 216.154L128.453 214.852L124.852 126.604L131.561 126.42L132.544 216.154Z" fill="#273150"/>
<path d="M131.917 159.981L126.133 159.128L124.852 126.604L131.561 126.42L131.917 159.981Z" fill="#102441"/>
<path d="M137.553 215.736L132.544 216.109L131.561 126.42L138.166 126.118L137.553 215.736Z" fill="#634874"/>
<path d="M137.552 215.736L132.543 216.109L131.916 159.981L137.998 152.482L137.552 215.736Z" fill="#634874"/>
<path d="M93.4794 129.34L45.1367 127.929V119.368L93.4794 117.856V129.34Z" fill="#273150"/>
<path d="M93.4805 129.34L152.154 127.633V117.661L93.4805 117.861V129.34Z" fill="#634874"/>
<path d="M120.172 127.817L151.986 126.609L152.185 119.251L128.794 119.58L120.172 127.817Z" fill="#634874"/>
</svg>
