<svg width="401" height="309" viewBox="0 0 401 309" fill="none" xmlns="http://www.w3.org/2000/svg">
<path d="M394.076 284.908C383.86 270.255 314.254 217.227 204.814 221.602C111.992 225.314 47.0721 268.274 37.1651 273.104C27.2581 277.935 31.3874 281.157 59.4566 277.129C87.5259 273.101 101.559 273.906 101.559 273.906L99.9071 277.931C99.9071 277.931 77.5498 296.791 75.9014 303.233C74.2496 309.675 83.3308 310.481 93.2377 306.456C103.145 302.431 175.859 288.401 184.941 287.596C194.022 286.79 210.029 291.941 216.632 292.743C223.236 293.549 266.825 307.182 275.989 307.978C285.152 308.777 280.559 293.929 268.961 272.936C263.821 263.631 311.336 287.279 322.069 289.696C332.802 292.113 317.008 277.938 315.357 275.524C313.705 273.111 376.47 289.204 389.68 296.451C402.887 303.705 404.292 299.562 394.076 284.908Z" fill="#CCE5CF"/>
<path d="M148.299 214.684C148.299 214.684 68.0759 229.46 35.624 181.818C3.17219 134.176 32.9852 65.3859 94.2828 52.1191C94.2828 52.1191 29.9154 78.9993 52.7531 145.333C75.5908 211.666 148.299 214.684 148.299 214.684Z" fill="#CCE5CF"/>
<path d="M336.602 190.815C354.047 173.887 356.433 159.465 366.267 142.599C376.102 125.733 386.539 116.495 386.539 116.495C386.539 116.495 380.175 116.485 364.487 130.666C350.523 143.289 336.602 172.53 336.602 172.53C339.748 157.969 338.827 139.601 338.827 139.601C320.536 179.731 256.735 208.127 238.704 198.875C238.707 198.875 286.261 239.666 336.602 190.815Z" fill="#CCE5CF"/>
<path d="M297.331 124.228C300.335 124.228 353.828 99.3918 356.224 75.381C358.027 57.2903 354.421 30.1526 310.552 16.2817C260.783 0.545186 240.242 8.44315 221.014 13.868C221.014 13.868 274.497 6.02951 307.548 29.5484C362.801 68.8698 297.331 124.228 297.331 124.228Z" fill="#CCE5CF"/>
<path d="M272.691 60.9091C272.691 60.9091 237.235 27.7422 202.382 33.1704C178.027 36.9642 114.644 52.572 105.029 91.0613C98.4456 117.43 127.864 127.847 127.864 127.847C127.864 127.847 109.234 117.595 118.25 92.2665C127.265 66.9382 183.15 39.8005 218.606 42.2141C254.062 44.6278 272.691 60.9091 272.691 60.9091Z" fill="#CCE5CF"/>
<path d="M93.6124 94.0754C93.6124 94.0754 64.1678 120.609 82.1952 136.289C100.222 151.97 137.481 138.703 137.481 138.703C137.481 138.703 111.041 141.116 99.0215 126.04C87.0022 110.961 93.6124 94.0754 93.6124 94.0754Z" fill="#CCE5CF"/>
<path d="M35.6239 181.818C35.6239 181.818 -7.64293 162.823 2.2739 125.737C12.1907 88.6505 29.3165 105.836 29.3165 105.836C29.3165 105.836 25.7104 71.4645 44.6392 60.6081C63.5681 49.7517 70.7803 56.6888 70.7803 56.6888C70.7803 56.6888 79.7956 47.0409 84.3 48.8503C86.3038 49.6559 86.5834 51.1715 86.2807 52.6111C85.8727 54.5393 74.11 60.7963 72.2807 61.5128C66.9899 63.5896 62.4527 65.4023 51.5488 76.5889C35.5713 92.9791 30.1391 116.475 31.1163 136.593C32.9193 173.676 35.6239 181.818 35.6239 181.818Z" fill="#CCE5CF"/>
<path d="M90.0095 101.914C90.0095 101.914 98.4227 87.4423 87.6043 85.0287C76.7859 82.615 76.1871 105.533 76.1871 105.533C76.1871 105.533 72.5809 100.105 67.1717 109.753C61.7625 119.401 73.7819 133.876 82.1951 136.286C90.6116 138.7 86.4034 109.756 90.0095 101.914Z" fill="#CCE5CF"/>
<path d="M342.547 90.4567C342.547 90.4567 360.35 88.3832 369.139 68.2949C377.252 49.7518 369.139 37.5384 359.673 34.8276C350.206 32.1135 342.547 36.1847 342.547 36.1847C342.547 36.1847 350.661 12.6658 330.379 9.95167C310.098 7.23757 310.549 16.2846 310.549 16.2846C310.549 16.2846 303.787 6.33287 294.325 2.26502C284.859 -1.80613 285.309 11.312 285.309 11.312C285.309 11.312 276.294 1.36032 263.676 4.07442C251.058 6.78852 251.387 9.87242 257.247 10.3248C263.107 10.7771 298.303 10.8399 321.288 34.3587C344.274 57.8776 342.547 90.4567 342.547 90.4567Z" fill="#CCE5CF"/>
<path d="M151.301 50.6568C151.301 50.6568 171.283 25.3285 198.773 21.7097C220.765 18.814 209.723 34.2698 212.895 32.5661C221.308 28.0426 231.85 24.0573 236.032 26.5369C242.642 30.4562 236.933 35.2802 236.933 35.2802C236.933 35.2802 255.862 45.8328 258.567 51.5615C258.866 53.0704 242.902 39.5692 222.209 37.9943C198.473 36.1849 151.301 50.6568 151.301 50.6568Z" fill="#CCE5CF"/>
<path d="M97.6805 166.019C97.6805 166.019 96.6244 162.166 95.4168 159.406C94.262 156.764 93.3769 158.597 92.8143 161.202C92.2253 163.933 92.5017 168.083 92.4918 169.074C92.482 170.067 97.5094 169.503 97.6805 166.019Z" fill="#1D2538"/>
<path d="M108.355 198.687C111.244 197.561 117.433 189.994 116.199 184.757C114.965 179.52 113.734 171.758 112.119 168.855C112.119 168.855 111.866 163.355 111.342 160.399C110.823 157.448 110.046 157.316 109.013 158.742C107.98 160.168 106.611 165.029 106.611 165.029C106.611 165.029 99.7245 162.262 94.1772 164.669C88.6298 167.076 86.9353 170.85 86.478 174.069L86.3102 174.303C86.3102 174.303 80.233 175.809 77.3738 176.991C74.5146 178.173 73.6492 179.646 74.9456 182.73C76.2419 185.814 76.4591 187.356 78.2161 188.488C79.9731 189.621 87.7315 192.09 91.7128 192.678C91.7128 192.678 93.404 199.879 94.7595 201.801C96.1151 203.726 105.469 199.817 108.355 198.687Z" fill="#273150"/>
<path d="M109.236 189.796C109.236 189.796 117.432 189.994 116.201 184.757C114.971 179.52 113.737 171.758 112.121 168.855C112.121 168.855 111.868 163.355 111.345 160.399C110.825 157.448 110.049 157.316 109.015 158.742C107.982 160.168 106.614 165.029 106.614 165.029C106.614 165.029 99.7271 162.262 94.1797 164.669C94.1797 164.669 100.612 164.834 103.113 167.241C105.613 169.648 108.723 179.504 108.723 179.504C108.723 179.504 101.675 188.115 102.099 188.719C103.452 190.644 109.236 189.796 109.236 189.796Z" fill="#1D2538"/>
<path d="M96.3017 166.105C96.3017 166.105 95.4989 162.341 94.9198 159.841C94.2683 157.032 92.9095 158.646 92.3468 161.251C91.7579 163.982 91.442 166.785 91.4321 167.779C91.4256 168.773 96.4958 168.535 96.3017 166.105Z" fill="#273150"/>
<path d="M95.1902 172.461C95.6205 171.229 95.3048 169.996 94.4851 169.708C93.6654 169.42 92.6522 170.185 92.2219 171.417C91.7917 172.649 92.1073 173.882 92.927 174.17C93.7467 174.458 94.76 173.693 95.1902 172.461Z" fill="#121721"/>
<path d="M74.352 179.966C74.1447 181.67 75.0068 182.452 75.4378 183.413C76.0267 184.724 79.6164 182.271 79.827 180.567C80.0343 178.863 80.054 176.466 78.0272 176.842C76.6157 177.107 74.5593 178.262 74.352 179.966Z" fill="#121721"/>
<path d="M100.222 190.413C100.222 190.413 92.4143 194.438 91.924 192.596C88.0152 192.064 81.7144 190.017 81.7144 190.017L92.2794 190.01L100.222 190.413Z" fill="#1D2538"/>
<path d="M137.263 195.455C136.964 194.477 136.059 189.148 134.901 187.253C133.746 185.358 130.83 181.003 127.343 181.128C127.343 181.128 129.347 178.602 135.618 181.676C141.889 184.747 142.768 193.952 142.837 194.732C143.139 198.212 138.115 198.241 137.263 195.455Z" fill="#1D2538"/>
<path d="M93.7777 242.565C94.337 240.924 96.5349 239.18 96.5349 239.18C96.7455 238.81 97.4759 238.068 97.5319 237.714C97.9695 235.013 99.1638 227.644 99.2329 226.465C99.381 224.015 98.2985 216.718 98.4992 211.108C98.6999 205.498 107.199 209.91 107.59 215.328C107.87 219.191 105.192 235 104.912 236.545L102.836 241.597C102.069 242.674 99.9403 243.44 97.7523 243.545C95.5676 243.644 93.2315 244.169 93.7777 242.565Z" fill="#1D2538"/>
<path d="M131.19 211.524C129.071 210.821 125.778 212.654 125.742 215.668C125.712 218.234 137.337 228.374 137.337 228.374L137.988 230.441C137.988 230.441 136.35 232.339 137.05 233.359C137.215 233.6 139.456 233.204 141.262 232.841C142.585 232.574 143.526 231.94 143.522 231.302L143.516 230.5L144.2 227.456L136.198 219.099C136.201 219.102 134.086 212.489 131.19 211.524Z" fill="#1D2538"/>
<path d="M101.507 190.502C101.507 190.502 110.279 184.208 117.981 187.669C124.868 190.763 128.007 191.284 135.686 191.4C140.51 191.472 143.823 208.503 142.823 211.818C141.013 218.013 119.709 218.561 116.978 218.653C108.93 218.927 102.201 214.793 98.8812 213.215C95.9036 211.799 91.5177 203.59 95.2422 197.34C96.6636 194.956 98.3022 192.374 101.507 190.502Z" fill="#273150"/>
<path d="M103.694 191.139C108.705 187.127 110.274 184.212 117.98 187.669C124.867 190.763 130.078 191.387 137.754 191.621C146.444 191.889 145.276 206.542 142.723 212.822C140.785 217.59 119.707 218.561 116.98 218.653C116.98 218.653 124.35 213.865 123.988 210.461C123.629 207.057 115.173 202.055 115.173 202.055C111.1 197.904 101.917 192.562 103.694 191.139Z" fill="#1D2538"/>
<path d="M108.317 242.02C108.307 240.538 111.946 236.955 111.923 236.592C111.551 230.464 110.018 224.663 109.774 223.266C109.278 220.4 106.047 215.543 104.934 209.349C103.862 203.379 114.463 206.308 115.852 213.189C116.651 217.158 118.625 230.797 119.132 234.522C119.204 235.047 119.171 235.578 119.037 236.093L116.921 240.617C116.674 241.915 114.628 243.031 112.124 243.179C109.62 243.328 108.333 244.038 108.317 242.02Z" fill="#273150"/>
<path d="M142.929 205.38C140.283 202.959 134.4 206.139 133.328 207.123C132.203 208.156 137.118 214.651 137.365 215.559C137.622 216.507 148.512 222.533 150.723 224.296C153.115 226.204 151.115 228.826 152.543 229.645C153.267 230.061 159.304 228.79 158.919 226.412C158.557 224.167 156.182 220.631 156.123 220.452C156.007 220.106 146.657 212.825 146.433 212.373C146.219 211.93 143.712 206.099 142.929 205.38Z" fill="#1D2538"/>
<path d="M116.497 185.011C116.497 185.011 118.086 186.705 118.488 188.197C118.488 188.197 113.648 191.707 104.922 195.881C100.246 198.116 93.0242 200.17 93.0242 200.17L91.9746 196.237C91.9779 196.234 106.731 192.348 116.497 185.011Z" fill="#992C29"/>
<path d="M92.0321 196.277C92.0321 196.277 89.4953 201.497 89.9033 204.122L96.4476 206.225C96.4476 206.225 93.9075 198.585 92.0321 196.277Z" fill="#C93F37"/>
<path d="M92.0308 196.277C93.9654 198.208 96.4463 206.225 96.4463 206.225C96.4463 206.225 93.0343 203.498 92.6855 202.448C92.3368 201.398 92.0308 196.277 92.0308 196.277Z" fill="#992C29"/>
<path d="M93.0562 198.875C93.0562 198.875 97.7382 202.999 99.8308 203.515L100.374 200.028C100.377 200.028 96.9847 198.308 93.0562 198.875Z" fill="#992C29"/>
<path d="M202.385 136.583L171.736 134.773C163.043 133.608 163.132 121.675 163.326 112.793L163.724 81.8979C163.902 73.2735 168.791 67.3831 177.477 67.3831H202.681C212.427 67.3831 218.306 73.2339 218.306 82.753L220.711 121.906C220.711 131.828 212.41 137.95 202.385 136.583Z" fill="#634874"/>
<path d="M170.472 76.6749C173.304 70.1142 165.477 64.1379 158.018 61.5592C147.43 57.9007 146.176 55.9494 141.836 53.6843C136.506 50.9009 131.985 49.8773 128.754 52.3174C125.527 54.7574 124.826 58.9837 126.737 60.8262C131.248 65.1812 133.4 66.152 139.142 70.2694C149.657 77.8074 155.274 79.4451 158.673 81.7267C164.368 85.5535 167.083 84.5233 170.472 76.6749Z" fill="#A86243"/>
<path d="M172.686 77.6819C175.519 71.1212 133.397 66.152 139.138 70.266C149.654 77.8041 155.27 79.4418 158.669 81.7233C164.368 85.5534 169.3 85.5303 172.686 77.6819Z" fill="#D77E5B"/>
<path d="M135.075 44.1713C132.785 47.4896 129.136 53.1951 132.226 56.2988C134.453 58.5342 133.496 60.7761 136.789 59.1714C140.491 57.3653 142.781 48.9226 142.879 48.7212C144.62 45.1849 137.391 40.8199 135.075 44.1713Z" fill="#7A4630"/>
<path d="M148.404 25.4336C148.404 25.4336 133.433 36.706 129.501 41.1206C125.612 45.4889 122.226 50.818 124.48 56.8208C125.849 60.466 127.422 62.9324 132.291 61.3476C137.881 59.5282 142.185 51.594 144.439 46.5422C147.463 39.7767 151.345 36.3626 153.639 34.0018C156.58 30.9741 156.353 21.412 148.404 25.4336Z" fill="#A86243"/>
<path d="M169.513 23.0996L169.779 27.6495L166.848 28.4519L164.535 24.5491L169.513 23.0996Z" fill="#273150"/>
<path d="M145.682 31.1621L149.11 25.6679C149.11 25.6679 156.329 22.9571 160.491 22.65C164.653 22.3429 167.016 24.3075 167.016 24.3075L167.368 32.3607C167.407 33.2687 166.808 34.0941 165.989 34.2658L164.709 34.5333L162.738 34.4375L162.663 35.5172C162.626 36.0587 162.281 36.5309 161.804 36.696L159.221 37.5841L155.378 38.4261C155.378 38.4261 152.479 37.6898 152.785 35.7483C153.091 33.8069 147.435 37.5181 145.682 31.1621Z" fill="#A86243"/>
<path d="M141.337 30.862L144.164 35.6794L151.271 33.378C151.886 33.1799 152.222 32.3313 151.981 31.5785C151.708 30.7201 150.962 30.2809 150.271 30.5682L145.421 31.9285L144.48 29.7856L141.337 30.862Z" fill="#273150"/>
<path d="M136.128 13.6596C128.916 16.3737 97.9677 25.7212 97.9677 25.7212C97.767 27.2301 98.1684 33.5597 99.2706 34.263C99.2706 34.263 103.778 40.2922 131.018 34.4644C162.822 27.6594 195.435 14.2242 195.435 14.2242L194.915 5.51733C194.918 5.52064 143.337 10.9455 136.128 13.6596Z" fill="#B44C29"/>
<path d="M134.025 8.7364C126.747 11.2656 101.975 19.1404 98.3687 24.6677C95.5523 28.9865 105.18 32.9586 140.033 24.8196C174.887 16.6806 188.709 9.39016 193.816 6.97983C198.922 4.5662 187.054 1.45258 165.072 0.296942C160.038 0.0294943 149.651 3.3082 134.025 8.7364Z" fill="#F08650"/>
<path d="M99.3716 28.2335L110.989 24.2119L100.974 29.6401L99.3716 28.2335Z" fill="#B44C29"/>
<path d="M165.346 0.620117L145.891 7.02895C145.894 7.02565 165.307 1.46869 165.346 0.620117Z" fill="#B44C29"/>
<path d="M125.463 22.2543C128.618 20.7454 115.332 24.8496 108.636 27.6825C108.636 27.6825 122.307 23.76 125.463 22.2543Z" fill="#B44C29"/>
<path d="M181.198 12.7544L179.694 10.9451L184.801 11.7012L181.198 12.7544Z" fill="#B44C29"/>
<path d="M127.718 28.2831L129.972 25.8728L132.673 27.8308L127.718 28.2831Z" fill="#B44C29"/>
<path d="M153.389 10.8364C154.248 12.0977 152.241 14.1019 147.792 15.6603C141.406 17.8957 132.864 18.3579 131.834 15.7693C130.864 13.3259 137.731 10.4633 144.291 9.6213C148.977 9.01706 152.553 9.61139 153.389 10.8364Z" fill="#B44C29"/>
<path d="M152.98 9.77952C153.701 10.6974 151.638 12.4144 147.285 13.9695C141.036 16.2016 132.873 17.2218 132.093 15.2837C131.356 13.4545 138.108 10.6941 144.416 9.53189C148.92 8.70313 152.279 8.88803 152.98 9.77952Z" fill="#F08650"/>
<path d="M203.466 68.1103C204.746 63.6099 211.659 66.3108 215.11 68.4867C220.601 71.9437 220.026 74.5125 223.747 76.4606C230.469 79.9804 249.069 92.8707 243.992 98.738C238.918 104.605 230.4 99.3885 223.754 95.2315C218.996 92.2565 210.553 85.884 205.802 81.2185C203.824 79.2771 202.186 72.6107 203.466 68.1103Z" fill="#A86243"/>
<path d="M242.828 107.346C245.276 103.321 247.79 99.6956 244.467 95.664C239.262 89.3542 235.178 92.8079 231.681 97.13C228.243 101.383 228.259 102.803 225.12 107.082C221.958 111.391 215.874 117.582 215.874 117.582C215.874 117.582 210.725 122.204 213.18 125.674C215.769 129.339 217.599 129.379 220.464 127.811C224.646 125.526 240.986 110.377 242.828 107.346Z" fill="#A86243"/>
<path d="M161.604 217.913C161.528 217.94 161.452 217.976 161.38 218.016C160.291 218.617 151.397 223.444 150.364 224.738C149.519 225.798 150.058 229.704 150.354 231.461C150.446 232.005 150.825 232.451 151.345 232.633C153.45 233.363 158.998 235.304 164.377 234.759C171.122 234.076 170.915 231.527 175.936 229.116C179.22 227.541 181.22 226.524 182.214 226.013C182.691 225.765 182.898 225.286 182.925 224.748L183.201 218.844C183.234 218.105 182.826 217.448 182.102 217.302C178.756 216.616 169.329 215.117 161.604 217.913Z" fill="#29ACE4"/>
<path d="M161.488 217.958C161.488 217.958 151.268 223.557 150.169 224.934C149.07 226.311 150.113 231.059 150.113 231.059C150.113 231.059 157.428 233.978 164.173 233.295C170.918 232.611 170.914 230.356 175.935 227.946C179.824 226.08 181.914 225 182.657 224.607C182.858 224.502 182.986 224.3 182.996 224.076L183.302 218.463C183.332 217.948 182.983 217.489 182.483 217.383C179.525 216.746 169.556 214.986 161.488 217.958Z" fill="#13161F"/>
<path d="M156.509 220.614C156.509 220.614 161.615 218.805 166.623 221.116" stroke="#29ACE4" stroke-width="2" stroke-miterlimit="10" stroke-linecap="round" stroke-linejoin="round"/>
<path d="M160.209 218.402C160.209 218.402 165.316 216.593 170.324 218.904" stroke="#29ACE4" stroke-width="2" stroke-miterlimit="10" stroke-linecap="round" stroke-linejoin="round"/>
<path d="M216.036 218.135C221.699 220.122 229.911 222.054 230.296 224.596C230.681 227.119 230.948 229.78 230.727 230.724C230.559 231.438 230.257 231.864 229.711 232.098C228.319 232.696 225.542 234.129 219.925 234.69C217.5 234.934 212.177 233.627 208.929 231.213C206.35 229.295 203.253 227.063 202.092 226.227C201.789 226.009 201.588 225.679 201.536 225.309L201.111 222.45C201.026 221.866 201.319 221.288 201.845 221.02C204.31 219.766 211.417 216.513 216.036 218.135Z" fill="#29ACE4"/>
<path d="M218.322 216.962C223.267 218.834 230.035 221.664 230.42 224.471C230.766 227 230.921 228.39 230.851 229.357C230.819 229.829 229.68 230.054 229.124 230.288C227.709 230.886 224.883 232.322 219.174 232.89C216.707 233.135 211.863 232.405 208.566 229.995C205.819 227.987 202.499 225.636 201.466 224.906C201.259 224.761 201.121 224.537 201.078 224.286L200.663 221.819C200.486 220.756 201.088 219.719 202.098 219.356C205.77 218.025 213.923 215.298 218.322 216.962Z" fill="#13161F"/>
<path d="M215.197 222.321C215.197 222.321 219.804 218.101 225.012 219.709" stroke="#29ACE4" stroke-width="2" stroke-miterlimit="10" stroke-linecap="round" stroke-linejoin="round"/>
<path d="M211.992 220.31C211.992 220.31 216.799 216.49 222.008 218.098" stroke="#29ACE4" stroke-width="2" stroke-miterlimit="10" stroke-linecap="round" stroke-linejoin="round"/>
<path d="M214.397 133.875C214.397 133.875 215.881 153.597 218.602 169.456C220.069 178.008 221.445 193.318 222.313 204.468C222.899 211.983 223.379 217.653 223.031 217.91C222.172 218.551 218.023 217.306 210.442 219.211C202.96 221.093 199.88 222.179 199.88 222.179L198.706 218.554C198.706 218.554 198.002 216.867 198.923 209.91C199.196 207.853 196.85 204.66 196.515 202.038C194.376 185.239 191.283 159.574 189.753 142.318C187.42 115.956 209.501 111.793 214.397 133.875Z" fill="#F6BE4A"/>
<path opacity="0.5" d="M214.395 133.875C214.395 133.875 215.879 153.597 218.6 169.456C220.275 179.216 221.591 195.88 222.719 207.48C222.956 209.913 223.841 210.118 224.006 212C224.203 214.268 223.871 217.527 222.894 218.042C221.834 218.6 218.024 217.306 210.443 219.211C202.961 221.093 199.881 222.179 199.881 222.179L198.707 218.554C198.338 216.834 198.282 215.979 198.924 209.91C199.141 207.876 196.831 204.515 196.516 202.038C194.377 185.176 191.241 159.101 189.754 142.318C187.418 115.956 209.499 111.793 214.395 133.875Z" fill="#F6BE4A"/>
<path d="M164.395 132.752C164.395 132.752 163.322 155.244 162.753 168.646C162.342 178.284 161.055 217.877 161.055 217.877C161.055 217.877 162.746 217.223 169.922 217.447L180.221 222.04C180.221 222.04 182.531 222.667 183.139 222.318C183.748 221.971 185.4 220.343 185.561 216.387C186.074 203.811 186.17 176.402 185.982 174.372C185.811 172.539 185.986 151.365 187.361 135.668C187.963 128.79 184.804 123.032 175.743 120.684C167.043 118.432 164.622 125.828 164.395 132.752Z" fill="#F6BE4A"/>
<path d="M218.602 169.456C220.261 179.124 221.57 195.557 222.689 207.143C222.771 207.978 223.84 210.088 223.919 210.867C224.367 215.295 223.574 218.088 222.705 218.27C221.833 218.448 218.027 217.306 210.446 219.211C202.964 221.093 199.884 222.179 199.884 222.179L198.709 218.554C198.709 218.554 206.211 207.8 210.189 200.813C211.39 198.703 216.019 192.437 217.25 184.08C218.402 176.261 217.934 165.573 218.602 169.456Z" fill="#F6BE4A"/>
<path d="M189.058 144.732C202.389 144.732 213.195 136.801 213.195 127.017C213.195 117.234 202.389 109.303 189.058 109.303C175.728 109.303 164.921 117.234 164.921 127.017C164.921 136.801 175.728 144.732 189.058 144.732Z" fill="#F6BE4A"/>
<path opacity="0.5" d="M189.058 144.732C202.389 144.732 213.195 136.801 213.195 127.017C213.195 117.234 202.389 109.303 189.058 109.303C175.728 109.303 164.921 117.234 164.921 127.017C164.921 136.801 175.728 144.732 189.058 144.732Z" fill="#F6BE4A"/>
<path d="M185.451 126.789C186.079 123.068 183.371 125.403 181.269 126.638C179.716 127.552 178.485 128.239 179.933 129.289C182.263 130.979 185.043 129.21 185.451 126.789Z" stroke="#FEED7F" stroke-width="3" stroke-miterlimit="10"/>
<path d="M185.851 126.337C185.851 126.337 188.855 129.804 191.559 130.256C194.264 130.709 193.813 126.637 192.01 125.885C190.207 125.132 186.903 125.132 185.851 126.337Z" stroke="#FEED7F" stroke-width="3" stroke-miterlimit="10"/>
<path d="M186.004 126.036C186.004 126.036 189.758 129.731 189.909 134.855" stroke="#FEED7F" stroke-width="3" stroke-miterlimit="10"/>
<path d="M185.402 133.498C185.402 133.498 185.777 127.846 186.004 126.036" stroke="#FEED7F" stroke-width="3" stroke-miterlimit="10"/>
<path d="M211.741 197.02C215.143 193.49 218.243 185.07 217.999 180.913C217.999 180.913 205.213 199.42 204.779 200.209C203.568 202.418 211.61 197.158 211.741 197.02Z" fill="#F6BE4A"/>
<path d="M171.4 65.6273C171.4 65.6273 169.179 66.1457 168.508 73.1654C168.208 76.2922 165.642 90.7443 165.826 100.732C166.043 112.441 165.046 128.27 165.046 128.27C165.046 128.27 173.18 125.863 185.179 124.938C197.182 124.013 211.735 129.019 211.735 129.019C216.381 129.788 211.472 115.676 210.406 110.301C209.159 104.011 210.919 92.633 209.886 84.1506C208.33 71.3956 206.155 68.8334 205.895 67.7867C205.326 65.4887 197.965 65.4193 193.004 64.7061C185.745 63.6694 176.737 64.8547 171.4 65.6273Z" fill="#29ACE4"/>
<path d="M165.424 82.6544C165.424 82.6544 187.959 76.4107 205.535 81.5615L206.437 86.2435C206.437 86.2435 185.856 78.7517 164.822 87.1813L165.424 82.6544Z" fill="#3D4C6D"/>
<path d="M164.67 88.2745C164.67 88.2745 187.956 81.8755 205.532 87.0264L206.434 91.7084C206.434 91.7084 186.001 84.6854 164.97 93.1117L164.67 88.2745Z" fill="#3D4C6D"/>
<path opacity="0.5" d="M171.397 65.6271C171.397 65.6271 169.176 66.1455 168.505 73.1651C168.205 76.292 165.639 90.744 165.823 100.732C177.026 83.4833 203.964 124.555 213.196 125.36C215.749 125.582 210.268 115.752 209.991 106.216C209.669 95.0727 211.344 85.3059 211.344 85.3059C209.787 72.551 206.155 68.8398 205.895 67.7898C205.326 65.4917 197.965 65.4224 193.004 64.7092C185.742 63.6691 176.733 64.8545 171.397 65.6271Z" fill="#1FABE2"/>
<path d="M197.871 65.2539C198.21 65.2341 197.871 66.0365 197.871 66.0365C195.492 68.2025 189.919 71.5737 184.96 71.5737C180.067 71.5737 175.948 71.2633 174.885 68.1133C174.428 66.7563 176.59 64.97 176.59 64.97C176.59 64.97 180.475 64.303 184.954 64.1643C189.323 64.0256 197.532 65.2738 197.871 65.2539Z" fill="#7A4630"/>
<path d="M184.788 67.1626C180.856 67.0371 180.978 63.9895 181.008 62.0778L181.396 55.8373C181.419 54.3185 183.001 53.0605 185.449 53.1331L189.677 53.1992C192.053 53.2718 193.218 54.5826 193.435 56.0552C193.435 56.0552 194.132 62.6325 193.889 64.6829C193.639 66.763 188.723 67.2847 184.788 67.1626Z" fill="#7A4630"/>
<path d="M212.632 79.9472C212.632 79.9472 213.727 93.7852 211.835 92.022C204.939 85.59 206.002 73.5714 206.532 70.3587C207.061 67.146 208.572 65.9145 210.641 67.3111C213.826 69.4507 212.632 79.9472 212.632 79.9472Z" fill="#A86243"/>
<path d="M168.965 63.7683C170.788 63.8244 173.2 64.3758 172.769 65.3301C171.466 68.2192 169.416 75.3973 168.343 81.3901C167.086 88.4098 165.958 94.7988 165.415 99.636C165.165 101.868 163.22 103.634 161.49 102.386C160.999 102.033 160.631 101.538 160.516 100.848C160.065 98.0841 158.499 86.0457 164.957 66.314C165.757 63.8773 167.047 63.7089 168.965 63.7683Z" fill="#634874"/>
<path d="M209.148 65.3335C207.947 64.3958 202.936 63.3689 201.077 63.9434C199.218 64.5179 199.761 72.7395 202.077 82.0308C204.318 91.0118 207.783 102.654 209.632 104.708C209.997 105.111 210.51 105.319 211.04 105.282C212.152 105.203 213.922 104.813 213.83 103.126C213.699 100.679 211.747 89.8759 210.237 78.1313C208.954 68.1202 210.313 66.2415 209.148 65.3335Z" fill="#634874"/>
<path d="M215.382 130.871C216.402 131.194 217.531 130.934 218.281 130.168C220.061 128.355 220.795 125.637 220.551 122.725C220.252 119.107 215.896 117.749 213.089 117.149C210.868 116.67 209.026 116.194 208.354 116.016C208.183 115.97 207.999 116.009 207.861 116.122L199.888 122.6C199.75 122.712 199.675 122.884 199.684 123.062L199.842 126.07C199.859 126.367 200.102 126.598 200.398 126.598C200.885 126.598 201.135 127.179 200.806 127.536L200.625 127.731C200.471 127.896 200.435 128.14 200.527 128.345L201.32 130.065C201.458 130.362 201.817 130.478 202.1 130.316L202.606 130.026C202.823 129.9 203.096 129.936 203.274 130.115L204.702 131.548C204.867 131.713 205.117 131.759 205.327 131.66L207.038 130.868C207.318 130.739 207.644 130.861 207.775 131.142C207.956 131.525 208.272 132.02 208.782 132.274C209.565 132.667 212.882 130.973 213.737 130.524C213.869 130.455 214.02 130.442 214.162 130.488L215.382 130.871Z" fill="#A86243"/>
<path d="M207.622 116.32L199.893 122.597C199.755 122.709 199.679 122.881 199.689 123.059L199.847 126.067C199.863 126.364 200.107 126.595 200.403 126.595C200.89 126.595 201.14 127.176 200.811 127.533L200.63 127.728C200.475 127.893 200.439 128.137 200.531 128.342L201.324 130.062C201.462 130.359 201.821 130.475 202.104 130.313L202.611 130.023C202.828 129.897 203.101 129.933 203.279 130.112L204.706 131.545C204.871 131.71 205.121 131.756 205.332 131.657L207.043 130.864C207.322 130.736 207.648 130.858 207.78 131.139C207.961 131.522 208.276 132.017 208.786 132.271C209.533 132.647 212.59 131.119 213.61 130.587C213.811 130.481 213.929 130.264 213.906 130.036L213.639 127.341C213.557 126.506 213.179 125.724 212.573 125.142L211.553 124.162C210.889 123.525 210.501 122.653 210.471 121.732L210.422 120.292C210.399 119.612 210.181 118.951 209.793 118.393L208.424 116.426C208.24 116.168 207.872 116.115 207.622 116.32Z" fill="#D77E5B"/>
<path d="M200.627 44.0859C200.193 55.7677 197.765 59.4328 190.019 59.5648C184.163 59.6639 179.412 52.6343 179.412 44.0859C179.412 35.5375 184.163 28.6069 190.019 28.6069C195.876 28.6069 201.016 33.5696 200.627 44.0859Z" fill="#273150"/>
<path d="M197.36 41.4381C197.304 33.7745 196.471 29.3897 188.025 28.7657C183.616 28.4421 179.276 28.8449 176.72 30.1723C174.41 31.3741 173.015 33.243 172.209 38.2716C171.6 42.0588 170.745 48.6096 172.008 54.9524C172.818 59.017 178.013 60.5556 182.593 60.8726C194.418 61.6915 196.234 58.5382 196.971 52.9449C197.965 45.3739 197.379 44.5847 197.36 41.4381Z" fill="#7A4630"/>
<path d="M195.829 46.0769C195.757 39.4336 193.036 36.5478 185.432 35.9832C181.464 35.6893 173.646 37.7398 173.281 42.1378C172.889 46.899 172.32 51.0461 173.163 55.1668C173.886 58.7097 177.673 59.9512 181.799 60.2417C192.447 60.9879 194.872 57.3691 195.5 52.522C196.036 48.3948 195.859 48.8042 195.829 46.0769Z" fill="#A96344"/>
<path d="M174.905 30.0597C174.197 30.489 173.924 30.9149 173.424 33.6554C173.319 34.2332 174.378 32.0012 175.333 31.1295C176.287 30.2578 176.066 31.4267 181.061 31.3045C186.056 31.1824 193.136 30.3206 193.136 30.3206L193.83 37.2478L196.41 43.2637L197.966 39.9421C198.2 34.045 197.14 30.6111 193.281 29.3102C186.217 26.9263 177.501 28.4815 174.905 30.0597Z" fill="#273150"/>
<path d="M187.429 36.1186C187.34 37.2875 186.791 38.1889 186.198 38.1426C185.606 38.0964 185.192 37.1224 185.267 35.9535C185.343 34.7714 185.896 33.837 186.501 33.8832C187.103 33.9295 187.518 34.9365 187.429 36.1186Z" fill="#102342"/>
<path d="M185.02 33.7909L187.998 32.8433" stroke="#273150" stroke-miterlimit="10" stroke-linecap="round" stroke-linejoin="round"/>
<path d="M179.076 36.4121C179.037 37.515 178.556 38.3635 178.004 38.3206C177.448 38.2777 177.02 37.3598 177.046 36.257C177.072 35.1442 177.553 34.266 178.119 34.3089C178.688 34.3518 179.116 35.2994 179.076 36.4121Z" fill="#102342"/>
<path d="M178.784 33.7909L176.109 33.0249" stroke="#273150" stroke-miterlimit="10" stroke-linecap="round" stroke-linejoin="round"/>
<path d="M201.139 46.4531C200.363 49.613 198.132 51.8318 196.135 51.5082C196.135 51.5082 196.197 44.3433 196.168 42.9763C196.148 42.1178 196.641 39.4698 198.77 39.8198C200.893 40.1664 201.942 43.1843 201.139 46.4531Z" fill="#7A4630"/>
<path d="M200.015 48.7086C199.903 49.4713 199.182 50.0293 198.406 49.9666C197.629 49.9038 197.077 49.2402 197.179 48.4774C197.277 47.7081 198.001 47.1336 198.791 47.1963C199.577 47.2624 200.127 47.9425 200.015 48.7086Z" fill="#E2D6C9"/>
<path d="M231.55 110.578C231.55 110.578 223.015 110.72 219.037 109.171C215.059 107.626 216.181 91.1763 224.091 89.0103C233.129 86.534 243.99 91.8235 249.998 96.0762C256.006 100.329 253.565 106.688 244.872 109.686C236.051 112.727 231.55 110.578 231.55 110.578Z" fill="#1689CB"/>
<path d="M250.147 102.848C250.147 107.075 234.173 107.289 229.3 107.289C224.431 107.289 220.482 103.862 220.482 99.6358C220.482 95.4095 224.431 91.9822 229.3 91.9822C234.17 91.9789 250.147 98.6222 250.147 102.848Z" fill="#992C29"/>
<path d="M246.9 105.513C246.9 105.513 268.583 112.919 281.204 131.413C292.009 147.248 307.243 137.042 316.259 141.262C325.274 145.482 271.514 155.777 262.226 158.299C251.108 161.314 218.209 124.056 224.368 113.807C231.811 101.416 246.9 105.513 246.9 105.513Z" fill="#1689CB"/>
<path d="M252.157 110.357C252.265 110.869 263.939 115.904 271.336 127.444C287.06 151.966 306.591 136.088 315.603 140.308C324.615 144.527 322.013 155.414 322.013 155.414C322.013 155.414 306.989 151.194 303.383 163.252C299.777 175.31 268.51 177.017 259.221 179.537C248.103 182.551 222.538 178.038 222.538 178.038C222.538 178.038 212.888 137.045 225.068 109.753C227.22 104.929 242.395 106.134 242.395 106.134L252.157 110.357Z" fill="#992C29"/>
<path d="M234.281 74.5685C234.281 74.5685 230.287 73.2313 226.292 78.5769C223.153 82.7768 221.558 86.5938 224.664 91.7875C225.542 93.2568 222.002 93.5705 224.22 99.8044C226.542 106.332 239.753 106.633 244.191 103.516C244.191 103.516 252.772 110.79 262.386 105.592C268.855 102.096 260.021 92.8243 260.021 92.8243C260.021 92.8243 264.637 82.7372 253.986 72.7921C246.402 65.713 238.275 70.5601 234.281 74.5685Z" fill="#273150"/>
<path d="M231.221 85.8376C234.039 85.8376 236.324 81.9497 236.324 77.1538C236.324 72.3578 234.039 68.47 231.221 68.47C228.402 68.47 226.118 72.3578 226.118 77.1538C226.118 81.9497 228.402 85.8376 231.221 85.8376Z" fill="#273150"/>
<path d="M242.205 72.9345C243.696 69.4272 243.17 65.8408 241.029 64.9239C238.888 64.0071 235.943 66.107 234.451 69.6142C232.96 73.1214 233.487 76.7079 235.628 77.6247C237.769 78.5416 240.714 76.4417 242.205 72.9345Z" fill="#273150"/>
<path d="M233.198 76.764C233.198 76.764 229.875 74.6046 226.16 78.9928C222.445 83.3809 221.85 87.2638 224.528 91.7411C225.285 93.009 222.139 94.2042 224.051 99.5796C225.117 102.571 230.003 103.796 229.691 103.238C229.378 102.68 229.648 101.105 229.648 101.105C233.007 103.119 238.499 104.304 244.293 103.849C247.547 105.807 253.548 105.609 257.428 103.512C263.005 100.501 255.388 92.5071 255.388 92.5071C255.388 92.5071 259.369 83.8134 250.186 75.2386C243.648 69.1269 236.643 73.307 233.198 76.764Z" fill="#3D4C6D"/>
<path d="M232.649 77.3287C232.649 81.4626 232.998 86.478 230.566 86.478C228.138 86.478 226.167 83.1267 226.167 78.9928C226.167 74.8589 228.138 71.5076 230.566 71.5076C232.994 71.5076 232.649 73.1948 232.649 77.3287Z" fill="#3D4C6D"/>
<path d="M239.024 72.8877C237.737 75.9088 236.204 80.2012 234.358 79.4088C232.512 78.6196 232.058 75.5258 233.342 72.5047C234.628 69.4835 237.165 67.6741 239.011 68.4632C240.857 69.2557 240.31 69.8665 239.024 72.8877Z" fill="#3D4C6D"/>
<path d="M251.172 105.585C251.172 105.585 254.903 104.542 255.512 101.841C255.512 101.841 256.815 105.76 251.172 105.585Z" fill="#273150"/>
<path d="M255.286 114.754C255.286 114.754 261.472 126.935 263.232 129.999C264.992 133.06 260.271 136.626 257.191 135.797C254.111 134.968 248.238 120.618 246.764 117.581C245.287 114.54 251.39 109.769 255.286 114.754Z" fill="#F6874E"/>
<path d="M256.141 116.25C256.141 116.25 250.475 104.895 246.662 105.496C242.838 106.097 242.914 107.827 243.727 111.169C244.931 116.121 248.228 122.752 248.228 122.752C248.228 122.752 251.508 117.525 256.141 116.25Z" fill="#C93F37"/>
<path d="M270.939 129.302C270.939 129.302 263.276 128.801 261.473 128.196C259.67 127.592 253.284 130.534 255.916 134.83C258.068 138.346 269.837 136.989 271.841 136.187C273.845 135.384 274.694 130.006 270.939 129.302Z" fill="#F6874E"/>
<path d="M290.722 48.3418C290.722 48.3418 278.621 111.618 278.476 112.602C278.331 113.586 278.203 114.471 278.203 114.471C278.002 114.93 277.512 115.006 275.719 114.593L268.036 113.252L278.759 46.0008C278.812 45.6574 285.237 39.899 285.237 39.899C285.451 39.8792 285.721 39.5688 286.261 40.2061L290.587 47.1432C290.844 47.6715 290.775 48.0644 290.722 48.3418Z" fill="#1FABE2"/>
<path d="M290.722 48.3416C290.722 48.3416 278.621 111.618 278.476 112.602C278.331 113.586 278.203 114.47 278.203 114.47C278.002 114.929 278.851 115.032 277.061 114.616L289.38 47.6416C289.38 47.6416 285.721 39.5653 286.264 40.2026L290.591 47.1397C290.844 47.6713 290.775 48.0642 290.722 48.3416Z" fill="#197CCD"/>
<path d="M284.238 79.6727L284.867 77.1038C284.946 76.9189 284.6 76.8099 284.242 76.909L281.807 77.5826C281.59 77.642 281.488 77.7774 281.58 77.8797L283.728 79.8609C283.883 80.0326 284.153 79.8609 284.238 79.6727Z" fill="#197CCD"/>
<path d="M276.203 61.8894L277.937 60.6974L276.644 59.2644L276.203 61.8894Z" fill="#197CCD"/>
<path d="M287.973 58.663L285.927 56.6885L288.483 56.5234L287.973 58.663Z" fill="#197CCD"/>
<path d="M285.71 39.9089L272.529 113.807" stroke="#F4E8D8" stroke-miterlimit="10"/>
<path d="M274.306 73.9307L275.892 74.2081L277.267 72.2468L276.293 70.2855L279.686 67.1653L280.982 65.9436" stroke="#F4E8D8" stroke-miterlimit="10"/>
<path d="M269.807 138.709C269.774 138.811 269.01 139.171 267.642 138.808C266.036 138.382 266.177 137.276 266.177 137.276L268.892 113.74L276.381 114.946L269.807 138.709Z" fill="#1D2538"/>
<path d="M266.434 145.824C268.625 146.389 270.678 144.771 270.975 142.328C271.257 140.006 269.833 137.834 267.829 137.368C265.848 136.909 263.9 138.266 263.436 140.492C262.949 142.833 264.269 145.266 266.434 145.824ZM267.605 139.64C268.355 139.904 268.908 140.944 268.836 141.984C268.763 143.047 268.066 143.695 267.286 143.407C266.513 143.12 265.973 142.031 266.079 140.99C266.181 139.973 266.862 139.376 267.605 139.64Z" fill="#1D2538"/>
<path d="M266.226 144.309C267.467 144.652 268.638 143.718 268.826 142.268C268.862 141.984 268.855 141.7 268.816 141.43C268.842 141.611 268.849 141.8 268.836 141.988C268.763 143.051 268.066 143.698 267.286 143.411C266.513 143.124 265.973 142.034 266.078 140.994C266.18 139.977 266.861 139.383 267.605 139.643C268.069 139.809 268.457 140.267 268.668 140.842C268.382 140.036 267.773 139.396 267.009 139.201C265.841 138.901 264.709 139.736 264.463 141.106C264.213 142.516 264.992 143.969 266.226 144.309Z" fill="#F6BE4A"/>
<path d="M268.793 141.296C268.789 141.274 268.786 141.248 268.78 141.225C268.786 141.251 268.789 141.274 268.793 141.296Z" fill="#F6BE4A"/>
<path d="M268.726 141.018C268.716 140.981 268.702 140.944 268.689 140.905C268.702 140.941 268.716 140.978 268.726 141.018Z" fill="#F6BE4A"/>
<path d="M268.697 138.772C268.74 138.772 268.783 138.789 268.819 138.815C269.089 139.026 269.306 139.257 269.461 139.508C269.52 139.601 269.481 139.726 269.379 139.786C269.277 139.845 269.145 139.819 269.089 139.726C268.957 139.515 268.77 139.313 268.536 139.132C268.447 139.063 268.441 138.937 268.52 138.851C268.563 138.795 268.632 138.769 268.697 138.772Z" fill="#F4E8D8"/>
<path d="M269.429 129.124C268.05 129.124 267.083 129.56 267.083 129.56L268.439 118.06C268.531 116.818 268.833 113.213 268.833 113.213C268.833 113.213 275.904 114.243 276.796 114.51C276.796 114.51 275.832 118.426 275.506 119.532L272.535 129.524C272.535 129.527 270.808 129.124 269.429 129.124Z" fill="#C73F37"/>
<path d="M273.476 126.357L273.058 127.74C273.058 127.74 270.672 127.539 267.803 127.539C267.807 127.539 268.672 126.714 273.476 126.357Z" fill="#1D2538"/>
<path d="M267.075 129.649C267.075 129.649 271.017 129.616 272.31 130.286L271.807 131.93C271.807 131.93 267.786 130.808 266.94 130.808L267.075 129.649Z" fill="#C73F37"/>
<path d="M267.562 125.525L267.617 125.073C267.617 125.073 270.628 124.901 272.629 125.538L267.562 125.525Z" fill="#1D2538"/>
<path d="M274.108 124.023L274.477 122.851C274.477 122.851 270.472 121.979 267.837 123.019C267.837 123.019 272.674 122.851 274.108 124.023Z" fill="#1D2538"/>
<path d="M275.505 119.535L274.903 121.533C274.903 121.533 270.971 119.931 268.122 120.466L268.537 116.864C268.537 116.864 271.518 118.072 275.505 119.535Z" fill="#1D2538"/>
<path d="M276.123 117.135L276.416 116.092C276.416 116.092 272.674 114.296 269.483 115.078C269.483 115.078 275.731 116.254 276.123 117.135Z" fill="#1D2538"/>
<path d="M262.336 107.455C262.56 107.359 262.813 107.329 263.056 107.372L284.92 110.743C285.2 110.803 285.476 111.271 286.259 112.45C286.786 113.243 287.032 114.263 286.141 114.682C284.973 115.234 283.676 116.168 283.196 116.026L262.217 112.279C261.895 112.216 260.888 111.404 260.477 111.067C260.01 110.684 259.358 109.947 258.96 109.323C258.664 108.861 258.848 108.254 259.348 108.039L262.336 107.455Z" fill="#C73F37"/>
<path d="M261.788 106.52C262.025 106.418 262.285 106.388 262.542 106.434L284.741 110.393C284.801 110.406 286.337 112.097 286.14 112.727C285.942 113.358 283.274 114.474 283.274 114.474C283.274 114.474 260.643 110.802 260.443 110.528C260.071 110.02 259.456 109.505 259.038 108.854C258.729 108.372 258.923 107.738 259.442 107.514L261.788 106.52Z" fill="#197CCD"/>
<path d="M261.788 106.52C262.025 106.418 262.285 106.388 262.542 106.434L265.319 109.591L283.274 114.474C283.274 114.474 260.643 110.802 260.443 110.528C259.893 109.984 259.456 109.505 259.038 108.854C258.729 108.372 258.923 107.738 259.442 107.514L261.788 106.52Z" fill="#1FABE2"/>
<path d="M274.389 76.708L273.416 82.4961L280.414 92.7879L281.477 87.1418L274.389 76.708Z" fill="#1FABE2"/>
<path d="M273.209 84.2029L272.933 86.4316L279.928 96.7234L280.296 94.6333L273.209 84.2029Z" fill="#1FABE2"/>
<path d="M265.548 107.068L266.197 107.986C266.414 108.31 266.479 108.343 266.812 108.128L267.868 107.478L265.548 107.068Z" fill="#C73F37"/>
<path d="M268.354 128.183C268.147 128.681 268.68 128.84 269.433 128.923C269.976 128.982 270.979 128.434 270.979 128.434C270.979 128.434 271.884 128.731 272.263 128.959C272.457 129.074 270.749 128.923 270.144 128.959C269.538 128.995 268.166 129.576 268.166 129.576C268.127 129.58 268.087 129.586 268.051 129.599C267.59 129.764 267.301 130.253 267.386 131.016C267.4 131.118 267.449 131.194 267.525 131.264C267.62 131.353 267.794 131.389 267.729 131.663C267.64 132.023 267.225 132.284 267.229 132.545C267.229 132.693 267.518 133.948 267.617 134.06L268.946 134.113C268.946 134.113 267.419 134.288 267.311 134.988C267.123 136.203 268.153 136.84 268.867 136.725C269.752 136.583 269.746 137.019 270.509 137.151C270.509 137.151 272.391 137.355 272.641 136.698C272.904 136.008 273.743 135.47 274.003 134.496C274.155 133.925 274.155 132.789 274.569 132.105C275.382 130.772 274.382 130.382 274.605 129.523C274.803 128.781 275.323 128.728 275.059 127.853C274.852 127.173 274.141 126.981 273.622 126.79C273.102 126.601 271.73 126.486 270.371 126.638C270.374 126.644 268.564 127.684 268.354 128.183Z" fill="#CE6D3E"/>
<path d="M268.351 128.182C268.144 128.681 268.671 128.915 269.424 128.997C269.967 129.057 270.974 128.433 270.974 128.433C270.974 128.433 271.879 128.73 272.257 128.958C272.451 129.073 270.743 128.922 270.138 128.958C269.533 128.994 268.161 129.575 268.161 129.575C268.121 129.579 268.082 129.585 268.045 129.598C267.585 129.764 267.256 130.295 267.345 131.055C267.358 131.157 267.565 131.408 267.641 131.477C267.736 131.566 267.661 131.682 267.641 131.722C267.476 132.055 267.276 132.128 267.22 132.382C267.088 132.97 267.243 133.514 267.611 134.059L269.006 134.112C269.006 134.112 267.397 134.284 267.305 134.987C267.216 135.664 267.795 136.585 268.569 136.387C269.674 136.103 271.01 136.559 271.151 136.496C272.148 136.04 271.277 135.07 271.606 134.32C271.849 133.765 271.869 133.131 272.125 132.534C272.349 132.015 272.257 130.53 272.257 130.53L273.56 129.354C273.56 129.354 273.517 128.222 273.428 127.786C273.267 126.973 271.171 126.485 270.368 126.637C270.224 126.67 268.562 127.683 268.351 128.182Z" fill="#F6874E"/>
<path d="M266.661 131.188C267.448 132.377 268.448 131.142 268.214 129.336C268.102 128.467 267.829 127.345 266.52 127.731C265.21 128.117 265.256 129.065 266.661 131.188Z" fill="#F6874E"/>
<path d="M278.553 168.449C278.619 170.252 271.828 171.071 270.09 173.507C267.583 177.027 269.745 177.166 246.66 178.906C227.985 180.316 222.131 171.259 222.365 167.442C222.595 163.678 235.983 158.702 250.069 158.686C264.181 158.672 278.415 164.629 278.553 168.449Z" fill="#EC5E4D"/>
<path d="M224.971 180.178C224.971 180.178 221.365 165.485 221.065 161.014C220.766 156.543 235.789 150.154 238.494 157.501C241.199 164.847 241.801 176.665 241.801 182.096C241.801 187.528 240.899 192.319 234.289 191.998C224.629 191.529 227.317 189.803 224.971 180.178Z" fill="#273150"/>
<path d="M224.971 180.178C224.971 180.178 221.365 165.485 221.065 161.014C220.766 156.543 235.789 150.154 238.494 157.501C241.199 164.847 241.801 176.665 241.801 182.096C241.801 187.528 240.899 192.319 234.289 191.998C224.629 191.529 227.317 189.803 224.971 180.178Z" fill="#102441"/>
<path d="M235.533 181.416C231.565 180.465 225.975 183.767 226.37 188.165C226.669 191.52 223.316 192.477 221.063 199.025C218.809 205.572 235.484 209.884 236.987 201.58C238.488 193.276 246.2 183.972 235.533 181.416Z" fill="#273150"/>
<path d="M235.79 180.339C231.822 179.388 225.981 183.767 226.376 188.165C226.676 191.519 228.68 193.464 226.426 200.012C224.172 206.559 235.49 209.887 236.994 201.58C238.491 193.276 246.454 182.895 235.79 180.339Z" fill="#102441"/>
<path d="M236.991 201.579C235.487 209.883 226.475 233.046 225.574 237.196C224.672 241.35 221.668 242.892 221.668 242.892C221.668 242.892 217.555 244.787 217.684 235.426C217.779 228.275 218.815 205.575 221.069 199.027C221.069 199.027 226.778 196.63 230.384 197.591C233.987 198.545 236.991 201.579 236.991 201.579Z" fill="#F6874E"/>
<path d="M236.986 201.58C235.482 209.884 226.47 233.047 225.569 237.197C225.128 239.234 224.618 242.292 223.516 242.374C222.374 242.46 221.913 243.229 221.614 236.078C221.315 229.368 224.167 205.572 226.421 199.025C226.421 199.025 226.773 196.627 230.379 197.588C233.982 198.546 236.986 201.58 236.986 201.58Z" fill="#CE6D3E"/>
<path d="M221.915 233.452C220.266 236.582 217.259 238.428 217.259 238.428C217.259 238.428 215.127 242.215 215.433 243.642C215.63 244.507 216.496 246.712 216.496 246.712C216.496 246.712 217.141 254.389 217.368 255.294C217.703 256.648 231.229 258.814 232.134 259.157C233.039 259.5 232.842 251.863 232.842 251.863C232.842 251.863 227.044 244.679 225.958 241.605C224.889 238.587 223.695 230.078 221.915 233.452Z" fill="#CE6D3E"/>
<path d="M244.803 155.261C241.799 157.817 240.046 163.565 242.299 168.997C244.553 174.428 246.606 184.222 248.709 186.46C250.811 188.699 254.417 191.677 258.626 191.677C262.831 191.677 264.634 185.608 263.884 180.817C263.133 176.026 260.429 162.449 258.326 156.381C256.224 150.312 247.807 152.706 244.803 155.261Z" fill="#102441"/>
<path d="M249.277 183.066C247.787 184.664 247.415 189.95 246.576 192.796C245.447 196.626 245.23 199.525 245.447 204.768C245.668 210.097 246.734 216.995 247.254 220.71C248.32 228.34 246.102 231.176 249.708 231.599C253.314 232.025 252.712 230.747 254.114 226.914C255.515 223.08 260.625 203.065 261.625 199.017C262.626 194.972 263.228 190.498 263.428 186.879C263.629 183.26 253.258 178.796 249.277 183.066Z" fill="#273150"/>
<path d="M249.783 182.594C247.503 184.136 247.207 189.924 247.878 196.128C248.411 201.051 260.628 203.069 261.628 199.024C262.628 194.979 263.23 190.505 263.431 186.886C263.632 183.268 254.11 179.088 249.783 182.594Z" fill="#102441"/>
<path d="M245.752 196.455C244.538 200.417 245.144 207.166 246.855 219.71C247.894 227.344 246.354 232.735 249.961 233.161C253.567 233.587 254.189 233.706 254.916 229.691C255.653 225.62 260.624 203.072 261.625 199.027C261.625 199.027 257.117 196.26 252.912 196.046C248.707 195.831 245.752 196.455 245.752 196.455Z" fill="#F6874E"/>
<path d="M247.878 196.128C247.901 200.655 249.701 214.74 249.908 222.272C250.122 230.054 248.056 232.049 251.662 232.474C255.268 232.9 254.209 233.709 254.92 229.691C255.689 225.326 260.628 203.072 261.628 199.027C261.628 199.027 257.308 196.399 252.916 196.046C251.142 195.9 247.878 196.128 247.878 196.128Z" fill="#CE6D3E"/>
<path d="M247.481 228.872C247.481 228.872 247.067 231.408 245.928 234.073C244.951 236.357 250.038 237.404 251.89 239.105C251.89 239.105 265.338 246.164 269.842 243.929C274.846 241.446 260.968 234.386 264.936 236.552C264.936 236.552 256.523 232.398 255.322 229.206C254.118 226.016 247.481 228.872 247.481 228.872Z" fill="#F6874E"/>
<path d="M249.635 228.456C249.46 232.243 247.805 233.099 247.203 235.337C246.042 239.653 254.573 242.304 254.014 241.971C254.014 241.971 265.181 245.864 269.689 243.628C274.785 241.099 260.871 234.436 264.931 236.556C264.931 236.556 256.518 232.402 255.317 229.209C254.116 226.016 249.792 225.039 249.635 228.456Z" fill="#CE6D3E"/>
<path d="M246.252 232.204C246.466 231.778 246.858 231.408 246.923 231.834C246.993 232.26 247.641 233.891 248.529 234.393C249.414 234.895 259.522 240.422 263.065 239.415C265.227 238.801 263.664 236.843 262.118 235.406C261.131 234.488 260.147 233.785 260.147 233.785C260.147 233.785 264.681 236.347 266.764 237.553C268.846 238.758 273.226 242.878 273.64 244.486C274.058 246.094 258.245 246.296 255.978 245.239C253.711 244.183 250.352 241.168 249.102 239.963C247.95 238.853 246.611 239.349 246.183 238.857C245.216 237.751 245.604 233.481 246.252 232.204Z" fill="#992C29"/>
<path d="M241.648 105.232C241.648 105.232 245.649 104.327 247.058 106.137C248.676 108.22 253.003 113.573 253.217 117.832C253.388 121.226 252.806 123.94 251.101 128.662C249.703 132.541 247.818 138.498 245.442 139.581C238.204 142.879 232.021 142.341 227.977 139.908C226.474 139.003 224.878 136.708 225 130.702C225.052 128.114 224.973 127.245 224.371 118.05C223.565 105.688 228.428 105.176 233.377 104.899C238.322 104.618 241.648 105.232 241.648 105.232Z" fill="#F6BE4A"/>
<path d="M241.119 110.05L240.329 110.007C238.914 109.931 237.828 108.716 237.907 107.296L238.467 96.882C238.542 95.4622 239.753 94.3726 241.168 94.4518L241.958 94.4947C243.372 94.5707 244.458 95.7857 244.379 97.2055L243.82 107.619C243.741 109.039 242.533 110.126 241.119 110.05Z" fill="#F6874E"/>
<path d="M241.321 105.83L240.532 105.787C239.117 105.711 238.031 104.496 238.11 103.076L238.669 92.6623C238.745 91.2425 239.956 90.1528 241.371 90.2321L242.16 90.275C243.575 90.351 244.661 91.566 244.582 92.9858L244.022 103.4C243.944 104.816 242.736 105.906 241.321 105.83Z" fill="#CE6D3E"/>
<path d="M217.789 238.015C217.361 238.154 216.453 238.877 216.292 239.299C215.584 241.152 214.989 242.902 215.163 244.001C215.232 244.43 215.643 245.527 216.068 247.607C216.538 249.898 216.222 254.025 217.493 255.762C218.759 257.499 229.578 261.27 231.98 260.817C234.385 260.365 233.023 253.263 232.838 251.866C232.644 250.393 227.376 243.796 225.185 238.89C225.185 238.89 225.205 239.372 225.554 240.6C226.376 243.473 227.979 249.495 225.738 249.717C222.53 250.03 217.927 245.655 217.736 243.466C217.548 241.304 217.196 239.577 217.259 239.131C217.321 238.679 217.789 238.015 217.789 238.015Z" fill="#992C29"/>
<path d="M251.609 164.104L257.732 169.515C258.374 170.024 259.269 169.624 259.14 168.878C258.699 166.319 257.396 161.997 251.609 164.104Z" fill="#EC5E4D"/>
<path d="M225.171 132.77C224.171 134.678 216.458 158.801 223.868 174.881C223.868 174.881 230.396 167.769 239.72 165.844C258.291 162.014 256.688 167.274 257.166 168.664C257.481 169.588 258.482 170.067 259.403 169.75C259.64 169.667 259.906 169.568 260.202 169.45C264.374 167.779 271.63 165.243 278.381 167.64C278.381 167.64 265.283 145.775 247.765 134.87C230.998 124.442 226.171 130.861 225.171 132.77Z" fill="#F6BE4A"/>
<path opacity="0.5" d="M258.464 167.241C258.464 167.241 256.73 154.7 252.39 150.87C252.39 150.87 254.124 153.832 254.124 156.094L252.042 154.7C252.042 154.7 254.2 157.897 255.687 161.146C256.99 163.992 257.572 166.914 258.464 167.241Z" fill="#F6BE4A"/>
<path d="M253.503 85.7052C256.047 97.9847 251.059 102.171 242.425 101.901C235.937 101.696 230.623 97.5752 230.198 89.4263C229.771 81.2774 233.189 74.5912 239.595 73.5148C248.051 72.095 251.848 77.728 253.503 85.7052Z" fill="#CE6D3E"/>
<path d="M250.528 88.4991C250.656 89.1033 250.758 89.6811 250.84 90.2325C252.038 98.4508 248.149 101.297 241.717 101.102C236.557 100.944 232.329 97.7376 231.99 91.3948C231.652 85.052 236.975 80.7959 242.072 79.9605C248.801 78.8544 249.212 82.2883 250.528 88.4991Z" fill="#F6874E"/>
<path d="M231.148 95.3362C233.133 95.0295 234.422 92.7156 234.027 90.1678C233.632 87.62 231.703 85.8032 229.719 86.1098C227.734 86.4165 226.445 88.7304 226.84 91.2782C227.235 93.826 229.164 95.6428 231.148 95.3362Z" fill="#F6874E"/>
<path d="M230.192 86.0522L232.275 88.347C232.275 88.347 232.285 78.7486 239.78 76.1038C246.453 73.7463 249.506 76.3878 249.506 76.3878C249.506 76.3878 245.903 70.4148 236.832 74.3274C229.245 77.5995 230.192 86.0522 230.192 86.0522Z" fill="#F6BE4A"/>
<path d="M236.395 87.3824C236.978 87.3824 237.451 86.4954 237.451 85.4013C237.451 84.3071 236.978 83.4202 236.395 83.4202C235.811 83.4202 235.338 84.3071 235.338 85.4013C235.338 86.4954 235.811 87.3824 236.395 87.3824Z" fill="#273150"/>
<path d="M247.248 86.534C247.831 86.534 248.304 85.647 248.304 84.5529C248.304 83.4587 247.831 82.5718 247.248 82.5718C246.665 82.5718 246.192 83.4587 246.192 84.5529C246.192 85.647 246.665 86.534 247.248 86.534Z" fill="#273150"/>
<path d="M246.004 82.1495L247.979 81.0632" stroke="#273150" stroke-miterlimit="10" stroke-linecap="round" stroke-linejoin="round"/>
<path d="M238.075 82.7139L235.456 82.0073" stroke="#273150" stroke-miterlimit="10" stroke-linecap="round" stroke-linejoin="round"/>
<path d="M248.514 74.7031C248.514 74.7031 250.415 77.0243 252.367 78.0182C253.841 78.771 255.025 78.9097 255.025 78.9097L254.729 78.3153L255.463 77.7474C255.463 77.7474 252.705 77.4569 249.086 74.3564L248.514 74.7031Z" fill="#EE5D4F"/>
<path d="M248.324 74.4332C248.324 74.4332 249.321 77.2662 250.814 78.8709C251.943 80.0826 253.009 80.6208 253.009 80.6208L252.933 79.9638L253.818 79.6831C253.818 79.6831 251.328 78.4647 248.985 74.3044L248.324 74.4332Z" fill="#EE5D4F"/>
<path d="M249.529 75.9285C250.233 75.803 250.901 72.0356 249.226 71.9564C247.65 71.8804 245.863 72.0852 246.159 73.2771C246.459 74.4691 248.828 76.054 249.529 75.9285Z" fill="#EE5D4F"/>
<path d="M250.137 73.7859C250.137 73.7859 249.877 72.1713 249.377 72.2076C248.877 72.244 249.324 72.934 249.452 73.9972C249.584 75.0604 250.226 74.4694 250.137 73.7859Z" fill="#F7BC4B"/>
<path d="M248.945 75.1495C248.945 75.1495 248.839 74.4066 249.919 73.6868C250.998 72.967 251.82 72.5741 252.505 73.0033C253.189 73.4326 253.429 75.3113 253.038 76.2589C252.646 77.2065 250.244 76.4867 249.639 76.1301C249.034 75.7702 248.945 75.1495 248.945 75.1495Z" fill="#EE5D4F"/>
<path d="M252.872 74.5188C252.872 74.5188 253.099 76.0277 252.428 76.2721C251.431 76.6386 252.06 73.7825 252.119 73.3334C252.175 72.8811 253.053 73.4391 252.872 74.5188Z" fill="#F7BC4B"/>
<path d="M226.773 125.093C226.773 125.093 230.695 133.869 232.485 135.794C234.288 137.736 236.674 139.892 239.02 138.981C241.359 138.073 242.392 132.225 240.744 129.161C239.115 126.137 236.128 117.413 235.121 116.036C234.121 114.666 230.393 115.637 228.577 116.743C226.747 117.852 225.457 121.814 226.773 125.093Z" fill="#F6874E"/>
<path d="M236.35 118.429C236.35 118.429 232.981 104.829 228.473 105.43C224.17 106.004 223.377 109.689 223.92 114.738C224.472 119.895 226.838 125.35 226.838 125.35C226.838 125.35 227.736 120.403 236.35 118.429Z" fill="#EC5E4D"/>
<path d="M234.985 114.012C234.985 114.012 232.985 104.83 228.477 105.431C224.173 106.005 223.38 109.69 223.923 114.738C224.476 119.896 225.325 120.896 225.325 120.896C225.325 120.896 225.772 117.641 226.371 115.683C226.888 114.002 230.178 113.22 230.178 113.22L234.985 114.012Z" fill="#C93F37"/>
<path d="M261.923 122.016C261.923 122.016 255.112 123.422 251.312 124.68C247.962 125.79 242.224 127.665 238.947 129.99C235.64 132.337 235.259 135.692 236.137 137.884C237.026 140.097 241.293 138.779 244.817 137.571C248.324 136.365 261.663 129.963 264.927 127.847C268.164 125.743 267.329 119.959 261.923 122.016Z" fill="#CE6D3E"/>
<path d="M247.65 125.935C244.044 126.939 242.224 127.665 238.947 129.99C235.64 132.337 235.259 135.692 236.137 137.884C237.026 140.097 241.293 138.779 244.817 137.571C248.328 136.365 250.825 125.05 247.65 125.935Z" fill="#F6874E"/>
<path d="M264.24 126.288C265.231 127.649 267.745 127.44 268.59 126.721C269.617 125.852 270.229 125.113 270.88 125.116C271.288 125.116 272.792 125.4 273.614 125.773C273.66 125.862 273.463 126.212 273.499 126.311C273.549 126.45 273.591 126.532 273.739 126.542C274.674 126.608 275.444 125.991 275.394 125.01L275.299 123.706L276.256 122.544L276.441 118.902L273.266 115.475C273.108 115.306 272.884 115.217 272.654 115.234L268.337 115.554C268.077 115.574 267.84 115.716 267.702 115.934L263.783 122.088C263.78 122.092 263.25 124.928 264.24 126.288Z" fill="#CE6D3E"/>
<path d="M273.456 123.96C273.756 124.287 274.226 124.786 274.631 125.103C275.068 125.446 275.427 125.568 275.397 125.01L275.302 123.706L276.496 122.752C276.496 122.752 276.773 119.926 276.681 119.11C276.434 116.944 273.236 115.336 273.236 115.336C272.953 115.194 272.884 115.22 272.653 115.237C272.653 115.237 271.636 116.924 271.574 117.433C271.511 117.941 272.449 120.177 272.449 120.177C272.449 120.177 271.426 121.481 271.37 121.87C271.235 122.785 272.416 122.828 273.456 123.96Z" fill="#F6874E"/>
<path d="M225.442 118.195C225.442 118.195 225.741 116.161 227.245 115.557C227.245 115.557 225.577 120.434 225.32 120.896C225.063 121.358 225.067 119.328 225.442 118.195Z" fill="#C93F37"/>
<path d="M224.466 108.145C223.663 110.456 220.659 118.294 217.655 135.583C214.651 152.871 219.458 175.181 222.262 177.595C225.065 180.009 234.88 162.116 255.915 173.273C255.915 173.273 241.487 152.511 233.38 146.839C223.463 139.905 224.265 123.118 225.466 114.174C226.671 105.232 224.466 108.145 224.466 108.145Z" fill="#1FABE2"/>
<path d="M217.655 135.586C214.651 152.874 219.458 175.184 222.262 177.598C225.065 180.012 234.88 162.119 255.915 173.276C255.915 173.276 248.284 162.604 243.553 157.084C243.553 157.084 237.459 166.088 235.897 165.761C234.969 165.566 227.388 166.223 222.88 160.798C218.373 155.373 217.655 135.586 217.655 135.586Z" fill="#1689CB"/>
<path d="M222.622 155.961C222.622 155.961 222.872 157.909 225.096 161.185C227.784 165.144 235.902 166.801 235.902 166.801L239.156 164.645C239.156 164.645 234.688 164.275 230.867 162.36C227.047 160.445 222.767 157.176 222.622 155.961Z" fill="#1689CB"/>
<path d="M237.287 104.404C235.777 104.054 227.222 103.347 224.817 107.57C222.411 111.79 224.366 119.605 224.366 119.605C224.366 119.605 224.813 113.163 228.048 111.113C229.92 109.924 240.956 113.807 242.545 114.052C245.473 114.504 241.795 110.284 241.795 110.284C241.795 110.284 239.241 104.856 237.287 104.404Z" fill="#1FABE2"/>
<path d="M244.271 104.982C243.231 105.249 240.326 115.138 243.191 113.375C243.945 112.909 248.094 111.641 252.832 112.094C255.987 112.394 258.471 114.181 258.692 113.827C259.445 112.619 248.696 103.836 244.271 104.982Z" fill="#1689CB"/>
<path d="M243.069 112.519C243.36 112.519 243.595 112.283 243.595 111.991C243.595 111.699 243.36 111.463 243.069 111.463C242.778 111.463 242.542 111.699 242.542 111.991C242.542 112.283 242.778 112.519 243.069 112.519Z" fill="#273150"/>
<path d="M159.814 152.541C159.814 152.541 160.17 145.927 156.708 145.544C153.247 145.161 145.87 152.828 144.202 153.644C142.534 154.463 141.218 157.098 140.366 157.913C139.513 158.729 137.223 159.353 135.953 160.376C134.68 161.403 130.222 164.49 133.42 167.937C136.625 171.391 137.835 172.405 142.251 170.523C146.653 168.644 160.966 155.955 159.814 152.541Z" fill="#1D2436"/>
<path d="M152.957 188.768C152.957 188.768 141.274 184.931 127.876 183.231C121.835 182.465 121.529 191.581 125.523 198.61C127.718 202.477 139.421 205.26 150.246 210.622C159.196 215.054 167.359 222.578 171.073 222.423C179.269 222.076 174.061 193.301 152.957 188.768Z" fill="#48598B"/>
<path d="M142.235 192.822C140.451 192.667 143.669 196.154 144.508 197.683C146.95 202.13 148.947 207.208 151.095 210.431C152.994 213.277 151.661 209.464 150.118 204.62C149.417 202.421 148.891 200.314 148.381 198.875C148.095 198.062 142.235 192.822 142.235 192.822Z" fill="#273150"/>
<path d="M142.608 246.134C142.608 246.134 135.754 251.922 133.356 255.045C130.947 258.179 137.38 261.58 143.088 260.794C148.784 260.011 154.183 257.925 156.111 254.814C158.033 251.714 158.046 251.681 161.057 248.353C164.057 245.038 159.928 238.002 158.227 236.522C156.523 235.046 143.549 241.118 142.608 246.134Z" fill="#EC6141"/>
<path d="M142.788 244.625C142.788 244.625 135.934 250.413 133.535 253.536C131.127 256.67 137.974 258.763 143.683 257.977C149.378 257.195 153.267 256.211 155.195 253.101C157.117 250 158.518 249.544 161.529 246.216C164.53 242.901 160.108 236.496 158.406 235.016C156.702 233.537 143.729 239.609 142.788 244.625Z" fill="#13161F"/>
<path d="M138.808 235.37C138.808 235.37 140.894 238.579 140.49 239.887C140.085 241.198 138.851 244.833 143.741 246.481C147.906 247.884 157.997 241.861 161.179 239.751C161.745 239.375 162.12 238.768 162.182 238.124C162.354 236.331 162.449 232.639 160.728 230.454C158.392 227.492 158.698 228.344 155.003 218.58C151.338 208.886 139.634 188.719 138.901 186.648C138.167 184.581 128.648 182.613 126.73 182.841C124.808 183.069 117.363 192.942 117.56 195.662C117.757 198.39 121.976 207.826 125.601 215.843C129.247 223.906 133.722 227.644 134.791 229.955C136.466 233.577 138.808 235.37 138.808 235.37Z" fill="#48598B"/>
<path d="M158.315 227.548C156.594 224.332 157.424 229.156 156.519 232.573C155.999 234.534 160.039 230.764 158.315 227.548Z" fill="#273150"/>
<path d="M138.674 234.383C138.674 234.383 140.74 239.762 141.895 240.161C143.05 240.564 146.508 240.112 148.854 238.906C151.2 237.698 142.862 239.61 138.674 234.383Z" fill="#273150"/>
<path d="M121.202 199.832C121.202 199.832 122.459 197.673 123.456 195.695C124.453 193.717 124.927 200.417 122.772 202.14C120.616 203.867 121.202 199.832 121.202 199.832Z" fill="#273150"/>
<path d="M147.211 199.757L140.47 196.435L132.148 189.755C132.148 189.755 134.096 189.795 135.623 190.868C136.314 191.353 139.95 194.375 141.93 195.956C144.316 197.868 146.474 198.991 147.211 199.757Z" fill="#273150"/>
<path d="M187.093 154.68C187.093 154.68 152.568 147.05 159.148 142.018C165.686 137.015 183.927 128.011 190.597 137.695C197.312 147.449 191.14 158.147 187.093 154.68Z" fill="#1D2436"/>
<path d="M200.367 224.771C200.367 224.771 200.907 223.494 202.509 222.381C204.108 221.271 209.067 221.734 209.952 223.705C210.837 225.683 210.827 239.24 210.827 240.158C210.827 241.079 209.047 244.899 207.432 247.144C205.813 249.396 202.763 249.829 200.074 248.772C197.386 247.716 199.206 243.063 199.933 240.841C200.66 238.629 199.11 227.152 200.367 224.771Z" fill="#EC6141"/>
<path d="M199.318 223.718C199.318 223.718 199.413 222.932 201.015 221.819C202.614 220.71 207.573 221.172 208.458 223.143C209.343 225.121 209.777 238.186 209.777 239.104C209.777 240.026 207.997 243.846 206.382 246.091C204.763 248.343 201.713 248.775 199.025 247.719C196.337 246.662 198.156 242.01 198.883 239.788C199.61 237.572 198.061 226.099 199.318 223.718Z" fill="#13161F"/>
<path d="M191.039 228.82C191.039 228.82 197.04 223.672 199.857 223.547C205.871 223.276 204.48 229.345 204.467 233.528C204.457 237.725 201.212 240.815 200.008 241.617C198.804 242.42 200.903 242.01 197.406 246.795C193.888 251.602 187.643 257.364 183.484 257.952C180.316 258.401 169.688 252.797 175.371 241.367C177.147 237.797 187.847 231.841 191.039 228.82Z" fill="#273150"/>
<path d="M171.618 203.375C171.618 203.375 170.506 230.787 170.963 241.145C171.424 251.595 170.95 256.518 173.47 259.104C175.994 261.696 180.574 262.178 183.785 261.114C186.99 260.051 185.838 258.711 188.391 257.998C190.941 257.288 192.771 249.518 193.422 246.894C194.074 244.275 195.814 218.828 196.492 209.629C197.166 200.506 195.337 195.844 187.898 195.936C180.445 196.035 172.957 198.02 171.618 203.375Z" fill="#273150"/>
<path d="M170.94 207.807C170.94 207.807 170.565 233.29 170.924 242.809C171.289 252.414 170.914 256.934 172.898 259.315C174.885 261.696 178.498 262.141 181.028 261.161C183.555 260.183 189.833 250.615 190.346 248.204C190.859 245.797 192.689 229.394 191.044 213.852C190.159 205.499 190.132 201.183 184.269 201.269C178.396 201.352 171.996 202.884 170.94 207.807Z" fill="#47588A"/>
<path d="M150.934 194.583C152.757 196.97 154.738 198.707 157.143 200.612C157.706 201.058 176.773 209.055 176.773 209.055C176.773 209.055 166.073 204.974 167.56 206.04C173.913 210.593 175.572 213.677 182.985 215.487C184.715 215.909 188.315 212.498 189.345 213.628C192.651 217.246 191.477 224.098 191.75 220.713C192.724 208.632 196.919 203.121 187.844 198.4C178.286 193.427 145.847 187.913 150.934 194.583Z" fill="#273150"/>
<path d="M155.04 188.537C155.32 186.034 154.718 176.353 154.813 164.094C154.909 151.966 154.823 147.152 161.825 144.319C168.793 141.499 177.526 140.664 184.146 145.002C187.216 147.013 188.561 191.05 189.147 194.985C189.733 198.934 182.816 205.409 176.565 205.812C170.304 206.218 154.241 195.735 155.04 188.537Z" fill="#F6BE4A"/>
<path opacity="0.5" d="M170.569 191.367C170.569 191.367 169.576 193.229 169.987 195.019C166.338 193.427 162.749 191.628 161.755 190.363C161.755 190.363 164.96 195.791 169.767 197.601C174.574 199.41 178.979 198.604 178.979 198.604C178.979 198.604 172.116 193.866 170.569 191.367Z" fill="#F6BE4A"/>
<path d="M150.879 192.328C150.879 192.456 150.925 192.578 151.014 192.671C151.731 193.424 153.903 196.679 157.242 197.815C158.137 198.119 159.677 197.462 159.684 197.079L159.7 196.296C159.703 196.108 157.835 196.29 157.67 196.204C156.683 195.682 152.514 192.403 150.777 190.343C150.478 189.986 150.882 191.852 150.879 192.328Z" fill="#F4E8D8"/>
<path d="M164.705 143.011C165.551 142.539 154.397 147.957 159.405 170.37C160.737 176.33 159.415 186.734 159.849 188.752C160.286 190.769 161.632 195.273 159.651 196.293C155.983 198.182 152.508 192.377 151.228 191.076C149.241 189.062 153.328 188.118 153.16 180.692C152.982 172.843 150.36 161.891 150.873 157.434C152.048 147.261 155.391 146.475 156.703 145.544C158.135 144.53 163.682 143.586 164.705 143.011Z" fill="#972B28"/>
<path d="M164.704 143.012C165.023 141.823 158.228 145.372 157.297 146.218C156.389 147.043 155.428 148.182 154.557 149.76C151.763 154.806 158.847 167.726 158.847 167.726C158.847 167.726 158.824 155.367 159.094 152.547C159.36 149.734 164.088 145.31 164.704 143.012Z" fill="#F4E8D8"/>
<path d="M164.931 142.037C164.931 142.037 164.592 142.82 164.628 143.778C164.763 147.627 165.566 158.269 166.997 158.401C168.451 158.533 169.123 158.183 170.946 152.217C171.334 150.946 175.197 141.374 173.982 140.548" stroke="#913636" stroke-miterlimit="10"/>
<path d="M167.266 161.69C167.691 161.69 168.035 160.897 168.035 159.92C168.035 158.943 167.691 158.15 167.266 158.15C166.84 158.15 166.496 158.943 166.496 159.92C166.496 160.897 166.84 161.69 167.266 161.69Z" fill="#29ACE4"/>
<path d="M164.67 138.438L164.894 144.448C164.986 146.947 167.272 148.793 169.895 148.483L170.25 148.44C172.767 148.142 174.61 145.963 174.37 143.579L173.767 137.623C173.484 134.813 170.467 133.093 167.667 134.136C165.812 134.83 164.601 136.566 164.67 138.438Z" fill="#CE6D3E"/>
<path d="M177.369 199.275L177.392 199.776C177.405 200.064 177.514 200.331 177.698 200.529C179.018 201.956 184.641 207.876 188.355 209.276C191.215 210.352 195.051 210.554 197.239 210.57C198.279 210.577 199.233 209.9 199.674 208.84C199.963 208.147 199.598 207.344 198.933 207.209C195.604 206.525 186.582 204.224 179.051 198.231C178.337 197.66 177.323 198.287 177.369 199.275Z" fill="#F4E8D8"/>
<path d="M175.093 141.077C174.066 141.876 169.661 149.876 173.349 160.914C177.067 172.051 173.665 192.06 176.077 197.026C176.764 198.439 186.619 207.433 190.36 207.592C192.824 207.694 196.374 208.094 198.839 208.417C199.997 208.569 201.78 206.314 201.82 205.132C201.942 201.394 201.82 193.49 199.313 185.562C195.891 174.736 195.628 143.718 186.948 139.607C180.321 136.467 176.12 140.278 175.093 141.077Z" fill="#972B28"/>
<path d="M186.744 187.556C186.744 187.556 193.716 191.819 195.565 192.42L194.519 194.923C194.519 194.923 186.711 190.66 185.49 189.019L186.744 187.556Z" fill="#F4E8D8"/>
<path d="M174.897 140.481C176.95 138.688 183.629 137.77 185.63 139.048C186.762 139.768 181.412 137.5 178.697 143.641C175.335 151.242 174.124 163.336 174.124 163.336C174.124 163.336 172.298 162.339 171.646 152.668C171.212 146.213 172.841 142.277 174.897 140.481Z" fill="#F4E8D8"/>
<path d="M192.05 183.175C192.05 183.175 192.876 180.761 192.501 179.632C192.126 178.503 191.149 182.346 190.024 183.928C189.481 184.687 191.702 183.432 192.05 183.175Z" fill="#972B28"/>
<path d="M153.042 183.726L152.766 185.06L154.542 184.03L154.868 182.445L153.042 183.726Z" fill="#F4E8D8"/>
<path d="M173.523 210.412C173.523 210.412 176.527 212.172 178.531 213.78C180.535 215.388 184.342 216.646 184.342 216.646C184.342 216.646 179.531 217.448 173.523 210.412Z" fill="#273150"/>
<path d="M150.444 168.251C151.99 172.854 146.959 178.388 142.225 178.434C139.388 178.463 137.256 177.153 135.358 174.531C134.641 173.54 135.078 172.391 134.558 171.308C134.157 170.47 132.752 169.7 132.486 168.895C130.972 164.295 133.591 160.974 138.28 160.515C141.659 160.185 142.356 162.433 144.212 163.275C144.88 163.579 146.894 163.638 147.519 164.028C149.776 165.451 149.687 166.002 150.444 168.251Z" fill="#C93F37"/>
<path d="M149.521 171.2C149.754 173.587 148.254 175.964 146.161 176.509C144.065 177.051 142.183 175.545 141.956 173.151C141.729 170.761 142.753 167.281 144.839 166.746C146.921 166.207 149.287 168.816 149.521 171.2Z" fill="#F4E8D8"/>
<path d="M148.443 171.441C148.614 173.237 147.521 175.03 146.001 175.436C144.481 175.845 143.112 174.71 142.948 172.907C142.783 171.107 143.833 167.544 146.136 168.149C147.653 168.545 148.272 169.648 148.443 171.441Z" fill="#CE6D3E"/>
<path d="M145.563 168.551C144.71 169.225 144.026 170.625 143.786 172.771C143.546 174.917 148.185 177.238 148.185 177.238C148.185 177.238 151.077 178.311 153.005 173.659C153.772 171.807 149.817 168.376 149.847 167.194C149.955 162.905 146.961 167.445 145.563 168.551Z" fill="#F6874E"/>
<path d="M149.241 167.947C149.241 167.947 147.738 168.122 148.04 169.255C148.34 170.384 150.705 172.395 153.186 171.794C155.667 171.193 149.241 167.947 149.241 167.947Z" fill="#CE6D3E"/>
<path d="M134.671 169.757C134.47 168.449 134.605 167.198 134.572 166.944C134.474 166.191 133.372 169.859 133.372 169.859C134.721 171.817 134.773 170.434 134.671 169.757Z" fill="#972B28"/>
<path d="M143.534 163.424C143.534 163.424 140.679 160.862 139.78 164.933C139.777 164.933 141.432 163.877 143.534 163.424Z" fill="#972B28"/>
<path d="M186.976 167.604C184.927 164.276 182.841 160.046 180.692 156.734C178.547 153.433 179.781 142.943 184.45 141.137C189.105 139.337 189.974 141.559 194.271 147.8C198.584 154.067 205.237 170.506 203.181 176.172C202.085 179.187 192.442 180.722 186.976 167.604Z" fill="#1D2436"/>
<path d="M201.854 170.688C199.56 167.376 196.635 165.085 190.654 166.29C187.673 166.891 187.294 169.734 187.294 169.734C187.294 169.734 183.895 169.424 182.346 170.81C180.793 172.2 175.531 170.81 175.699 177.744C175.867 184.678 177.562 187.864 182.181 188.749C186.797 189.634 194.01 183.578 194.01 183.578C194.01 183.578 196.553 184.074 199.932 180.851C203.341 177.602 205.496 175.948 201.854 170.688Z" fill="#C93F37"/>
<path d="M188.064 168.799C188.064 168.799 190.786 166.395 193.461 168.766C193.753 169.027 190.16 168.304 188.064 168.799Z" fill="#972B28"/>
<path d="M175.855 180.676C175.503 186.946 182.988 186.322 182.988 186.322C182.988 186.322 181.554 186.986 182.445 187.23C183.498 187.518 185.341 187.831 186.466 187.042C190.487 184.219 192.727 177.289 187.808 174.449C186.907 173.931 186.64 177.847 186.509 176.717C186.367 175.519 185.097 173.663 182.85 172.485C181.596 171.824 176.289 172.904 175.855 180.676Z" fill="#972B28"/>
<path d="M194.937 172.771C194.937 172.771 193.647 171.414 191.986 170.81C190.324 170.206 187.416 169.529 187.416 169.529C187.873 169.39 195.118 168.941 194.937 172.771Z" fill="#972B28"/>
<path d="M179.217 173.01C178.082 173.079 174.476 173.442 174.2 179.858C173.979 185.035 178.576 186.24 178.576 186.24C178.576 186.24 181.922 186.531 183.445 185.23C185.498 183.476 185.666 179.306 184.393 175.737C183.738 173.908 180.352 172.94 179.217 173.01Z" fill="#F4E8D8"/>
<path d="M176.937 174.201C175.805 174.25 172.514 173.633 172.343 179.722C172.205 184.631 176.805 185.84 176.805 185.84C176.805 185.84 180.141 186.16 181.638 184.945C183.655 183.307 183.754 179.352 182.428 175.948C181.747 174.198 178.068 174.151 176.937 174.201Z" fill="#CE6D3E"/>
<path d="M154.474 152.376C154.474 152.376 155.78 150.596 159.508 150.712C164.717 150.874 170.31 152.442 171.975 154.803C173.209 156.55 173.278 158.323 173.278 158.323C173.278 158.323 174.933 158.484 175.752 159.7C176.269 160.466 176.038 170.097 176.038 170.097C175.949 171.797 175.104 172.966 173.38 172.943L171.919 172.923L154.119 170.589C154.125 170.589 152.773 154.463 154.474 152.376Z" fill="#634874"/>
<path d="M148.337 165.837C148.538 170.46 152.489 171.269 153.628 171.46C156.704 171.975 173.271 173.428 173.271 173.428C173.271 173.428 176.16 172.319 174.511 172.203C174.116 172.177 165.94 170.344 163.262 169.856C158.698 169.023 157.152 166.035 157.152 166.035C157.152 166.035 148.245 163.727 148.337 165.837Z" fill="#7E6391"/>
<path d="M172.672 187.283L174.035 173.702C173.956 173.002 173.406 172.708 171.241 172.329C171.241 172.329 170.195 172.233 169.376 172.15C168.977 172.111 168.017 172.306 167.977 173.507L167.296 188.887C167.237 189.449 169.247 189.056 169.247 189.056C172.218 188.686 172.61 188.551 172.672 187.283Z" fill="#634874"/>
<path d="M157.063 168.023C154.197 169.304 152.332 169.687 149.703 168.413C147.748 167.578 147.209 163.302 147.258 161.961L147.294 157.352C147.399 154.347 149.953 151.914 152.996 151.914C157.376 151.911 159.662 155.334 159.544 159.666L159.389 162.262C159.353 163.599 158.379 167.436 157.063 168.023Z" fill="#634874"/>
<path d="M168.645 188.788L169.02 173.032C169.086 171.741 169.168 171.526 167.112 171.355L165.256 171.342C163.726 171.424 162.969 172.203 162.923 173.471L163.562 186.064C163.532 188.306 163.242 188.93 164.818 189.056C167.444 189.264 168.615 189.558 168.645 188.788Z" fill="#7E6391"/>
<path d="M161.908 173.396C162.099 175.35 162.507 177.467 165.214 178.14C165.33 178.17 167.455 178.035 167.455 178.035L166.564 172.854C166.58 171.834 166.037 171.292 165.392 171.22L163.105 171.061C162.266 170.966 161.783 172.098 161.908 173.396Z" fill="#7E6391"/>
<path d="M164.184 173.435C164.345 175.294 164.813 177.384 167.152 178.028C167.251 178.054 167.356 178.054 167.458 178.034C168.85 178.15 171.074 177.272 171.091 176.298L171.314 172.332C171.248 172.167 165.395 171.398 165.395 171.398C164.671 171.309 164.076 172.203 164.184 173.435Z" fill="#634874"/>
<path d="M156.014 159.138C155.859 160.756 154.395 161.984 152.743 161.882C151.092 161.78 149.881 160.383 150.039 158.762C150.197 157.144 151.664 155.922 153.313 156.025C154.958 156.13 156.169 157.524 156.014 159.138Z" fill="#1D2436"/>
<path d="M155.111 158.283C154.897 160.531 152.864 162.242 150.567 162.1C148.267 161.958 146.586 160.013 146.807 157.761C147.027 155.516 149.064 153.816 151.354 153.961C153.644 154.106 155.325 156.041 155.111 158.283Z" fill="#F6BE4A"/>
<path d="M153.364 157.949C153.229 159.366 151.946 160.439 150.501 160.35C149.057 160.261 147.994 159.036 148.136 157.619C148.274 156.206 149.557 155.133 150.998 155.225C152.439 155.318 153.499 156.536 153.364 157.949Z" fill="#1D2436"/>
<path d="M160.089 152.389C162.188 153.845 162.712 155.998 162.165 159.789C162.119 160.099 162.369 160.376 162.738 160.432L170.417 161.704C170.881 161.776 172.069 162.11 172.118 161.714C172.322 160.112 172.586 155.539 169.249 153.832C167.673 153.026 163.866 151.924 160.76 151.342C159.997 151.201 159.5 151.98 160.089 152.389Z" fill="#BB83C3"/>
<path d="M160.809 151.045C160.809 151.045 166.366 153.317 164.06 161.02" stroke="#634874" stroke-width="2" stroke-miterlimit="10" stroke-linecap="round" stroke-linejoin="round"/>
<path d="M164.786 151.924C164.786 151.924 169.389 154.971 167.175 161.384" stroke="#634874" stroke-width="2" stroke-miterlimit="10" stroke-linecap="round" stroke-linejoin="round"/>
<path d="M167.804 152.815C167.804 152.815 171.92 155.84 170.166 161.717" stroke="#634874" stroke-width="2" stroke-miterlimit="10" stroke-linecap="round" stroke-linejoin="round"/>
<path d="M161.984 162.116L172.072 163.876" stroke="#BB83C3" stroke-width="2" stroke-miterlimit="10" stroke-linecap="round" stroke-linejoin="round"/>
<path d="M180.976 176.364C180.976 176.364 180.167 173.161 179.706 172.283C179.479 171.85 179.532 170.989 179.009 169.721C178.443 168.347 178.719 167.238 178.114 166.148C177.601 165.224 175.228 166.908 175.324 168.648C175.376 169.632 175.495 171.553 175.758 172.514C176.054 173.604 171.997 172.742 171.997 172.742C171.566 172.59 168.78 172.788 168.325 172.838L165.45 172.877C164.255 173.264 164.055 174.135 164.094 175.393C164.114 176.067 167.338 175.687 168.704 175.908C169.698 176.067 171.912 175.694 171.945 175.839C171.945 175.839 164.344 177.748 163.926 178.728C163.104 180.673 163.341 183.219 163.643 183.598C164.542 184.724 164.611 184.81 164.611 184.81C164.611 184.81 164.558 186.26 165.611 186.97C167.2 188.043 172.261 188.934 172.261 188.934C172.261 188.934 178.229 186.913 179.226 185.966C180.223 185.021 181.467 184.249 181.595 181.234C181.717 178.23 180.976 176.364 180.976 176.364Z" fill="#F6874E"/>
<path d="M163.92 178.725C163.114 180.676 163.335 183.216 163.637 183.595C164.536 184.721 164.605 184.807 164.605 184.807C164.605 184.807 164.552 186.257 165.605 186.966C167.194 188.04 172.255 188.931 172.255 188.931L170.438 185.467C170.438 185.467 168.826 177.553 168.352 177.282C167.879 177.011 164.217 178.012 163.92 178.725Z" fill="#CE6D3E"/>
<path d="M150.339 148.605L150.129 138.042L145.266 142.45L139.712 134.308L139.139 143.933L131.104 144.029L137.336 148.258L134.362 151.897L142.357 152.263C143.068 152.293 138.54 150.348 138.54 150.348L139.06 148.433L137.326 145.472L140.972 145.297L141.666 141.466L145.009 144.729L148.434 142.513C148.431 142.51 150.343 148.681 150.339 148.605Z" fill="#1FABE2"/>
<path d="M145.172 174.406L148.847 177.81C148.909 177.866 148.985 177.902 149.07 177.912C149.873 178.001 154.855 177.932 156.49 177.671C157.204 177.559 158.938 175.779 160.79 173.96C161.369 173.389 161.784 173.055 162.373 172.339C162.699 171.943 162.781 171.424 162.337 171.17C162.337 171.17 161.61 170.764 161.208 171.064C161.034 171.196 161.021 171.147 161.063 171.048C161.152 170.84 161.063 170.599 160.853 170.513C160.445 170.348 159.82 170.203 159.204 170.513C158.303 170.965 158.402 170.84 158.402 170.84C158.402 170.414 157.925 169.909 157.299 169.886C156.464 169.853 155.799 170.341 155.671 170.444C155.654 170.457 154.522 170.711 153.519 171.19C152.328 171.758 150.564 171.015 149.636 170.662C147.929 170.014 145.283 169.945 145.037 174.092C145.037 174.208 145.086 174.327 145.172 174.406Z" fill="#F6874E"/>
<path d="M180.65 124.224C179.005 133.594 175.892 135.331 175.892 135.331C162.323 140.337 151.018 134.691 149.869 126.505C148.385 118.29 147.392 113.982 161.188 111.304C174.895 108.646 182.097 115.996 180.65 124.224Z" fill="#1D2436"/>
<path d="M179.117 122.409C177.715 130.349 165.946 128.058 165.946 128.058C163.567 127.434 155.374 125.776 153.831 121.368C152.515 117.611 150.791 113.381 162.494 111.11C173.152 109.043 180.351 115.428 179.117 122.409Z" fill="#3D4C6D"/>
<path d="M177.558 126.737C177.558 126.737 178.532 124.172 177.627 121.392C177.627 121.392 181.203 122.22 177.558 126.737Z" fill="#1D2436"/>
<path d="M157.146 114.603C157.146 114.603 149.049 116.763 148.144 118.341C147.239 119.923 151.283 137.485 154.606 141.279C157.936 145.082 172.693 138.809 175.344 134.645C177.516 131.241 176.457 130.079 175.92 125.612C175.364 120.956 171.278 119.011 170.472 117.41C169.106 114.679 157.146 114.603 157.146 114.603Z" fill="#CE6D3E"/>
<path d="M174.262 127.982C174.858 131.03 171.877 137.99 165.744 139.869C159.588 141.758 154.609 141.276 152.066 134.728C149.457 128.009 156.09 118.84 162.193 117.011C168.274 115.191 172.183 121.128 174.262 127.982Z" fill="#F6874E"/>
<path d="M156.498 127.266C156.742 128.335 156.32 128.933 155.764 129.065C155.205 129.197 154.721 128.818 154.481 127.744C154.238 126.675 154.494 125.697 155.054 125.565C155.606 125.436 156.255 126.196 156.498 127.266Z" fill="#34273A"/>
<path d="M164.381 119.447L162.821 121.035" stroke="#34273A" stroke-miterlimit="10" stroke-linecap="round" stroke-linejoin="round"/>
<path d="M156.024 124.277L153.833 124.419" stroke="#34273A" stroke-miterlimit="10" stroke-linecap="round" stroke-linejoin="round"/>
<path d="M163.427 123.468C163.687 122.636 165.089 121.022 166.859 121.517C166.859 121.517 164.487 123.792 163.674 124.555C163.549 124.67 163.378 123.627 163.427 123.468Z" fill="#34273A"/>
<path d="M177.186 123.036C177.242 125.747 175.979 128.124 174.363 128.335C172.748 128.547 171.395 126.513 171.346 123.799C171.297 121.088 172.563 118.73 174.172 118.522C175.781 118.311 177.13 120.332 177.186 123.036Z" fill="#F6874E"/>
<path d="M165.366 111.183C165.366 111.183 152.383 125.298 147.948 127.028C143.499 128.765 145.73 116.65 152.251 112.355C158.736 108.089 165.366 111.183 165.366 111.183Z" fill="#1D2436"/>
<path d="M166.209 110.928C166.209 110.928 166.367 111.916 163.702 113.695C159.089 116.776 150.215 121.524 147.968 122.399C144.408 123.786 147.155 115.894 152.242 112.262C157.661 108.396 166.209 110.928 166.209 110.928Z" fill="#3D4C6D"/>
<path d="M157.322 114.897C157.322 114.897 153.719 120.319 149.958 122.049C149.955 122.052 158.868 118.126 157.322 114.897Z" fill="#1D2436"/>
<path d="M168.668 114.775C168.668 114.775 169.596 121.438 170.929 123.139L173.554 125.506L171.778 116.063L168.668 114.775Z" fill="#3D4C6D"/>
</svg>
