<svg width="955" height="1069" viewBox="0 0 955 1069" fill="none" xmlns="http://www.w3.org/2000/svg">
<path d="M371.621 399.4C371.621 399.4 321.245 346.148 363.752 285.057C406.26 223.965 492.837 166.022 601.458 189.51C710.079 212.998 705.354 355.541 699.057 374.338C699.057 374.338 738.411 333.617 787.215 386.869C836.01 440.121 743.136 565.432 743.136 565.432C743.136 565.432 804.525 532.54 812.403 556.038C820.272 579.536 533.772 780.023 478.681 809.777C478.681 809.777 503.869 762.791 453.493 795.682C403.116 828.574 409.413 848.934 332.277 877.134C255.141 905.334 155.97 957.012 140.233 957.012C124.495 957.012 184.312 891.229 218.941 866.167C253.569 841.105 270.889 833.275 270.889 833.275C270.889 833.275 207.918 765.928 261.448 715.804C314.968 665.68 333.859 695.444 333.859 695.444C333.859 695.444 225.238 549.783 384.235 540.379C384.235 540.379 313.973 532.213 324.418 463.629C332.267 411.921 371.621 399.4 371.621 399.4Z" fill="#CCE5CF"/>
<path d="M96.6738 528.353L147.04 580.566L209.483 511.645L96.6738 528.353Z" fill="#048ABF"/>
<path d="M209.485 511.645L121.725 554.267L121.854 580.566L209.485 511.645Z" fill="#15A5C5"/>
<path d="M152.424 189.183L243.328 231.666L314.953 149.442L152.424 189.183Z" fill="#048ABF"/>
<path d="M314.952 149.442L208.589 238.07L193.289 209.435L314.952 149.442Z" fill="#15A5C5"/>
<path d="M648.684 135.476L767.531 104.93L718.727 163.666L648.684 135.476Z" fill="#048ABF"/>
<path d="M767.529 104.93L681.738 150.353L687.249 180.117L767.529 104.93Z" fill="#15A5C5"/>
<path d="M305.512 853.626L392.616 824.387L348.536 883.905L305.512 853.626Z" fill="#15A5C5"/>
<path d="M392.615 824.387L324.223 866.533L324.591 885.241L392.615 824.387Z" fill="#048ABF"/>
<path d="M545.662 441.556C530.233 443.457 494.311 478.555 469.282 508.012C436.891 546.12 396.791 586.841 379.94 595.423C359.049 606.073 335.741 619.792 325.783 620.307C325.783 620.307 374.438 666.759 394.106 682.299C413.773 697.839 402.094 665.333 427.292 680.577C452.49 695.82 496.35 742.43 496.35 742.43C496.35 742.43 517.41 735.036 547.602 704.451C587.045 664.502 644.196 494.511 633.462 466.004C622.729 437.498 560.206 436.755 545.662 441.556Z" fill="#992C29"/>
<path d="M407.597 683.279C408.85 681.25 428.826 653.238 435.819 645.517C442.812 637.797 389.74 678.815 389.74 678.815C389.74 678.815 395.799 684.645 400.603 686.218C405.11 687.693 406.343 685.308 407.597 683.279Z" fill="#C94039"/>
<path d="M601.73 467.183C601.73 467.183 640.785 462.412 658.045 453.454C675.305 444.496 660.651 376.416 623.267 372.319C580.551 367.627 534.024 396.569 509.065 418.117C484.106 439.666 498.928 464.738 540.381 471.805C582.421 478.981 601.73 467.183 601.73 467.183Z" fill="#1FABE2"/>
<path d="M510.386 443.605C513.45 465.688 585.752 456.878 607.747 453.859C629.742 450.841 645.091 430.49 642.027 408.407C638.963 386.324 618.65 370.873 596.645 373.902C574.64 376.931 507.322 421.522 510.386 443.605Z" fill="#992C29"/>
<path d="M485.757 413.495C485.757 413.495 475.521 411.931 466.08 405.666C456.64 399.4 451.318 381.782 451.915 378.258C452.85 372.685 467.652 358.679 474.745 359.461C481.828 360.243 495.994 382.959 495.994 393.917C495.984 404.874 492.84 412.713 485.757 413.495Z" fill="#FFFCF3"/>
<path d="M471.85 399.796C471.85 399.796 471.85 415.841 481.449 424.67C491.049 433.5 523.032 439.914 539.814 424.67C556.596 409.427 555.81 386.958 555.81 386.958L537.416 394.986C537.416 394.986 488.642 382.95 483.041 382.95C477.44 382.95 471.85 399.796 471.85 399.796Z" fill="#FFFCF3"/>
<path d="M476.707 397.045L485.76 388.433L494.016 408.398L476.707 397.045Z" fill="#F6BE4A"/>
<path d="M469.893 394.202C470.72 393.848 471.048 392.767 470.625 391.788C470.202 390.809 469.188 390.302 468.36 390.656C467.532 391.01 467.204 392.091 467.628 393.07C468.051 394.05 469.065 394.557 469.893 394.202Z" fill="#1D2538"/>
<path d="M484.84 384.012C485.658 383.65 485.951 382.53 485.495 381.511C485.039 380.492 484.006 379.961 483.188 380.323C482.37 380.686 482.077 381.805 482.533 382.824C482.989 383.843 484.022 384.375 484.84 384.012Z" fill="#1D2538"/>
<path d="M508.128 397.698C515.758 426.65 540.151 429.302 567.866 429.936C584.528 430.312 600.554 422.027 609.468 409.051C615.377 400.439 618.152 389.779 615.884 378.208C610.214 349.207 574.481 332.983 546.766 332.36C519.051 331.716 499.931 366.598 508.128 397.698Z" fill="#273252"/>
<path d="M548.938 351.966C550.415 343.384 539.686 334.393 524.974 331.886C510.261 329.379 497.137 334.304 495.659 342.887C494.182 351.47 504.911 360.46 519.624 362.968C534.336 365.475 547.461 360.549 548.938 351.966Z" fill="#273252"/>
<path d="M553.685 340.98C558.456 335.266 553.256 323.137 542.069 313.891C530.883 304.645 517.947 301.781 513.176 307.496C508.405 313.21 513.605 325.339 524.792 334.585C535.978 343.831 548.914 346.695 553.685 340.98Z" fill="#273252"/>
<path d="M611.818 376.814C621.289 368.498 619.892 351.526 608.699 338.906C597.505 326.285 580.754 322.796 571.283 331.112C561.812 339.428 563.209 356.4 574.402 369.021C585.596 381.641 602.348 385.131 611.818 376.814Z" fill="#273252"/>
<path d="M646.698 388.644C648.006 370.646 634.251 354.99 615.976 353.675C597.701 352.361 581.826 365.886 580.518 383.884C579.21 401.883 592.965 417.539 611.24 418.853C629.516 420.168 645.39 406.643 646.698 388.644Z" fill="#273252"/>
<path d="M622.506 355.342C627.821 337.473 613.172 317.404 589.786 310.517C566.4 303.63 543.133 312.534 537.818 330.403C532.502 348.273 547.151 368.342 570.537 375.229C593.923 382.116 617.19 373.212 622.506 355.342Z" fill="#273252"/>
<path d="M510.667 397.193C517.014 420.8 546.291 427.243 568.893 427.629C582.481 427.857 592.111 422.631 599.313 412C604.098 404.943 600.338 390.205 598.448 380.762C593.703 357.105 569.867 340.645 547.266 340.259C524.664 339.873 503.853 371.834 510.667 397.193Z" fill="#48598B"/>
<path d="M548.477 353.554C549.747 346.178 540.526 338.452 527.882 336.297C515.238 334.143 503.959 338.375 502.689 345.751C501.42 353.127 510.641 360.853 523.284 363.008C535.928 365.163 547.208 360.93 548.477 353.554Z" fill="#48598B"/>
<path d="M552.049 341.88C555.3 337.986 551.752 329.718 544.123 323.413C536.495 317.108 527.676 315.153 524.425 319.047C521.174 322.941 524.723 331.208 532.351 337.513C539.979 343.819 548.798 345.773 552.049 341.88Z" fill="#48598B"/>
<path d="M605.154 382.413C613.29 375.268 610.281 358.648 598.433 345.29C586.585 331.932 570.385 326.894 562.249 334.038C554.113 341.182 557.122 357.803 568.97 371.161C580.818 384.519 597.018 389.557 605.154 382.413Z" fill="#48598B"/>
<path d="M632.67 389.953C633.793 374.484 621.973 361.029 606.268 359.899C590.563 358.77 576.92 370.394 575.797 385.862C574.673 401.331 586.493 414.786 602.198 415.915C617.903 417.045 631.546 405.421 632.67 389.953Z" fill="#48598B"/>
<path d="M613.479 357.952C618.048 342.593 605.463 325.346 585.369 319.429C565.276 313.512 545.284 321.166 540.715 336.524C536.147 351.883 548.732 369.131 568.825 375.048C588.918 380.965 608.911 373.311 613.479 357.952Z" fill="#48598B"/>
<path d="M474.426 675.925C474.426 675.925 476.903 688.486 544.31 697.513C571.816 701.195 598.814 699.74 620.411 699.116C638.586 698.592 672.24 692.326 687.639 687.139C702.939 681.992 716.628 670.817 681.392 644.973C646.087 619.09 492.133 630.007 474.426 675.925Z" fill="#EE5D4F"/>
<path d="M651.203 719.826C651.86 731.348 650.268 759.835 634.899 761.379C619.818 762.893 610.308 751.609 604.349 734.584C595.853 710.324 559.494 596.357 597.883 591.17C636.272 585.983 640.579 602.899 646.06 625.022C651.532 647.134 649.99 698.496 651.203 719.826Z" fill="#273252"/>
<path opacity="0.4" d="M650.36 738.867C649.942 741.302 638.86 724.01 638.86 724.01C638.86 724.01 637.637 686.348 631.509 682.448C609.972 666.64 591.26 676.44 591.26 676.44C580.655 638.371 573.652 594.433 597.885 591.157C636.274 585.97 640.581 602.886 646.063 625.009C649.246 637.847 650.062 660.533 650.42 681.488C650.678 696.632 652.479 726.435 650.36 738.867Z" fill="#273252"/>
<path d="M665.995 764.345C684.329 819.052 689.353 864.772 694.715 931.683C696.844 958.23 680.569 954.676 675.038 934.791C667.816 908.848 646.458 854.923 622.612 781.152C615.37 762.761 652.715 724.713 665.995 764.345Z" fill="#CC6D3D"/>
<path d="M655.939 760.564C678.59 818.646 680.948 855.527 685.584 913.263C686.041 918.944 686.688 923.497 686.24 927.348C685.216 936.108 676.153 940.344 672.562 927.447C666.334 905.057 643.136 845.827 622.574 782.182C616.316 766.305 642.837 726.96 655.939 760.564Z" fill="#F5894E"/>
<path d="M658.527 748.419C655.602 743.608 645.455 721.001 617.074 727.722C609.195 729.583 609.304 744.281 617.472 768.522C623.132 785.339 624.783 789.308 625.301 790.595C625.301 790.595 647.067 777.925 670.723 778.044C670.723 778.044 665.341 759.643 658.527 748.419Z" fill="#273252"/>
<g opacity="0.4">
<path opacity="0.4" d="M646.586 736.155C646.586 736.155 651.271 736.026 656.803 746.043C663.338 757.891 670.59 777.925 670.59 777.925" fill="#273252"/>
</g>
<path opacity="0.4" d="M625.014 750.785C625.014 750.785 639.03 752.507 643.666 746.875C643.666 746.875 641.925 756.04 637.1 758.01C632.276 759.98 627.471 755.318 627.471 755.318L631.868 754.595L625.014 750.785Z" fill="#273252"/>
<path d="M675.993 940.007C677.107 959.329 678.012 984.044 719.326 981.5C740.286 980.214 715.774 954.795 708.741 945.441C708.741 945.441 696.426 930.05 695.441 927.645C692.924 921.508 683.095 919.508 677.107 931.406C674.013 937.553 675.833 937.206 675.993 940.007Z" fill="#CC6D3D"/>
<path d="M670.852 947.599C670.026 950.945 670.653 955.973 675.259 959.249C684.958 966.129 700.835 972.513 717.199 971.662C737.751 970.583 696.696 960.665 693.264 955.706C689.822 950.747 689.066 929.911 686.46 923.329C683.416 915.628 682.491 921.3 678.87 927.001C675.249 932.703 671.777 943.838 670.852 947.599Z" fill="#F5894E"/>
<path d="M674.661 932.049C674.661 932.049 673.995 932.534 677.337 939.79C689.951 967.178 697.034 967.781 714.403 968.573C725.844 969.098 709.181 945.986 709.181 945.986L696.358 929.436C696.358 929.436 707.808 940.383 717.637 952.736C723.675 960.328 731.036 966.861 733.533 971.454C737.93 978.254 742.616 989.063 736.945 989.983C717.925 993.042 693.244 986.934 688.738 984.351C684.231 981.768 684.032 975.265 678.551 968.187C676.472 965.505 669.389 960.259 669.14 957.923C669.071 951.915 668.882 949.905 670.613 942.828C672.453 935.326 674.661 932.049 674.661 932.049Z" fill="#992C29"/>
<path d="M551.433 910.907C555.502 923.675 552.458 926.229 549.096 930.515C524.176 962.308 517.292 950.876 513.154 953.103C499.366 960.516 498.053 943.69 504.25 939.839C510.209 936.127 519.481 921.864 526.872 914.44C530.324 910.966 530.493 908.907 535.397 907.997C540.521 907.037 549.722 905.512 551.433 910.907Z" fill="#F5894E"/>
<path d="M552.201 926.991C539.318 966.119 506.908 957.864 500.482 955.28C497.826 954.211 513.563 934.573 513.563 934.573C513.563 934.573 532.176 928.565 542.134 923.527C552.569 918.241 556.031 915.371 552.201 926.991Z" fill="#CC6D3D"/>
<path d="M552.48 911.362C551.306 909.442 551.147 910.353 550.878 911.808C548.799 923.072 548.112 927.575 539.667 937.602C536.792 941.017 537.249 948.292 511.822 950.876C501.039 951.974 513.563 934.573 513.563 934.573L527.65 913.48L523.382 918.093C523.382 918.093 506.63 938.731 499.895 943.65C493.299 948.461 486.505 970.197 493.071 970.464C509.813 971.157 525.6 968.584 538.692 964.703C544.78 962.546 547.784 949.45 550.122 948.48C550.122 948.48 556.369 943.492 556.26 940.027C556.14 936.702 554.131 914.055 552.48 911.362Z" fill="#992C29"/>
<path d="M516.585 747.528C516.585 747.528 502.29 672.282 514.656 633.016C522.057 609.518 538.013 604.401 555.561 604.054C573.11 603.708 577.407 617.229 575.577 632.046C573.746 646.864 565.748 727.811 560.535 746.518C554.945 766.622 541.784 765.879 533.348 766.275C523.529 766.74 519.45 761.831 516.585 747.528Z" fill="#273252"/>
<path opacity="0.4" d="M543.773 687.743C536.909 683.685 509.93 682.883 509.93 682.883C509.284 665.363 510.199 647.161 514.646 633.016C522.047 609.518 538.003 604.401 555.551 604.054C573.1 603.708 577.397 617.229 575.567 632.046C574.771 638.48 572.811 657.376 570.423 678.231C570.423 678.231 564.684 727.128 561.948 738.432C561.301 738.144 558.625 726.712 554.467 708.529C551.721 702.244 550.637 691.801 543.773 687.743Z" fill="#273252"/>
<path opacity="0.4" d="M521.68 756.189C521.68 756.189 534.284 755.06 539.128 752.042C543.963 749.023 530.732 769.086 521.68 756.189Z" fill="#273252"/>
<path d="M560.526 762.266C576.542 806.887 564.356 828.93 551.085 912.085C549.862 919.756 534.651 925.932 530.065 914.718C529.309 912.857 529.409 909.234 529.19 905.107C527.588 874.61 515.452 799.612 518.953 770.135C521.649 747.409 552.627 740.273 560.526 762.266Z" fill="#F5894E"/>
<path d="M567.808 790.892C568.485 798.533 568.703 809.708 566.455 825.387C563.093 848.865 556.617 878.461 555.88 883.578C554.667 892.1 551.046 913.075 550.031 918.37C549.394 921.686 539.596 925.626 539.596 925.626C539.596 925.626 544.958 907.571 546.171 902.969C548.678 893.427 559.9 826.129 561.511 792.555C561.71 788.665 567.122 783.152 567.808 790.892Z" fill="#CC6D3D"/>
<path d="M563.442 753.497C557.424 738.056 550.172 734.997 537.677 735.343C527.152 735.64 518.299 735.502 518.567 760.168C518.746 776.253 518.736 787.982 518.309 794.643C518.309 794.643 531.629 788.407 568.058 792.248C568.068 792.258 567.431 763.731 563.442 753.497Z" fill="#273252"/>
<path opacity="0.4" d="M563.443 753.497C562.199 750.468 562.518 761.059 562.518 761.059L561.453 791.713C561.453 791.713 562.925 791.723 568.059 792.258C568.069 792.258 568.118 773.798 563.443 753.497Z" fill="#273252"/>
<path d="M505.395 479.13C505.395 479.13 484.286 515.169 479.779 522.949C471.383 537.44 483.898 546.714 494.045 540.181C504.192 533.649 526.962 500.341 531.449 492.354C535.926 484.366 516.348 469.202 505.395 479.13Z" fill="#CC6D3D"/>
<path d="M544.551 449.307C539.129 444.991 524.506 450.455 514.627 464.54C503.685 480.139 500.65 487.029 500.65 487.029C500.65 487.029 510.3 486.336 514.568 491.215C521.511 499.144 526.615 507.755 526.615 507.755C526.615 507.755 537.816 490.73 544.093 479.13C549.923 468.361 551.554 454.889 544.551 449.307Z" fill="#C94039"/>
<path d="M551.691 542.418C568.304 558.038 613.855 538.608 615.009 522.899C615.497 516.218 617.108 500.658 622.699 472.142C626.201 454.305 626.638 448.495 624.539 446.119C619.038 439.884 599.48 438.587 579.425 436.617C546.349 433.371 544.419 441.299 534.401 457.037C522.185 476.23 519.022 511.695 551.691 542.418Z" fill="#F7BC4B"/>
<path d="M600.933 477.714C617.546 493.334 614.213 534.926 615.367 519.217C615.855 512.536 617.108 500.668 622.699 472.152C626.2 454.315 626.638 448.505 624.539 446.129C619.038 439.894 606.822 427.6 577.973 430.569C544.906 433.974 542.27 445.842 531.665 462.313C519.36 481.426 568.264 446.981 600.933 477.714Z" fill="#CE9436"/>
<path d="M538.091 467.529C531.824 471.35 527.059 475.893 527.059 475.893C527.059 475.893 527.795 467.638 533.087 459.274C537.076 452.969 572.322 458.918 572.322 458.918C572.322 458.918 542.07 465.104 538.091 467.529Z" fill="#CE9436"/>
<path d="M577.187 455.592L579.764 455.632C585.633 455.721 590.458 451.049 590.547 445.219L590.835 425.66C590.925 419.82 586.23 415.02 580.37 414.931L577.794 414.891C571.925 414.802 567.1 419.474 567.01 425.304L566.722 444.863C566.632 450.702 571.318 455.503 577.187 455.592Z" fill="#F5894E"/>
<path d="M576.82 434.143L580.948 434.202C586.39 434.281 590.866 429.956 590.946 424.541L591.254 403.438C591.334 398.024 586.986 393.57 581.545 393.491L577.417 393.431C571.975 393.352 567.498 397.678 567.419 403.092L567.11 424.195C567.031 429.609 571.378 434.063 576.82 434.143Z" fill="#CC6D3D"/>
<path d="M654.073 480.129C662.042 495.026 671.781 514.407 674.526 519.217C677.531 524.473 679.461 542.904 672.368 547.427C665.275 551.95 654.859 538.964 651.029 535.322C647.199 531.689 632.148 507.923 626.657 495.343C622.35 485.465 623.245 474.002 628.507 470.746C633.77 467.48 646.105 465.233 654.073 480.129Z" fill="#F5894E"/>
<path d="M654.076 480.129C662.044 495.026 671.813 514.387 674.529 519.217C675.892 521.632 675.842 523.107 675.812 524.81C675.782 526.512 679.274 538.588 676.618 536.064C674.519 534.074 657.985 502.45 651.569 487.761C646.296 475.655 650.474 473.399 654.076 480.129Z" fill="#CC6D3D"/>
<path d="M616.072 446.852C623.911 443.15 635.45 446.317 645.229 464.094C650.362 473.428 657.435 485.92 657.435 485.92C657.435 485.92 644.921 489.315 629.671 501.292C629.671 501.292 623.324 491.631 618.549 482.554C608.501 463.451 609.954 449.742 616.072 446.852Z" fill="#EC5E4D"/>
<path d="M616.073 446.852C623.912 443.15 635.451 446.317 645.23 464.094C650.363 473.428 657.436 485.92 657.436 485.92L651.826 487.771L638.316 478.724L615.247 475.042C608.433 459.106 610.621 449.425 616.073 446.852Z" fill="#C94039"/>
<path d="M628.18 480.021C628.18 480.021 642.167 481.238 647.389 483.663C652.602 486.088 651.587 487.761 651.587 487.761L628.18 480.021Z" fill="#C94039"/>
<path d="M652.462 659.553C652.462 659.553 662.977 654.317 659.804 647.636C656.63 640.955 647.598 640.38 647.598 640.38L652.462 659.553Z" fill="#C93F37"/>
<path d="M617.536 532.213C617.536 532.213 680.844 624.801 685.211 636.896C689.589 649.021 704.361 664.799 703.565 671.094C699.477 658.989 659.586 662.018 652.463 659.563C652.463 659.563 667.246 650.338 655.049 645.656C642.853 640.974 614.79 639.866 598.287 639.776C549.015 639.529 491.774 647.665 474.355 676.607C474.355 676.607 505.522 540.033 545.095 511.071C583.882 482.663 617.536 532.213 617.536 532.213Z" fill="#F7BC4B"/>
<path d="M617.536 532.214C617.536 532.214 680.844 624.801 685.211 636.897C689.589 649.022 704.361 664.8 703.565 671.095C699.477 658.989 659.586 662.018 652.463 659.563C652.463 659.563 667.246 650.338 655.049 645.657C642.853 640.975 614.79 639.866 598.287 639.777C549.015 639.53 491.774 647.666 474.355 676.608C474.355 676.608 488.511 641.786 604.206 599.501C629.483 590.256 617.536 532.214 617.536 532.214Z" fill="#CE9436"/>
<path d="M545.662 441.556C530.233 443.457 493.117 476.833 468.078 506.29C435.688 544.398 391.38 586.039 374.468 594.492C355.13 604.153 315.597 623.474 305.639 623.989L325.932 637.233C325.932 637.233 370.171 632.283 403.427 592.008C443.656 543.289 510.148 458.947 545.662 441.556Z" fill="#1FABE2"/>
<path d="M564.723 461.264C592.577 456.314 647.698 469.439 647.629 468.836C644.634 443.358 613.756 431.312 599.859 429.58C590.627 430.025 570.035 442.081 564.723 461.264Z" fill="#29ABE2"/>
<path d="M556.089 433.539C564.833 431.124 576.264 454.078 577.447 457.938C578.631 461.798 545.853 452.296 491.885 487.84C473.342 500.045 536.193 435.519 556.089 433.539Z" fill="#29ABE2"/>
<path d="M571.975 456.908C573.386 456.908 574.531 455.77 574.531 454.365C574.531 452.96 573.386 451.821 571.975 451.821C570.563 451.821 569.418 452.96 569.418 454.365C569.418 455.77 570.563 456.908 571.975 456.908Z" fill="#273150"/>
<path d="M518.027 433.46L526.374 449.287L521.818 454.058L521.42 459.334" stroke="#1D2538" stroke-miterlimit="10"/>
<path d="M526.373 449.287L526.433 453.672L528.77 457.72" stroke="#1D2538" stroke-miterlimit="10"/>
<path d="M538.521 443.011L538.89 447.634L541.526 451.781" stroke="#1D2538" stroke-miterlimit="10"/>
<path d="M527.865 427.59L538.52 443.011L534.302 448.277L534.282 453.86" stroke="#1D2538" stroke-miterlimit="10"/>
<path d="M538.85 442.705L541.784 442.883L545.962 447.505" stroke="#1D2538" stroke-miterlimit="10"/>
<path d="M605.134 534.619C605.134 534.619 596.21 510.081 589.396 505.904C582.572 501.727 566.834 488.672 566.834 488.672L484.973 500.678L504.391 525.216L510.688 539.835L605.134 534.619Z" fill="#F3E7D9"/>
<path d="M503.065 510.606C501.882 510.408 492.829 513.734 492.829 513.734C492.829 513.734 500.698 509.032 500.31 507.468C499.912 505.904 497.166 504.34 497.166 504.34L482.603 509.042L475.818 515.495C474.495 516.753 474.246 518.762 475.231 520.296C476.455 522.206 477.997 524.592 478.673 525.483C479.35 526.383 479.827 530.709 480.842 534.292C481.578 536.925 485.567 540.162 485.567 540.162C485.567 540.162 496.191 542.319 499.534 539.578C502.876 536.836 512.516 528.027 513.501 524.889C513.501 524.889 511.929 521.761 509.76 521.563C509.76 521.563 509.76 518.039 508.975 516.861C508.189 515.684 505.831 513.734 505.831 513.734L503.065 510.606Z" fill="#F5894E"/>
<path d="M604.605 517.257C604.605 517.257 606.306 513.209 604.207 509.032C602.108 504.855 592.011 502.371 587.286 499.639C582.162 496.659 582.043 504.855 587.813 509.557C593.583 514.258 597.781 520.91 604.605 517.257Z" fill="#F5894E"/>
<path d="M532.721 513.209L606.176 491.809L580.471 560.205L565.25 526.264L532.721 513.209Z" fill="#048ABF"/>
<path d="M605.131 491.809L564.723 523.651L566.294 539.32L605.131 491.809Z" fill="#15A5C5"/>
<path d="M665.995 521.563C665.995 521.563 644.717 515.931 630.471 518.326C616.226 520.721 609.113 517.188 605.283 523.523C601.453 529.857 605.044 536.143 615.072 538.073C625.099 540.003 646.627 551.297 657.37 550.169C668.761 548.971 674.928 549.723 677.027 541.923C679.126 534.124 674.351 521.088 665.995 521.563Z" fill="#F5894E"/>
<path d="M616.672 527.314C616.672 527.314 613.329 518.564 609.131 513.348C604.933 508.131 602.575 507.666 597.82 511.487C593.065 515.307 588.738 519.029 584.54 519.029C580.342 519.029 566.833 517.92 563.162 521.048C559.491 524.176 563.162 524.701 563.162 524.701C563.162 524.701 557.919 525.74 558.964 527.829C560.008 529.917 566.305 530.442 566.305 530.442C566.305 530.442 571.031 533.569 572.602 534.094C574.174 534.619 592.608 538.598 592.608 538.598C592.608 538.598 607.758 537.232 611.956 534.094C616.144 530.966 616.672 527.314 616.672 527.314Z" fill="#F5894E"/>
<path d="M605.465 379.275C611.928 376.898 614.817 368.645 611.917 360.84C609.018 353.036 601.429 348.636 594.967 351.013C588.504 353.39 585.616 361.643 588.515 369.447C591.414 377.251 599.003 381.651 605.465 379.275Z" fill="#CC6D3D"/>
<path d="M539.01 346.316C537.548 352.433 549.515 355.789 562.079 358.758C574.644 361.738 586.024 359.184 587.486 353.077C588.949 346.96 579.946 339.595 567.382 336.626C554.807 333.647 540.473 340.199 539.01 346.316Z" fill="#273150"/>
<path d="M597.683 369.072C587.974 337.358 559.195 335.448 552.37 336.082C518.338 339.269 508.341 359.303 520.06 394.926C528.197 419.652 539.388 423.462 555.643 424.779C575.191 426.363 609.81 408.675 597.683 369.072Z" fill="#CC6D3D"/>
<path d="M590.051 382.405C581.267 358.808 555.552 357.264 549.464 357.709C549.464 357.709 524.922 365.697 520.276 372.17C515.631 378.644 524.255 399.885 524.255 399.885C533.209 420.671 538.939 421.77 553.463 422.819C570.931 424.076 601.024 411.882 590.051 382.405Z" fill="#F5894E"/>
<path d="M566.038 346.435C533.21 340.496 516.299 359.303 516.299 359.303C516.299 359.303 530.495 325.926 562.059 333.567C598.867 342.476 596.967 362.529 596.877 373.16C596.877 373.16 591.664 351.067 566.038 346.435Z" fill="#F6BE4A"/>
<path d="M603.027 343.277C604.638 345.722 595.874 356.392 590.96 351.443C586.344 346.781 581.907 340.833 586.115 339.011C590.313 337.19 601.405 340.833 603.027 343.277Z" fill="#C94039"/>
<path d="M600.849 347.276C600.849 347.276 594.81 353.165 592.711 351.968C590.612 350.77 594.681 348.959 598.481 345C602.281 341.031 603.316 344.752 600.849 347.276Z" fill="#F7BC4B"/>
<path d="M584.436 341.476C584.436 341.476 587.649 357.135 594.374 367.33C599.457 375.04 604.68 379.257 604.68 379.257L604.759 375.842L609.624 375.684C609.624 375.684 597.358 365.993 588.007 341.763L584.436 341.476Z" fill="#C94039"/>
<path d="M585.677 347.296C585.677 347.296 585.319 362.519 589.825 373.417C593.237 381.652 597.594 386.671 597.594 386.671L598.47 383.513L603.483 384.394C603.483 384.394 593.187 372.804 589.258 348.316L585.677 347.296Z" fill="#C94039"/>
<path d="M566.239 383.852C568.151 383.396 569.008 380.143 568.151 376.587C567.295 373.03 565.05 370.517 563.137 370.973C561.224 371.429 560.368 374.682 561.224 378.238C562.081 381.795 564.326 384.308 566.239 383.852Z" fill="#273252"/>
<path d="M533.532 393.018C535.151 392.682 535.905 389.745 535.216 386.46C534.526 383.174 532.655 380.783 531.037 381.119C529.418 381.455 528.664 384.391 529.353 387.677C530.043 390.963 531.914 393.354 533.532 393.018Z" fill="#273252"/>
<path d="M558.436 359.679C558.436 359.679 563.121 358.58 565.827 362.094" stroke="#273252" stroke-miterlimit="10" stroke-linecap="round" stroke-linejoin="round"/>
<path d="M525.318 372.814C525.318 372.814 527.089 369.161 530.193 368.29" stroke="#273252" stroke-miterlimit="10" stroke-linecap="round" stroke-linejoin="round"/>
</svg>
