<svg width="961" height="714" viewBox="0 0 961 714" fill="none" xmlns="http://www.w3.org/2000/svg">
<path d="M89.6169 558.162C89.6169 558.162 87.6666 527.873 108.173 514.202C128.688 500.522 135.518 517.132 135.518 517.132C135.518 517.132 141.882 476.937 174.115 474.986C206.348 473.035 220.498 500.522 220.498 500.522C220.498 500.522 256.229 470.458 262.498 504.432C268.758 538.405 100.356 576.73 60.3138 585.52C20.2639 594.303 89.6169 558.162 89.6169 558.162Z" fill="#CCE5CF"/>
<path d="M127.154 701.634C174.147 702.903 254.158 686.39 346.875 639.387C426.526 599.007 440.86 572.058 440.86 572.058L354.5 606.361C354.5 606.361 419.27 564.44 428.797 535.861C438.324 507.282 293.831 620.899 214.791 658.445C163.986 682.584 127.154 701.634 127.154 701.634Z" fill="#CCE5CF"/>
<path d="M566.589 669.563C608.846 649.791 667.412 624.76 677.324 613.055C692.26 595.418 718.313 556.01 739.558 541.56C801.037 499.735 803.935 554.124 803.935 554.124C803.935 554.124 811.832 533.637 830.83 513.126C817.772 496.669 796.214 485.976 770.057 485.623C708.826 484.796 678.953 559.655 678.953 559.655C678.953 559.655 677.533 502.28 616.053 544.105C594.808 558.555 541.194 600.653 562.15 665.445C562.873 667.668 563.266 667.147 566.589 669.563Z" fill="#CCE5CF"/>
<path d="M952.793 606.898C992.121 551.531 956.06 494.06 894.829 493.241C833.599 492.414 803.726 567.273 803.726 567.273C803.726 567.273 802.305 509.899 740.826 551.724C719.581 566.174 693.536 605.582 678.592 623.219C662.483 642.245 468.791 711.163 468.791 711.163C468.791 711.163 858.841 739.164 952.793 606.898Z" fill="#CCE5CF"/>
<path d="M411.325 284.013C409.904 278.185 399.527 272.662 397.673 271.843C395.819 271.024 391.91 272.549 389.526 276.539C384.229 285.426 335.375 300.125 325.061 306.065C314.756 312.006 310.325 352.963 337.044 343.346C389.478 324.481 400.129 318.99 411.325 311.163C425.989 300.919 415.137 299.683 411.325 284.013Z" fill="#C83F37"/>
<path d="M476.416 231.616C476.416 231.616 473.88 224.631 461.175 230.347C448.47 236.063 419.897 260.837 412.914 263.374C405.932 265.91 398.628 267.66 398.628 272.742C398.628 276.29 403.179 277.663 408.259 290.05C412.537 300.478 418.34 306.78 424.985 303.392C445.725 292.803 491.024 251.308 476.416 231.616Z" fill="#1D2436"/>
<path d="M425.932 403.426C425.932 403.426 382.431 437.408 371.957 450.75C361.483 464.092 355.761 451.705 344.332 475.524C332.903 499.342 310.357 554.284 300.831 555.239C291.304 556.195 277.017 549.524 275.115 569.529C273.213 589.534 308.455 621.926 322.742 627.65C337.028 633.366 352.269 621.934 357.037 597.16C361.796 572.387 384.663 542.644 395.137 525.497C405.611 508.349 404.447 503.051 412.601 497.761C428.774 487.252 457.186 468.973 497.38 433.924C534.525 401.524 472.604 354.834 425.932 403.426Z" fill="#273150"/>
<path d="M371.958 450.75C360.488 463.249 355.761 451.705 344.332 475.523C332.903 499.342 306.738 550.053 322.108 549.202C327.822 548.881 372.592 539.673 383.074 522.526C393.548 505.379 406.357 491.611 414.504 486.321C422.257 481.287 423.076 444.608 423.076 444.608C410.796 439.101 384.976 436.557 371.958 450.75Z" fill="#465788"/>
<path d="M596.438 427.245C596.574 434.333 570.104 444.785 531.034 429.781C491.963 414.786 509.741 367.462 548.811 382.458C587.882 397.462 596.229 416.239 596.438 427.245Z" fill="#F2A62F"/>
<path d="M585.025 419.859C582.071 446.006 535.255 438.219 488.8 432.96C442.338 427.702 413.821 426.964 416.775 400.825C419.728 374.687 459.794 357.748 506.257 363.006C552.712 368.256 587.986 393.713 585.025 419.859Z" fill="#273150"/>
<path d="M531.668 391.039C531.668 391.039 509.123 400.777 500.551 429.364C491.979 457.943 492.292 468.531 486.578 481.874C480.863 495.216 467.524 553.963 459.907 573.976C452.29 593.99 457.074 581.643 448.478 591.124C423.71 618.434 473.664 651.886 473.664 651.886C473.664 651.886 499.411 684.728 513.561 671.153C529.116 656.229 524.677 645.11 524.677 634.947C524.677 624.784 537.599 563.115 540.761 547.926C541.821 542.845 544.148 542.419 546.267 536.495C548.386 530.57 545.208 519.452 545.208 516.594C545.208 513.736 565.506 465.529 577.384 442.489C608.822 381.51 531.668 391.039 531.668 391.039Z" fill="#465788"/>
<path d="M522.775 392.95C522.775 392.95 508.167 400.889 499.595 429.468C491.023 458.047 492.292 468.531 486.577 481.866C483.447 489.179 508.801 450.108 525.311 443.758C535.64 439.784 546.219 438.403 557.696 438.676C565.12 438.853 575.265 446.511 575.265 446.511C586.212 426.731 587.946 412.883 582.464 404.694C569.285 385.018 522.775 392.95 522.775 392.95Z" fill="#273150"/>
<path d="M449.305 619.911C446.11 608.817 441.584 609.138 451.175 604.048C458.158 599.85 490.334 613.529 490.334 613.529C490.334 613.529 488.64 606.834 491.04 602.025C491.04 602.025 536.749 634.618 516.362 663.293C494.114 694.594 452.868 632.298 449.305 619.911Z" fill="#273150"/>
<path d="M313.664 666.85C321.955 661.262 342.333 641.41 340.206 626.366C338.079 611.321 327.14 598.132 318.737 597.345C310.333 596.558 308.255 584.701 292.05 569.055C275.846 553.409 251.278 544.049 236.085 555.352C223.05 565.049 218.917 587.624 238.605 607.629C248.814 618.009 254.761 627.385 261.519 636.994C285.974 671.787 305.373 672.437 313.664 666.85Z" fill="#13161F"/>
<path d="M313.664 666.85C328.151 655.474 323.785 641.642 286.504 604.474C276.295 575.012 250.218 550.102 234.222 560.128C221.461 568.124 221.782 593.532 237.329 608.897C249.44 620.866 254.576 627.232 261.511 636.994C285.758 671.104 303.094 675.15 313.664 666.85Z" fill="#EC6043"/>
<path d="M493.247 696.239C493.247 696.239 516.555 671.168 515.367 657.176C514.532 647.326 505.912 632.346 499.283 628.276C496.49 626.566 493.633 628.999 489.756 624.463C474.836 606.994 449.746 587.302 425.62 600.644C405.699 611.659 413.621 632.33 423.429 644.436C433.237 656.542 446.247 667.917 450.878 674.155C467.387 696.384 481.497 704.179 493.247 696.239Z" fill="#13161F"/>
<path d="M489.121 699.113C489.121 699.113 512.613 692.113 469.401 643.561C446.35 597.498 424.351 600.332 415.458 609.54C408.756 616.484 411.622 634.048 423.701 648.474C435.78 662.892 447.426 671.193 451.021 676.234C466.143 697.468 476.408 701.538 489.121 699.113Z" fill="#EC6043"/>
<path d="M501.819 460.271C504.355 456.458 522.775 443.124 544.999 447.571C544.999 447.571 503.721 465.995 493.56 472.345C483.399 478.695 499.275 464.084 501.819 460.271Z" fill="#273150"/>
<path d="M489.122 492.671C489.122 492.671 495.792 497.432 507.221 491.716L501.819 500.611C501.819 500.611 506.266 505.058 514.838 502.2C523.409 499.334 499.917 530.145 489.122 492.671Z" fill="#273150"/>
<path d="M557.279 436.139C568.018 442.329 565.746 461.178 560.24 478.534L578.018 440.795C578.018 440.795 546.532 429.942 557.279 436.139Z" fill="#273150"/>
<path d="M380.843 525.063C380.843 525.063 348.867 569.192 316.281 562.135L380.843 525.063Z" fill="#465788"/>
<path d="M350.047 471.71C350.047 471.71 362.11 473.613 367.824 470.442C373.539 467.263 364.646 478.702 364.646 478.702C364.646 478.702 370.995 490.768 359.565 485.687C348.136 480.605 350.047 471.71 350.047 471.71Z" fill="#273150"/>
<path d="M421.382 365.423C421.382 365.423 430.275 375.586 449.321 378.548C468.367 381.51 508.593 261.68 497.582 243.473C486.578 225.266 440.003 261.254 426.455 293.438C412.915 325.621 421.382 365.423 421.382 365.423Z" fill="#EC5E4D"/>
<path d="M575.161 393.263C575.161 393.263 580.137 403.53 586.277 405.65C587.842 406.565 600.138 405.754 608.927 402.053C617.715 398.344 621.094 393.905 634.225 393.263C647.347 392.629 664.387 394.427 673.705 386.383C683.015 378.339 670.952 376.854 666.505 376.429C664.306 376.22 655.502 382.779 651.368 382.779C639.129 382.779 613.903 389.45 602.787 395.165C595.443 398.947 577.649 390.052 575.161 393.263Z" fill="#F4E8D8"/>
<path d="M651.048 354.2C674.965 358.856 684.917 363.938 678.569 378.757C674.524 388.189 647.356 389.787 636.761 388.181C623.534 386.166 612.523 397.606 590.507 402.471C579.544 404.895 573.572 399.717 572.304 385.958C571.357 375.698 581.157 343.531 599.183 337.47C615.572 331.971 639.667 351.984 651.048 354.2Z" fill="#EC5E4D"/>
<path d="M578.339 229.071C578.339 229.071 557.383 216.684 524.043 219.542C490.703 222.4 479.779 225.467 473.664 239.234C468.583 250.666 475.461 290.05 470.702 318.629C467.476 338 444.666 355.469 437.049 378.332C437.049 378.332 470.766 407.055 531.459 400.135C564.904 396.322 595.595 422.79 596.446 427.237C597.465 422.806 597.546 413.044 598.348 367.213C599.279 314.278 602.337 239.291 578.339 229.071Z" fill="#F6BE4A"/>
<path d="M549.766 224.311C534.525 223.355 522.462 184.613 538.65 319.905C541.66 345.04 440.966 366.579 437.049 378.34C437.049 378.34 470.766 407.063 531.459 400.143C564.904 396.33 595.595 422.797 596.446 427.245C597.465 422.814 597.546 413.052 598.348 367.221C599.279 314.278 565 225.266 549.766 224.311Z" fill="#F2A62F"/>
<path d="M510.672 220.73C510.672 220.73 497.799 230.147 499.805 242.983C501.812 255.82 531.067 246.837 539.221 234.851C547.376 222.866 522.366 216.018 510.672 220.73Z" fill="#F6874E"/>
<path d="M495.784 225.579C498.32 227.907 483.199 261.568 452.283 289.625C429.424 310.377 425.187 334.934 431.535 351.021C438.366 368.321 442.122 371.452 446.143 376.638C450.188 381.864 421.575 369.806 419.681 366.9C413.332 357.163 402.192 301.313 435.348 266.97C447.202 254.688 447.202 237.332 457.997 230.974C468.8 224.624 493.248 223.251 495.784 225.579Z" fill="#972A27"/>
<path opacity="0.5" d="M495.784 225.579C498.32 227.907 483.199 261.567 452.282 289.625C429.424 310.376 425.187 334.933 431.535 351.021C438.365 368.321 442.121 371.452 446.143 376.638C450.188 381.864 421.575 369.806 419.681 366.9C413.332 357.162 408.966 309.782 442.121 275.439C453.976 263.157 447.202 237.332 457.997 230.982C468.8 224.624 493.247 223.251 495.784 225.579Z" fill="#972A27"/>
<path d="M420.853 368.072C420.853 368.072 420.323 371.99 422.442 374.109C424.561 376.229 435.46 381.206 444.241 381.728C444.241 381.728 449.747 378.131 443.607 377.071C437.467 376.012 420.853 368.072 420.853 368.072Z" fill="#F4E8D8"/>
<path d="M500.126 222.721C497.413 219.703 488.93 219.767 481.498 223.002C475.213 225.74 473.351 238.134 466.858 251.926C462.195 261.824 455.67 281.581 444.241 298.094C437.957 307.173 459.482 306.138 490.856 245.881C496.37 235.301 501.908 224.704 500.126 222.721Z" fill="#F4E8D8"/>
<path d="M512.615 219.229C498.641 227.168 499.596 274.171 506.266 275.126C512.936 276.082 546.276 248.129 542.777 223.998" stroke="#913636" stroke-miterlimit="10"/>
<path d="M507.821 279.802C508.287 277.124 507.613 274.77 506.316 274.545C505.019 274.319 503.59 276.306 503.124 278.984C502.658 281.661 503.332 284.015 504.629 284.241C505.926 284.467 507.355 282.479 507.821 279.802Z" fill="#29ACE4"/>
<path d="M500.126 222.721C497.413 219.703 488.93 219.767 481.498 223.002C475.213 225.74 473.351 238.134 466.858 251.926C464.354 257.249 470.912 254.053 478.954 248.129C475.807 256.478 475.775 256.39 475.775 256.39C484.885 249.446 500.624 223.275 500.126 222.721Z" fill="#F4E8D8"/>
<path d="M508.296 206.272C508.296 206.272 510.166 221.083 510.648 229.553C511.129 238.022 516.571 237.572 523.81 236.697C531.058 235.822 538.313 238.335 540.079 226.47C541.845 214.605 544.943 194.696 538.586 191.758C532.238 188.82 507.782 191.027 508.296 206.272Z" fill="#F6874E"/>
<path d="M520.873 204.939C522.503 216.427 538.145 235.606 539.927 227.489C541.709 219.373 544.582 195.563 541.035 193.034C535.617 189.157 519.236 193.452 520.873 204.939Z" fill="#CE6D3E"/>
<path d="M543.73 230.131C543.73 230.131 543.096 292.587 553.257 311.645C563.418 330.703 591.678 332.926 604.062 375.161C609.568 393.938 619.938 365.632 648.51 364.997C661.079 364.716 668.913 369.212 672.219 370.288C679.443 372.656 668.495 387.05 674.122 383.839C696.346 371.139 672.003 357.499 670.309 351.655C667.982 343.611 663.11 315.875 643.213 310.794C622.257 305.439 604.054 269.724 599.608 256.382C595.161 243.039 594.527 229.071 579.286 223.99C564.044 218.908 546.267 218.065 543.73 230.131Z" fill="#972A27"/>
<path opacity="0.5" d="M543.73 230.131C543.73 230.131 543.096 292.587 553.257 311.645C563.418 330.703 565.922 348.428 609.143 356.745C625.652 359.924 618.67 305.929 614.223 292.595C609.777 279.261 594.535 229.079 579.294 223.997C564.052 218.916 546.267 218.065 543.73 230.131Z" fill="#972A27"/>
<path d="M614.111 379.817C614.111 379.817 618.132 382.883 620.356 383.413C623.646 384.2 633.053 372.616 644.49 370.496C655.919 368.377 669.932 369.196 673.063 373.675C675.711 377.456 670.735 384.898 663.961 387.018C661.361 387.828 666.594 389.137 669.25 388.711C674.804 387.812 682.798 378.757 677.509 371.981C673.191 366.458 661.842 363.938 649.145 364.572C638.117 365.126 628.085 370.079 614.111 379.817Z" fill="#F4E8D8"/>
<path d="M569.767 222.721C571.356 218.908 552.624 214.252 543.731 217.431C534.838 220.61 532.936 267.187 546.267 292.595C555.377 309.951 552.222 276.539 556.107 250.04C557.913 237.749 568.178 226.534 569.767 222.721Z" fill="#F4E8D8"/>
<path d="M569.767 222.721C571.356 218.908 552.623 214.252 543.73 217.431C546.267 225.9 552.222 276.539 556.115 250.04C557.913 237.749 568.178 226.534 569.767 222.721Z" fill="#F4E8D8"/>
<path d="M650.413 327.524C650.413 327.524 630.091 321.808 617.394 333.874" stroke="#F4E8D8" stroke-width="4" stroke-miterlimit="10"/>
<path d="M270.669 301.481L380.208 368.176C359.156 321.848 312.051 236.81 301.409 217.703C300.55 216.154 298.279 216.291 297.62 217.936C290.252 236.191 277.026 290.684 277.026 290.684L270.669 301.481Z" fill="#048ABF"/>
<path d="M575.282 147.517C570.595 179.339 549.077 193.749 532.455 200.251C515.833 206.754 478.777 183.658 473.993 156.098C468.062 128.234 464.233 113.559 509.524 103.918C554.823 94.2764 579.431 119.339 575.282 147.517Z" fill="#1D2436"/>
<path d="M569.655 150.037C565.675 177.067 526.644 169.601 526.644 169.601C518.746 167.546 491.602 162.151 485.992 147.227C481.2 134.471 474.98 120.061 513.449 111.873C548.651 104.375 573.179 126.106 569.655 150.037Z" fill="#3D4C6D"/>
<path d="M564.855 163.636C564.855 163.636 568.307 155.055 565.57 145.445C565.57 145.445 577.344 148.785 564.855 163.636Z" fill="#1D2436"/>
<path d="M495.695 129.189C495.695 129.189 476.328 122.052 472.323 126.564C468.318 131.076 468.535 191.701 476.256 206.617C483.977 221.533 532.382 212.871 544.549 202.162C547.382 199.673 553.434 187.479 555.112 172.419C556.115 167.787 544.565 159.093 536.05 148.986C527.534 138.879 495.695 129.189 495.695 129.189Z" fill="#CE6D3E"/>
<path d="M548.153 180.912C547.102 208.64 526.892 213.176 506.153 214.42C485.414 215.656 476.441 209.86 473.062 185.408C469.57 160.176 477.588 143.936 498.328 142.7C519.059 141.447 546.636 155.472 548.153 180.912Z" fill="#F6874E"/>
<path d="M515.744 168.333C515.985 172.331 514.203 174.193 512.205 174.314C510.206 174.434 508.754 172.764 508.513 168.767C508.272 164.769 509.701 161.437 511.699 161.317C513.698 161.196 515.503 164.335 515.744 168.333Z" fill="#34273A"/>
<path d="M485.382 169.416C485.607 173.165 483.937 174.915 482.059 175.028C480.181 175.14 478.817 173.575 478.592 169.818C478.367 166.069 479.708 162.93 481.586 162.818C483.456 162.713 485.157 165.667 485.382 169.416Z" fill="#34273A"/>
<path d="M517.438 158.948C517.438 158.948 514.235 153.176 509.019 154.742" stroke="#34273A" stroke-miterlimit="10" stroke-linecap="round" stroke-linejoin="round"/>
<path d="M483.247 156.789C483.247 156.789 477.067 156.348 475.622 161.245" stroke="#34273A" stroke-miterlimit="10" stroke-linecap="round" stroke-linejoin="round"/>
<path d="M560.772 170.742C563.094 161.863 560.831 153.581 555.719 152.244C550.607 150.907 544.581 157.021 542.26 165.9C539.939 174.779 542.201 183.061 547.313 184.399C552.425 185.736 558.451 179.621 560.772 170.742Z" fill="#F6874E"/>
<path d="M521.643 117.413C505.864 136.711 476.047 143.11 462.869 143.077C451.255 143.053 463.198 111.898 483.56 103.998C503.922 96.1069 527.88 109.786 521.643 117.413Z" fill="#1D2436"/>
<path d="M520.44 112.01C525.255 115.357 523.273 125.023 515.15 129.253C501.137 136.559 472.966 141.407 467.275 141.68C456.52 142.194 466.151 121.683 480.799 113.198C497.244 103.677 515.624 108.662 520.44 112.01Z" fill="#3D4C6D"/>
<path d="M497.485 129.278C497.485 129.278 483.728 137.185 472.917 141.592C472.917 141.592 501.522 139.04 497.485 129.278Z" fill="#1D2436"/>
<path d="M538.016 140.356C538.016 140.356 535.962 163.115 538.923 169.77L545.488 179.628L546.957 147.083L538.016 140.356Z" fill="#3D4C6D"/>
<path d="M306.971 297.139L375.232 288.461C375.232 288.461 358.297 234.153 303.054 208.745C222.81 171.841 159.805 255.483 143.031 267.179C122.075 281.79 103.021 284.326 63.0191 276.708C63.0191 276.708 30.634 335.776 0.785156 352.932C0.785156 352.932 36.9826 360.646 85.2432 352.932C129.17 345.915 153.489 327.933 193.202 276.074C216.06 246.227 307.605 236.168 306.971 297.139Z" fill="#F5BF4E"/>
<path d="M60.2658 288.147C60.2658 288.147 30.6336 332.605 20.4727 343.411C20.4727 343.411 74.4077 345.554 103.663 339.597C141.128 331.979 183.474 262.707 213.523 246.861C248.452 228.437 300.493 240.888 311.32 267.187C320.213 288.782 320.952 295.453 320.952 295.453L365.721 289.311C365.721 289.311 334.179 199.858 247.818 210.021C203.418 215.247 163.994 262.105 140.502 279.887C116.994 297.668 90.7407 294.497 60.2658 288.147Z" fill="#F4E8D8"/>
<path d="M116.36 283.066L96.6719 345.305" stroke="#F5BF4E" stroke-width="3" stroke-miterlimit="10"/>
<path d="M168.216 254.054L165.889 301.482" stroke="#F5BF4E" stroke-width="3" stroke-miterlimit="10"/>
<path d="M216.694 259.561L210.979 218.908" stroke="#F5BF4E" stroke-width="3" stroke-miterlimit="10"/>
<path d="M268.125 206.842L256.062 248.129" stroke="#F5BF4E" stroke-width="3" stroke-miterlimit="10"/>
<path d="M303.688 262.74L330.992 232.25" stroke="#F5BF4E" stroke-width="3" stroke-miterlimit="10"/>
<path d="M315.759 291.319L360.207 266.545" stroke="#F5BF4E" stroke-width="3" stroke-miterlimit="10"/>
<path d="M14.75 347.85C15.5687 348.035 16.6281 348.235 17.9043 348.436" stroke="#F4E8D8" stroke-width="6" stroke-miterlimit="10"/>
<path d="M25.9629 349.448C50.338 351.896 102.644 352.643 130.96 333.24C165.255 309.742 184.301 262.097 225.579 248.763C247.369 241.723 286.288 238.175 303.688 267.187C308.327 275.753 310.59 284.077 311.69 289.737" stroke="#F4E8D8" stroke-width="6" stroke-miterlimit="10" stroke-dasharray="8.1 8.1"/>
<path d="M312.348 293.743C312.621 295.766 312.685 296.938 312.685 296.938" stroke="#F4E8D8" stroke-width="6" stroke-miterlimit="10"/>
<path d="M371.002 286.558C371.002 286.558 332.871 198.807 257.964 204.306C188.747 209.387 152.55 277.985 121.433 285.603C94.2002 292.274 60.4668 281.79 60.4668 281.79" stroke="#F4E8D8" stroke-width="5" stroke-miterlimit="10" stroke-dasharray="8 8"/>
<path opacity="0.5" d="M143.031 267.187C122.075 281.798 103.021 284.334 63.0191 276.716C63.0191 276.716 30.634 335.784 0.785156 352.94C0.785156 352.94 36.9826 360.654 85.2432 352.94C129.17 345.923 153.489 327.941 193.202 276.082C143.031 288.782 143.031 267.187 143.031 267.187Z" fill="#F5BF4E"/>
<path d="M162.076 190.963C180.206 190.963 194.903 176.46 194.903 158.571C194.903 140.681 180.206 126.179 162.076 126.179C143.947 126.179 129.25 140.681 129.25 158.571C129.25 176.46 143.947 190.963 162.076 190.963Z" fill="#29ACE4"/>
<path d="M176.572 150.431L170.095 175.309C169.436 177.838 166.041 178.311 164.725 176.055L146.329 144.691C145.005 142.435 147.068 139.706 149.604 140.364L174.477 146.842C176.034 147.252 176.981 148.857 176.572 150.431Z" fill="#F6BE4A"/>
<path opacity="0.5" d="M190.657 154.123C190.657 169.007 136.048 169.007 136.048 154.123C136.048 139.24 148.272 127.182 163.352 127.182C178.425 127.182 190.657 139.24 190.657 154.123Z" fill="#29ACE4"/>
<path d="M243.998 151.739C243.998 151.739 267.482 165.828 273.117 175.229L311.625 143.286L282.507 105.708C282.507 105.708 250.571 148.922 243.998 151.739Z" fill="#1FABE2"/>
<path d="M282.507 105.708C286.576 111.657 280.557 147.019 280.557 147.019C280.139 149.861 277.852 152.06 274.995 152.365L243.998 151.739L282.507 105.708Z" fill="#048ABF"/>
<path d="M278.751 133.268L305.052 135.772" stroke="#048ABF" stroke-miterlimit="10"/>
<path d="M268.108 151.113L269.465 170.428" stroke="#048ABF" stroke-miterlimit="10"/>
<path opacity="0.5" d="M248.589 146.939L300.044 129.085L282.403 106.639C282.403 106.647 255.893 140.155 248.589 146.939Z" fill="#048ABF"/>
<path d="M372.936 32.4225L347.237 51.071C339.291 56.835 337.517 67.9615 343.288 75.909L361.933 101.614C364.116 104.616 367.061 106.744 370.312 107.908C370.352 107.924 370.376 107.948 370.416 107.964L390.915 115.101C392.359 115.606 393.772 114.274 393.363 112.797L390.553 102.826L412.473 86.9231C420.418 81.1591 422.192 70.0326 416.421 62.0852L397.777 36.3802C392.006 28.4247 380.882 26.6586 372.936 32.4225Z" fill="#E3AC09"/>
<path d="M389.192 42.6141L352.183 69.4692L356.655 75.6355L393.664 48.7804L389.192 42.6141Z" fill="#F4E8D8"/>
<path d="M395.903 51.8714L358.894 78.7266L363.366 84.8929L400.375 58.0377L395.903 51.8714Z" fill="#F4E8D8"/>
<path d="M402.614 61.1288L365.604 87.9839L370.077 94.1502L407.086 67.2951L402.614 61.1288Z" fill="#F4E8D8"/>
<path opacity="0.5" d="M373.193 37.3594L349.597 54.4826C342.301 59.781 418.412 71.8869 413.115 64.5896L395.995 40.9879C390.698 33.6827 380.489 32.0611 373.193 37.3594Z" fill="#E3AC09"/>
<path d="M654.642 24.9969L555.128 4.8793C554.469 4.74283 553.723 5.52152 553.458 6.59724L539.204 64.903C538.939 65.9787 539.244 67.0063 539.886 67.1989L637.025 95.8581C637.852 96.107 638.775 95.3042 639.08 94.0759L655.63 27.5497C655.935 26.3054 655.493 25.1655 654.642 24.9969Z" fill="#F6BE4A"/>
<path d="M655.774 20.2284L556.259 0.110745C555.601 -0.0257276 554.863 0.752966 554.598 1.82869L540.344 60.1344C540.079 61.2102 540.384 62.2377 541.026 62.4304L638.165 91.0896C638.992 91.3384 639.915 90.5356 640.22 89.3074L656.769 22.7812C657.066 21.5369 656.625 20.3969 655.774 20.2284Z" fill="#465788"/>
<path d="M591.333 23.8086L610.09 44.7771C610.676 45.4274 610.347 46.744 609.528 47.049L583.195 56.8429C582.472 57.1078 581.886 56.3131 582.119 55.3818L589.696 24.6033C589.929 23.6721 590.819 23.2386 591.333 23.8086Z" fill="#EC5E4D"/>
<path opacity="0.5" d="M652.781 21.3601L565.835 3.78726C565.265 3.67487 564.615 4.34118 564.382 5.28846L637.387 83.2703C638.109 83.487 638.92 82.7886 639.185 81.7129L653.639 23.5838C653.912 22.508 653.527 21.5046 652.781 21.3601Z" fill="#465788"/>
<path d="M707.542 79.0397C706.7 82.4595 702.614 84.3461 698.505 83.2864C694.468 82.2428 691.9 78.7427 692.702 75.4352C693.505 72.1278 697.406 70.177 701.491 71.1002C705.648 72.0475 708.393 75.6118 707.542 79.0397Z" fill="#1FABE2"/>
<path d="M734.606 85.5263C733.659 89.1869 729.381 91.242 725.127 90.1422C720.954 89.0665 718.361 85.3577 719.252 81.8254C720.143 78.2852 724.228 76.1659 728.45 77.1131C732.76 78.0765 735.553 81.8576 734.606 85.5263Z" fill="#1FABE2"/>
<path d="M704.613 78.8553L714.317 43.8301L740.562 47.8761L731.862 83.3348" stroke="#1FABE2" stroke-width="8" stroke-miterlimit="10" stroke-linecap="round" stroke-linejoin="round"/>
<path d="M769.608 56.7628C771.085 59.5323 769.159 63.3937 765.378 65.3605C761.67 67.2872 757.553 66.653 756.108 63.9878C754.664 61.3145 756.421 57.5254 760.089 55.5024C763.837 53.4312 768.123 53.9852 769.608 56.7628Z" fill="#1FABE2"/>
<path d="M784.264 38.5396C785.299 32.302 774.352 22.8613 774.352 22.8613L770.387 40.9038L766.422 58.9462" stroke="#1FABE2" stroke-width="8" stroke-miterlimit="10" stroke-linecap="round" stroke-linejoin="round"/>
<path d="M445.749 44.0708C442.522 58.2318 450.797 71.3653 463.743 74.4961C476.44 77.5708 490.558 70.2575 495.928 57.1882C501.819 42.8346 495.221 26.7549 480.333 22.5082C465.092 18.1652 449.312 28.4568 445.749 44.0708Z" fill="#E35F36"/>
<path d="M458.807 36.5968C467.058 28.6332 473.03 40.3939 473.76 41.9352C475.269 41.004 486.987 34.1644 489.122 44.7771C492.26 60.367 468.792 65.8821 466.087 66.4681L466.055 66.5805C466.055 66.5805 466.023 66.5484 465.959 66.5003C465.878 66.5163 465.83 66.5243 465.83 66.5243L465.862 66.4119C463.88 64.6539 446.431 48.5341 458.807 36.5968Z" fill="#F4E8D8"/>
<path d="M487.011 366.362C490.318 362.348 485.502 360.084 470.935 360.293C464.988 360.381 459.49 361.818 451.704 360.124C446.64 359.024 440.645 360.06 442.996 364.86C444.971 368.874 446.913 373.201 456.079 372.928C458.559 372.856 467.195 373.217 471.994 373.643C476.561 374.052 484.852 368.987 487.011 366.362Z" fill="#F6874E"/>
<path d="M270.669 301.481L346.876 439.944L368.787 434.863L473.888 430.416L453.566 374.205C457.684 373.177 460.059 368.867 458.727 364.837L432.482 289.761C430.716 284.398 425.387 281.051 419.785 281.789L270.669 301.481Z" fill="#1FABE2"/>
<path d="M359.261 383.164C359.261 383.164 349.003 372.335 343.016 377.175C337.029 382.024 339.597 391.433 345.014 397.132C350.432 402.832 359.806 407.705 365.818 401.692C372.937 394.563 359.261 383.164 359.261 383.164Z" fill="#F4E8D8"/>
<path d="M366.878 329.643C362.151 334.989 353.089 371.764 349.413 379.182C343.378 391.352 354.173 400.464 362.431 395.061C369.936 390.156 405.933 382.674 412.602 376.003C415.347 373.257 424.986 363.937 409.745 343.611C394.078 322.731 374.182 321.382 366.878 329.643Z" fill="#F5BF4E"/>
<path d="M410.222 371.431C416.754 364.897 413.065 350.615 401.982 339.529C390.899 328.444 376.619 324.754 370.087 331.287C363.555 337.82 367.244 352.103 378.327 363.189C389.41 374.274 403.69 377.964 410.222 371.431Z" fill="#F4E8D8"/>
<path d="M385.778 366.974C389.48 363.272 390.296 358.085 387.6 355.389C384.904 352.692 379.719 353.508 376.017 357.211C372.315 360.913 371.5 366.1 374.195 368.796C376.891 371.492 382.077 370.677 385.778 366.974Z" fill="#465788"/>
<path opacity="0.5" d="M292.468 299.001C292.468 299.001 445.195 359.867 449.586 361.481C449.586 361.481 453.976 363.094 449.586 361.481C453.117 360.598 455.164 356.897 454.024 353.437L431.471 288.942C429.954 284.334 425.371 281.46 420.563 282.094L292.468 299.001Z" fill="#1FABE2"/>
<path d="M566.171 329.426C562.576 318.838 565.746 286.815 565.746 258.71C565.746 242.196 577.087 227.634 586.911 229.488C602.578 232.451 605.964 247.27 608.926 266.328C613.1 293.181 614.681 333.464 605.009 354.192C596.117 373.258 569.767 340.015 566.171 329.426Z" fill="#1D2436"/>
<path d="M566.171 329.426C562.576 318.838 565.746 286.815 565.746 258.71C565.746 242.196 577.087 227.634 586.911 229.488C602.578 232.451 580.137 254.471 583.098 273.529C587.272 300.382 598.268 312.937 588.604 333.657C579.711 352.723 569.767 340.015 566.171 329.426Z" fill="#1D2436"/>
<path d="M586.069 327.733C579.295 322.651 568.355 320.227 563.21 323.502C558.114 326.745 556.942 329.499 556.942 329.499C556.942 329.499 547.367 329.86 540.087 336.194C532.872 342.472 492.83 346.783 487.693 357.7C482.477 368.787 477.95 392.123 501.217 396.763C527.302 401.973 531.925 389.972 542.046 387.435C552.472 384.826 593.268 368.433 601.527 356.737C606.599 349.544 597.618 336.403 586.069 327.733Z" fill="#C83F37"/>
<path d="M586.069 327.733C583.003 325.437 595.692 347.144 574.214 362.453C569.374 365.905 557.841 367.029 551.356 370.071C522.968 383.397 490.848 394.684 501.217 396.755C527.302 401.965 531.925 389.964 542.046 387.427C552.472 384.818 593.268 368.425 601.527 356.729C606.599 349.544 597.618 336.403 586.069 327.733Z" fill="#972A27"/>
<path d="M488.271 358.439C495.888 352.089 504.147 352.723 510.712 367.117C510.712 367.117 512.614 358.647 516.852 367.542C521.868 378.083 517.149 396.795 504.155 396.972C488.48 397.181 483.881 362.091 488.271 358.439Z" fill="#972A27"/>
<path d="M499.596 397.983C491.329 399.364 483.102 391.039 481.104 379.905C479.186 369.26 483.632 359.546 491.136 357.748C498.841 355.902 507.325 362.95 510.006 373.988C512.807 385.573 508.103 396.563 499.596 397.983Z" fill="#F4E8D8"/>
<path d="M495.863 394.468C491.024 395.102 485.598 388.246 483.72 379.496C481.914 371.091 484.017 363.778 488.439 362.846C492.958 361.899 498.432 367.896 500.655 376.59C502.967 385.653 500.816 393.826 495.863 394.468Z" fill="#972A27"/>
<path d="M497.693 393.897L483.615 401.836C483.615 401.836 471.127 411.574 463.928 411.149C456.728 410.723 444.569 411.076 440.957 409.776C432.754 406.814 439.689 403.851 439.689 403.851C439.689 403.851 435.299 405.489 430.692 404.221C427.425 403.322 424.536 397.807 430.371 397.076L434.865 396.386C434.865 396.386 421.903 398.079 421.261 392.259C420.804 388.053 424.648 387.178 432.69 387.603C440.732 388.029 457.667 381.197 460.629 380.354C463.59 379.511 469.241 371.877 476.183 365.214C491.449 350.603 508.007 383.573 497.693 393.897Z" fill="#F6874E"/>
<path d="M473.559 377.858C473.559 377.858 475.943 371.026 473.238 369.758C470.541 368.489 462.178 375.794 457.098 377.063C452.017 378.331 429.897 377.384 425.451 378.331C421.004 379.279 421.326 383.413 425.451 384.681C429.576 385.95 437.362 386.744 446.407 385.789C459.16 384.456 457.619 384.015 473.559 377.858Z" fill="#F6874E"/>
<path d="M556.934 329.499C556.934 329.499 569.446 330.061 575.803 334.829C582.151 339.59 571.854 321.246 556.934 329.499Z" fill="#972A27"/>
<path d="M556.428 331.016C556.428 331.016 571.348 338 575.161 353.245C575.161 353.245 578.973 341.492 571.348 336.41C563.731 331.337 557.062 329.113 556.428 331.016Z" fill="#972A27"/>
<path d="M331.635 113.471C331.635 113.471 396.405 143.961 396.405 240.503" stroke="#F6BE4A" stroke-width="7" stroke-miterlimit="10" stroke-linecap="round" stroke-linejoin="round"/>
<path d="M316.394 122.366C316.394 122.366 345.608 132.529 351.957 154.124" stroke="#29ACE4" stroke-width="7" stroke-miterlimit="10" stroke-linecap="round" stroke-linejoin="round"/>
<path d="M360.208 173.808C362.836 173.808 364.967 171.677 364.967 169.048C364.967 166.418 362.836 164.287 360.208 164.287C357.579 164.287 355.448 166.418 355.448 169.048C355.448 171.677 357.579 173.808 360.208 173.808Z" fill="#29ACE4"/>
<path d="M475.943 339.734C475.943 339.734 569.455 250.353 661.209 280.521" stroke="#29ACE4" stroke-width="7" stroke-miterlimit="10" stroke-linecap="round" stroke-linejoin="round"/>
<path d="M722.961 334.468C722.961 334.468 658.512 264.771 582.489 301.899" stroke="#F6BE4A" stroke-width="7" stroke-miterlimit="10" stroke-linecap="round" stroke-linejoin="round"/>
<path d="M682.165 290.05C684.793 290.05 686.924 287.918 686.924 285.289C686.924 282.66 684.793 280.529 682.165 280.529C679.536 280.529 677.405 282.66 677.405 285.289C677.405 287.918 679.536 290.05 682.165 290.05Z" fill="#29ACE4"/>
<path d="M679.396 119.211C660.454 109.642 637.347 117.236 627.78 136.182C623.358 144.932 622.612 154.573 624.939 163.364C624.947 163.388 624.947 163.404 624.947 163.428C624.963 163.492 624.979 163.556 624.995 163.612C625.019 163.693 625.036 163.765 625.06 163.845C629.554 180.431 638.335 205.124 642.203 205.678C648.054 206.513 674.307 192.729 682.711 185.93C688.345 182.341 693.128 177.252 696.363 170.854C705.93 151.9 698.337 128.788 679.396 119.211Z" fill="#E35F36"/>
<path d="M662.067 182.799C678.237 182.799 691.346 169.687 691.346 153.513C691.346 137.34 678.237 124.228 662.067 124.228C645.897 124.228 632.788 137.34 632.788 153.513C632.788 169.687 645.897 182.799 662.067 182.799Z" fill="#F4E8D8"/>
<path opacity="0.5" d="M627.772 136.181C623.349 144.932 622.603 154.573 624.93 163.363C624.939 163.388 624.939 163.404 624.939 163.428C624.955 163.492 624.971 163.556 624.987 163.612C625.011 163.693 625.027 163.765 625.051 163.845C629.545 180.431 638.326 205.124 642.194 205.678C645.63 206.168 700.528 174.474 678.938 137C657.348 99.5266 631.728 128.354 627.772 136.181Z" fill="#E35F36"/>
<path d="M702.486 380.877C702.486 380.877 745.032 361.505 768.533 332.605C768.533 332.605 835.847 332.605 849.178 333.24C849.178 333.24 826.954 394.853 785.676 427.245C785.676 427.245 736.148 437.408 702.486 380.877Z" fill="#F6BE4A"/>
<path d="M778.187 340.738C778.187 340.738 764.969 352.715 753.869 362.405C743.563 371.404 726.973 383.301 720.271 387.612C720.271 387.612 734.357 400.368 745.674 402.263C765.675 405.618 779.327 394.853 779.327 394.853L770.226 369.919L790.122 359.306L778.187 340.738Z" fill="#9A6EA7"/>
<path d="M805.14 364.468L806.673 361.208C807.853 358.704 811.239 356.882 814.691 357.138C818.712 357.435 821.368 360.382 819.932 363.729L818.062 368.104C816.561 371.605 811.866 373.017 808.222 371.452C805.124 370.135 803.928 367.061 805.14 364.468Z" fill="#9A6EA7"/>
<path opacity="0.5" d="M702.486 380.876C702.486 380.876 745.032 361.505 768.533 332.605C768.533 332.605 822.195 333.24 835.526 333.874C835.526 333.874 747.89 416.769 702.486 380.876Z" fill="#F6BE4A"/>
<path d="M289.301 39.9944L264.917 32.7896L257.714 57.1788L282.098 64.3837L289.301 39.9944Z" fill="#F4E8D8"/>
<path d="M443.432 142.727L418.029 117.319L392.627 142.727L418.029 168.134L443.432 142.727Z" stroke="#CCE5CF" stroke-width="3" stroke-miterlimit="10"/>
<path d="M667.562 486.436L706.381 468.668L697.499 449.255L688.617 429.841L649.799 447.609L667.562 486.436Z" fill="#CCE5CF"/>
<path d="M673.835 448.496L658.76 415.545L625.816 430.624L640.891 463.574L673.835 448.496Z" fill="#CCE5CF"/>
<path d="M269.557 350.353L252.505 317.21L219.369 334.266L236.421 367.409L269.557 350.353Z" stroke="#CCE5CF" stroke-width="3" stroke-miterlimit="10"/>
<path d="M825.918 142.526L803.188 98.3467L759.018 121.082L781.749 165.261L825.918 142.526Z" stroke="#CCE5CF" stroke-width="3" stroke-miterlimit="10"/>
<path d="M846.165 153.484L829.112 120.341L795.976 137.397L813.029 170.54L846.165 153.484Z" fill="#CCE5CF"/>
<path d="M236.046 345.668L223.312 320.919L198.569 333.655L211.303 358.404L236.046 345.668Z" fill="#CCE5CF"/>
<path d="M784.368 204.658L771.863 250.377L721.652 247.96C712.567 272.951 732.19 293.815 760.916 293.855C790.147 293.887 813.575 275.56 820.188 249.815C826.448 225.426 811.135 203.976 784.368 204.658Z" fill="#C83F37"/>
<path d="M780.258 201.384L768.436 244.613L720.954 242.333C712.366 265.967 726.853 283.612 753.901 286.125C782.506 288.774 809.634 265.453 815.886 241.113C821.809 218.049 805.572 200.741 780.258 201.384Z" fill="#29ABE3"/>
<path opacity="0.5" d="M757.954 244.115L720.954 242.341C712.366 265.975 726.853 283.62 753.901 286.132C772.345 287.842 790.179 278.747 802.194 265.549C774.881 265.067 757.954 244.115 757.954 244.115Z" fill="#29ACE4"/>
<path d="M713.562 238.68L711.973 232.643L775.667 188.892C775.667 188.892 776.574 192.232 777.256 194.929L764.72 239.868L713.562 238.68Z" fill="#EC5E4D"/>
<path d="M711.973 232.652C720.849 208.697 748.997 189.631 775.667 188.901L762.922 235.036L711.973 232.652Z" fill="#F6BE4A"/>
<path opacity="0.5" d="M711.973 232.651C716.467 220.513 725.914 209.628 737.616 201.752C735.505 223.363 753.732 234.61 753.732 234.61L711.973 232.651Z" fill="#F6BE4A"/>
</svg>
