<svg width="786" height="880" viewBox="0 0 786 880" fill="none" xmlns="http://www.w3.org/2000/svg">
<path d="M613 813C613 813 595 844 567 825C539 806 562 726 611 750C611 750 582 705 601 655C620 605 638 621 638 621C638 621 615 596 650 520C685 444 714 413 749 425C784 437 799 561 758 624C758 624 773 605 779 624C785 643 805 715 716 769C627 823 613 813 613 813Z" fill="#CCE5CF"/>
<path d="M408 877C420.49 873.39 395 755 328 751C261 747 256 779 264 800C264 800 172 690 116 674C59.9997 658 84.9997 688 84.9997 688C84.9997 688 16.9997 671 2.99975 693C-11.0003 715 36.9997 788 126 823C215 858 363 890 408 877Z" fill="#CCE5CF"/>
<path d="M525 643C525 643 498 550 509 515C509 515 482 515 504 458C526 401 536 394 551 402C566 410 573 448 552 485C552 485 558 462 580 469C602 476 556 617 541 639C526 661 525 643 525 643Z" fill="#CCE5CF"/>
<path d="M407.999 551C407.999 551 431.619 549.11 436.999 537L438.999 536C438.999 536 443.999 544 430.999 551C417.999 558 403.999 563 407.999 551Z" fill="#F3E7D9"/>
<path d="M433.999 525C433.999 525 444.999 537 428.999 546C412.999 555 388.999 561 380.999 541C372.999 521 394.999 504 412.999 508C430.999 512 433.999 525 433.999 525Z" fill="#992C29"/>
<path d="M279.999 599C278.999 602 264.999 619 278.999 630C292.999 641 346.089 588.21 320.999 579.6C295.909 570.99 280.999 596 279.999 599Z" fill="#992C29"/>
<path d="M321.999 594C321.999 594 321.999 609 304.999 619C287.999 629 282.999 629 277.999 627C272.999 625 273.999 630 275.999 632C277.999 634 281.999 637 295.999 631C309.999 625 324.999 611 326.999 603C328.999 595 327.999 589 321.999 594Z" fill="#F3E7D9"/>
<path d="M493.77 726.63C493.339 727.361 493.13 728.202 493.17 729.05C493.32 731.79 494.95 736.48 499.17 740.58C503.72 744.97 509.27 753.87 510.56 755.99C510.767 756.318 511.012 756.62 511.29 756.89C512.54 758.06 515.58 765.4 522.75 764.08C533.96 762 531.35 751.95 525.3 743.08C519.25 734.21 514.73 722.88 506.06 720.68C499.15 718.89 495.11 724.38 493.77 726.63Z" fill="#C94039"/>
<path d="M494 723C493.57 723.73 494.13 727.2 494.17 728C494.32 730.74 495.95 735.43 500.17 739.53C504.805 744.023 508.667 749.25 511.6 755C514 760 520.79 764.09 527 763C533.21 761.91 532.39 751 526.34 742C520.29 733 515.77 721.8 507.1 719.6C500.15 717.89 495.33 720.75 494 723Z" fill="#121721"/>
<path d="M460 634C460 634 472 661 477 673C482 685 487 706 488 714C489 722 489 725 494 725C499 725 511 732 516 726C521 720 514 700 514 700C514 700 516 627 499 610C477.41 588.41 460 622 460 634Z" fill="#273252"/>
<path d="M496 658L500 703C498.546 704.917 497.21 706.921 496 709C495 711 502 714 502 714C502 714 489 725 494 725C499 725 511 732 516 726C521 720 514 700 514 700C514 700 516 627 499 610C477.41 588.41 496 646 496 658Z" fill="#1D2538"/>
<path d="M446.64 777.5C446.64 777.5 441.54 786.02 447.5 797.09C453.46 808.16 456.01 824.34 464.5 832.01C472.99 839.68 482.38 841.38 490.05 835.42C497.72 829.46 490.9 809.01 485.79 800.5C480.68 791.99 479.11 783.02 474.79 775.15C470.47 767.28 456.86 765.58 446.64 777.5Z" fill="#121721"/>
<path d="M397 539C402 539 459 577 475 590C491 603 503 609 503 619C503 629 499 636 492 640C485 644 479 646 461 636C443 626 414 608 391 598C368 588 367 570 376 554C385 538 397 539 397 539Z" fill="#273252"/>
<path d="M475 590C491 603 503 609 503 619C503 629 500 637 493 641L486 630L491 620L448 571C448 571 459 577 475 590Z" fill="#273252"/>
<path d="M378 679C378.75 682.93 381 694 388 700C395 706 405 722 412 739C416.722 750.024 422.767 760.434 430 770C430 770 433 783 441 787C449 791 466 785 466 785C466 785 475 782 475 775C475 768 466 750 466 750C466 750 423 647 417 645C411 643 374 658 378 679Z" fill="#273252"/>
<path d="M395 697C395.75 700.93 424 758 431 764C438 770 440 773 445 773C450 773 454 773 447 775C440 777 433 783 441 787C449 791 466 785 466 785C466 785 475 782 475 775C475 768 466 750 466 750C466 750 423 647 417 645C411 643 391 676 395 697Z" fill="#1D2538"/>
<path d="M307 572C307 572 309 589 329 617C329.76 618.06 338.5 626.12 339.23 627.19C357.84 654.39 376 688 387 694C405.85 704.28 427 702 429 680C431 658 414 636 396 601C378 566 361 534 333 547C305 560 307 572 307 572Z" fill="#273252"/>
<path d="M404 648L376 653L387 694C387 694 425 716 429 680C431.44 658 414 636 396 601C378 566 404 648 404 648Z" fill="#1D2538"/>
<path d="M315.77 592C318 590 348 594 354 593C360 592 385 577 385 577L393 559C393 559 395 568 395 567C395 566 403 542 403 542C403 542 396 537 391 537C385 537 315.77 592 315.77 592Z" fill="#1D2538"/>
<path d="M265 462C261.3 458.3 201.85 369.69 193.08 356.61C192.783 356.164 192.333 355.843 191.815 355.707C191.297 355.57 190.748 355.629 190.27 355.87C189.987 356.011 189.739 356.21 189.54 356.455C189.342 356.7 189.198 356.985 189.119 357.29C189.041 357.596 189.029 357.915 189.084 358.225C189.139 358.536 189.26 358.831 189.44 359.09L263 466L265 462Z" fill="#D77D5B"/>
<path d="M195.46 359.84C195.46 359.84 151 353 137 343C123 333 119 336 126 356C133 376 145 407 145 407C145 407 190 410 207 410C224 410 228.21 407.93 228.21 407.93L195.46 359.84Z" fill="#29C3CC"/>
<path d="M158.04 378.4L186.84 382.43L188.85 385.18L159.18 381.46L158.04 378.4Z" fill="#003B9D"/>
<path d="M154.62 371.2L194.83 376.89L196.83 379.64L155.76 374.26L154.62 371.2Z" fill="#003B9D"/>
<path d="M151.2 365L191.41 370.7L193.41 373.44L152.34 368.07L151.2 365Z" fill="#003B9D"/>
<path d="M203.55 390.13C201.48 389.54 196.2 388.3 194.55 391.98C192.55 396.56 198.46 399.76 200.46 399.76L198.46 401.76C198.46 401.76 202.29 401.57 204.46 399.76C207.51 397.25 208.16 391.45 203.55 390.13Z" fill="#003B9D"/>
<path d="M129 378C130 379 145 407 145 407C145 407 165 397 163 389C161 381 129 378 129 378Z" fill="#0160AE"/>
<path d="M163 389C163 389 152.51 383.47 136.25 381.74C119.99 380.01 87 385 80 388C80 388 51 317 44 311C44 311 70 304 96 309C122 314 132 329 136 338C140 347 164 380 163 389Z" fill="#048ABF"/>
<path d="M107.54 338.56C107.47 341.16 104.47 342.24 100.88 340.96C97.29 339.68 94.51 336.61 94.61 334.06C94.71 331.51 97.61 330.45 101.18 331.66C104.75 332.87 107.61 336 107.54 338.56Z" fill="#F3E7D9"/>
<path d="M94.3604 362.07L97.4803 344.5L112.96 356.15L116.9 328.81L140.65 363.76L94.3604 362.07Z" fill="#F3E7D9"/>
<path d="M329.45 415.1C331.66 393.04 284.22 394.91 260.56 401.3C245.92 405.3 231.83 418.17 229.56 425.88C228.78 428.52 225.98 443.3 226.97 450.56C228.04 458.49 242.97 489.94 255.59 484.13C272.9 476.18 327.23 437.17 329.45 415.1Z" fill="#C94039"/>
<path d="M314.83 425.64C315.13 410.25 290.56 397.7 268.88 401.15C243.63 405.15 230.54 421.76 232.24 430.15C233.94 438.54 254.63 444.45 272.24 444.44C289.85 444.43 314.69 432.5 314.83 425.64Z" fill="#F3E7D9"/>
<path d="M266.91 438.08C245.55 432.39 237.62 436.38 237.48 425.18C237.29 410.18 276.42 405.86 285.48 404.63C294.54 403.4 319.8 421.19 317.09 439C314.38 456.81 288.27 443.77 266.91 438.08Z" fill="#273252"/>
<path d="M486 106C486 106 470.9 154 482.45 188C494 222 559 166 530 133C501 100 486 106 486 106Z" fill="#665070"/>
<path d="M504 74C506 76 529 111 573 104C617 97 637 78 663 79C663 79 647 126 663 175C663 175 637 175 588 188C539 201 513 210 490 197C467 184 498 178 513 167C528 156 528.53 146.69 517.26 127.85C505.99 109.01 504 74 504 74Z" fill="#0160AE"/>
<path d="M364.8 265.61C364.8 265.61 350.75 241 350.75 240C350.75 239 353 225.75 353 219C353 215 359 202 365 203C371 204 369 205 365 223C363.82 228.33 372.14 213.21 376 219C379.86 224.79 386 222 390 225C394 228 395.86 245.14 392 249C388.14 252.86 385.48 264.14 380.65 267C375.82 269.86 364.8 265.61 364.8 265.61Z" fill="#F5894E"/>
<path d="M363 228C366.689 227.321 370.303 226.283 373.79 224.9C378 223 384 229 377 234C370 239 366 239 366 239C366 239 351 243 363 228Z" fill="#F5894E"/>
<path d="M432 332L222.48 8.37001C222.056 7.71788 221.782 6.97994 221.678 6.20931C221.574 5.43869 221.642 4.65456 221.877 3.91338C222.113 3.17219 222.509 2.49239 223.039 1.92291C223.568 1.35344 224.218 0.908462 224.94 0.620012C226.08 0.163263 227.345 0.120203 228.514 0.498308C229.683 0.876414 230.683 1.65183 231.34 2.69001L438 328L432 332Z" fill="#D77D5B"/>
<g clip-path="url(#clip0_30_2461)">
<path d="M609.237 134.289C608.855 133.915 608.237 133.915 607.855 134.289C607.474 134.663 607.474 135.268 607.855 135.643C608.237 136.016 608.855 136.016 609.237 135.643C609.618 135.268 609.618 134.663 609.237 134.289Z" fill="white"/>
<path d="M621.665 122.108C619.757 120.238 616.668 120.238 614.759 122.108C612.856 123.974 612.856 127.009 614.76 128.876C616.664 130.741 619.761 130.741 621.665 128.876C623.573 127.006 623.573 123.978 621.665 122.108ZM620.284 127.522C619.142 128.641 617.283 128.641 616.141 127.522C614.999 126.402 614.999 124.581 616.141 123.462C617.285 122.34 619.139 122.34 620.284 123.462C621.429 124.584 621.429 126.4 620.284 127.522Z" fill="white"/>
<path d="M632.714 111.28C632.522 111.092 632.26 110.991 631.988 111.001C631.768 111.008 626.51 111.215 620.261 113.38C615.253 115.113 611.079 117.594 607.854 120.754C607.132 121.462 606.429 122.213 605.756 122.993C602.568 121.154 600.013 121.73 598.398 122.578C594.679 124.528 592.377 129.824 592.377 133.612C592.377 133.999 592.615 134.348 592.98 134.496C593.101 134.545 593.228 134.569 593.354 134.569C593.608 134.569 593.858 134.471 594.044 134.288C596.006 132.366 598.425 132.487 599.215 132.588L599.557 132.924C598.884 134.493 598.342 136.054 597.944 137.572C597.8 138.121 597.849 138.702 598.062 139.234C597.122 139.659 596.215 140.282 595.425 141.056C592.911 143.52 592.401 149.524 592.38 149.778C592.358 150.057 592.461 150.332 592.663 150.53C592.847 150.71 593.096 150.81 593.354 150.81C593.379 150.81 593.405 150.81 593.431 150.808C593.69 150.788 599.817 150.287 602.33 147.824C603.12 147.05 603.756 146.161 604.189 145.24C604.764 145.461 605.355 145.489 605.887 145.355C607.435 144.965 609.027 144.434 610.629 143.775L610.971 144.11C611.075 144.884 611.198 147.255 609.236 149.177C608.957 149.45 608.874 149.862 609.025 150.22C609.176 150.577 609.532 150.81 609.927 150.81C613.792 150.81 619.196 148.555 621.186 144.91C622.051 143.327 622.639 140.824 620.762 137.699C621.558 137.04 622.324 136.351 623.047 135.643C626.272 132.483 628.803 128.392 630.571 123.485C632.78 117.36 632.991 112.208 632.999 111.991C633.009 111.726 632.906 111.468 632.714 111.28ZM594.56 131.553C595.167 128.676 596.929 125.519 599.32 124.265C600.917 123.427 602.663 123.509 604.52 124.505C602.938 126.544 601.563 128.74 600.417 131.06C600.402 131.051 600.227 130.834 599.9 130.762C599.766 130.732 597.182 130.188 594.56 131.553ZM600.949 146.47C599.607 147.786 596.457 148.48 594.466 148.764C594.755 146.812 595.463 143.726 596.806 142.41C597.558 141.673 598.43 141.114 599.306 140.799L602.593 144.02C602.271 144.879 601.701 145.733 600.949 146.47ZM605.402 143.501C605.119 143.572 604.792 143.468 604.548 143.23C603.285 141.991 602.791 141.507 602.636 141.355C602.351 141.077 601.654 140.393 600.113 138.884C599.87 138.644 599.764 138.324 599.836 138.047C600.149 136.853 600.558 135.629 601.055 134.392L609.131 142.306C607.869 142.794 606.619 143.195 605.402 143.501ZM619.464 144.007C618.185 146.35 614.963 148.077 612.028 148.671C612.964 146.945 613.17 144.747 612.828 143.415C612.749 143.105 612.543 142.95 612.531 142.931C614.898 141.808 617.139 140.461 619.219 138.91C620.235 140.73 620.319 142.442 619.464 144.007ZM621.666 134.289C620.786 135.151 619.839 135.985 618.85 136.765C616.473 138.641 613.856 140.23 611.065 141.495L601.883 132.497C603.174 129.761 604.795 127.197 606.709 124.868C607.506 123.898 608.356 122.969 609.236 122.107C612.129 119.272 615.863 117.016 620.336 115.391L628.519 123.41C626.862 127.795 624.56 131.454 621.666 134.289ZM629.222 121.392L622.396 114.703C626.115 113.571 629.35 113.147 630.965 112.995C630.809 114.577 630.377 117.748 629.222 121.392Z" fill="white"/>
<path d="M606.474 150.53C606.092 150.156 605.474 150.156 605.093 150.53L602.331 153.238C601.95 153.611 601.95 154.217 602.331 154.591C602.713 154.965 603.331 154.965 603.712 154.591L606.474 151.883C606.855 151.51 606.855 150.904 606.474 150.53Z" fill="white"/>
<path d="M592.663 136.996C592.282 136.622 591.664 136.622 591.282 136.996L588.52 139.702C588.138 140.076 588.138 140.682 588.519 141.056C588.9 141.429 589.519 141.43 589.9 141.056L592.663 138.349C593.044 137.976 593.045 137.37 592.663 136.996Z" fill="white"/>
<path d="M599.569 151.884C599.187 151.51 598.569 151.51 598.187 151.884L591.572 158.366C591.191 158.74 591.191 159.346 591.572 159.719C591.953 160.093 592.572 160.093 592.953 159.72L599.568 153.238C599.95 152.864 599.95 152.258 599.569 151.884Z" fill="white"/>
<path d="M591.756 151.884C591.375 151.51 590.756 151.51 590.375 151.884L583.76 158.366C583.378 158.74 583.378 159.346 583.76 159.719C584.141 160.093 584.759 160.093 585.141 159.72L591.756 153.238C592.137 152.864 592.137 152.258 591.756 151.884Z" fill="white"/>
<path d="M591.282 143.763C590.901 143.389 590.283 143.389 589.901 143.763L583.287 150.246C582.906 150.62 582.906 151.225 583.287 151.599C583.668 151.973 584.287 151.973 584.668 151.599L591.282 145.116C591.664 144.742 591.664 144.137 591.282 143.763Z" fill="white"/>
<path d="M613.379 130.229C612.998 129.855 612.379 129.855 611.998 130.229L610.617 131.582C610.236 131.955 610.236 132.561 610.617 132.935C610.999 133.309 611.617 133.309 611.998 132.935L613.379 131.582C613.76 131.208 613.76 130.602 613.379 130.229Z" fill="white"/>
</g>
<g clip-path="url(#clip1_30_2461)">
<path d="M553.35 165.959L518.674 168.673C515.866 168.893 513.406 166.838 513.191 164.092L510.941 135.346C510.726 132.6 512.836 130.187 515.644 129.967L550.32 127.253C553.129 127.033 555.588 129.088 555.803 131.834L558.054 160.581C558.268 163.326 556.158 165.739 553.35 165.959ZM515.76 131.451C513.788 131.605 512.307 133.299 512.458 135.227L514.708 163.973C514.859 165.901 516.586 167.344 518.558 167.19L553.234 164.476C555.206 164.321 556.687 162.627 556.536 160.699L554.286 131.953C554.135 130.025 552.408 128.582 550.437 128.736L515.76 131.451Z" fill="white"/>
<path d="M550.71 154.773L538.791 155.706C538.372 155.739 538.006 155.433 537.974 155.023C537.942 154.614 538.256 154.255 538.675 154.222L550.594 153.289C551.013 153.257 551.379 153.562 551.411 153.972C551.443 154.381 551.129 154.74 550.71 154.773Z" fill="white"/>
<path d="M551.13 160.135L539.211 161.068C538.792 161.101 538.426 160.796 538.394 160.386C538.362 159.976 538.675 159.618 539.094 159.585L551.014 158.652C551.433 158.619 551.799 158.925 551.831 159.334C551.863 159.744 551.549 160.102 551.13 160.135Z" fill="white"/>
<path d="M549.87 144.048L537.951 144.981C537.532 145.014 537.166 144.708 537.134 144.299C537.102 143.889 537.416 143.53 537.835 143.498L549.754 142.565C550.173 142.532 550.539 142.838 550.571 143.247C550.603 143.657 550.29 144.015 549.87 144.048Z" fill="white"/>
<path d="M550.29 149.41L538.371 150.343C537.952 150.376 537.586 150.071 537.554 149.661C537.522 149.252 537.836 148.893 538.255 148.86L550.174 147.927C550.593 147.894 550.959 148.2 550.991 148.609C551.023 149.019 550.709 149.378 550.29 149.41Z" fill="white"/>
<path d="M555.432 136.845L512.087 140.238C511.668 140.271 511.302 139.965 511.27 139.556C511.238 139.146 511.551 138.787 511.97 138.754L555.316 135.362C555.735 135.329 556.101 135.634 556.133 136.044C556.165 136.454 555.851 136.812 555.432 136.845Z" fill="white"/>
<path d="M522.057 136.798C520.755 136.9 519.615 135.947 519.516 134.675C519.416 133.402 520.394 132.284 521.696 132.182C522.997 132.08 524.137 133.032 524.237 134.305C524.336 135.578 523.359 136.696 522.057 136.798ZM521.812 133.665C521.347 133.702 520.997 134.101 521.033 134.556C521.068 135.01 521.476 135.351 521.941 135.314C522.406 135.278 522.755 134.878 522.72 134.424C522.684 133.969 522.277 133.629 521.812 133.665Z" fill="white"/>
<path d="M516.591 137.225C515.29 137.327 514.149 136.375 514.05 135.102C513.95 133.83 514.928 132.712 516.229 132.61C517.531 132.508 518.671 133.46 518.771 134.733C518.87 136.006 517.892 137.124 516.591 137.225ZM516.346 134.093C515.881 134.13 515.531 134.529 515.567 134.984C515.602 135.438 516.01 135.778 516.475 135.742C516.94 135.706 517.289 135.306 517.254 134.852C517.218 134.397 516.811 134.057 516.346 134.093Z" fill="white"/>
<path d="M527.521 136.37C526.22 136.472 525.08 135.519 524.98 134.247C524.881 132.974 525.858 131.856 527.16 131.754C528.462 131.652 529.602 132.605 529.701 133.877C529.801 135.15 528.823 136.268 527.521 136.37ZM527.276 133.238C526.811 133.274 526.462 133.674 526.498 134.128C526.533 134.582 526.941 134.923 527.405 134.886C527.871 134.85 528.22 134.45 528.184 133.996C528.149 133.542 527.741 133.201 527.276 133.238Z" fill="white"/>
<path d="M533.486 161.516L519.724 162.593C519.305 162.626 518.939 162.321 518.907 161.911L517.648 145.824C517.616 145.415 517.929 145.056 518.348 145.023L532.111 143.946C532.53 143.913 532.895 144.219 532.927 144.628L534.186 160.715C534.219 161.125 533.905 161.483 533.486 161.516ZM520.366 161.051L532.611 160.092L531.468 145.488L519.223 146.447L520.366 161.051Z" fill="white"/>
</g>
<path d="M368.079 218.81C368.079 218.81 363.939 232.11 369.149 234.62C374.359 237.13 375.149 228.28 375.149 228.28C375.149 228.28 373.929 234.17 375.309 238.1C376.689 242.03 379.099 241.05 381.019 237.1C382.939 233.15 381.219 236.1 381.219 236.1C381.219 236.1 379.589 243.96 383.989 243.96C388.389 243.96 392.649 228.1 390.119 224.73C387.589 221.36 387.749 221.99 384.119 222.66C384.119 222.66 381.029 218.25 376.589 219.81C376.589 219.81 375.259 215.2 368.089 218.81" fill="#F5894E"/>
<path d="M366 250C366 250 371 238.9 368.52 235.45C368.52 235.45 375 242 366 250Z" fill="#CC6D3D"/>
<path d="M363 228C366.689 227.321 370.303 226.283 373.79 224.9C378 223 384 229 377 234C370 239 366 239 366 239C366 239 351 243 363 228Z" fill="#CC6D3D"/>
<path d="M361 228C364.689 227.321 368.303 226.283 371.79 224.9C376 223 382 229 375 234C371.475 236.418 368.133 239.092 365 242C365 242 349 243 361 228Z" fill="#F5894E"/>
<path d="M231 21L240 16C241.512 15.7216 243.037 15.5247 244.57 15.41C254.22 15.02 265.5 15.5 272 19C285 26 279 36 316 46C353 56 363 56 376 49C389 42 401 18 453 32C505 46 514 62 514 62C514 62 507 113 523 139C523 139 514 121 476 123C438 125 423 134 391 144C369.46 150.73 340.95 151.47 326 151C318.74 150.77 316 156 316 156L231 21Z" fill="#048ABF"/>
<path d="M481.66 123.1C481.66 123.1 513.66 122.73 523 139C532.34 155.27 513.84 167.41 507 170.84C500.16 174.27 483.79 179.84 481.68 189.03C481.68 189.03 473.77 177.69 481.68 123.1" fill="#003B9D"/>
<path opacity="0.46" d="M231 21L240 16C241.512 15.7216 243.037 15.5247 244.57 15.41C254.22 15.02 265.5 15.5 272 19C285 26 279 36 316 46C353 56 363 56 376 49C389 42 314.71 150 314.71 150L231 21Z" fill="#29C3CC"/>
<path d="M368.632 73.0354C366.636 70.2886 365.05 69.6013 359.711 70.9238C356.47 71.7268 354.587 74.7468 355.367 77.8933C355.779 79.559 357.122 80.8961 358.488 82.3256C358.935 82.9026 359.572 83.4323 360.018 84.0092L360.583 84.6551C361.854 86.1082 362.724 87.1696 363.343 89.6683C363.595 90.6862 363.679 91.844 363.592 93.5352L363.615 93.6277L362.739 103.569L349.002 83.1217C349.27 83.0186 349.537 82.9139 349.805 82.8071C351.33 82.4292 352.248 80.8266 351.881 79.3459C351.492 77.7727 349.954 76.8766 348.334 77.2781C348.238 77.3017 348.238 77.3017 348.143 77.3254C344.563 78.8017 340.845 79.7227 336.989 80.0885C336.894 80.1121 336.894 80.1121 336.798 80.1357C335.178 80.5372 334.236 82.0473 334.626 83.6205C334.993 85.1012 336.553 86.0898 338.079 85.7119C338.41 85.6792 338.743 85.6421 339.077 85.6028L345.348 94.2243L343.951 109.009L329.597 87.8298C329.628 87.8165 329.659 87.8037 329.689 87.7902C331.192 87.3198 332.133 85.8097 331.766 84.329C331.376 82.7558 329.839 81.8597 328.218 82.2612C328.123 82.2848 328.123 82.2848 328.028 82.3085C325.115 83.6195 322.064 84.3752 318.876 84.5757C318.78 84.5993 318.78 84.5993 318.685 84.6229C317.065 85.0244 316.123 86.5345 316.513 88.1077C316.873 89.5625 318.364 90.452 319.884 90.2121L339.299 118.412C340.402 120.005 342.153 120.946 344.174 120.937C344.674 120.911 345.078 120.909 345.555 120.791C347.938 120.201 349.836 118.061 350.049 115.651L351.585 98.5724L361.202 112.888C362 114.065 363.183 114.754 364.323 114.865C365.368 114.999 366.394 114.646 367.232 113.947C368.357 113.178 369.058 111.923 369.142 110.626L371.107 88.3341C371.742 83.9534 371.252 80.3423 370.702 78.1213L370.335 76.6406C370.014 75.3451 369.502 74.0968 368.632 73.0354ZM337.715 83.8374C337.143 83.9791 336.67 83.7034 336.533 83.1482C336.418 82.6855 336.685 82.1283 337.162 82.0102C341.231 81.6897 345.044 80.745 348.888 79.1053C349.364 78.9873 349.86 79.3554 349.975 79.8182C350.112 80.3735 349.823 80.8381 349.251 80.9798C349.155 81.0034 349.155 81.0034 349.06 81.027C348.514 81.2523 347.964 81.4629 347.411 81.6623C347.312 81.6668 347.209 81.6821 347.104 81.7081C344.599 82.6234 342.025 83.261 339.382 83.6211C339.38 83.6215 339.378 83.6222 339.377 83.6226C338.889 83.6874 338.399 83.7435 337.906 83.7902C337.811 83.8138 337.811 83.8138 337.715 83.8374ZM318.42 87.6353C318.305 87.1727 318.572 86.6154 319.049 86.4973C322.45 86.3421 325.692 85.5392 328.772 84.0884C329.249 83.9704 329.745 84.3385 329.86 84.8013C329.997 85.3566 329.708 85.8212 329.136 85.9629C329.04 85.9865 329.04 85.9865 328.945 86.0101C328.568 86.1796 328.189 86.3395 327.808 86.4905C327.789 86.4942 327.77 86.4976 327.751 86.5023C327.598 86.5664 327.444 86.6288 327.289 86.6899C325.127 87.4941 322.891 88.0013 320.582 88.2147C320.517 88.2191 320.453 88.2244 320.388 88.2283C320.38 88.2303 320.371 88.2331 320.363 88.2353C320.173 88.2512 319.984 88.2655 319.793 88.2775C319.698 88.3011 319.698 88.3011 319.602 88.3247C319.03 88.4663 318.557 88.1906 318.42 87.6353ZM368.723 78.7099C369.227 80.7457 369.766 84.1482 369.158 88.2276L367.098 110.543C366.995 111.354 366.56 112.051 365.867 112.518C365.436 112.821 364.982 113.032 364.46 112.965C363.842 112.921 363.132 112.508 362.663 111.838L351.496 95.3531C351.309 95.0065 350.859 94.8234 350.478 94.9179C350.096 95.0123 349.784 95.3844 349.78 95.7782L348.077 115.452C347.94 117.352 346.213 118.958 344.192 118.968C342.884 118.997 341.724 118.4 340.95 117.315L322.145 89.9771C323.089 89.8516 324.023 89.685 324.942 89.4574C325.897 89.2209 326.835 88.9189 327.762 88.573L343.968 112.344C344.155 112.691 344.605 112.874 344.986 112.779C345.368 112.685 345.68 112.313 345.684 111.919L347.323 94.0296C347.373 93.8209 347.304 93.5434 347.163 93.3818L341.344 85.2802C342.248 85.1281 343.143 84.9485 344.009 84.7341C345.039 84.4789 346.083 84.1613 347.131 83.8025L362.756 106.904C362.943 107.251 363.393 107.434 363.774 107.339C364.156 107.245 364.468 106.873 364.472 106.479L365.61 93.9194C365.682 93.8033 365.682 93.8033 365.66 93.7107C365.796 91.8107 365.643 90.3753 365.368 89.2648C364.634 86.3035 363.505 85.0117 362.211 83.4661L361.646 82.8202C361.104 82.2669 360.54 81.621 359.998 81.0677C358.796 79.8921 357.689 78.6929 357.391 77.4898C356.795 75.0838 358.476 73.2923 360.288 72.8436C365.245 71.6155 365.856 72.4465 367.004 74.2245C367.615 75.0555 368.058 76.0262 368.333 77.1366L368.723 78.7099Z" fill="white"/>
<path d="M453.66 53.6406L453.134 53.7288C453.863 51.9264 453.125 49.7946 451.314 48.8695C449.362 47.8728 446.965 48.7009 446.057 50.7142L444.008 55.2591L420.518 59.1977C418.587 59.5214 417.28 61.3556 417.604 63.2864L421.357 85.6733C421.681 87.604 423.515 88.9115 425.446 88.5877L439.047 86.3072L438.743 90.7958L436.525 91.1677C435.08 91.4101 434.101 92.7833 434.343 94.2288L434.435 94.7762L431.701 95.2347C431.222 95.3149 430.899 95.7682 430.979 96.2468C431.059 96.7254 431.513 97.0485 431.991 96.9682L455.134 93.0878C455.613 93.0075 455.936 92.5543 455.856 92.0757C455.776 91.597 455.323 91.2739 454.844 91.3542L452.11 91.8127L452.018 91.2653C451.775 89.8197 450.402 88.841 448.957 89.0833L446.739 89.4552L444.987 85.3112L458.588 83.0307C460.519 82.7069 461.826 80.8728 461.503 78.942L460.677 74.016L457.749 56.555C457.425 54.6242 455.591 53.3168 453.66 53.6406ZM443.796 70.961C442.6 72.137 439.844 71.2732 437.637 72.9735C436.53 69.9994 436.418 67.0466 439.391 65.8923C439.775 65.7427 440.197 65.6333 440.563 65.5794C441.735 66.1779 442.92 66.7833 444.089 67.3802C444.765 68.6273 444.813 69.9606 443.796 70.961ZM443.111 61.5236L445.87 62.9327L444.369 65.5496C443.496 65.1035 442.745 64.72 441.871 64.2738C441.992 64.0057 443.001 61.7686 443.111 61.5236ZM447.66 51.4368C448.152 50.3454 449.452 49.8926 450.514 50.435C451.576 50.9775 451.972 52.2966 451.376 53.335C450.319 55.1771 447.807 59.557 446.746 61.4062L443.835 59.9194L447.66 51.4368ZM450.284 91.556L450.376 92.1033L436.169 94.4855L436.077 93.9382C435.995 93.4486 436.326 92.9834 436.816 92.9013L449.247 90.8169C449.737 90.7348 450.202 91.0664 450.284 91.556ZM444.956 89.7541L440.525 90.497L440.829 86.0084L443.205 85.61L444.956 89.7541ZM459.769 79.2327C459.933 80.2075 459.273 81.1336 458.298 81.2971C456.922 81.5278 426.702 86.5947 425.155 86.8541C424.181 87.0176 423.254 86.3575 423.091 85.3826L422.41 81.3234L424.887 80.9081C425.366 80.8278 425.689 80.3746 425.609 79.896C425.529 79.4173 425.075 79.0942 424.597 79.1745L422.12 79.5899L419.337 62.9956C419.174 62.0207 419.834 61.0946 420.809 60.9312L443.138 57.1871C442.516 58.5673 440.701 62.5939 440.126 63.8693C438.429 64.1694 436.833 65.0455 435.94 66.5277C434.725 68.5445 434.924 71.3599 436.532 74.8958C436.807 75.5004 437.635 75.5947 438.036 75.0581C439.918 72.5408 443.101 74.4087 445.262 71.9663C446.58 70.4753 446.612 68.4511 445.729 66.7114C446.348 65.6327 451.43 56.7742 452.05 55.6929L453.951 55.3741C454.926 55.2107 455.852 55.8708 456.015 56.8457L458.798 73.4398L431.531 78.0118C431.052 78.092 430.729 78.5452 430.809 79.0239C430.89 79.5025 431.343 79.8256 431.821 79.7453L459.089 75.1734L459.769 79.2327Z" fill="white"/>
<path d="M427.9 78.638C427.497 78.7932 427.278 79.2008 427.346 79.6052C427.437 80.1474 428.002 80.4795 428.524 80.281C428.988 80.1031 429.202 79.5916 429.033 79.1476C428.857 78.6896 428.347 78.4672 427.9 78.638Z" fill="white"/>
<path d="M360 262.44C361.72 267.63 364.42 262.8 373.27 263.52C380.63 264.11 386.27 267.25 387.56 262.9C389.07 257.63 383.5 258.11 371.93 258.06C364.5 258 358.24 257.24 360 262.44Z" fill="#F3E7D9"/>
<path d="M376.94 368.33C371.061 366.892 365.802 363.599 361.94 358.94C356.94 352.78 358.18 346.63 359.31 337.03C361.55 317.94 359.6 326.34 357.91 313.12C355.76 296.23 352.18 265.12 366.22 262.91C383.46 260.16 387.48 261.76 389.08 267.31C390.68 272.86 387.99 270.8 389.08 274.79C390.17 278.78 393 316.88 394.52 325.28C396.04 333.68 395.24 338.39 395.24 338.39C395.24 338.39 396.17 348.1 396.13 353.27C396.09 358.44 395.14 370.5 376.94 368.33Z" fill="#C94039"/>
<path d="M376.88 368.81C376.88 368.81 386.25 351.47 387.02 344.59C388.1 334.89 376.81 272.51 376.81 272.51C376.81 272.51 382.91 253.98 389.11 267.31C391.54 272.54 390.53 296.4 391.62 300.39C392.71 304.38 393.03 316.88 394.55 325.28C396.07 333.68 395.27 338.39 395.27 338.39C395.27 338.39 396.2 348.1 396.16 353.27C396.12 358.44 395.07 371 376.88 368.81Z" fill="#992C29"/>
<path d="M386.519 335.35L379.809 314.44L371.149 300.82C371.149 300.82 386.579 310.43 388.309 319.52C389.367 324.855 388.742 330.386 386.519 335.35Z" fill="#992C29"/>
<path d="M363.18 452.9C356.93 453.44 337.27 422.34 337.27 410.41C337.27 405.23 348.67 390.73 348.67 390.73L349.67 385.55C350.49 381.63 354 357 358 353C362 349 368 356 378 356C388 356 396.66 341.42 396.34 356.53C396.02 371.64 384.52 395.13 383.28 406.76C382.04 418.39 369.58 452.34 363.18 452.9Z" fill="#273252"/>
<path d="M363.18 452.9C356.93 453.44 337.27 422.34 337.27 410.41C337.27 405.23 350.85 412.41 354.27 412.68C357.69 412.95 369.84 403.19 369.84 403.19L366.41 397.65C366.41 397.65 368 356 378 356C388 356 396.66 341.42 396.34 356.53C396.02 371.64 384.52 395.13 383.28 406.76C382.04 418.39 369.58 452.34 363.18 452.9Z" fill="#1D2538"/>
<path d="M406.999 529C404.999 532 404.999 534 408.999 535C412.999 536 411.999 531 420.999 530C426.609 529.38 433.749 533.84 435.999 538C437.359 540.52 433.739 544.13 435.999 543C441.999 540 442.999 529 428.999 525C425.058 523.8 420.874 523.629 416.848 524.504C412.822 525.379 409.087 527.271 405.999 530" fill="#F3E7D9"/>
<path d="M273.17 433.05C273.17 433.05 289.34 419.33 321 413.05C331 411.05 347.45 422.68 359 449.05C370.55 475.42 399 532.05 399 532.05C399 532.05 377.31 561.73 352 579.05C333.23 591.89 310.66 594.87 303 590.05C285 578.68 247.28 449.93 273.17 433.05Z" fill="#1FABE2"/>
<path d="M317.93 422.17C320.87 429.02 314.1 441.92 304.81 445.91C295.52 449.9 281.02 443.68 278.07 436.83C275.12 429.98 285.73 426 295 422C304.27 418 315 415.32 317.93 422.17Z" fill="#F5894E"/>
<path d="M356.999 547.15L344.549 486.87L318.269 418.72C330.489 416.72 354.699 430.99 366.269 457.36C377.839 483.73 399.589 532 399.589 532L392.589 547L347.999 589L304.999 592L318.669 589.12C318.669 589.12 344.609 582.12 348.469 577.25C356.339 567.25 368.869 535.11 368.869 535.11L356.999 547.15Z" fill="#197CCE"/>
<path d="M319.36 418.48C321.2 411.83 329 408 335 408C341 408 332 408 352 429C357.23 434.49 364.08 439.29 367.51 445C393.06 487.79 422.67 498 429 505C436.18 513 444.42 530.78 439 543C436.52 548.58 447 528 425 524C416.15 522.39 406 530 406 530C396 526 371.8 503.35 362.84 482.7C358.23 472.08 347 450.39 337 437C327.52 424.36 319 419.72 319.36 418.48Z" fill="#C94039"/>
<path d="M319.36 418.48C321.2 411.83 329 408 335 408C341 408 332 408 352 429C357.23 434.49 364.08 439.29 367.51 445C393.06 487.79 422.67 498 429 505C436.18 513 444.42 530.78 439 543C436.52 548.58 447 528 425 524L415.2 504.46C405.2 500.46 381.97 481.52 381.97 481.52C381.97 481.52 347 450.39 337 437C327.52 424.36 319 419.72 319.36 418.48Z" fill="#992C29"/>
<path d="M306.5 416.5C322.83 421.95 330.66 472.08 323.5 474.41C316.34 476.74 271.38 435.69 280.5 425.5" stroke="#992C29" stroke-miterlimit="10"/>
<path d="M326.445 483.556C327.855 483.124 328.327 480.586 327.499 477.888C326.672 475.19 324.858 473.353 323.448 473.786C322.038 474.218 321.566 476.756 322.394 479.454C323.221 482.152 325.035 483.989 326.445 483.556Z" fill="#29ABE2"/>
<path d="M314.439 412.29C320.379 409.79 323.089 410.77 327.299 411.96C331.509 413.15 334.839 417.23 342.039 428.06C349.239 438.89 360.449 471.49 357.039 473C353.629 474.51 342.329 446.14 335.039 437C327.749 427.86 308.499 414.79 314.439 412.29Z" fill="#F3E7D9"/>
<path d="M299.999 603C307.219 600.59 310.999 593 303.999 594C296.999 595 294.999 600 287.999 605C280.999 610 272.329 618.66 276.999 628C278.999 632 279.999 632 282.999 626C285.999 620 287.999 607 299.999 603Z" fill="#F3E7D9"/>
<path d="M272.889 437.11C280.069 439.72 295.889 470.66 301.559 488.11C307.229 505.56 303.809 533.29 307.289 544.33C310.769 555.37 312.179 591.07 309.939 594.16C309.049 595.39 292.359 600.3 285.999 606.97C280.168 613.29 276.644 621.395 275.999 629.97C275.999 629.97 241.209 600.76 258.999 542.97C257.999 519.97 234.349 470.73 235.999 462.97C237.649 455.21 265.709 434.49 272.889 437.11Z" fill="#992C29"/>
<path d="M281.439 449.54C288.629 452.15 295.899 470.66 301.559 488.14C307.219 505.62 303.809 533.32 307.289 544.36C310.769 555.4 312.179 591.1 309.939 594.19C308.299 596.46 302.999 554 302.999 554C302.999 554 292.639 551.81 291.559 543.64C291.039 539.64 293.289 488.32 293.289 488.32C293.289 488.32 274.259 446.92 281.439 449.54Z" fill="#C94039"/>
<path d="M305.3 499.33C307.53 494.94 304.54 487.82 299.79 476.96C295.04 466.1 288 448.27 279.38 438.72C270.33 428.72 250.16 439.64 259.28 443.72C268.7 447.93 279.17 455.63 288.99 472.04C299.91 490.29 303.08 503.71 305.3 499.33Z" fill="#F3E7D9"/>
<path d="M287.769 567.55L291.669 568.55C291.669 568.55 288.979 583.75 276.829 587.42L275.619 584.65C275.619 584.65 284.589 581.22 287.769 567.55Z" fill="#F3E7D9"/>
<path d="M295.55 493.36C295.55 493.36 304.73 518.66 288.77 528.31C292.498 516.994 294.776 505.25 295.55 493.36Z" fill="#C94039"/>
<path d="M395.999 507L396.999 510.79C396.999 510.79 401.999 514 418.999 512L417.999 508C417.999 508 404.999 513 395.999 507Z" fill="#F3E7D9"/>
<path d="M501.799 319.13C520.588 319.13 535.819 303.899 535.819 285.11C535.819 266.321 520.588 251.09 501.799 251.09C483.011 251.09 467.779 266.321 467.779 285.11C467.779 303.899 483.011 319.13 501.799 319.13Z" fill="#2B4EE3"/>
<path d="M479.319 287.64L498.409 268.61L525.419 276.91" stroke="#F3E7D9" stroke-width="5" stroke-linecap="round" stroke-linejoin="round"/>
<path d="M517.573 277.312C517.514 276.273 517.133 275.278 516.483 274.466C515.832 273.654 514.944 273.065 513.943 272.782L502.123 269.232C501.133 268.94 500.081 268.923 499.082 269.184C498.083 269.445 497.174 269.973 496.453 270.712L488.453 278.922C487.717 279.663 487.231 280.616 487.064 281.647C486.897 282.679 487.058 283.736 487.523 284.672L496.363 301.782C496.939 302.831 497.85 303.656 498.95 304.128C500.05 304.599 501.276 304.688 502.433 304.382L514.193 301.492C515.39 301.223 516.458 300.551 517.217 299.587C517.977 298.624 518.381 297.428 518.363 296.202L517.573 277.312ZM504.923 290.862C503.849 291.059 502.74 290.938 501.735 290.513C500.729 290.087 499.87 289.377 499.263 288.469C498.656 287.561 498.329 286.495 498.322 285.403C498.314 284.311 498.627 283.24 499.221 282.324C499.815 281.407 500.664 280.685 501.664 280.246C502.664 279.807 503.77 279.67 504.847 279.853C505.924 280.036 506.923 280.53 507.722 281.274C508.521 282.019 509.085 282.981 509.343 284.042C509.66 285.532 509.373 287.088 508.544 288.366C507.715 289.645 506.413 290.543 504.923 290.862Z" fill="#F3E7D9"/>
<path opacity="0.5" d="M530.999 275.29C530.999 287.75 475.129 287.75 475.129 275.29C475.129 262.83 487.629 252.73 503.059 252.73C518.489 252.73 530.999 262.83 530.999 275.29Z" fill="#FFFCF3"/>
<path d="M456.81 359.96L470 386.07" stroke="#048ABF" stroke-width="3" stroke-linecap="round" stroke-linejoin="round"/>
<path d="M446.969 389.34L471.629 371.21" stroke="#048ABF" stroke-width="3" stroke-linecap="round" stroke-linejoin="round"/>
<path d="M442.779 381.18L467.439 363.06" stroke="#048ABF" stroke-width="3" stroke-linecap="round" stroke-linejoin="round"/>
<path d="M446.35 367.85L459.54 393.96" stroke="#048ABF" stroke-width="3" stroke-linecap="round" stroke-linejoin="round"/>
<path d="M276.21 177.96L209.75 215.41L261.97 238.62L276.21 177.96Z" fill="#33A86D"/>
<path opacity="0.5" d="M276.21 177.96L250.63 193.52L261.97 238.62L276.21 177.96Z" fill="#99D2B0"/>
<path d="M276.21 177.96L272.67 181.97L233.22 225.69L236.12 226.75L276.21 177.96Z" fill="#288453"/>
<path d="M178.739 122.9C179.569 124.63 185.919 138.33 182.169 146.72C182.085 146.904 182.063 147.109 182.105 147.307C182.147 147.504 182.251 147.683 182.402 147.816C182.554 147.95 182.744 148.031 182.945 148.048C183.146 148.065 183.348 148.016 183.519 147.91C190.789 143.37 206.379 131.34 205.909 111.81C205.309 86.58 178.479 113.81 178.649 122.51C178.649 122.645 178.68 122.779 178.739 122.9Z" fill="#E3AC09"/>
<path d="M182.699 77.89H161.279C148.461 77.89 138.069 88.2815 138.069 101.1V111.01C138.069 123.829 148.461 134.22 161.279 134.22H182.699C195.518 134.22 205.909 123.829 205.909 111.01V101.1C205.909 88.2815 195.518 77.89 182.699 77.89Z" fill="#E3AC09"/>
<path opacity="0.5" d="M156.649 94.78C155.582 94.1337 154.715 93.2039 154.145 92.094C153.575 90.9841 153.324 89.7378 153.421 88.4937C153.517 87.2497 153.957 86.0569 154.691 85.0481C155.425 84.0393 156.425 83.2541 157.579 82.78C167.719 78.72 184.229 82.02 188.119 82.48C199.759 83.88 202.249 97.48 201.949 110.83C201.923 111.977 201.595 113.097 200.999 114.077C200.403 115.057 199.559 115.863 198.553 116.414C197.547 116.965 196.414 117.242 195.267 117.217C194.12 117.191 193 116.865 192.019 116.27L156.649 94.78Z" fill="#FFFCF3"/>
<path d="M69.7691 258.13C90.5627 258.13 107.419 241.273 107.419 220.48C107.419 199.686 90.5627 182.83 69.7691 182.83C48.9756 182.83 32.1191 199.686 32.1191 220.48C32.1191 241.273 48.9756 258.13 69.7691 258.13Z" fill="#048ABF"/>
<path d="M61.0793 246.24C57.8193 248.12 54.4193 247.33 52.0793 243.31L47.5493 234.73C45.2293 230.73 45.4093 226.66 48.6693 224.73C51.9293 222.85 55.1393 223.29 57.4593 227.31L61.9893 235.89C64.3293 240 64.3393 244.36 61.0793 246.24Z" fill="#F3E7D9"/>
<path d="M58.9296 226.05C57.6696 223.94 58.4896 221.64 59.0196 219.23C59.6896 216.18 60.9096 209.23 60.4196 208.03C59.5996 205.97 55.4196 198.03 56.3196 195.83C57.2196 193.63 62.7896 193.15 65.1496 195.53C68.0196 198.43 68.0196 199.83 69.0596 203.95C69.9296 207.44 69.5996 208.14 73.0596 207.03C77.0596 205.74 82.7196 205.19 84.4596 204.43C85.0416 204.188 85.6674 204.069 86.2976 204.08C86.9279 204.091 87.5491 204.233 88.122 204.496C88.6949 204.759 89.2072 205.137 89.6267 205.608C90.0462 206.078 90.3638 206.631 90.5596 207.23C90.7718 207.714 90.8558 208.244 90.8032 208.769C90.7506 209.295 90.5634 209.798 90.2596 210.23C90.8924 210.588 91.4422 211.077 91.8731 211.663C92.3039 212.249 92.606 212.919 92.7596 213.63C93.0974 215.21 92.9222 216.856 92.2596 218.33C92.2596 218.33 95.7596 219.83 94.5596 224.83C94.5596 224.83 96.8696 229.4 93.8596 232.03C91.5696 234.03 87.4396 235.7 82.4596 237.83C74.0596 241.43 68.2096 241.58 66.5596 239.93C64.9096 238.28 58.9296 226.05 58.9296 226.05Z" fill="#F3E7D9"/>
<path opacity="0.5" d="M97.4184 215.6C97.4184 231.6 38.8184 231.6 38.8184 215.6C38.8184 207.829 41.9053 200.377 47.4001 194.882C52.8949 189.387 60.3475 186.3 68.1183 186.3C75.8892 186.3 83.3418 189.387 88.8366 194.882C94.3314 200.377 97.4184 207.829 97.4184 215.6Z" fill="#FFFCF3"/>
<path d="M219.8 290.61C220.266 292.211 220.407 293.889 220.217 295.546C220.026 297.202 219.507 298.804 218.69 300.257C217.873 301.711 216.774 302.987 215.458 304.011C214.142 305.034 212.634 305.785 211.024 306.22C209.415 306.654 207.734 306.763 206.082 306.54C204.429 306.317 202.838 305.766 201.401 304.921C199.963 304.075 198.709 302.952 197.711 301.616C196.714 300.28 195.992 298.758 195.59 297.14" stroke="#E3AC09" stroke-width="3" stroke-miterlimit="10"/>
<path d="M195.569 257.08C195.569 257.08 206.209 250.2 214.399 265.59C216.879 270.25 218.599 273.59 221.779 279.31C223.219 281.88 229.259 287.67 229.259 287.67L205.549 294.07" stroke="#E3AC09" stroke-width="3" stroke-miterlimit="10"/>
<path d="M199.939 255.9C199.939 255.9 187.279 255.31 187.939 272.73C188.139 278 188.339 281.73 188.459 288.29C188.509 291.24 186.189 299.29 186.189 299.29L209.909 292.9" stroke="#E3AC09" stroke-width="3" stroke-miterlimit="10"/>
<path d="M72.5195 486.79C83.8095 503.21 105.169 507.55 120.859 497.99C136.239 488.62 142.419 468.12 134.309 450.67C125.389 431.51 102.639 422.78 83.9494 433.17C64.8194 443.8 60.0595 468.7 72.5195 486.79Z" fill="#E35F36"/>
<path opacity="0.5" d="M99.5099 455.41C99.5099 455.41 135.92 467.53 128.84 452.31C121.05 435.59 101.21 428 84.9099 437C68.2199 446.31 99.5099 455.41 99.5099 455.41Z" fill="#FFFCF3"/>
<g style="mix-blend-mode:color-dodge">
<path d="M79.9391 467.05C79.8191 453.15 95.7792 457.9 97.8192 458.57C98.2792 456.47 102.199 440.51 113.819 447.57C130.819 458.02 115.489 483.08 113.669 485.92L113.739 486.05H113.579C113.553 486.099 113.523 486.146 113.489 486.19L113.419 486.06C110.059 486.36 80.1291 487.89 79.9391 467.05Z" fill="#FFFCF3"/>
</g>
<path d="M294.54 502.78L344.49 482.34C346.661 481.454 349.09 481.441 351.27 482.303C353.451 483.166 355.213 484.838 356.19 486.97L375.71 529.64C376.213 530.736 376.493 531.921 376.532 533.127C376.572 534.332 376.371 535.533 375.94 536.66C375.51 537.787 374.86 538.816 374.027 539.689C373.194 540.561 372.195 541.258 371.09 541.74L317.54 565.12C316.394 565.623 315.157 565.883 313.907 565.885C312.656 565.886 311.418 565.629 310.271 565.13C309.125 564.63 308.094 563.899 307.243 562.982C306.393 562.064 305.741 560.981 305.33 559.8L289.4 514.18C288.635 511.983 288.742 509.576 289.698 507.456C290.654 505.335 292.387 503.662 294.54 502.78Z" fill="#F3E7D9"/>
<path d="M333.31 542.18C343.654 542.18 352.04 533.794 352.04 523.45C352.04 513.106 343.654 504.72 333.31 504.72C322.966 504.72 314.58 513.106 314.58 523.45C314.58 533.794 322.966 542.18 333.31 542.18Z" fill="#29ABE2"/>
<path d="M325.58 515.51L333.75 535.02L342.5 519.22L325.58 515.51Z" fill="#C94039"/>
<g opacity="0.5">
<path opacity="0.5" d="M309.31 499.79L345.31 485.06C346.875 484.422 348.625 484.413 350.196 485.035C351.767 485.658 353.037 486.863 353.74 488.4L367.81 519.14C369.32 522.47 306.08 501.11 309.31 499.79Z" fill="#FFFCF3"/>
</g>
<path d="M273.52 404.21L286.46 438.21C286.46 438.21 291.09 444.21 301.3 440.73C311.51 437.25 311.21 428.45 311.21 428.45L297.09 390.3L273.52 404.21Z" fill="#F5894E"/>
<path d="M273.52 404.21C273.52 404.21 290.42 424.21 296.4 427.21C302.38 430.21 310 427 310 427L298.34 390L273.52 404.21Z" fill="#CC6D3D"/>
<path d="M254.1 398.77C270.5 415.77 279.7 417.27 279.7 417.27C312.79 408.34 317.92 378.76 308.7 359.27C299.9 338.76 295.75 333.76 272.75 341.87C240.69 353.15 239.49 383.64 254.1 398.77Z" fill="#1D2538"/>
<path d="M254.1 398.77C270.5 415.76 278 410 278 410C311.1 401.08 317.92 378.76 308.68 359.26C299.88 338.75 297.68 330.12 270.46 338.06C232.63 349.09 239.49 383.64 254.1 398.77Z" fill="#3E4C6F"/>
<path d="M252.05 399.81C266.05 414.3 285.26 392.49 285.26 392.49C288.99 387.65 284.2 369.49 280.87 357.54C278 347.24 280.11 335.69 253.77 348.95C230.36 360.74 239.6 386.91 252.05 399.81Z" fill="#1D2538"/>
<path d="M273.51 344.35C273.51 344.35 294.01 346.77 298.1 348.86C302.19 350.95 317.56 384.37 316.25 397.28C314.95 410.02 279.38 421.86 268.54 417.06C259.66 413.14 258.8 406.17 253.41 396.14C247.73 385.57 252.62 375.43 251.82 370.8C250.43 362.88 273.51 344.35 273.51 344.35Z" fill="#CC6D3D"/>
<path d="M245.54 398.09C249.34 403.83 255.63 407.56 258.09 406.28C260.55 405 259.5 399.28 255.69 393.48C251.88 387.68 246.76 384.03 244.3 385.37C241.84 386.71 241.74 392.34 245.54 398.09Z" fill="#CC6D3D"/>
<path d="M297.539 354.89C304.459 356.39 320.039 392.66 312.359 401.46C304.679 410.26 295.459 411.98 286.509 408.59C278.669 405.59 272.559 378.7 278.509 369.9C285.709 359.13 290.609 353.4 297.539 354.89Z" fill="#F5894E"/>
<path d="M247.89 364.39C247.89 364.39 255.84 380.07 255.77 385.65L254.21 394.45L243.87 371.84L247.89 364.39Z" fill="#1D2538"/>
<path d="M295.059 335.76C295.059 335.76 291.209 344.35 271.239 351.05C261.329 354.37 254.059 360.78 248.919 361.38C236.279 362.84 248.969 333.97 269.109 326.46C289.469 318.88 295.059 335.76 295.059 335.76Z" fill="#1D2538"/>
<path d="M269.14 326.17C253.21 332.87 241.05 353.54 251.23 352.36C254.12 352.02 258.68 351.36 264.11 350.22C272.86 345.8 280.91 337.95 280.91 337.95C281.74 342.6 277.19 346.05 271.83 348.45C276.908 347.176 281.915 345.633 286.83 343.83C295.19 340.73 296.23 340.88 295.9 337.88C295.25 331.77 286.35 318.94 269.14 326.17Z" fill="#3E4C6F"/>
<path d="M269.82 372C270.56 374.41 272.02 375.12 273.23 374.75C274.44 374.38 274.93 373.07 274.23 370.65C273.53 368.23 271.91 366.58 270.7 366.95C269.49 367.32 269.08 369.56 269.82 372Z" fill="#34283A"/>
<path d="M290.11 366C290.85 368.41 292.31 369.12 293.52 368.75C294.73 368.38 295.22 367.07 294.52 364.66C293.82 362.25 292.2 360.59 291 360.96C289.8 361.33 289.37 363.59 290.11 366Z" fill="#34283A"/>
<path d="M264 366.09C264.131 366.041 264.247 365.958 264.335 365.849C264.423 365.74 264.48 365.609 264.5 365.47C264.5 365.29 265.22 361.06 268.72 360.83C268.823 360.824 268.923 360.797 269.015 360.752C269.107 360.707 269.19 360.644 269.257 360.567C269.325 360.489 269.377 360.4 269.41 360.303C269.443 360.205 269.457 360.102 269.45 360C269.437 359.792 269.343 359.598 269.187 359.459C269.032 359.321 268.828 359.249 268.62 359.26C264.81 359.51 263.24 363.26 262.95 365.26C262.921 365.465 262.974 365.674 263.098 365.84C263.221 366.007 263.405 366.118 263.61 366.15C263.743 366.16 263.876 366.14 264 366.09Z" fill="#34283A"/>
<path d="M296.999 355.68C297.072 355.655 297.14 355.618 297.199 355.57C297.363 355.445 297.471 355.26 297.499 355.056C297.527 354.852 297.473 354.645 297.349 354.48C295.179 351.58 291.349 352.29 289.689 353.07C289.51 353.157 289.371 353.309 289.301 353.495C289.23 353.68 289.233 353.886 289.309 354.07C289.396 354.249 289.548 354.389 289.733 354.461C289.918 354.533 290.124 354.533 290.309 354.46C290.469 354.38 294.119 352.78 296.069 355.38C296.167 355.528 296.312 355.639 296.482 355.694C296.651 355.748 296.833 355.743 296.999 355.68Z" fill="#34283A"/>
<path d="M185.63 531.53C185.63 531.53 222.24 475.86 229.11 466.97C236.11 457.9 245.29 449.9 256.74 455.23C268.19 460.56 277.81 476.9 268.47 489.23C259.13 501.56 238.22 532.85 231.12 538.69C224.02 544.53 211.35 557 211.19 551.37C211.03 545.74 185.63 531.53 185.63 531.53Z" fill="#1D2538"/>
<path d="M185.629 531.53C183.939 529.32 196.119 515.35 207.999 499C217.209 486.32 226.109 470.85 229.109 467C236.109 457.93 252.679 447.54 251.999 460.14C250.929 479.81 215.999 489.14 222.469 518.03C227.059 538.52 188.639 535.45 185.629 531.53Z" fill="#273252"/>
<path d="M241.57 479.53C241.57 479.53 226.38 484.8 218.73 499.53C211.08 514.26 241.57 479.53 241.57 479.53Z" fill="#273252"/>
<path d="M270 533C270 533 256 531 234 528C212 525 203 510 192 519C181 528 178 548 187 556C196 564 230 567 247 570C264 573 270 581 274 568C278 555 276 538 270 533Z" fill="#C94039"/>
<path d="M270 533C270 533 256 531 234 528C212 525 258.54 544.81 258.54 544.81C258.54 544.81 270 581 274 568C278 555 276 538 270 533Z" fill="#992C29"/>
<path d="M277.321 538.24C277.321 538.24 269.531 535.87 266.941 546.12C264.351 556.37 267.421 568.34 272.801 569.85C278.181 571.36 277.321 565.05 277.321 565.05C277.321 565.05 273.861 563.47 273.861 556.37C273.861 549.27 279.921 542.18 279.921 542.18L277.321 538.24Z" fill="#F3E7D9"/>
<path d="M273.18 560.44C270.18 555.19 271.61 550.21 273.09 543.52C274.94 535.19 278.78 526.99 281 522C285 513 292.56 513.56 297.11 512.37C304.73 510.37 307.69 510.79 307.69 510.79C307.69 510.79 313.63 512.97 312.54 514.95C311.45 516.93 302.68 516.65 302.85 516.95C303.02 517.25 304.62 516.57 306.51 517.65C307.162 518.09 307.694 518.687 308.055 519.386C308.417 520.085 308.597 520.863 308.58 521.65C308.646 522.475 308.442 523.3 308 524C308.576 523.879 309.177 523.974 309.688 524.267C310.199 524.561 310.584 525.031 310.77 525.59C311.248 526.924 311.515 528.324 311.56 529.74C311.357 531.012 310.883 532.227 310.17 533.3C310.17 533.3 311.56 532.3 312.55 534.88C313.54 537.46 312.1 540.75 312.01 541.34C311.01 548.34 294.01 551.96 294.01 551.96C293.457 554.198 292.446 556.297 291.042 558.124C289.637 559.952 287.87 561.469 285.85 562.58C278.85 566.58 278.46 566.36 277.01 564.96C275.648 563.527 274.37 562.018 273.18 560.44Z" fill="#F5894E"/>
<defs>
<clipPath id="clip0_30_2461">
<rect width="50" height="49" fill="white" transform="translate(583 111)"/>
</clipPath>
<clipPath id="clip1_30_2461">
<rect width="45" height="44" fill="white" transform="translate(510.352 127.823) rotate(-4.47576)"/>
</clipPath>
</defs>
</svg>
