<svg width="25" height="25" viewBox="0 0 25 25" fill="none" xmlns="http://www.w3.org/2000/svg">
<g clip-path="url(#clip0_24_21787)">
<path d="M12.4688 9.43921C11.6731 9.43921 10.91 9.75528 10.3474 10.3179C9.78482 10.8805 9.46875 11.6436 9.46875 12.4392C9.46875 13.2349 9.78482 13.9979 10.3474 14.5605C10.91 15.1231 11.6731 15.4392 12.4688 15.4392C13.2644 15.4392 14.0275 15.1231 14.5901 14.5605C15.1527 13.9979 15.4688 13.2349 15.4688 12.4392C15.4688 11.6436 15.1527 10.8805 14.5901 10.3179C14.0275 9.75528 13.2644 9.43921 12.4688 9.43921ZM12.4688 7.43921C13.7948 7.43921 15.0666 7.96599 16.0043 8.90368C16.942 9.84136 17.4688 11.1131 17.4688 12.4392C17.4688 13.7653 16.942 15.0371 16.0043 15.9747C15.0666 16.9124 13.7948 17.4392 12.4688 17.4392C11.1427 17.4392 9.8709 16.9124 8.93322 15.9747C7.99553 15.0371 7.46875 13.7653 7.46875 12.4392C7.46875 11.1131 7.99553 9.84136 8.93322 8.90368C9.8709 7.96599 11.1427 7.43921 12.4688 7.43921ZM18.9688 7.18921C18.9688 7.52073 18.8371 7.83867 18.6026 8.07309C18.3682 8.30751 18.0503 8.43921 17.7188 8.43921C17.3872 8.43921 17.0693 8.30751 16.8349 8.07309C16.6004 7.83867 16.4688 7.52073 16.4688 7.18921C16.4688 6.85769 16.6004 6.53975 16.8349 6.30533C17.0693 6.0709 17.3872 5.93921 17.7188 5.93921C18.0503 5.93921 18.3682 6.0709 18.6026 6.30533C18.8371 6.53975 18.9688 6.85769 18.9688 7.18921ZM12.4688 4.43921C9.99475 4.43921 9.59075 4.44621 8.43975 4.49721C7.65575 4.53421 7.12975 4.63921 6.64175 4.82921C6.20775 4.99721 5.89475 5.19821 5.56175 5.53221C5.24876 5.83461 5.0081 6.20379 4.85775 6.61221C4.66775 7.10221 4.56275 7.62721 4.52675 8.41021C4.47475 9.51421 4.46875 9.90021 4.46875 12.4392C4.46875 14.9132 4.47575 15.3172 4.52675 16.4682C4.56375 17.2512 4.66875 17.7782 4.85775 18.2652C5.02775 18.7002 5.22775 19.0132 5.55975 19.3452C5.89675 19.6812 6.20975 19.8822 6.63975 20.0482C7.13375 20.2392 7.65975 20.3452 8.43975 20.3812C9.54375 20.4332 9.92975 20.4392 12.4688 20.4392C14.9427 20.4392 15.3467 20.4322 16.4977 20.3812C17.2797 20.3442 17.8068 20.2392 18.2948 20.0502C18.7278 19.8812 19.0427 19.6802 19.3748 19.3482C19.7118 19.0112 19.9128 18.6982 20.0788 18.2682C20.2688 17.7752 20.3748 17.2482 20.4107 16.4682C20.4627 15.3642 20.4688 14.9782 20.4688 12.4392C20.4688 9.96521 20.4618 9.56121 20.4107 8.41021C20.3737 7.62821 20.2688 7.10021 20.0788 6.61221C19.928 6.20421 19.6878 5.83517 19.3757 5.53221C19.0735 5.21905 18.7043 4.97838 18.2957 4.82821C17.8057 4.63821 17.2797 4.53321 16.4977 4.49721C15.3937 4.44521 15.0077 4.43921 12.4688 4.43921ZM12.4688 2.43921C15.1858 2.43921 15.5247 2.44921 16.5907 2.49921C17.6558 2.54921 18.3807 2.71621 19.0187 2.96421C19.6787 3.21821 20.2348 3.56221 20.7908 4.11721C21.2992 4.61711 21.6927 5.2218 21.9438 5.88921C22.1908 6.52621 22.3588 7.25221 22.4088 8.31721C22.4558 9.38321 22.4688 9.72221 22.4688 12.4392C22.4688 15.1562 22.4587 15.4952 22.4088 16.5612C22.3588 17.6262 22.1908 18.3512 21.9438 18.9892C21.6934 19.657 21.2999 20.2618 20.7908 20.7612C20.2907 21.2695 19.6861 21.663 19.0187 21.9142C18.3817 22.1612 17.6558 22.3292 16.5907 22.3792C15.5247 22.4262 15.1858 22.4392 12.4688 22.4392C9.75175 22.4392 9.41275 22.4292 8.34675 22.3792C7.28175 22.3292 6.55675 22.1612 5.91875 21.9142C5.25108 21.6637 4.64628 21.2702 4.14675 20.7612C3.63816 20.2614 3.24468 19.6567 2.99375 18.9892C2.74575 18.3522 2.57875 17.6262 2.52875 16.5612C2.48175 15.4952 2.46875 15.1562 2.46875 12.4392C2.46875 9.72221 2.47875 9.38321 2.52875 8.31721C2.57875 7.25121 2.74575 6.52721 2.99375 5.88921C3.24399 5.22139 3.63755 4.61653 4.14675 4.11721C4.64642 3.60844 5.25118 3.21494 5.91875 2.96421C6.55675 2.71621 7.28075 2.54921 8.34675 2.49921C9.41275 2.45221 9.75175 2.43921 12.4688 2.43921Z" fill="#1FABE2"/>
</g>
<defs>
<clipPath id="clip0_24_21787">
<rect width="24" height="24" fill="white" transform="translate(0.46875 0.439209)"/>
</clipPath>
</defs>
</svg>
