<svg width="517" height="529" viewBox="0 0 517 529" fill="none" xmlns="http://www.w3.org/2000/svg">
<path d="M249.476 526.647C242.805 497.699 224.568 490.137 209.164 462.731C203.498 452.635 190.73 429.91 194.819 403.44C199.463 373.575 223.385 353.071 235.973 343.801C238 331.943 239.058 310.76 223.421 291.523C216.875 283.483 209.577 278.472 196.809 269.863C179.1 257.977 160.387 247.737 140.896 239.263C128.743 241.889 116.4 243.491 103.991 244.054C94.523 244.439 85.2699 244.054 75.6044 247.853C73.8111 248.514 72.1255 248.881 71.5875 248.294C71.0496 247.707 71.193 247.064 72.2869 246.22C74.5683 244.462 77.02 242.949 79.6033 241.704C88.2825 237.776 112.67 235.023 112.653 234.857C112.635 234.692 87.099 239.814 65.4188 234.582C24.9814 224.853 9.82856 180.578 6.2421 170.005C-4.82215 137.203 2.0818 102.528 16.5532 87.9896C20.9958 83.7131 25.1873 79.1712 29.1058 74.3877C34.8145 67.2047 39.9025 59.5274 44.3124 51.4425C64.7732 18.7869 140.501 7.64473 151.261 8.94802C154.539 9.43379 157.882 9.14494 161.034 8.10363C163.042 7.36541 164.875 6.202 166.414 4.68938C170.7 0.761157 188.488 -2.91008 222.865 3.4228C240.385 6.65348 238.161 8.04856 264.683 13.6105C285.574 18.016 286.471 17.0431 293.375 19.9984C303.919 24.4406 306.25 28.4973 325.958 42.0258C338.815 50.8918 338.636 49.7354 342.778 53.0395C372.223 76.719 358.559 116.937 376.993 120.957C378.968 121.316 380.989 121.316 382.965 120.957C412.822 118.387 449.996 139.057 484.48 159.212C488.786 159.699 493.008 160.78 497.032 162.424C503.613 165.214 514.964 173.603 515.682 175.273C532.538 214.867 318.426 557.687 249.369 526.482" fill="#05AFF2"/>
<path d="M249.118 389.508L236.655 389.526" stroke="white" stroke-width="0.685926" stroke-miterlimit="10"/>
<path d="M264.934 295.506L284.319 316.524L293.357 326.822V354.007" stroke="white" stroke-width="0.685926" stroke-miterlimit="10"/>
<path d="M266.584 300.095C268.733 300.095 270.475 298.419 270.475 296.35C270.475 294.282 268.733 292.606 266.584 292.606C264.435 292.606 262.692 294.282 262.692 296.35C262.692 298.419 264.435 300.095 266.584 300.095Z" fill="white" stroke="white" stroke-width="0.685926" stroke-miterlimit="10" stroke-linecap="round"/>
<path d="M306.411 303.693L314.427 311.953L303.901 322.802L293.357 333.65" stroke="white" stroke-width="0.342963" stroke-miterlimit="10"/>
<path d="M288.945 294.662L302.448 310.063L293.751 319.02L293.733 319.039L301.05 326.124" stroke="white" stroke-width="0.137185" stroke-miterlimit="10"/>
<path d="M312.58 295.359L326.37 309.567L328.576 311.751L308.151 332.806L307.487 333.595V354.007" stroke="white" stroke-width="0.685926" stroke-miterlimit="10"/>
<path d="M285.753 294.662C285.61 293.922 285.692 293.156 285.989 292.466C286.286 291.776 286.783 291.197 287.413 290.806C288.043 290.416 288.775 290.233 289.51 290.283C290.245 290.334 290.946 290.614 291.52 291.087C292.094 291.559 292.511 292.201 292.716 292.925C292.921 293.649 292.903 294.421 292.665 295.134C292.427 295.847 291.98 296.468 291.385 296.912C290.79 297.357 290.076 297.603 289.34 297.617C288.482 297.71 287.623 297.451 286.951 296.897C286.279 296.343 285.848 295.54 285.753 294.662Z" fill="white" stroke="white" stroke-width="0.137185" stroke-miterlimit="10" stroke-linecap="round"/>
<path d="M317.009 327.189C319.159 327.189 320.901 325.512 320.901 323.444C320.901 321.376 319.159 319.7 317.009 319.7C314.86 319.7 313.118 321.376 313.118 323.444C313.118 325.512 314.86 327.189 317.009 327.189Z" fill="white" stroke="white" stroke-width="0.685926" stroke-miterlimit="10" stroke-linecap="round"/>
<path d="M314.14 299.912C316.289 299.912 318.032 298.235 318.032 296.167C318.032 294.099 316.289 292.422 314.14 292.422C311.991 292.422 310.249 294.099 310.249 296.167C310.249 298.235 311.991 299.912 314.14 299.912Z" fill="white" stroke="white" stroke-width="0.685926" stroke-miterlimit="10" stroke-linecap="round"/>
<path d="M302.879 303.711C302.731 302.972 302.81 302.204 303.104 301.513C303.399 300.821 303.894 300.239 304.523 299.845C305.151 299.452 305.883 299.266 306.619 299.314C307.355 299.361 308.058 299.64 308.633 300.111C309.209 300.582 309.629 301.224 309.835 301.948C310.042 302.672 310.026 303.444 309.789 304.158C309.552 304.872 309.106 305.495 308.511 305.94C307.916 306.386 307.202 306.633 306.465 306.648C305.61 306.741 304.753 306.485 304.082 305.935C303.41 305.385 302.978 304.586 302.879 303.711Z" fill="white" stroke="white" stroke-width="0.342963" stroke-miterlimit="10" stroke-linecap="round"/>
<path d="M289.286 306.098L282.059 313.55" stroke="white" stroke-width="0.342963" stroke-miterlimit="10"/>
<path d="M285.395 306.098C285.251 305.358 285.334 304.592 285.631 303.902C285.928 303.212 286.425 302.633 287.055 302.242C287.684 301.852 288.417 301.669 289.151 301.719C289.886 301.77 290.588 302.05 291.161 302.523C291.735 302.995 292.153 303.637 292.357 304.361C292.562 305.085 292.544 305.856 292.306 306.57C292.068 307.283 291.621 307.904 291.026 308.348C290.431 308.792 289.717 309.039 288.981 309.053C288.123 309.146 287.264 308.887 286.592 308.333C285.92 307.779 285.489 306.975 285.395 306.098Z" fill="white" stroke="white" stroke-width="0.342963" stroke-miterlimit="10" stroke-linecap="round"/>
<path d="M262.083 324.178L257.062 330.621L258.783 332.329L278.867 353.034" stroke="white" stroke-width="0.342963" stroke-miterlimit="10"/>
<path d="M258.407 325.17C258.263 324.43 258.345 323.664 258.642 322.974C258.939 322.284 259.437 321.705 260.066 321.314C260.696 320.924 261.428 320.741 262.163 320.791C262.898 320.842 263.6 321.122 264.173 321.595C264.747 322.067 265.164 322.709 265.369 323.433C265.574 324.157 265.556 324.928 265.318 325.642C265.08 326.355 264.633 326.976 264.038 327.42C263.443 327.865 262.729 328.111 261.993 328.125C261.568 328.173 261.137 328.135 260.727 328.013C260.316 327.89 259.933 327.686 259.599 327.411C259.266 327.136 258.989 326.797 258.784 326.412C258.58 326.028 258.451 325.605 258.407 325.17Z" fill="white" stroke="white" stroke-width="0.342963" stroke-miterlimit="10" stroke-linecap="round"/>
<path d="M231.723 295.249L251.825 315.955L252.543 316.634L257.671 311.347L258.407 312.1L278.491 332.806L279.154 333.595V354.007" stroke="white" stroke-width="0.685926" stroke-miterlimit="10"/>
<path d="M231.723 300.058C233.872 300.058 235.615 298.382 235.615 296.314C235.615 294.246 233.872 292.569 231.723 292.569C229.574 292.569 227.832 294.246 227.832 296.314C227.832 298.382 229.574 300.058 231.723 300.058Z" fill="white" stroke="white" stroke-width="0.685926" stroke-miterlimit="10" stroke-linecap="round"/>
<path d="M272.968 330.566C275.117 330.566 276.859 328.89 276.859 326.822C276.859 324.754 275.117 323.077 272.968 323.077C270.819 323.077 269.076 324.754 269.076 326.822C269.076 328.89 270.819 330.566 272.968 330.566Z" fill="white" stroke="white" stroke-width="0.685926" stroke-miterlimit="10" stroke-linecap="round"/>
<path d="M266.548 340.717L259.321 348.17L259.231 348.078L239.147 327.372" stroke="white" stroke-width="0.137185" stroke-miterlimit="10"/>
<path d="M236.655 327.391C236.57 326.813 236.661 326.222 236.915 325.698C237.168 325.174 237.572 324.742 238.072 324.46C238.573 324.178 239.146 324.06 239.714 324.121C240.282 324.182 240.818 324.419 241.25 324.801C241.682 325.184 241.99 325.692 242.132 326.258C242.273 326.825 242.242 327.422 242.042 327.97C241.843 328.517 241.484 328.989 241.015 329.322C240.545 329.655 239.987 329.833 239.416 329.832C238.735 329.878 238.063 329.647 237.547 329.191C237.03 328.734 236.71 328.087 236.655 327.391Z" fill="white" stroke="white" stroke-width="0.137185" stroke-miterlimit="10" stroke-linecap="round"/>
<path d="M250.983 294.184L258.353 301.784L257.205 302.922L248.418 311.99" stroke="white" stroke-width="0.342963" stroke-miterlimit="10"/>
<path d="M248.4 294.919C248.253 294.18 248.332 293.412 248.626 292.72C248.92 292.028 249.415 291.446 250.044 291.053C250.673 290.659 251.405 290.474 252.141 290.521C252.876 290.569 253.579 290.847 254.155 291.318C254.73 291.79 255.15 292.431 255.357 293.155C255.564 293.879 255.547 294.651 255.311 295.365C255.074 296.08 254.627 296.702 254.033 297.148C253.438 297.593 252.724 297.841 251.987 297.856C251.132 297.949 250.275 297.692 249.603 297.142C248.932 296.592 248.499 295.793 248.4 294.919Z" fill="white" stroke="white" stroke-width="0.342963" stroke-miterlimit="10" stroke-linecap="round"/>
<path d="M286.094 335.009L278.867 342.461" stroke="white" stroke-width="0.137185" stroke-miterlimit="10"/>
<path d="M283.315 335.009C283.234 334.43 283.328 333.841 283.584 333.319C283.841 332.797 284.246 332.368 284.748 332.089C285.249 331.81 285.821 331.695 286.388 331.758C286.955 331.822 287.49 332.061 287.92 332.445C288.351 332.828 288.656 333.337 288.796 333.903C288.936 334.469 288.903 335.065 288.703 335.612C288.502 336.159 288.143 336.63 287.673 336.961C287.204 337.293 286.647 337.47 286.076 337.468C285.392 337.514 284.718 337.281 284.201 336.82C283.684 336.36 283.365 335.708 283.315 335.009Z" fill="white" stroke="white" stroke-width="0.137185" stroke-miterlimit="10" stroke-linecap="round"/>
<path d="M299.884 343.728L307.111 351.18" stroke="white" stroke-width="0.137185" stroke-miterlimit="10"/>
<path d="M297.105 344.352C297.02 343.774 297.111 343.183 297.365 342.659C297.618 342.135 298.022 341.703 298.522 341.421C299.023 341.139 299.595 341.021 300.163 341.082C300.731 341.143 301.268 341.38 301.7 341.762C302.132 342.145 302.44 342.653 302.581 343.219C302.723 343.786 302.692 344.383 302.492 344.931C302.293 345.479 301.934 345.951 301.465 346.284C300.995 346.617 300.437 346.794 299.866 346.793C299.185 346.839 298.513 346.608 297.997 346.152C297.48 345.695 297.16 345.048 297.105 344.352Z" fill="white" stroke="white" stroke-width="0.137185" stroke-miterlimit="10" stroke-linecap="round"/>
<path d="M318.211 341.782L313.656 346.316L307.828 352.318" stroke="white" stroke-width="0.685926" stroke-miterlimit="10"/>
<path d="M318.032 344.958C320.181 344.958 321.923 343.281 321.923 341.213C321.923 339.145 320.181 337.468 318.032 337.468C315.882 337.468 314.14 339.145 314.14 341.213C314.14 343.281 315.882 344.958 318.032 344.958Z" fill="white" stroke="white" stroke-width="0.685926" stroke-miterlimit="10" stroke-linecap="round"/>
<path d="M335.265 296.901L325.061 307.07" stroke="white" stroke-width="0.685926" stroke-miterlimit="10"/>
<path d="M331.194 296.332C331.133 297.13 331.308 297.929 331.696 298.624C332.085 299.318 332.669 299.877 333.373 300.227C334.076 300.577 334.866 300.702 335.64 300.585C336.414 300.468 337.135 300.116 337.71 299.573C338.286 299.031 338.688 298.323 338.864 297.543C339.041 296.763 338.983 295.947 338.7 295.201C338.417 294.455 337.92 293.813 337.275 293.36C336.631 292.907 335.867 292.663 335.085 292.661C334.095 292.626 333.132 292.992 332.403 293.679C331.675 294.366 331.24 295.319 331.194 296.332Z" fill="white" stroke="white" stroke-width="0.685926" stroke-miterlimit="10" stroke-linecap="round"/>
<path d="M328.217 328.639L325.007 325.004L307.81 342.718" stroke="white" stroke-width="0.137185" stroke-miterlimit="10"/>
<path d="M325.438 328.584C325.353 328.006 325.444 327.415 325.698 326.891C325.951 326.367 326.355 325.935 326.855 325.653C327.356 325.371 327.928 325.253 328.496 325.314C329.065 325.375 329.601 325.612 330.033 325.995C330.465 326.377 330.773 326.885 330.915 327.451C331.056 328.018 331.025 328.615 330.825 329.163C330.626 329.711 330.267 330.183 329.798 330.516C329.328 330.849 328.77 331.026 328.199 331.025C327.518 331.071 326.846 330.841 326.33 330.384C325.813 329.927 325.493 329.28 325.438 328.584Z" fill="white" stroke="white" stroke-width="0.137185" stroke-miterlimit="10" stroke-linecap="round"/>
<path d="M218.633 385.763L229.051 396.502L229.966 395.602L236.135 389.251" stroke="white" stroke-width="0.342963" stroke-miterlimit="10"/>
<path d="M236.655 393.271C238.804 393.271 240.546 391.595 240.546 389.526C240.546 387.458 238.804 385.782 236.655 385.782C234.506 385.782 232.763 387.458 232.763 389.526C232.763 391.595 234.506 393.271 236.655 393.271Z" fill="white" stroke="white" stroke-width="0.685926" stroke-miterlimit="10" stroke-linecap="round"/>
<path d="M215.1 385.782C214.953 385.043 215.032 384.275 215.326 383.583C215.62 382.891 216.115 382.309 216.744 381.916C217.373 381.522 218.105 381.337 218.84 381.384C219.576 381.432 220.279 381.71 220.855 382.181C221.43 382.653 221.85 383.294 222.057 384.018C222.263 384.742 222.247 385.514 222.01 386.228C221.773 386.943 221.327 387.565 220.732 388.011C220.138 388.456 219.423 388.703 218.686 388.719C217.831 388.812 216.975 388.555 216.303 388.005C215.632 387.455 215.199 386.656 215.1 385.782Z" fill="white" stroke="white" stroke-width="0.342963" stroke-miterlimit="10" stroke-linecap="round"/>
<path d="M201.059 392.794L221.43 371.794L227.76 378.476L227.832 378.458L248.992 378.439" stroke="white" stroke-width="0.685926" stroke-miterlimit="10"/>
<path d="M223.833 391.142L209.272 406.139" stroke="white" stroke-width="0.137185" stroke-miterlimit="10"/>
<path d="M206.959 405.955C206.878 405.378 206.972 404.789 207.227 404.268C207.483 403.746 207.888 403.317 208.388 403.038C208.888 402.758 209.459 402.642 210.026 402.704C210.592 402.766 211.127 403.004 211.558 403.385C211.989 403.766 212.296 404.273 212.437 404.838C212.579 405.403 212.549 405.999 212.352 406.546C212.154 407.093 211.797 407.565 211.33 407.899C210.863 408.233 210.308 408.413 209.738 408.415C209.052 408.46 208.376 408.228 207.856 407.768C207.336 407.308 207.014 406.657 206.959 405.955Z" fill="white" stroke="white" stroke-width="0.137185" stroke-miterlimit="10" stroke-linecap="round"/>
<path d="M182.051 358.156L209.738 383.138" stroke="white" stroke-width="0.685926" stroke-miterlimit="10"/>
<path d="M182.051 361.496C184.2 361.496 185.942 359.82 185.942 357.752C185.942 355.684 184.2 354.007 182.051 354.007C179.902 354.007 178.159 355.684 178.159 357.752C178.159 359.82 179.902 361.496 182.051 361.496Z" fill="white" stroke="white" stroke-width="0.685926" stroke-miterlimit="10" stroke-linecap="round"/>
<path d="M214.329 336.789L204.143 347.307L227.509 368.435H248.669" stroke="white" stroke-width="0.685926" stroke-miterlimit="10"/>
<path d="M220.48 366.214C222.629 366.214 224.371 364.537 224.371 362.469C224.371 360.401 222.629 358.725 220.48 358.725C218.331 358.725 216.588 360.401 216.588 362.469C216.588 364.537 218.331 366.214 220.48 366.214Z" fill="white" stroke="white" stroke-width="0.685926" stroke-miterlimit="10" stroke-linecap="round"/>
<path d="M213.612 341.947C215.761 341.947 217.503 340.271 217.503 338.203C217.503 336.134 215.761 334.458 213.612 334.458C211.462 334.458 209.72 336.134 209.72 338.203C209.72 340.271 211.462 341.947 213.612 341.947Z" fill="white" stroke="white" stroke-width="0.685926" stroke-miterlimit="10" stroke-linecap="round"/>
<path d="M204.717 361.919L210.868 355.567" stroke="white" stroke-width="0.342963" stroke-miterlimit="10"/>
<path d="M200.162 362.837C200.019 362.097 200.101 361.331 200.398 360.641C200.695 359.951 201.192 359.372 201.822 358.981C202.452 358.591 203.184 358.408 203.919 358.458C204.654 358.508 205.355 358.789 205.929 359.262C206.503 359.734 206.92 360.376 207.125 361.1C207.33 361.824 207.312 362.595 207.074 363.309C206.836 364.022 206.389 364.643 205.794 365.087C205.199 365.531 204.485 365.777 203.749 365.792C202.891 365.885 202.032 365.626 201.36 365.072C200.688 364.518 200.257 363.714 200.162 362.837Z" fill="white" stroke="white" stroke-width="0.342963" stroke-miterlimit="10" stroke-linecap="round"/>
<path d="M210.043 373.428L215.136 378.696" stroke="white" stroke-width="0.137185" stroke-miterlimit="10"/>
<path d="M207.264 373.098C207.357 372.413 207.689 371.787 208.198 371.333C208.707 370.88 209.359 370.63 210.034 370.63C210.709 370.63 211.361 370.88 211.87 371.333C212.379 371.787 212.711 372.413 212.805 373.098C212.711 373.782 212.379 374.408 211.87 374.862C211.361 375.315 210.709 375.565 210.034 375.565C209.359 375.565 208.707 375.315 208.198 374.862C207.689 374.408 207.357 373.782 207.264 373.098Z" fill="white" stroke="white" stroke-width="0.137185" stroke-miterlimit="10" stroke-linecap="round"/>
<path d="M245.208 400.907L230.665 415.904" stroke="white" stroke-width="0.137185" stroke-miterlimit="10"/>
<path d="M227.886 415.904C227.805 415.327 227.899 414.738 228.155 414.217C228.41 413.695 228.815 413.266 229.315 412.987C229.815 412.708 230.386 412.591 230.953 412.653C231.519 412.715 232.054 412.953 232.485 413.334C232.916 413.716 233.223 414.223 233.365 414.787C233.506 415.352 233.476 415.948 233.279 416.495C233.081 417.042 232.724 417.514 232.257 417.848C231.79 418.182 231.235 418.362 230.665 418.364C229.978 418.414 229.3 418.184 228.778 417.723C228.257 417.261 227.936 416.607 227.886 415.904Z" fill="white" stroke="white" stroke-width="0.137185" stroke-miterlimit="10" stroke-linecap="round"/>
<path d="M344.966 322.214L316.095 352.594L312.544 348.904" stroke="white" stroke-width="0.137185" stroke-miterlimit="10"/>
<path d="M342.581 322.233C342.497 321.654 342.587 321.064 342.841 320.54C343.094 320.016 343.498 319.584 343.999 319.302C344.499 319.02 345.072 318.902 345.64 318.963C346.208 319.024 346.744 319.261 347.176 319.643C347.609 320.025 347.916 320.534 348.058 321.1C348.2 321.667 348.168 322.264 347.969 322.812C347.769 323.359 347.41 323.831 346.941 324.164C346.471 324.497 345.914 324.675 345.343 324.674C344.661 324.72 343.99 324.489 343.473 324.033C342.956 323.576 342.636 322.929 342.581 322.233Z" fill="white" stroke="white" stroke-width="0.137185" stroke-miterlimit="10" stroke-linecap="round"/>
<path d="M242.536 346.022L257.743 360.542L271.605 346.004" stroke="white" stroke-width="0.342963" stroke-miterlimit="10"/>
<path d="M239.972 346.977C239.829 346.237 239.911 345.471 240.208 344.781C240.505 344.091 241.002 343.512 241.632 343.121C242.262 342.731 242.994 342.548 243.729 342.598C244.463 342.649 245.165 342.929 245.739 343.402C246.312 343.875 246.73 344.516 246.935 345.24C247.14 345.965 247.122 346.736 246.884 347.449C246.645 348.162 246.199 348.783 245.604 349.227C245.009 349.672 244.295 349.918 243.559 349.932C242.701 350.025 241.842 349.766 241.169 349.212C240.497 348.658 240.067 347.855 239.972 346.977Z" fill="white" stroke="white" stroke-width="0.342963" stroke-miterlimit="10" stroke-linecap="round"/>
<path d="M222.434 327.593L236.924 342.498L226.882 352.851L223.546 356.504L233.839 367.114" stroke="white" stroke-width="0.342963" stroke-miterlimit="10"/>
<path d="M218.884 327.391C218.736 326.652 218.815 325.884 219.109 325.192C219.404 324.5 219.899 323.918 220.528 323.525C221.156 323.131 221.888 322.946 222.624 322.993C223.359 323.041 224.063 323.319 224.638 323.791C225.214 324.262 225.634 324.903 225.84 325.627C226.047 326.351 226.031 327.123 225.794 327.837C225.557 328.552 225.111 329.174 224.516 329.62C223.921 330.065 223.207 330.313 222.47 330.328C221.615 330.421 220.758 330.164 220.087 329.614C219.415 329.064 218.983 328.265 218.884 327.391Z" fill="white" stroke="white" stroke-width="0.342963" stroke-miterlimit="10" stroke-linecap="round"/>
<path d="M182.607 376.952L200.664 393.234" stroke="white" stroke-width="0.342963" stroke-miterlimit="10"/>
<path d="M201.059 396.538C203.208 396.538 204.95 394.862 204.95 392.794C204.95 390.726 203.208 389.049 201.059 389.049C198.91 389.049 197.168 390.726 197.168 392.794C197.168 394.862 198.91 396.538 201.059 396.538Z" fill="white" stroke="white" stroke-width="0.685926" stroke-miterlimit="10" stroke-linecap="round"/>
<path d="M179.002 376.952C178.859 376.213 178.941 375.446 179.238 374.757C179.535 374.067 180.032 373.487 180.662 373.097C181.292 372.706 182.024 372.524 182.759 372.574C183.493 372.624 184.195 372.905 184.769 373.377C185.342 373.85 185.76 374.492 185.965 375.216C186.17 375.94 186.152 376.711 185.914 377.424C185.676 378.138 185.229 378.759 184.634 379.203C184.039 379.647 183.325 379.893 182.589 379.908C181.731 380 180.872 379.742 180.2 379.188C179.527 378.634 179.097 377.83 179.002 376.952Z" fill="white" stroke="white" stroke-width="0.342963" stroke-miterlimit="10" stroke-linecap="round"/>
<path d="M191.644 385.304L177.083 400.301" stroke="white" stroke-width="0.137185" stroke-miterlimit="10"/>
<path d="M174.627 400.301C174.546 399.724 174.64 399.135 174.895 398.614C175.151 398.093 175.556 397.664 176.056 397.384C176.556 397.105 177.127 396.988 177.694 397.05C178.26 397.112 178.795 397.35 179.226 397.731C179.657 398.113 179.964 398.62 180.106 399.185C180.247 399.749 180.217 400.345 180.02 400.892C179.822 401.439 179.465 401.911 178.998 402.245C178.531 402.579 177.976 402.759 177.406 402.761C176.719 402.812 176.04 402.581 175.519 402.12C174.998 401.659 174.677 401.005 174.627 400.301Z" fill="white" stroke="white" stroke-width="0.137185" stroke-miterlimit="10" stroke-linecap="round"/>
<path d="M219.637 315.826L223.618 311.715L234.915 323.371L226.63 331.906" stroke="white" stroke-width="0.137185" stroke-miterlimit="10"/>
<path d="M216.499 315.624C216.422 315.051 216.518 314.467 216.774 313.951C217.03 313.435 217.434 313.011 217.931 312.736C218.429 312.461 218.997 312.347 219.559 312.411C220.121 312.475 220.651 312.713 221.077 313.093C221.504 313.473 221.807 313.977 221.946 314.538C222.086 315.099 222.055 315.69 221.857 316.232C221.66 316.775 221.305 317.243 220.841 317.574C220.377 317.904 219.826 318.083 219.26 318.084C218.921 318.109 218.58 318.065 218.258 317.955C217.935 317.845 217.637 317.67 217.38 317.442C217.124 317.213 216.914 316.935 216.762 316.623C216.611 316.311 216.521 315.972 216.499 315.624Z" fill="white" stroke="white" stroke-width="0.137185" stroke-miterlimit="10" stroke-linecap="round"/>
<path d="M183.055 343.25L198.244 357.752L205.614 350.024" stroke="white" stroke-width="0.342963" stroke-miterlimit="10"/>
<path d="M179.504 343.25C179.361 342.511 179.443 341.745 179.74 341.055C180.037 340.365 180.534 339.786 181.164 339.395C181.794 339.005 182.526 338.822 183.261 338.872C183.996 338.922 184.697 339.203 185.271 339.676C185.845 340.148 186.262 340.79 186.467 341.514C186.672 342.238 186.654 343.009 186.416 343.723C186.178 344.436 185.731 345.057 185.136 345.501C184.541 345.945 183.827 346.191 183.091 346.206C182.233 346.299 181.374 346.04 180.702 345.486C180.03 344.932 179.599 344.128 179.504 343.25Z" fill="white" stroke="white" stroke-width="0.342963" stroke-miterlimit="10" stroke-linecap="round"/>
<path d="M200.091 332.604L191.896 341.048L203.193 352.686" stroke="white" stroke-width="0.137185" stroke-miterlimit="10"/>
<path d="M197.383 332.567C197.299 331.99 197.389 331.4 197.642 330.876C197.895 330.353 198.298 329.921 198.797 329.639C199.296 329.356 199.868 329.237 200.435 329.296C201.002 329.356 201.539 329.592 201.971 329.972C202.404 330.352 202.713 330.859 202.857 331.424C203.001 331.989 202.972 332.585 202.775 333.133C202.579 333.681 202.223 334.154 201.756 334.49C201.289 334.825 200.733 335.006 200.162 335.009C199.478 335.059 198.802 334.831 198.281 334.374C197.761 333.916 197.438 333.267 197.383 332.567Z" fill="white" stroke="white" stroke-width="0.137185" stroke-miterlimit="10" stroke-linecap="round"/>
<path d="M211.388 425.009L205.542 419.979L227.007 400.614L227.832 399.971H248.992" stroke="white" stroke-width="0.685926" stroke-miterlimit="10"/>
<path d="M220.802 409.7C222.952 409.7 224.694 408.023 224.694 405.955C224.694 403.887 222.952 402.211 220.802 402.211C218.653 402.211 216.911 403.887 216.911 405.955C216.911 408.023 218.653 409.7 220.802 409.7Z" fill="white" stroke="white" stroke-width="0.685926" stroke-miterlimit="10" stroke-linecap="round"/>
<path d="M211.227 428.46C213.376 428.46 215.118 426.783 215.118 424.715C215.118 422.647 213.376 420.97 211.227 420.97C209.077 420.97 207.335 422.647 207.335 424.715C207.335 426.783 209.077 428.46 211.227 428.46Z" fill="white" stroke="white" stroke-width="0.685926" stroke-miterlimit="10" stroke-linecap="round"/>
<path d="M194.083 414.546L200.198 408.195L209.469 416.547" stroke="white" stroke-width="0.342963" stroke-miterlimit="10"/>
<path d="M190.551 414.546C190.407 413.807 190.489 413.04 190.786 412.35C191.083 411.66 191.581 411.081 192.21 410.69C192.84 410.3 193.572 410.117 194.307 410.168C195.042 410.218 195.744 410.498 196.317 410.971C196.891 411.444 197.308 412.086 197.513 412.81C197.718 413.534 197.7 414.305 197.462 415.018C197.224 415.731 196.777 416.352 196.182 416.796C195.587 417.241 194.873 417.487 194.137 417.501C193.279 417.594 192.42 417.335 191.748 416.781C191.076 416.227 190.645 415.424 190.551 414.546Z" fill="white" stroke="white" stroke-width="0.342963" stroke-miterlimit="10" stroke-linecap="round"/>
<path d="M213.522 412.233L230.665 428.753" stroke="white" stroke-width="0.342963" stroke-miterlimit="10"/>
<path d="M228.926 429.341C228.842 428.763 228.932 428.172 229.186 427.648C229.439 427.124 229.843 426.692 230.344 426.41C230.844 426.128 231.417 426.01 231.985 426.071C232.553 426.132 233.089 426.369 233.521 426.752C233.953 427.134 234.261 427.642 234.403 428.208C234.544 428.775 234.513 429.372 234.314 429.92C234.114 430.468 233.755 430.94 233.286 431.273C232.816 431.606 232.259 431.783 231.687 431.782C231.006 431.828 230.335 431.597 229.818 431.141C229.301 430.684 228.981 430.038 228.926 429.341Z" fill="white" stroke="white" stroke-width="0.342963" stroke-miterlimit="10" stroke-linecap="round"/>
<path d="M238.86 407.057L243.971 412.325" stroke="white" stroke-width="0.137185" stroke-miterlimit="10"/>
<path d="M241.192 412.398C241.107 411.821 241.198 411.231 241.451 410.707C241.703 410.184 242.106 409.752 242.605 409.47C243.105 409.187 243.676 409.068 244.244 409.127C244.811 409.187 245.347 409.423 245.78 409.803C246.213 410.183 246.522 410.69 246.666 411.255C246.809 411.82 246.781 412.416 246.584 412.964C246.387 413.512 246.031 413.985 245.564 414.321C245.097 414.656 244.541 414.837 243.971 414.839C243.287 414.89 242.611 414.662 242.09 414.205C241.569 413.747 241.246 413.098 241.192 412.398Z" fill="white" stroke="white" stroke-width="0.137185" stroke-miterlimit="10" stroke-linecap="round"/>
<path d="M190.156 401.807L198.441 410.342" stroke="white" stroke-width="0.137185" stroke-miterlimit="10"/>
<path d="M187.395 401.825C187.31 401.247 187.401 400.656 187.655 400.132C187.908 399.608 188.312 399.176 188.812 398.894C189.313 398.612 189.885 398.494 190.453 398.555C191.021 398.616 191.558 398.853 191.99 399.236C192.422 399.618 192.73 400.126 192.871 400.693C193.013 401.259 192.982 401.856 192.782 402.404C192.583 402.952 192.224 403.424 191.755 403.757C191.285 404.09 190.727 404.267 190.156 404.266C189.475 404.312 188.803 404.082 188.287 403.625C187.77 403.168 187.45 402.522 187.395 401.825Z" fill="white" stroke="white" stroke-width="0.137185" stroke-miterlimit="10" stroke-linecap="round"/>
<path d="M242.895 429.855L233.032 419.557L227.437 425.339" stroke="white" stroke-width="0.137185" stroke-miterlimit="10"/>
<path d="M241.192 430.094C241.111 429.516 241.205 428.927 241.46 428.406C241.716 427.885 242.12 427.456 242.621 427.176C243.121 426.897 243.692 426.78 244.259 426.842C244.825 426.904 245.36 427.142 245.791 427.523C246.222 427.905 246.529 428.412 246.67 428.977C246.812 429.541 246.782 430.137 246.584 430.684C246.387 431.231 246.03 431.703 245.563 432.037C245.096 432.371 244.541 432.551 243.971 432.553C243.284 432.604 242.605 432.373 242.084 431.912C241.563 431.451 241.242 430.797 241.192 430.094Z" fill="white" stroke="white" stroke-width="0.137185" stroke-miterlimit="10" stroke-linecap="round"/>
<path d="M209.738 438.794L224.694 423.375" stroke="white" stroke-width="0.342963" stroke-miterlimit="10"/>
<path d="M206.959 438.794C206.878 438.217 206.972 437.628 207.227 437.107C207.483 436.586 207.888 436.157 208.388 435.877C208.888 435.598 209.459 435.481 210.026 435.543C210.592 435.605 211.127 435.843 211.558 436.224C211.989 436.606 212.296 437.113 212.437 437.678C212.579 438.242 212.549 438.838 212.352 439.385C212.154 439.932 211.797 440.404 211.33 440.738C210.863 441.072 210.308 441.252 209.738 441.254C209.052 441.3 208.376 441.067 207.856 440.607C207.336 440.147 207.014 439.496 206.959 438.794Z" fill="white" stroke="white" stroke-width="0.342963" stroke-miterlimit="10" stroke-linecap="round"/>
<path d="M204.807 412.637L190.264 427.634" stroke="white" stroke-width="0.137185" stroke-miterlimit="10"/>
<path d="M323.752 344.866L330.979 352.318" stroke="white" stroke-width="0.137185" stroke-miterlimit="10"/>
<path d="M328.199 352.318C328.119 351.741 328.213 351.152 328.468 350.631C328.723 350.11 329.128 349.681 329.628 349.401C330.128 349.122 330.7 349.005 331.266 349.067C331.833 349.129 332.367 349.367 332.798 349.748C333.229 350.13 333.536 350.637 333.678 351.202C333.82 351.766 333.79 352.362 333.592 352.909C333.394 353.456 333.038 353.928 332.571 354.262C332.104 354.596 331.548 354.776 330.979 354.778C330.292 354.829 329.613 354.598 329.092 354.137C328.571 353.676 328.25 353.022 328.199 352.318Z" fill="white" stroke="white" stroke-width="0.137185" stroke-miterlimit="10" stroke-linecap="round"/>
<path d="M325.438 316.047L329.06 319.773" stroke="white" stroke-width="0.137185" stroke-miterlimit="10"/>
<path d="M326.28 319.773C326.2 319.195 326.294 318.605 326.55 318.084C326.806 317.562 327.212 317.133 327.713 316.854C328.215 316.575 328.787 316.459 329.354 316.523C329.921 316.586 330.456 316.826 330.886 317.209C331.317 317.592 331.622 318.101 331.762 318.667C331.902 319.233 331.869 319.83 331.669 320.376C331.468 320.923 331.109 321.394 330.639 321.726C330.17 322.057 329.613 322.234 329.042 322.233C328.358 322.278 327.684 322.045 327.167 321.585C326.65 321.124 326.331 320.473 326.28 319.773Z" fill="white" stroke="white" stroke-width="0.137185" stroke-miterlimit="10" stroke-linecap="round"/>
<path d="M261.975 316.065L252.22 326.124" stroke="white" stroke-width="0.137185" stroke-miterlimit="10"/>
<path d="M249.44 326.124C249.36 325.547 249.454 324.958 249.709 324.437C249.965 323.915 250.369 323.486 250.869 323.207C251.369 322.928 251.941 322.811 252.507 322.873C253.074 322.935 253.608 323.173 254.039 323.554C254.47 323.936 254.777 324.443 254.919 325.007C255.061 325.572 255.031 326.168 254.833 326.715C254.635 327.262 254.279 327.734 253.812 328.068C253.345 328.402 252.79 328.582 252.22 328.584C251.533 328.634 250.854 328.404 250.333 327.943C249.812 327.481 249.491 326.827 249.44 326.124Z" fill="white" stroke="white" stroke-width="0.137185" stroke-miterlimit="10" stroke-linecap="round"/>
<path d="M346.114 300.683L337.345 309.732H337.273L330.136 302.371" stroke="white" stroke-width="0.137185" stroke-miterlimit="10"/>
<path d="M343.352 300.683C343.275 300.109 343.372 299.525 343.628 299.009C343.884 298.493 344.287 298.069 344.785 297.794C345.282 297.519 345.85 297.405 346.412 297.469C346.974 297.533 347.504 297.771 347.93 298.151C348.357 298.531 348.66 299.035 348.8 299.596C348.939 300.157 348.908 300.748 348.711 301.29C348.513 301.833 348.159 302.301 347.695 302.632C347.231 302.962 346.679 303.141 346.114 303.142C345.774 303.167 345.434 303.123 345.111 303.013C344.788 302.903 344.49 302.728 344.234 302.5C343.977 302.271 343.767 301.993 343.616 301.681C343.464 301.369 343.375 301.03 343.352 300.683Z" fill="white" stroke="white" stroke-width="0.137185" stroke-miterlimit="10" stroke-linecap="round"/>
<path d="M328.576 339.341L332.18 343.067" stroke="white" stroke-width="0.137185" stroke-miterlimit="10"/>
<path d="M329.419 343.067C329.342 342.493 329.438 341.91 329.694 341.393C329.95 340.877 330.354 340.453 330.851 340.178C331.349 339.903 331.917 339.79 332.479 339.854C333.041 339.917 333.57 340.155 333.997 340.535C334.424 340.915 334.727 341.419 334.866 341.98C335.006 342.541 334.975 343.132 334.777 343.675C334.58 344.217 334.225 344.685 333.761 345.016C333.297 345.347 332.746 345.525 332.18 345.527C331.496 345.572 330.822 345.339 330.305 344.879C329.788 344.418 329.469 343.767 329.419 343.067Z" fill="white" stroke="white" stroke-width="0.137185" stroke-miterlimit="10" stroke-linecap="round"/>
<path d="M265.293 474.497L284.677 453.498L293.715 443.181V416.014" stroke="white" stroke-width="0.685926" stroke-miterlimit="10"/>
<path d="M266.924 477.397C269.074 477.397 270.816 475.721 270.816 473.653C270.816 471.585 269.074 469.908 266.924 469.908C264.775 469.908 263.033 471.585 263.033 473.653C263.033 475.721 264.775 477.397 266.924 477.397Z" fill="white" stroke="white" stroke-width="0.685926" stroke-miterlimit="10" stroke-linecap="round"/>
<path d="M306.752 466.31L314.768 458.05L304.242 447.201L293.715 436.353" stroke="white" stroke-width="0.342963" stroke-miterlimit="10"/>
<path d="M289.286 475.36L302.807 459.941L294.11 451.001L294.092 450.983L301.39 443.897" stroke="white" stroke-width="0.137185" stroke-miterlimit="10"/>
<path d="M312.939 474.644L326.711 460.436L328.934 458.252L308.492 437.197L307.846 436.408V416.014" stroke="white" stroke-width="0.685926" stroke-miterlimit="10"/>
<path d="M286.112 475.36C285.965 476.099 286.044 476.867 286.338 477.559C286.632 478.25 287.127 478.832 287.756 479.226C288.385 479.619 289.117 479.805 289.852 479.757C290.588 479.71 291.291 479.431 291.867 478.96C292.442 478.489 292.862 477.847 293.069 477.123C293.275 476.399 293.259 475.628 293.022 474.913C292.785 474.199 292.339 473.576 291.744 473.131C291.15 472.685 290.435 472.438 289.698 472.423C288.843 472.33 287.987 472.586 287.315 473.136C286.644 473.686 286.211 474.485 286.112 475.36Z" fill="white" stroke="white" stroke-width="0.137185" stroke-miterlimit="10" stroke-linecap="round"/>
<path d="M317.35 450.322C319.499 450.322 321.241 448.645 321.241 446.577C321.241 444.509 319.499 442.833 317.35 442.833C315.201 442.833 313.459 444.509 313.459 446.577C313.459 448.645 315.201 450.322 317.35 450.322Z" fill="white" stroke="white" stroke-width="0.685926" stroke-miterlimit="10" stroke-linecap="round"/>
<path d="M314.499 477.581C316.648 477.581 318.39 475.904 318.39 473.836C318.39 471.768 316.648 470.092 314.499 470.092C312.35 470.092 310.608 471.768 310.608 473.836C310.608 475.904 312.35 477.581 314.499 477.581Z" fill="white" stroke="white" stroke-width="0.685926" stroke-miterlimit="10" stroke-linecap="round"/>
<path d="M303.219 466.329C303.076 467.068 303.158 467.834 303.455 468.524C303.752 469.214 304.249 469.794 304.879 470.184C305.509 470.574 306.241 470.757 306.976 470.707C307.711 470.657 308.413 470.376 308.986 469.904C309.56 469.431 309.977 468.789 310.182 468.065C310.387 467.341 310.369 466.57 310.131 465.857C309.893 465.143 309.446 464.522 308.851 464.078C308.256 463.634 307.542 463.388 306.806 463.373C305.948 463.28 305.089 463.539 304.417 464.093C303.745 464.647 303.314 465.451 303.219 466.329Z" fill="white" stroke="white" stroke-width="0.342963" stroke-miterlimit="10" stroke-linecap="round"/>
<path d="M289.645 463.924L282.418 456.471" stroke="white" stroke-width="0.342963" stroke-miterlimit="10"/>
<path d="M285.753 463.924C285.61 464.663 285.692 465.43 285.989 466.12C286.286 466.809 286.783 467.389 287.413 467.779C288.043 468.17 288.775 468.352 289.51 468.302C290.245 468.252 290.946 467.972 291.52 467.499C292.094 467.026 292.511 466.384 292.716 465.66C292.921 464.936 292.903 464.165 292.665 463.452C292.427 462.739 291.98 462.118 291.385 461.673C290.79 461.229 290.076 460.983 289.34 460.969C288.482 460.876 287.623 461.135 286.951 461.689C286.279 462.242 285.848 463.046 285.753 463.924Z" fill="white" stroke="white" stroke-width="0.342963" stroke-miterlimit="10" stroke-linecap="round"/>
<path d="M262.441 445.825L257.42 439.4L259.124 437.693L279.208 416.987" stroke="white" stroke-width="0.342963" stroke-miterlimit="10"/>
<path d="M258.747 444.852C258.604 445.591 258.686 446.358 258.983 447.048C259.28 447.737 259.777 448.317 260.407 448.707C261.037 449.098 261.769 449.28 262.504 449.23C263.239 449.18 263.94 448.899 264.514 448.427C265.088 447.954 265.505 447.312 265.71 446.588C265.915 445.864 265.897 445.093 265.659 444.38C265.421 443.667 264.974 443.046 264.379 442.601C263.784 442.157 263.07 441.911 262.334 441.896C261.476 441.804 260.617 442.063 259.945 442.616C259.273 443.17 258.842 443.974 258.747 444.852Z" fill="white" stroke="white" stroke-width="0.342963" stroke-miterlimit="10" stroke-linecap="round"/>
<path d="M232.082 474.772L252.166 454.067L252.883 453.387L258.012 458.656L258.747 457.921L278.849 437.197L279.495 436.408V416.014" stroke="white" stroke-width="0.685926" stroke-miterlimit="10"/>
<path d="M273.308 446.926C275.457 446.926 277.2 445.25 277.2 443.181C277.2 441.113 275.457 439.437 273.308 439.437C271.159 439.437 269.417 441.113 269.417 443.181C269.417 445.25 271.159 446.926 273.308 446.926Z" fill="white" stroke="white" stroke-width="0.685926" stroke-miterlimit="10" stroke-linecap="round"/>
<path d="M266.889 429.304L259.662 421.852L259.59 421.925L239.488 442.631" stroke="white" stroke-width="0.137185" stroke-miterlimit="10"/>
<path d="M236.995 442.649C236.915 443.227 237.009 443.815 237.264 444.336C237.52 444.858 237.924 445.287 238.424 445.566C238.924 445.846 239.496 445.962 240.062 445.9C240.629 445.838 241.163 445.601 241.594 445.219C242.025 444.838 242.332 444.331 242.474 443.766C242.616 443.201 242.586 442.605 242.388 442.059C242.19 441.512 241.834 441.04 241.367 440.706C240.9 440.372 240.345 440.192 239.775 440.189C239.088 440.139 238.409 440.37 237.888 440.831C237.367 441.292 237.046 441.946 236.995 442.649Z" fill="white" stroke="white" stroke-width="0.137185" stroke-miterlimit="10" stroke-linecap="round"/>
<path d="M251.323 475.837L258.711 468.219L257.564 467.081L248.759 458.032" stroke="white" stroke-width="0.342963" stroke-miterlimit="10"/>
<path d="M248.759 475.14C248.616 475.879 248.698 476.646 248.995 477.335C249.292 478.025 249.789 478.605 250.419 478.995C251.049 479.385 251.781 479.568 252.515 479.518C253.25 479.468 253.952 479.187 254.526 478.715C255.099 478.242 255.517 477.6 255.722 476.876C255.927 476.152 255.909 475.381 255.67 474.668C255.432 473.954 254.985 473.333 254.391 472.889C253.796 472.445 253.082 472.199 252.345 472.184C251.487 472.092 250.628 472.35 249.956 472.904C249.284 473.458 248.854 474.262 248.759 475.14Z" fill="white" stroke="white" stroke-width="0.342963" stroke-miterlimit="10" stroke-linecap="round"/>
<path d="M286.435 435.013L279.208 427.56" stroke="white" stroke-width="0.137185" stroke-miterlimit="10"/>
<path d="M283.655 435.013C283.575 435.59 283.669 436.179 283.924 436.7C284.18 437.222 284.584 437.651 285.084 437.93C285.584 438.21 286.156 438.326 286.722 438.264C287.289 438.202 287.823 437.964 288.254 437.583C288.685 437.202 288.992 436.695 289.134 436.13C289.276 435.565 289.246 434.969 289.048 434.422C288.85 433.876 288.494 433.403 288.027 433.069C287.56 432.735 287.005 432.555 286.435 432.553C285.749 432.508 285.073 432.74 284.553 433.2C284.033 433.66 283.71 434.312 283.655 435.013Z" fill="white" stroke="white" stroke-width="0.137185" stroke-miterlimit="10" stroke-linecap="round"/>
<path d="M300.225 426.294L307.451 418.841" stroke="white" stroke-width="0.137185" stroke-miterlimit="10"/>
<path d="M297.463 425.688C297.387 426.262 297.483 426.845 297.739 427.362C297.995 427.878 298.398 428.302 298.896 428.577C299.393 428.852 299.961 428.965 300.523 428.901C301.085 428.838 301.615 428.6 302.042 428.22C302.468 427.84 302.771 427.336 302.911 426.775C303.05 426.214 303.019 425.623 302.822 425.08C302.624 424.538 302.27 424.07 301.806 423.739C301.342 423.408 300.79 423.23 300.225 423.228C299.886 423.203 299.545 423.247 299.222 423.357C298.899 423.468 298.601 423.642 298.345 423.871C298.088 424.099 297.878 424.378 297.727 424.689C297.576 425.001 297.486 425.341 297.463 425.688Z" fill="white" stroke="white" stroke-width="0.137185" stroke-miterlimit="10" stroke-linecap="round"/>
<path d="M318.57 428.24L313.997 423.687L308.187 417.703" stroke="white" stroke-width="0.685926" stroke-miterlimit="10"/>
<path d="M318.39 432.553C320.539 432.553 322.282 430.877 322.282 428.809C322.282 426.74 320.539 425.064 318.39 425.064C316.241 425.064 314.499 426.74 314.499 428.809C314.499 430.877 316.241 432.553 318.39 432.553Z" fill="white" stroke="white" stroke-width="0.685926" stroke-miterlimit="10" stroke-linecap="round"/>
<path d="M335.623 473.12L325.42 462.933" stroke="white" stroke-width="0.685926" stroke-miterlimit="10"/>
<path d="M331.553 473.689C331.491 472.891 331.666 472.093 332.055 471.398C332.444 470.703 333.028 470.144 333.731 469.795C334.435 469.445 335.225 469.32 335.999 469.437C336.773 469.553 337.494 469.906 338.069 470.448C338.644 470.991 339.046 471.698 339.223 472.478C339.399 473.258 339.342 474.074 339.059 474.821C338.775 475.567 338.279 476.208 337.634 476.661C336.989 477.114 336.226 477.358 335.444 477.361C334.454 477.396 333.49 477.03 332.762 476.343C332.034 475.655 331.599 474.702 331.553 473.689Z" fill="white" stroke="white" stroke-width="0.685926" stroke-miterlimit="10" stroke-linecap="round"/>
<path d="M328.558 441.364L325.366 445.017L308.169 427.285" stroke="white" stroke-width="0.137185" stroke-miterlimit="10"/>
<path d="M325.778 441.456C325.698 442.033 325.792 442.622 326.047 443.143C326.303 443.665 326.707 444.094 327.207 444.373C327.707 444.653 328.279 444.769 328.845 444.707C329.412 444.645 329.946 444.407 330.377 444.026C330.808 443.645 331.115 443.138 331.257 442.573C331.399 442.008 331.369 441.412 331.171 440.865C330.973 440.318 330.617 439.846 330.15 439.512C329.683 439.178 329.128 438.998 328.558 438.996C327.872 438.951 327.196 439.183 326.676 439.643C326.156 440.103 325.833 440.755 325.778 441.456Z" fill="white" stroke="white" stroke-width="0.137185" stroke-miterlimit="10" stroke-linecap="round"/>
<path d="M316.454 417.428L312.903 421.099" stroke="white" stroke-width="0.137185" stroke-miterlimit="10"/>
<path d="M345.307 447.789L316.454 417.428" stroke="white" stroke-width="0.137185" stroke-miterlimit="10"/>
<path d="M342.922 447.807C342.823 448.382 342.899 448.973 343.138 449.503C343.377 450.032 343.769 450.474 344.26 450.77C344.751 451.066 345.319 451.2 345.887 451.157C346.455 451.113 346.997 450.892 347.44 450.525C347.882 450.157 348.205 449.66 348.364 449.1C348.523 448.54 348.511 447.943 348.329 447.39C348.148 446.837 347.806 446.354 347.349 446.005C346.892 445.657 346.342 445.459 345.773 445.439C345.086 445.389 344.407 445.619 343.886 446.081C343.365 446.542 343.044 447.196 342.993 447.899" fill="white"/>
<path d="M342.922 447.807C342.823 448.382 342.899 448.973 343.138 449.503C343.377 450.032 343.769 450.474 344.26 450.77C344.751 451.066 345.319 451.2 345.887 451.157C346.455 451.113 346.997 450.892 347.44 450.525C347.882 450.157 348.205 449.66 348.364 449.1C348.523 448.54 348.511 447.943 348.329 447.39C348.148 446.837 347.806 446.354 347.349 446.005C346.892 445.657 346.342 445.459 345.773 445.439C345.086 445.389 344.407 445.619 343.886 446.081C343.365 446.542 343.044 447.196 342.993 447.899" stroke="white" stroke-width="0.137185" stroke-miterlimit="10" stroke-linecap="round"/>
<path d="M242.895 423.981L258.084 409.48L271.945 424.018" stroke="white" stroke-width="0.342963" stroke-miterlimit="10"/>
<path d="M240.277 423.045C240.134 423.784 240.216 424.551 240.513 425.24C240.81 425.93 241.307 426.51 241.937 426.9C242.567 427.291 243.299 427.473 244.033 427.423C244.768 427.373 245.47 427.092 246.044 426.62C246.617 426.147 247.035 425.505 247.24 424.781C247.444 424.057 247.427 423.286 247.188 422.573C246.95 421.859 246.503 421.238 245.909 420.794C245.314 420.35 244.6 420.104 243.863 420.089C243.005 419.997 242.146 420.256 241.474 420.809C240.802 421.363 240.372 422.167 240.277 423.045Z" fill="white" stroke="white" stroke-width="0.342963" stroke-miterlimit="10" stroke-linecap="round"/>
<path d="M324.111 425.137L331.337 417.703" stroke="white" stroke-width="0.137185" stroke-miterlimit="10"/>
<path d="M325.796 453.975L329.401 450.249" stroke="white" stroke-width="0.137185" stroke-miterlimit="10"/>
<path d="M326.621 450.249C326.537 450.826 326.627 451.416 326.88 451.939C327.133 452.463 327.536 452.895 328.035 453.177C328.534 453.459 329.106 453.579 329.673 453.519C330.241 453.46 330.777 453.224 331.21 452.844C331.643 452.464 331.952 451.957 332.095 451.392C332.239 450.827 332.21 450.231 332.014 449.683C331.817 449.135 331.461 448.661 330.994 448.326C330.527 447.991 329.971 447.81 329.401 447.807C328.718 447.761 328.044 447.991 327.525 448.448C327.005 448.904 326.681 449.55 326.621 450.249Z" fill="white" stroke="white" stroke-width="0.137185" stroke-miterlimit="10" stroke-linecap="round"/>
<path d="M262.316 453.938L252.561 443.897" stroke="white" stroke-width="0.137185" stroke-miterlimit="10"/>
<path d="M249.799 443.897C249.715 444.476 249.806 445.066 250.059 445.59C250.312 446.114 250.717 446.546 251.217 446.828C251.717 447.11 252.29 447.228 252.858 447.167C253.426 447.106 253.962 446.869 254.394 446.487C254.827 446.105 255.134 445.596 255.276 445.03C255.418 444.463 255.387 443.866 255.187 443.318C254.987 442.771 254.629 442.299 254.159 441.966C253.69 441.633 253.132 441.455 252.561 441.456C251.879 441.41 251.208 441.641 250.691 442.097C250.175 442.554 249.854 443.201 249.799 443.897Z" fill="white" stroke="white" stroke-width="0.137185" stroke-miterlimit="10" stroke-linecap="round"/>
<path d="M346.472 469.339L337.685 460.289H337.614L330.477 467.632" stroke="white" stroke-width="0.137185" stroke-miterlimit="10"/>
<path d="M343.693 469.302C343.612 469.88 343.706 470.468 343.962 470.99C344.217 471.511 344.622 471.94 345.122 472.219C345.622 472.499 346.193 472.615 346.76 472.553C347.326 472.491 347.861 472.254 348.292 471.872C348.723 471.491 349.03 470.984 349.172 470.419C349.313 469.854 349.283 469.259 349.086 468.712C348.888 468.165 348.532 467.693 348.065 467.359C347.598 467.025 347.042 466.845 346.472 466.843C345.785 466.792 345.107 467.023 344.585 467.484C344.064 467.945 343.743 468.599 343.693 469.302Z" fill="white" stroke="white" stroke-width="0.137185" stroke-miterlimit="10" stroke-linecap="round"/>
<path d="M328.917 430.663L332.539 426.955" stroke="white" stroke-width="0.137185" stroke-miterlimit="10"/>
<path d="M329.759 426.955C329.679 427.532 329.773 428.121 330.028 428.642C330.284 429.163 330.688 429.592 331.188 429.872C331.688 430.151 332.26 430.268 332.826 430.206C333.393 430.144 333.927 429.906 334.358 429.525C334.789 429.143 335.096 428.636 335.238 428.071C335.38 427.507 335.35 426.911 335.152 426.364C334.954 425.817 334.598 425.345 334.131 425.011C333.664 424.677 333.109 424.497 332.539 424.495C331.852 424.444 331.173 424.675 330.652 425.136C330.131 425.597 329.81 426.251 329.759 426.955Z" fill="white" stroke="white" stroke-width="0.137185" stroke-miterlimit="10" stroke-linecap="round"/>
<path d="M187.789 427.634C187.712 427.06 187.809 426.476 188.065 425.96C188.321 425.444 188.724 425.02 189.222 424.745C189.719 424.47 190.287 424.357 190.849 424.42C191.411 424.484 191.941 424.722 192.367 425.102C192.794 425.482 193.097 425.986 193.237 426.547C193.376 427.108 193.345 427.699 193.147 428.242C192.95 428.784 192.596 429.252 192.132 429.583C191.668 429.914 191.116 430.092 190.551 430.094C190.211 430.118 189.871 430.075 189.548 429.964C189.225 429.854 188.927 429.68 188.67 429.451C188.414 429.223 188.204 428.944 188.053 428.632C187.901 428.321 187.812 427.981 187.789 427.634Z" fill="white" stroke="white" stroke-width="0.137185" stroke-miterlimit="10" stroke-linecap="round"/>
<path d="M232.082 478.517C234.231 478.517 235.973 476.841 235.973 474.772C235.973 472.704 234.231 471.028 232.082 471.028C229.933 471.028 228.191 472.704 228.191 474.772C228.191 476.841 229.933 478.517 232.082 478.517Z" fill="white" stroke="white" stroke-width="0.685926" stroke-miterlimit="10" stroke-linecap="round"/>
<path d="M368.242 386.241L357.823 396.979L356.909 396.061L350.74 389.71" stroke="white" stroke-width="0.342963" stroke-miterlimit="10"/>
<path d="M371.757 386.241C371.9 385.501 371.818 384.735 371.521 384.045C371.224 383.355 370.727 382.776 370.097 382.385C369.467 381.995 368.735 381.812 368 381.862C367.266 381.913 366.564 382.193 365.99 382.666C365.417 383.138 364.999 383.78 364.794 384.504C364.589 385.228 364.607 385.999 364.845 386.713C365.084 387.426 365.53 388.047 366.125 388.491C366.72 388.935 367.434 389.182 368.17 389.196C368.596 389.244 369.026 389.206 369.437 389.084C369.848 388.961 370.231 388.757 370.564 388.482C370.898 388.207 371.174 387.868 371.379 387.483C371.584 387.099 371.712 386.676 371.757 386.241Z" fill="white" stroke="white" stroke-width="0.342963" stroke-miterlimit="10" stroke-linecap="round"/>
<path d="M385.816 393.271L361.589 376.31L359.097 378.935H359.043L337.883 378.898" stroke="white" stroke-width="0.685926" stroke-miterlimit="10"/>
<path d="M363.042 391.601L377.603 406.598" stroke="white" stroke-width="0.137185" stroke-miterlimit="10"/>
<path d="M379.844 406.414C379.925 405.837 379.831 405.248 379.576 404.727C379.32 404.205 378.915 403.776 378.415 403.497C377.915 403.217 377.344 403.101 376.777 403.163C376.211 403.225 375.676 403.463 375.245 403.844C374.814 404.225 374.507 404.732 374.366 405.297C374.224 405.862 374.254 406.458 374.452 407.005C374.649 407.552 375.006 408.023 375.473 408.358C375.94 408.692 376.495 408.872 377.065 408.874C377.752 408.924 378.431 408.694 378.952 408.232C379.473 407.771 379.794 407.117 379.844 406.414Z" fill="white" stroke="white" stroke-width="0.137185" stroke-miterlimit="10" stroke-linecap="round"/>
<path d="M404.824 358.615L377.137 383.597" stroke="white" stroke-width="0.685926" stroke-miterlimit="10"/>
<path d="M404.824 361.955C406.973 361.955 408.715 360.279 408.715 358.211C408.715 356.143 406.973 354.466 404.824 354.466C402.675 354.466 400.933 356.143 400.933 358.211C400.933 360.279 402.675 361.955 404.824 361.955Z" fill="white" stroke="white" stroke-width="0.685926" stroke-miterlimit="10" stroke-linecap="round"/>
<path d="M372.528 337.266L382.731 347.766L359.366 368.912H338.206" stroke="white" stroke-width="0.685926" stroke-miterlimit="10"/>
<path d="M366.377 366.691C368.526 366.691 370.268 365.015 370.268 362.947C370.268 360.879 368.526 359.202 366.377 359.202C364.228 359.202 362.486 360.879 362.486 362.947C362.486 365.015 364.228 366.691 366.377 366.691Z" fill="white" stroke="white" stroke-width="0.685926" stroke-miterlimit="10" stroke-linecap="round"/>
<path d="M373.263 342.406C375.412 342.406 377.155 340.73 377.155 338.661C377.155 336.593 375.412 334.917 373.263 334.917C371.114 334.917 369.372 336.593 369.372 338.661C369.372 340.73 371.114 342.406 373.263 342.406Z" fill="white" stroke="white" stroke-width="0.685926" stroke-miterlimit="10" stroke-linecap="round"/>
<path d="M382.158 362.378L376.007 356.026" stroke="white" stroke-width="0.342963" stroke-miterlimit="10"/>
<path d="M386.712 363.332C386.856 362.593 386.774 361.826 386.477 361.136C386.18 360.447 385.682 359.867 385.053 359.477C384.423 359.086 383.691 358.904 382.956 358.954C382.221 359.004 381.519 359.285 380.946 359.757C380.372 360.23 379.955 360.872 379.75 361.596C379.545 362.32 379.563 363.091 379.801 363.804C380.039 364.517 380.486 365.138 381.081 365.583C381.676 366.027 382.39 366.273 383.126 366.287C383.984 366.38 384.843 366.121 385.515 365.567C386.187 365.014 386.618 364.21 386.712 363.332Z" fill="white" stroke="white" stroke-width="0.342963" stroke-miterlimit="10" stroke-linecap="round"/>
<path d="M376.832 373.887L371.721 379.155" stroke="white" stroke-width="0.137185" stroke-miterlimit="10"/>
<path d="M379.593 373.575C379.678 372.997 379.587 372.406 379.333 371.882C379.08 371.358 378.676 370.926 378.175 370.644C377.675 370.362 377.102 370.244 376.534 370.305C375.966 370.366 375.43 370.603 374.998 370.986C374.566 371.368 374.258 371.876 374.116 372.442C373.975 373.009 374.006 373.606 374.206 374.154C374.405 374.702 374.764 375.174 375.233 375.507C375.703 375.839 376.261 376.017 376.832 376.016C377.513 376.062 378.184 375.832 378.701 375.375C379.218 374.918 379.538 374.271 379.593 373.575Z" fill="white" stroke="white" stroke-width="0.137185" stroke-miterlimit="10" stroke-linecap="round"/>
<path d="M341.666 401.366L356.21 416.363" stroke="white" stroke-width="0.137185" stroke-miterlimit="10"/>
<path d="M358.971 416.381C359.055 415.803 358.965 415.212 358.711 414.688C358.458 414.165 358.054 413.733 357.553 413.451C357.053 413.169 356.48 413.05 355.912 413.111C355.344 413.172 354.808 413.41 354.376 413.792C353.943 414.174 353.636 414.683 353.494 415.249C353.353 415.815 353.384 416.413 353.583 416.96C353.783 417.508 354.142 417.98 354.611 418.313C355.081 418.646 355.638 418.824 356.21 418.823C356.891 418.868 357.562 418.638 358.079 418.181C358.596 417.724 358.916 417.078 358.971 416.381Z" fill="white" stroke="white" stroke-width="0.137185" stroke-miterlimit="10" stroke-linecap="round"/>
<path d="M364.44 328.052L349.951 342.975L359.993 353.328L345.45 368.325" stroke="white" stroke-width="0.342963" stroke-miterlimit="10"/>
<path d="M367.973 327.85C368.117 327.11 368.034 326.344 367.737 325.654C367.44 324.964 366.943 324.385 366.313 323.994C365.683 323.604 364.951 323.421 364.217 323.471C363.482 323.522 362.78 323.802 362.206 324.275C361.633 324.747 361.215 325.389 361.01 326.113C360.806 326.837 360.824 327.608 361.062 328.322C361.3 329.035 361.747 329.656 362.342 330.1C362.936 330.545 363.65 330.791 364.387 330.805C365.245 330.898 366.104 330.639 366.776 330.085C367.448 329.531 367.878 328.728 367.973 327.85Z" fill="white" stroke="white" stroke-width="0.342963" stroke-miterlimit="10" stroke-linecap="round"/>
<path d="M404.268 377.411L386.21 393.712" stroke="white" stroke-width="0.342963" stroke-miterlimit="10"/>
<path d="M385.816 397.016C387.965 397.016 389.707 395.339 389.707 393.271C389.707 391.203 387.965 389.526 385.816 389.526C383.667 389.526 381.925 391.203 381.925 393.271C381.925 395.339 383.667 397.016 385.816 397.016Z" fill="white" stroke="white" stroke-width="0.685926" stroke-miterlimit="10" stroke-linecap="round"/>
<path d="M407.783 377.521C407.93 376.782 407.851 376.015 407.557 375.323C407.263 374.631 406.768 374.049 406.139 373.655C405.51 373.262 404.778 373.076 404.043 373.124C403.307 373.172 402.604 373.45 402.028 373.921C401.453 374.392 401.033 375.034 400.826 375.758C400.62 376.482 400.636 377.254 400.873 377.968C401.11 378.683 401.556 379.305 402.151 379.75C402.745 380.196 403.46 380.443 404.196 380.458C405.052 380.551 405.908 380.295 406.58 379.745C407.251 379.195 407.684 378.396 407.783 377.521Z" fill="white" stroke="white" stroke-width="0.342963" stroke-miterlimit="10" stroke-linecap="round"/>
<path d="M395.23 385.763L409.791 400.76" stroke="white" stroke-width="0.137185" stroke-miterlimit="10"/>
<path d="M412.23 400.779C412.314 400.2 412.224 399.61 411.97 399.086C411.717 398.562 411.313 398.13 410.812 397.848C410.312 397.566 409.739 397.448 409.171 397.509C408.603 397.57 408.067 397.807 407.635 398.189C407.203 398.571 406.895 399.08 406.753 399.646C406.612 400.213 406.643 400.81 406.842 401.358C407.042 401.905 407.401 402.377 407.87 402.71C408.34 403.043 408.897 403.221 409.469 403.22C410.15 403.266 410.821 403.035 411.338 402.579C411.855 402.122 412.175 401.475 412.23 400.779Z" fill="white" stroke="white" stroke-width="0.137185" stroke-miterlimit="10" stroke-linecap="round"/>
<path d="M351.96 323.83L360.244 332.384" stroke="white" stroke-width="0.137185" stroke-miterlimit="10"/>
<path d="M367.238 316.304L363.257 312.192L351.96 323.83" stroke="white" stroke-width="0.137185" stroke-miterlimit="10"/>
<path d="M370.376 316.102C370.46 315.524 370.37 314.934 370.117 314.411C369.864 313.887 369.461 313.456 368.962 313.173C368.463 312.891 367.891 312.771 367.324 312.831C366.756 312.89 366.22 313.126 365.788 313.506C365.355 313.887 365.046 314.393 364.902 314.958C364.758 315.523 364.787 316.12 364.984 316.668C365.18 317.216 365.536 317.689 366.003 318.024C366.47 318.359 367.026 318.54 367.597 318.543C368.28 318.589 368.953 318.359 369.473 317.903C369.992 317.446 370.317 316.8 370.376 316.102Z" fill="white" stroke="white" stroke-width="0.137185" stroke-miterlimit="10" stroke-linecap="round"/>
<path d="M403.82 343.709L388.631 358.229L381.261 350.501" stroke="white" stroke-width="0.342963" stroke-miterlimit="10"/>
<path d="M407.353 343.728C407.5 342.989 407.421 342.221 407.127 341.529C406.833 340.837 406.338 340.255 405.709 339.862C405.08 339.468 404.348 339.283 403.612 339.33C402.877 339.378 402.173 339.656 401.598 340.128C401.022 340.599 400.603 341.24 400.396 341.964C400.189 342.688 400.205 343.46 400.442 344.175C400.679 344.889 401.125 345.511 401.72 345.957C402.315 346.402 403.029 346.65 403.766 346.665C404.621 346.758 405.478 346.501 406.149 345.951C406.821 345.401 407.253 344.602 407.353 343.728Z" fill="white" stroke="white" stroke-width="0.342963" stroke-miterlimit="10" stroke-linecap="round"/>
<path d="M386.784 333.063L394.979 341.507L383.664 353.163" stroke="white" stroke-width="0.137185" stroke-miterlimit="10"/>
<path d="M389.474 333.026C389.554 332.448 389.46 331.858 389.204 331.337C388.948 330.815 388.542 330.386 388.041 330.107C387.54 329.828 386.967 329.712 386.4 329.776C385.833 329.839 385.299 330.079 384.868 330.462C384.438 330.845 384.132 331.354 383.992 331.92C383.853 332.487 383.885 333.083 384.086 333.63C384.287 334.176 384.646 334.647 385.115 334.979C385.585 335.311 386.142 335.488 386.712 335.486C387.052 335.511 387.392 335.467 387.715 335.357C388.038 335.246 388.336 335.072 388.593 334.843C388.849 334.615 389.059 334.337 389.21 334.025C389.362 333.713 389.451 333.374 389.474 333.026Z" fill="white" stroke="white" stroke-width="0.137185" stroke-miterlimit="10" stroke-linecap="round"/>
<path d="M375.487 425.486L381.333 420.457L359.868 401.072L359.043 400.448H337.883" stroke="white" stroke-width="0.685926" stroke-miterlimit="10"/>
<path d="M366.072 410.159C368.221 410.159 369.964 408.482 369.964 406.414C369.964 404.346 368.221 402.669 366.072 402.669C363.923 402.669 362.181 404.346 362.181 406.414C362.181 408.482 363.923 410.159 366.072 410.159Z" fill="white" stroke="white" stroke-width="0.685926" stroke-miterlimit="10" stroke-linecap="round"/>
<path d="M375.72 429.231C377.869 429.231 379.611 427.554 379.611 425.486C379.611 423.418 377.869 421.741 375.72 421.741C373.571 421.741 371.829 423.418 371.829 425.486C371.829 427.554 373.571 429.231 375.72 429.231Z" fill="white" stroke="white" stroke-width="0.685926" stroke-miterlimit="10" stroke-linecap="round"/>
<path d="M392.791 415.005L386.659 408.654L377.406 417.024" stroke="white" stroke-width="0.342963" stroke-miterlimit="10"/>
<path d="M396.306 415.023C396.454 414.284 396.375 413.516 396.081 412.824C395.786 412.133 395.291 411.551 394.662 411.157C394.034 410.764 393.302 410.578 392.566 410.626C391.831 410.673 391.127 410.952 390.552 411.423C389.976 411.894 389.556 412.535 389.35 413.26C389.143 413.984 389.159 414.755 389.396 415.47C389.633 416.184 390.079 416.806 390.674 417.252C391.269 417.698 391.983 417.945 392.72 417.96C393.575 418.053 394.432 417.797 395.103 417.247C395.775 416.697 396.207 415.898 396.306 415.023Z" fill="white" stroke="white" stroke-width="0.342963" stroke-miterlimit="10" stroke-linecap="round"/>
<path d="M373.353 412.692L356.21 429.231" stroke="white" stroke-width="0.342963" stroke-miterlimit="10"/>
<path d="M352.408 429.8C352.485 430.494 352.81 431.135 353.319 431.6C353.828 432.065 354.487 432.322 355.169 432.322C355.852 432.322 356.511 432.065 357.02 431.6C357.529 431.135 357.854 430.494 357.931 429.8" fill="white"/>
<path d="M352.408 429.8C352.485 430.494 352.81 431.135 353.319 431.6C353.828 432.065 354.487 432.322 355.169 432.322C355.852 432.322 356.511 432.065 357.02 431.6C357.529 431.135 357.854 430.494 357.931 429.8" stroke="white" stroke-width="0.342963" stroke-miterlimit="10" stroke-linecap="round"/>
<path d="M357.931 429.8C357.825 429.128 357.489 428.517 356.983 428.076C356.477 427.635 355.834 427.393 355.169 427.393C354.505 427.393 353.862 427.635 353.356 428.076C352.85 428.517 352.514 429.128 352.408 429.8" fill="white"/>
<path d="M357.931 429.8C357.825 429.128 357.489 428.517 356.983 428.076C356.477 427.635 355.834 427.393 355.169 427.393C354.505 427.393 353.862 427.635 353.356 428.076C352.85 428.517 352.514 429.128 352.408 429.8" stroke="white" stroke-width="0.342963" stroke-miterlimit="10" stroke-linecap="round"/>
<path d="M396.719 402.284L388.434 410.82" stroke="white" stroke-width="0.137185" stroke-miterlimit="10"/>
<path d="M399.57 402.284C399.65 401.707 399.556 401.118 399.301 400.597C399.046 400.075 398.641 399.646 398.141 399.367C397.641 399.087 397.069 398.971 396.503 399.033C395.936 399.095 395.402 399.332 394.971 399.714C394.54 400.095 394.233 400.602 394.091 401.167C393.949 401.732 393.979 402.328 394.177 402.875C394.375 403.421 394.731 403.893 395.198 404.227C395.665 404.561 396.221 404.742 396.79 404.744C397.478 404.794 398.156 404.564 398.677 404.102C399.198 403.641 399.519 402.987 399.57 402.284Z" fill="white" stroke="white" stroke-width="0.137185" stroke-miterlimit="10" stroke-linecap="round"/>
<path d="M345.665 428.552L353.842 420.034L359.437 425.798" stroke="white" stroke-width="0.137185" stroke-miterlimit="10"/>
<path d="M377.137 439.272L362.181 423.852" stroke="white" stroke-width="0.342963" stroke-miterlimit="10"/>
<path d="M379.844 439.272C379.925 438.694 379.831 438.106 379.576 437.584C379.32 437.063 378.915 436.634 378.415 436.354C377.915 436.075 377.344 435.958 376.777 436.02C376.211 436.082 375.676 436.32 375.245 436.701C374.814 437.083 374.507 437.59 374.366 438.155C374.224 438.72 374.254 439.315 374.452 439.862C374.649 440.409 375.006 440.881 375.473 441.215C375.94 441.549 376.495 441.729 377.065 441.731C377.752 441.782 378.431 441.551 378.952 441.09C379.473 440.629 379.794 439.975 379.844 439.272Z" fill="white" stroke="white" stroke-width="0.342963" stroke-miterlimit="10" stroke-linecap="round"/>
<path d="M382.05 413.096L396.432 427.909" stroke="white" stroke-width="0.137185" stroke-miterlimit="10"/>
<path d="M399.086 427.927C399.17 427.35 399.079 426.76 398.827 426.237C398.574 425.713 398.171 425.281 397.672 424.999C397.173 424.717 396.601 424.597 396.034 424.657C395.466 424.716 394.93 424.952 394.497 425.332C394.064 425.712 393.755 426.219 393.612 426.784C393.468 427.349 393.496 427.945 393.693 428.493C393.89 429.041 394.246 429.515 394.713 429.85C395.18 430.185 395.736 430.366 396.306 430.369C396.99 430.42 397.666 430.191 398.187 429.734C398.708 429.277 399.031 428.627 399.086 427.927Z" fill="white" stroke="white" stroke-width="0.137185" stroke-miterlimit="10" stroke-linecap="round"/>
<path d="M349.306 389.196L337.883 389.178" stroke="white" stroke-width="0.685926" stroke-miterlimit="10"/>
<path d="M348.929 393.271C351.078 393.271 352.82 391.595 352.82 389.526C352.82 387.458 351.078 385.782 348.929 385.782C346.78 385.782 345.038 387.458 345.038 389.526C345.038 391.595 346.78 393.271 348.929 393.271Z" fill="white" stroke="white" stroke-width="0.685926" stroke-miterlimit="10" stroke-linecap="round"/>
<path d="M328.11 417.703C328.029 418.281 328.123 418.871 328.379 419.393C328.636 419.914 329.041 420.344 329.543 420.623C330.044 420.902 330.616 421.017 331.183 420.954C331.75 420.89 332.285 420.65 332.715 420.267C333.146 419.884 333.451 419.375 333.591 418.809C333.731 418.243 333.698 417.646 333.498 417.1C333.297 416.553 332.938 416.082 332.468 415.75C331.999 415.419 331.442 415.242 330.871 415.243C330.187 415.198 329.513 415.431 328.996 415.891C328.479 416.352 328.16 417.003 328.11 417.703Z" fill="white" stroke="white" stroke-width="0.137185" stroke-miterlimit="10" stroke-linecap="round"/>
<path d="M342.545 428.24C342.461 428.818 342.552 429.409 342.805 429.932C343.059 430.456 343.463 430.888 343.963 431.17C344.463 431.452 345.036 431.571 345.604 431.51C346.172 431.449 346.708 431.211 347.14 430.829C347.573 430.447 347.88 429.938 348.022 429.372C348.164 428.806 348.133 428.208 347.933 427.661C347.733 427.113 347.375 426.641 346.905 426.308C346.436 425.975 345.878 425.797 345.307 425.798C344.625 425.752 343.954 425.983 343.437 426.44C342.921 426.896 342.6 427.543 342.545 428.24Z" fill="white" stroke="white" stroke-width="0.137185" stroke-miterlimit="10" stroke-linecap="round"/>
<path d="M343.101 350.391L353.143 360.744" stroke="white" stroke-width="0.342963" stroke-miterlimit="10"/>
<path d="M346.616 350.391C346.759 349.652 346.677 348.885 346.38 348.195C346.083 347.506 345.586 346.926 344.956 346.536C344.326 346.145 343.594 345.963 342.859 346.013C342.124 346.063 341.423 346.343 340.849 346.816C340.275 347.289 339.858 347.931 339.653 348.655C339.448 349.379 339.466 350.15 339.704 350.863C339.942 351.576 340.389 352.197 340.984 352.642C341.579 353.086 342.293 353.332 343.029 353.346C343.455 353.395 343.885 353.357 344.296 353.234C344.707 353.112 345.09 352.907 345.423 352.632C345.756 352.358 346.033 352.018 346.238 351.634C346.443 351.249 346.571 350.827 346.616 350.391Z" fill="white" stroke="white" stroke-width="0.342963" stroke-miterlimit="10" stroke-linecap="round"/>
<path d="M227.24 449.386L241.102 463.924" stroke="white" stroke-width="0.342963" stroke-miterlimit="10"/>
<path d="M223.833 449.386C223.686 450.125 223.765 450.893 224.059 451.585C224.353 452.276 224.848 452.858 225.477 453.252C226.106 453.645 226.838 453.831 227.573 453.783C228.309 453.736 229.012 453.457 229.588 452.986C230.163 452.515 230.583 451.873 230.79 451.149C230.996 450.425 230.98 449.654 230.743 448.939C230.506 448.225 230.06 447.602 229.465 447.157C228.871 446.711 228.156 446.464 227.42 446.449C226.564 446.356 225.708 446.612 225.036 447.162C224.365 447.712 223.932 448.511 223.833 449.386Z" fill="white" stroke="white" stroke-width="0.342963" stroke-miterlimit="10" stroke-linecap="round"/>
<path d="M244.868 447.514L234.915 456.985" stroke="white" stroke-width="0.137185" stroke-miterlimit="10"/>
<path d="M242.088 447.807C242.008 448.385 242.102 448.975 242.358 449.497C242.614 450.018 243.02 450.448 243.521 450.727C244.022 451.006 244.595 451.121 245.162 451.058C245.729 450.994 246.264 450.755 246.694 450.371C247.124 449.988 247.43 449.479 247.57 448.913C247.71 448.347 247.677 447.75 247.476 447.204C247.276 446.657 246.916 446.186 246.447 445.855C245.978 445.523 245.42 445.346 244.85 445.347C244.51 445.323 244.17 445.366 243.847 445.477C243.524 445.587 243.226 445.761 242.97 445.99C242.713 446.218 242.503 446.497 242.352 446.809C242.2 447.12 242.111 447.46 242.088 447.807Z" fill="white" stroke="white" stroke-width="0.137185" stroke-miterlimit="10" stroke-linecap="round"/>
<path d="M341.003 463.355L348.23 455.902" stroke="white" stroke-width="0.137185" stroke-miterlimit="10"/>
<path d="M345.45 455.921C345.37 456.498 345.464 457.087 345.719 457.608C345.974 458.129 346.379 458.558 346.879 458.838C347.379 459.117 347.951 459.234 348.517 459.172C349.084 459.11 349.618 458.872 350.049 458.491C350.48 458.109 350.787 457.602 350.929 457.037C351.071 456.473 351.041 455.877 350.843 455.33C350.645 454.783 350.289 454.311 349.822 453.977C349.355 453.643 348.799 453.463 348.23 453.461C347.544 453.415 346.868 453.648 346.348 454.108C345.827 454.568 345.505 455.219 345.45 455.921Z" fill="white" stroke="white" stroke-width="0.137185" stroke-miterlimit="10" stroke-linecap="round"/>
<path d="M368.188 430.534L354.327 443.897L354.291 443.861L346.096 435.417" stroke="white" stroke-width="0.342963" stroke-miterlimit="10"/>
<path d="M343.316 435.398C343.236 435.977 343.33 436.566 343.586 437.088C343.842 437.61 344.248 438.039 344.749 438.318C345.25 438.597 345.823 438.712 346.39 438.649C346.957 438.585 347.492 438.346 347.922 437.963C348.352 437.579 348.658 437.07 348.798 436.504C348.938 435.938 348.905 435.342 348.704 434.795C348.504 434.248 348.145 433.778 347.675 433.446C347.206 433.114 346.648 432.937 346.078 432.939C345.394 432.893 344.72 433.126 344.202 433.587C343.685 434.047 343.367 434.699 343.316 435.398Z" fill="white" stroke="white" stroke-width="0.137185" stroke-miterlimit="10" stroke-linecap="round"/>
<path d="M359.67 438.574L374.232 453.553" stroke="white" stroke-width="0.137185" stroke-miterlimit="10"/>
<path d="M376.993 453.571C377.077 452.994 376.987 452.404 376.734 451.88C376.481 451.357 376.078 450.925 375.579 450.642C375.08 450.36 374.508 450.241 373.941 450.3C373.373 450.36 372.837 450.595 372.405 450.976C371.972 451.356 371.663 451.862 371.519 452.427C371.375 452.993 371.404 453.589 371.601 454.137C371.797 454.685 372.153 455.158 372.62 455.494C373.087 455.829 373.643 456.01 374.214 456.012C374.898 456.063 375.574 455.835 376.095 455.378C376.615 454.92 376.938 454.271 376.993 453.571Z" fill="white" stroke="white" stroke-width="0.137185" stroke-miterlimit="10" stroke-linecap="round"/>
<path d="M362.109 456.031L369.336 448.578" stroke="white" stroke-width="0.137185" stroke-miterlimit="10"/>
<path d="M359.33 456.031C359.246 456.609 359.336 457.2 359.59 457.724C359.843 458.248 360.247 458.68 360.748 458.961C361.248 459.243 361.821 459.362 362.389 459.301C362.957 459.24 363.493 459.002 363.925 458.62C364.357 458.238 364.665 457.73 364.807 457.163C364.948 456.597 364.917 456 364.718 455.452C364.518 454.904 364.159 454.432 363.69 454.099C363.22 453.766 362.663 453.588 362.091 453.589C361.41 453.544 360.739 453.774 360.222 454.231C359.705 454.688 359.385 455.334 359.33 456.031Z" fill="white" stroke="white" stroke-width="0.137185" stroke-miterlimit="10" stroke-linecap="round"/>
<path d="M230.97 453.901L221.018 463.373" stroke="white" stroke-width="0.137185" stroke-miterlimit="10"/>
<path d="M217.844 463.373C217.763 463.951 217.857 464.541 218.113 465.063C218.37 465.584 218.775 466.014 219.277 466.293C219.778 466.572 220.35 466.687 220.917 466.624C221.484 466.56 222.019 466.321 222.449 465.937C222.88 465.554 223.185 465.045 223.325 464.479C223.465 463.913 223.432 463.316 223.232 462.77C223.031 462.223 222.672 461.752 222.202 461.421C221.733 461.089 221.176 460.912 220.605 460.913C219.921 460.868 219.247 461.101 218.73 461.562C218.213 462.022 217.894 462.673 217.844 463.373Z" fill="white" stroke="white" stroke-width="0.137185" stroke-miterlimit="10" stroke-linecap="round"/>
<path d="M344.518 459.592L356.048 471.542L363.329 464.089" stroke="white" stroke-width="0.137185" stroke-miterlimit="10"/>
<path d="M360.549 463.906C360.469 464.484 360.563 465.073 360.819 465.595C361.075 466.117 361.481 466.546 361.982 466.825C362.483 467.104 363.056 467.22 363.623 467.156C364.19 467.092 364.725 466.853 365.155 466.47C365.585 466.086 365.891 465.577 366.031 465.011C366.171 464.445 366.138 463.849 365.937 463.302C365.737 462.755 365.378 462.285 364.908 461.953C364.439 461.621 363.881 461.444 363.311 461.446C362.971 461.421 362.631 461.465 362.308 461.575C361.985 461.685 361.687 461.86 361.431 462.088C361.174 462.317 360.964 462.595 360.813 462.907C360.662 463.219 360.572 463.558 360.549 463.906Z" fill="white" stroke="white" stroke-width="0.137185" stroke-miterlimit="10" stroke-linecap="round"/>
<path d="M240.707 427.101L213.522 455.131" stroke="white" stroke-width="0.137185" stroke-miterlimit="10"/>
<path d="M210.76 455.131C210.684 455.705 210.78 456.289 211.036 456.805C211.292 457.321 211.696 457.745 212.193 458.02C212.691 458.295 213.258 458.408 213.82 458.345C214.382 458.281 214.912 458.043 215.339 457.663C215.765 457.283 216.069 456.779 216.208 456.218C216.347 455.657 216.316 455.066 216.119 454.523C215.921 453.981 215.567 453.513 215.103 453.182C214.639 452.851 214.087 452.673 213.522 452.672C212.838 452.626 212.164 452.859 211.647 453.32C211.129 453.78 210.811 454.431 210.76 455.131Z" fill="white" stroke="white" stroke-width="0.137185" stroke-miterlimit="10" stroke-linecap="round"/>
<path d="M366.072 451.882L380.615 466.879" stroke="white" stroke-width="0.137185" stroke-miterlimit="10"/>
<path d="M383.431 466.879C383.511 466.301 383.417 465.712 383.161 465.19C382.905 464.668 382.499 464.239 381.998 463.96C381.497 463.681 380.924 463.565 380.357 463.629C379.79 463.692 379.255 463.932 378.825 464.315C378.395 464.699 378.089 465.207 377.949 465.774C377.809 466.34 377.842 466.936 378.043 467.483C378.243 468.029 378.603 468.5 379.072 468.832C379.541 469.164 380.099 469.341 380.669 469.339C381.353 469.384 382.027 469.152 382.545 468.691C383.062 468.23 383.38 467.579 383.431 466.879Z" fill="white" stroke="white" stroke-width="0.137185" stroke-miterlimit="10" stroke-linecap="round"/>
<path d="M380.275 321.664L354.614 348.078" stroke="white" stroke-width="0.342963" stroke-miterlimit="10"/>
<path d="M383.789 321.664C383.933 320.924 383.851 320.158 383.554 319.468C383.257 318.778 382.759 318.199 382.13 317.808C381.5 317.418 380.768 317.235 380.033 317.285C379.298 317.336 378.596 317.616 378.023 318.089C377.449 318.561 377.032 319.203 376.827 319.927C376.622 320.651 376.64 321.422 376.878 322.136C377.116 322.849 377.563 323.47 378.158 323.914C378.753 324.358 379.467 324.605 380.203 324.619C381.061 324.712 381.92 324.453 382.592 323.899C383.264 323.345 383.695 322.542 383.789 321.664Z" fill="white" stroke="white" stroke-width="0.342963" stroke-miterlimit="10" stroke-linecap="round"/>
<path d="M280.248 183.644C278.294 188.794 274.605 193.058 269.847 195.667C262.727 200.009 254.449 201.937 246.195 201.174C241.23 200.772 236.491 198.881 232.571 195.737C228.651 192.593 225.724 188.335 224.156 183.497C223.196 179.553 223.569 175.393 225.214 171.694C227.084 167.381 230.217 163.769 234.18 161.359C241.278 157.029 249.663 155.464 257.797 156.954C273.147 160.001 284.319 174.319 280.248 183.644Z" fill="white"/>
<path d="M252.363 190.399C260.534 190.399 267.158 185.221 267.158 178.834C267.158 172.447 260.534 167.27 252.363 167.27C244.193 167.27 237.569 172.447 237.569 178.834C237.569 185.221 244.193 190.399 252.363 190.399Z" fill="#048ABF" stroke="white" stroke-miterlimit="10" stroke-linecap="round"/>
<g style="mix-blend-mode:saturation">
<path d="M336.43 380.183V377.723H309.603V369.702H336.43V367.224H309.603V355.641H306.089V367.224H295.383V355.641H291.868V367.224H265.006V369.702H291.868V377.723H265.006V380.183H291.868V388.205H265.006V390.664H291.868V398.686H265.006V401.164H291.868V414.399H295.383V401.164H306.089V414.399H309.603V401.164H336.43V398.686H309.603V390.664H336.43V388.205H309.603V380.183" fill="#0D0D0D"/>
</g>
<g style="mix-blend-mode:saturation">
<path d="M277.289 380.183V388.205H250.427V390.664H277.289V398.686H250.427V401.164H277.289V414.399H280.804V401.164H291.51V414.399H295.024V401.164H321.833V398.686H295.024V390.664H321.833V388.205H295.024V380.183H321.833V377.723H295.024V369.702H321.833V367.224H295.024V355.641H291.51V367.224H280.804V355.641H277.289V367.224H250.427V369.702H277.289V377.723H250.427V380.183" fill="#0D0D0D"/>
</g>
<path d="M266.871 365.7V405.863C266.871 408.452 269.56 410.563 272.896 410.563H318.641C321.959 410.563 324.649 408.452 324.649 405.863V365.7C324.649 363.093 321.959 360.983 318.641 360.983H272.824C269.489 361.001 266.871 363.093 266.871 365.7Z" fill="#025373" stroke="#F6F6F6" stroke-width="0.342963" stroke-miterlimit="10"/>
</svg>
