<svg width="25" height="25" viewBox="0 0 25 25" fill="none" xmlns="http://www.w3.org/2000/svg">
<g clip-path="url(#clip0_24_21781)">
<path d="M22.631 6.09514C21.8676 6.43283 21.058 6.65461 20.229 6.75314C21.1028 6.23057 21.7568 5.40815 22.069 4.43914C21.249 4.92714 20.35 5.26914 19.413 5.45414C18.7837 4.78071 17.9494 4.3341 17.04 4.18372C16.1306 4.03334 15.197 4.18763 14.3843 4.62259C13.5716 5.05755 12.9254 5.74882 12.5462 6.58893C12.1669 7.42904 12.0758 8.37092 12.287 9.26814C10.6242 9.18479 8.99738 8.75266 7.51233 7.9998C6.02729 7.24694 4.71717 6.19018 3.66705 4.89814C3.29534 5.53659 3.1 6.26236 3.10105 7.00114C3.10105 8.45114 3.83905 9.73214 4.96105 10.4821C4.29706 10.4612 3.64768 10.2819 3.06705 9.95914V10.0111C3.06725 10.9768 3.40142 11.9128 4.01289 12.6602C4.62437 13.4076 5.47553 13.9206 6.42205 14.1121C5.80566 14.2792 5.15935 14.3038 4.53205 14.1841C4.79891 15.0154 5.31905 15.7423 6.01964 16.2632C6.72022 16.7842 7.56617 17.0729 8.43905 17.0891C7.57153 17.7705 6.57822 18.2741 5.51593 18.5713C4.45363 18.8685 3.34317 18.9534 2.24805 18.8211C4.15974 20.0506 6.38514 20.7033 8.65805 20.7011C16.351 20.7011 20.558 14.3281 20.558 8.80114C20.558 8.62114 20.553 8.43914 20.545 8.26114C21.3639 7.6693 22.0706 6.93616 22.632 6.09614L22.631 6.09514Z" fill="#1FABE2"/>
</g>
<defs>
<clipPath id="clip0_24_21781">
<rect width="24" height="24" fill="white" transform="translate(0.46875 0.439209)"/>
</clipPath>
</defs>
</svg>
